; NON-PLATED HOLES START AT T1
; THROUGH (PLATED) HOLES START AT T100
M48
INCH
T1C0.086614
T100C0.031497
T101C0.035000
T102C0.036000
T103C0.040000
T104C0.015748
%
T1
X015839Y022260
X015839Y001260
X001228Y022260
X001228Y001260
T100
X001839Y007664
X001839Y008649
T101
X001839Y017982
X001839Y013982
T102
X010228Y008649
X004228Y011649
X010228Y012649
X010228Y005649
X004228Y019649
X004228Y016649
X004228Y009649
X010228Y017649
X004228Y013649
X004228Y006649
X010228Y014649
X010228Y007649
X004228Y010649
X010228Y011649
X004228Y018649
X010228Y019649
X004228Y015649
X004228Y008649
X010228Y016649
X010228Y009649
X004228Y012649
X004228Y005649
X010228Y013649
X010228Y006649
X010228Y010649
X004228Y017649
X010228Y018649
X004228Y014649
X004228Y007649
X010228Y015649
T103
X008117Y002049
X013228Y026264
X003983Y002049
X005361Y002049
X010128Y002049
X011506Y002049
X006739Y002049
T104
X014228Y005649
T00
M30
