G04 MADE WITH FRITZING*
G04 WWW.FRITZING.ORG*
G04 DOUBLE SIDED*
G04 HOLES PLATED*
G04 CONTOUR ON CENTER OF CONTOUR VECTOR*
%ASAXBY*%
%FSLAX23Y23*%
%MOIN*%
%OFA0B0*%
%SFA1.0B1.0*%
%ADD10C,0.088000*%
%ADD11C,0.072992*%
%ADD12C,0.090000*%
%ADD13C,0.085000*%
%ADD14C,0.096614*%
%ADD15C,0.049370*%
%ADD16C,0.080000*%
%ADD17C,0.074000*%
%ADD18R,0.088000X0.088000*%
%ADD19R,0.072992X0.072992*%
%ADD20R,0.090000X0.090000*%
%ADD21R,0.079972X0.080000*%
%ADD22R,0.074000X0.022000*%
%LNMASK1*%
G90*
G70*
G54D10*
X1323Y2165D03*
X1323Y2065D03*
X1323Y1965D03*
X1323Y1865D03*
X1323Y1765D03*
X1323Y1665D03*
X1323Y1565D03*
X1323Y1465D03*
G54D11*
X184Y766D03*
X184Y865D03*
G54D12*
X812Y205D03*
X674Y205D03*
X536Y205D03*
X398Y205D03*
X1151Y205D03*
X1013Y205D03*
G54D13*
X184Y1398D03*
X184Y1798D03*
G54D14*
X1584Y126D03*
X1584Y2226D03*
X123Y126D03*
X123Y2226D03*
G54D15*
X1423Y565D03*
G54D16*
X423Y1965D03*
X423Y1865D03*
X423Y1765D03*
X423Y1665D03*
X423Y1565D03*
X423Y1465D03*
X423Y1365D03*
X423Y1265D03*
X423Y1165D03*
X423Y1065D03*
X423Y965D03*
X423Y865D03*
X423Y765D03*
X423Y665D03*
X423Y565D03*
X1023Y1965D03*
X1023Y1865D03*
X1023Y1765D03*
X1023Y1665D03*
X1023Y1565D03*
X1023Y1465D03*
X1023Y1365D03*
X1023Y1265D03*
X1023Y1165D03*
X1023Y1065D03*
X1023Y965D03*
X1023Y865D03*
X1023Y765D03*
X1023Y665D03*
X1023Y565D03*
G54D17*
X1323Y19241D03*
X1323Y22841D03*
X1323Y2626D03*
X1323Y30041D03*
X1323Y2626D03*
X1323Y37241D03*
X1323Y2626D03*
X1323Y44441D03*
G54D18*
X1323Y2165D03*
G54D19*
X184Y766D03*
G54D20*
X812Y205D03*
X1151Y205D03*
G54D21*
X423Y1965D03*
G54D22*
X1323Y2626D03*
G04 End of Mask1*
M02*