G04 MADE WITH FRITZING*
G04 WWW.FRITZING.ORG*
G04 DOUBLE SIDED*
G04 HOLES PLATED*
G04 CONTOUR ON CENTER OF CONTOUR VECTOR*
%ASAXBY*%
%FSLAX23Y23*%
%MOIN*%
%OFA0B0*%
%SFA1.0B1.0*%
%ADD10C,0.078000*%
%ADD11C,0.039370*%
%ADD12C,0.070000*%
%ADD13C,0.080000*%
%ADD14R,0.031496X0.031496*%
%ADD15R,0.039370X0.043307*%
%ADD16R,0.078000X0.078000*%
%ADD17R,0.069972X0.070000*%
%ADD18R,0.080000X0.080000*%
%ADD19C,0.024000*%
%LNCOPPER1*%
G90*
G70*
G54D10*
X1457Y1379D03*
X1457Y1279D03*
X1457Y1179D03*
X1457Y1079D03*
X1457Y979D03*
X1457Y879D03*
X1457Y779D03*
X1457Y679D03*
G54D11*
X1457Y279D03*
G54D12*
X457Y1679D03*
X457Y1579D03*
X457Y1479D03*
X457Y1379D03*
X457Y1279D03*
X457Y1179D03*
X457Y1079D03*
X457Y979D03*
X457Y879D03*
X457Y779D03*
X457Y679D03*
X457Y579D03*
X457Y479D03*
X457Y379D03*
X457Y279D03*
X1057Y1679D03*
X1057Y1579D03*
X1057Y1479D03*
X1057Y1379D03*
X1057Y1279D03*
X1057Y1179D03*
X1057Y1079D03*
X1057Y979D03*
X1057Y879D03*
X1057Y779D03*
X1057Y679D03*
X1057Y579D03*
X1057Y479D03*
X1057Y379D03*
X1057Y279D03*
G54D13*
X157Y1279D03*
X157Y1179D03*
X157Y1079D03*
X157Y979D03*
X157Y879D03*
X157Y779D03*
G54D14*
X257Y1438D03*
X257Y1379D03*
G54D15*
X257Y1579D03*
X257Y1512D03*
G54D16*
X1457Y1379D03*
G54D17*
X457Y1679D03*
G54D18*
X157Y1279D03*
G54D19*
X356Y979D02*
X436Y899D01*
D02*
X356Y1278D02*
X356Y979D01*
D02*
X356Y1478D02*
X356Y1577D01*
D02*
X356Y1577D02*
X257Y1577D01*
D02*
X257Y1461D02*
X257Y1495D01*
D02*
X257Y1577D02*
X257Y1579D01*
D02*
X436Y1399D02*
X356Y1478D01*
D02*
X273Y1362D02*
X356Y1278D01*
D02*
X258Y1177D02*
X258Y877D01*
D02*
X179Y1257D02*
X258Y1177D01*
D02*
X258Y877D02*
X431Y791D01*
D02*
X1257Y879D02*
X1257Y978D01*
D02*
X1257Y978D02*
X1157Y1077D01*
D02*
X1157Y1077D02*
X1157Y1478D01*
D02*
X1157Y1478D02*
X1077Y1558D01*
D02*
X1427Y879D02*
X1257Y879D01*
D02*
X357Y780D02*
X185Y865D01*
D02*
X357Y178D02*
X357Y780D01*
D02*
X956Y178D02*
X357Y178D01*
D02*
X957Y879D02*
X956Y178D01*
D02*
X1036Y958D02*
X957Y879D01*
D02*
X155Y277D02*
X157Y747D01*
D02*
X357Y78D02*
X155Y277D01*
D02*
X1157Y78D02*
X357Y78D01*
D02*
X1157Y979D02*
X1157Y78D01*
D02*
X1077Y1058D02*
X1157Y979D01*
D02*
X1458Y1980D02*
X1457Y1409D01*
D02*
X1157Y1779D02*
X857Y1779D01*
D02*
X1256Y1478D02*
X1157Y1577D01*
D02*
X1257Y1077D02*
X1256Y1478D01*
D02*
X1157Y1577D02*
X1157Y1779D01*
D02*
X1427Y1078D02*
X1257Y1077D01*
D02*
X857Y1779D02*
X856Y578D01*
D02*
X856Y578D02*
X480Y296D01*
D02*
X757Y579D02*
X757Y1879D01*
D02*
X1356Y1180D02*
X1427Y1179D01*
D02*
X1356Y1878D02*
X1356Y1180D01*
D02*
X1157Y1879D02*
X1356Y1878D01*
D02*
X757Y1879D02*
X1157Y1879D01*
D02*
X481Y395D02*
X757Y579D01*
D02*
X658Y1980D02*
X1458Y1980D01*
D02*
X657Y1279D02*
X658Y1980D01*
D02*
X486Y1279D02*
X657Y1279D01*
D02*
X1557Y379D02*
X1470Y292D01*
D02*
X1557Y1180D02*
X1557Y379D01*
D02*
X1478Y1257D02*
X1557Y1180D01*
D02*
X157Y1010D02*
X157Y1047D01*
G04 End of Copper1*
M02*