G04 MADE WITH FRITZING*
G04 WWW.FRITZING.ORG*
G04 DOUBLE SIDED*
G04 HOLES PLATED*
G04 CONTOUR ON CENTER OF CONTOUR VECTOR*
%ASAXBY*%
%FSLAX23Y23*%
%MOIN*%
%OFA0B0*%
%SFA1.0B1.0*%
%ADD10C,0.088000*%
%ADD11C,0.096614*%
%ADD12C,0.049370*%
%ADD13C,0.080000*%
%ADD14C,0.090000*%
%ADD15R,0.041496X0.041496*%
%ADD16R,0.049370X0.053307*%
%ADD17R,0.088000X0.088000*%
%ADD18R,0.079972X0.080000*%
%ADD19R,0.090000X0.090000*%
%LNMASK1*%
G90*
G70*
G54D10*
X1457Y1379D03*
X1457Y1279D03*
X1457Y1179D03*
X1457Y1079D03*
X1457Y979D03*
X1457Y879D03*
X1457Y779D03*
X1457Y679D03*
G54D11*
X1557Y79D03*
X1557Y1979D03*
X88Y79D03*
X88Y1979D03*
G54D12*
X1457Y279D03*
G54D13*
X457Y1679D03*
X457Y1579D03*
X457Y1479D03*
X457Y1379D03*
X457Y1279D03*
X457Y1179D03*
X457Y1079D03*
X457Y979D03*
X457Y879D03*
X457Y779D03*
X457Y679D03*
X457Y579D03*
X457Y479D03*
X457Y379D03*
X457Y279D03*
X1057Y1679D03*
X1057Y1579D03*
X1057Y1479D03*
X1057Y1379D03*
X1057Y1279D03*
X1057Y1179D03*
X1057Y1079D03*
X1057Y979D03*
X1057Y879D03*
X1057Y779D03*
X1057Y679D03*
X1057Y579D03*
X1057Y479D03*
X1057Y379D03*
X1057Y279D03*
G54D14*
X157Y1279D03*
X157Y1179D03*
X157Y1079D03*
X157Y979D03*
X157Y879D03*
X157Y779D03*
G54D15*
X257Y1438D03*
X257Y1379D03*
G54D16*
X257Y1579D03*
X257Y1512D03*
G54D17*
X1457Y1379D03*
G54D18*
X457Y1679D03*
G54D19*
X157Y1279D03*
G04 End of Mask1*
M02*