; NON-PLATED HOLES START AT T1
; THROUGH (PLATED) HOLES START AT T100
M48
INCH
T1C0.086614
T100C0.040000
T101C0.015748
T102C0.038000
T103C0.036000
%
T1
X015566Y019785
X000883Y019785
X000876Y000785
X015566Y000785
T100
X001566Y007785
X001566Y011785
X001566Y008785
X001566Y012785
X001566Y009785
X001566Y010785
T101
X014566Y002785
T102
X014566Y013785
X014566Y011785
X014566Y008785
X014566Y006785
X014566Y012785
X014566Y009785
X014566Y010785
X014566Y007785
T103
X004566Y010785
X004566Y003785
X010566Y015785
X010566Y008785
X010566Y012785
X004566Y015785
X010566Y005785
X004566Y008785
X004566Y012785
X010566Y002785
X004566Y005785
X004566Y002785
X010566Y014785
X010566Y007785
X010566Y011785
X004566Y014785
X010566Y004785
X004566Y007785
X004566Y011785
X004566Y004785
X010566Y016785
X010566Y009785
X010566Y013785
X004566Y016785
X010566Y006785
X004566Y009785
X010566Y010785
X004566Y013785
X010566Y003785
X004566Y006785
T00
M30
