G04 MADE WITH FRITZING*
G04 WWW.FRITZING.ORG*
G04 DOUBLE SIDED*
G04 HOLES PLATED*
G04 CONTOUR ON CENTER OF CONTOUR VECTOR*
%ASAXBY*%
%FSLAX23Y23*%
%MOIN*%
%OFA0B0*%
%SFA1.0B1.0*%
%ADD10C,0.059200*%
%ADD11C,0.070000*%
%ADD12C,0.074000*%
%ADD13C,0.078000*%
%ADD14C,0.140000*%
%ADD15C,0.039370*%
%ADD16C,0.062992*%
%ADD17R,0.059200X0.059200*%
%ADD18R,0.069972X0.070000*%
%ADD19R,0.078000X0.078000*%
%ADD20R,0.062992X0.062992*%
%ADD21R,0.062992X0.070984*%
%ADD22C,0.024000*%
%LNCOPPER1*%
G90*
G70*
G54D10*
X535Y396D03*
X299Y396D03*
X377Y396D03*
X456Y396D03*
G54D11*
X1499Y1696D03*
X1499Y1596D03*
X1499Y1496D03*
X1499Y1396D03*
X1499Y1296D03*
X1499Y1196D03*
X1499Y1096D03*
X1499Y996D03*
X1499Y896D03*
X1499Y796D03*
X1499Y696D03*
X1499Y596D03*
X1499Y496D03*
X1499Y396D03*
X1499Y296D03*
X899Y1696D03*
X899Y1596D03*
X899Y1496D03*
X899Y1396D03*
X899Y1296D03*
X899Y1196D03*
X899Y1096D03*
X899Y996D03*
X899Y896D03*
X899Y796D03*
X899Y696D03*
X899Y596D03*
X899Y496D03*
X899Y396D03*
X899Y296D03*
X1499Y1696D03*
X1499Y1596D03*
X1499Y1496D03*
X1499Y1396D03*
X1499Y1296D03*
X1499Y1196D03*
X1499Y1096D03*
X1499Y996D03*
X1499Y896D03*
X1499Y796D03*
X1499Y696D03*
X1499Y596D03*
X1499Y496D03*
X1499Y396D03*
X1499Y296D03*
X899Y1696D03*
X899Y1596D03*
X899Y1496D03*
X899Y1396D03*
X899Y1296D03*
X899Y1196D03*
X899Y1096D03*
X899Y996D03*
X899Y896D03*
X899Y796D03*
X899Y696D03*
X899Y596D03*
X899Y496D03*
X899Y396D03*
X899Y296D03*
G54D12*
X2199Y1796D03*
X2199Y1540D03*
X2021Y1796D03*
X2021Y1540D03*
X2199Y1796D03*
X2199Y1540D03*
X2021Y1796D03*
X2021Y1540D03*
G54D13*
X2199Y396D03*
X2099Y396D03*
X1999Y396D03*
X1899Y396D03*
X2199Y796D03*
X2099Y796D03*
X1999Y796D03*
X1899Y796D03*
X2199Y1196D03*
X2099Y1196D03*
X1999Y1196D03*
X1899Y1196D03*
X2199Y496D03*
X2099Y496D03*
X1999Y496D03*
X1899Y496D03*
X2199Y896D03*
X2099Y896D03*
X1999Y896D03*
X1899Y896D03*
X2199Y196D03*
X2099Y196D03*
X1999Y196D03*
X1899Y196D03*
X2199Y296D03*
X2099Y296D03*
X1999Y296D03*
X1899Y296D03*
X2199Y596D03*
X2099Y596D03*
X1999Y596D03*
X1899Y596D03*
X2199Y696D03*
X2099Y696D03*
X1999Y696D03*
X1899Y696D03*
X2199Y996D03*
X2099Y996D03*
X1999Y996D03*
X1899Y996D03*
X2199Y1096D03*
X2099Y1096D03*
X1999Y1096D03*
X1899Y1096D03*
X2199Y1296D03*
X2099Y1296D03*
X1999Y1296D03*
X1899Y1296D03*
X99Y596D03*
X99Y496D03*
X99Y396D03*
G54D14*
X539Y1896D03*
X299Y1896D03*
X419Y2086D03*
X539Y1896D03*
X299Y1896D03*
X419Y2086D03*
G54D13*
X2399Y1096D03*
X2399Y996D03*
X2399Y896D03*
X2399Y796D03*
G54D15*
X599Y796D03*
X899Y1996D03*
G54D16*
X2400Y1596D03*
X2499Y1596D03*
G54D15*
X2399Y1996D03*
G54D17*
X535Y396D03*
G54D18*
X1499Y1696D03*
X1499Y1696D03*
G54D19*
X99Y596D03*
G54D20*
X2400Y1596D03*
G54D21*
X2499Y1796D03*
X2387Y1796D03*
G54D22*
X797Y1094D02*
X797Y396D01*
D02*
X797Y396D02*
X570Y396D01*
D02*
X870Y1095D02*
X797Y1094D01*
D02*
X1869Y796D02*
X1528Y796D01*
D02*
X1869Y896D02*
X1528Y896D01*
D02*
X1869Y996D02*
X1528Y996D01*
D02*
X1869Y1096D02*
X1528Y1096D01*
D02*
X1869Y1196D02*
X1528Y1196D01*
D02*
X1869Y1296D02*
X1528Y1296D01*
D02*
X999Y195D02*
X1869Y196D01*
D02*
X919Y275D02*
X999Y195D01*
D02*
X1869Y296D02*
X1528Y296D01*
D02*
X1869Y396D02*
X1528Y396D01*
D02*
X1869Y496D02*
X1528Y496D01*
D02*
X1869Y596D02*
X1528Y596D01*
D02*
X1869Y696D02*
X1528Y696D01*
D02*
X2099Y666D02*
X2099Y626D01*
D02*
X2099Y766D02*
X2099Y726D01*
D02*
X2099Y866D02*
X2099Y826D01*
D02*
X2099Y966D02*
X2099Y926D01*
D02*
X2099Y1066D02*
X2099Y1026D01*
D02*
X2099Y1166D02*
X2099Y1126D01*
D02*
X2099Y1226D02*
X2099Y1266D01*
D02*
X2199Y626D02*
X2199Y666D01*
D02*
X2199Y526D02*
X2199Y566D01*
D02*
X2199Y426D02*
X2199Y466D01*
D02*
X2199Y326D02*
X2199Y366D01*
D02*
X2199Y266D02*
X2199Y226D01*
D02*
X2099Y266D02*
X2099Y226D01*
D02*
X2099Y366D02*
X2099Y326D01*
D02*
X2099Y466D02*
X2099Y426D01*
D02*
X2099Y566D02*
X2099Y526D01*
D02*
X1999Y966D02*
X1999Y926D01*
D02*
X1999Y1066D02*
X1999Y1026D01*
D02*
X1999Y1166D02*
X1999Y1126D01*
D02*
X1999Y1226D02*
X1999Y1266D01*
D02*
X2199Y1226D02*
X2199Y1266D01*
D02*
X2199Y1126D02*
X2199Y1166D01*
D02*
X2199Y1026D02*
X2199Y1066D01*
D02*
X2199Y926D02*
X2199Y966D01*
D02*
X2199Y826D02*
X2199Y866D01*
D02*
X2199Y726D02*
X2199Y766D01*
D02*
X1999Y266D02*
X1999Y226D01*
D02*
X1999Y366D02*
X1999Y326D01*
D02*
X1999Y466D02*
X1999Y426D01*
D02*
X1999Y566D02*
X1999Y526D01*
D02*
X1999Y666D02*
X1999Y626D01*
D02*
X1999Y766D02*
X1999Y726D01*
D02*
X1999Y866D02*
X1999Y826D01*
D02*
X1099Y2094D02*
X1099Y1396D01*
D02*
X2200Y2094D02*
X1099Y2094D01*
D02*
X1099Y1396D02*
X928Y1396D01*
D02*
X2199Y1827D02*
X2200Y2094D01*
D02*
X2021Y1896D02*
X1200Y1896D01*
D02*
X1200Y896D02*
X923Y712D01*
D02*
X1200Y1896D02*
X1200Y896D01*
D02*
X2021Y1827D02*
X2021Y1896D01*
D02*
X2099Y95D02*
X456Y95D01*
D02*
X456Y95D02*
X456Y369D01*
D02*
X2099Y166D02*
X2099Y95D01*
D02*
X596Y777D02*
X540Y430D01*
D02*
X377Y1396D02*
X377Y423D01*
D02*
X870Y1396D02*
X377Y1396D01*
D02*
X297Y1497D02*
X299Y423D01*
D02*
X700Y1497D02*
X297Y1497D01*
D02*
X873Y1583D02*
X700Y1497D01*
D02*
X99Y1594D02*
X99Y626D01*
D02*
X599Y1594D02*
X99Y1594D01*
D02*
X887Y1980D02*
X599Y1594D01*
D02*
X2297Y997D02*
X2369Y996D01*
D02*
X2297Y1396D02*
X2297Y997D01*
D02*
X1528Y1396D02*
X2297Y1396D01*
D02*
X2399Y966D02*
X2399Y926D01*
D02*
X2399Y1126D02*
X2400Y1569D01*
D02*
X2389Y1766D02*
X2398Y1622D01*
D02*
X2499Y1766D02*
X2499Y1622D01*
D02*
X2599Y1996D02*
X2418Y1996D01*
D02*
X2429Y1096D02*
X2599Y1096D01*
D02*
X2599Y1096D02*
X2599Y1996D01*
G04 End of Copper1*
M02*