; NON-PLATED HOLES START AT T1
; THROUGH (PLATED) HOLES START AT T100
M48
INCH
T1C0.086614
T100C0.040000
T101C0.100000
T102C0.015748
T103C0.036000
T104C0.031497
T105C0.032000
T106C0.038000
%
T1
X025986Y020956
X025986Y000956
X007986Y020956
X001986Y000956
T100
X020206Y017956
X020206Y015396
X021986Y017956
X021986Y015396
T101
X005386Y018956
X002986Y018956
X004186Y020856
T102
X005986Y007956
X023986Y019956
X008986Y019956
T103
X014986Y003956
X014986Y016956
X014986Y008956
X008986Y012956
X008986Y004956
X014986Y014956
X008986Y009956
X014986Y006956
X008986Y010956
X008986Y002956
X008986Y015956
X014986Y012956
X008986Y007956
X014986Y004956
X014986Y009956
X008986Y013956
X014986Y010956
X008986Y005956
X014986Y002956
X014986Y015956
X014986Y007956
X008986Y011956
X008986Y003956
X008986Y016956
X014986Y013956
X008986Y008956
X014986Y005956
X008986Y014956
X014986Y011956
X008986Y006956
T104
X024986Y015956
X024002Y015956
T105
X004561Y003956
X005348Y003956
X003773Y003956
X002986Y003956
T106
X018986Y003956
X019986Y011956
X021986Y005956
X019986Y003956
X018986Y008956
X020986Y005956
X019986Y008956
X000986Y004956
X021986Y011956
X018986Y001956
X021986Y003956
X020986Y011956
X019986Y001956
X018986Y006956
X020986Y003956
X023986Y008956
X021986Y008956
X019986Y006956
X020986Y008956
X018986Y012956
X021986Y001956
X018986Y004956
X019986Y012956
X020986Y001956
X021986Y006956
X019986Y004956
X018986Y009956
X020986Y006956
X019986Y009956
X018986Y010956
X000986Y005956
X021986Y012956
X018986Y002956
X019986Y010956
X021986Y004956
X020986Y012956
X019986Y002956
X018986Y007956
X020986Y004956
X023986Y009956
X021986Y009956
X019986Y007956
X000986Y003956
X020986Y009956
X023986Y010956
X021986Y010956
X021986Y002956
X020986Y010956
X018986Y005956
X020986Y002956
X023986Y007956
X021986Y007956
X019986Y005956
X020986Y007956
X018986Y011956
T00
M30
