G04 MADE WITH FRITZING*
G04 WWW.FRITZING.ORG*
G04 DOUBLE SIDED*
G04 HOLES PLATED*
G04 CONTOUR ON CENTER OF CONTOUR VECTOR*
%ASAXBY*%
%FSLAX23Y23*%
%MOIN*%
%OFA0B0*%
%SFA1.0B1.0*%
%ADD10C,0.069200*%
%ADD11C,0.080000*%
%ADD12C,0.084000*%
%ADD13C,0.088000*%
%ADD14C,0.150000*%
%ADD15C,0.049370*%
%ADD16C,0.072992*%
%ADD17C,0.096614*%
%ADD18R,0.069200X0.069200*%
%ADD19R,0.079972X0.080000*%
%ADD20R,0.088000X0.088000*%
%ADD21R,0.072992X0.072992*%
%ADD22R,0.072992X0.080984*%
%LNMASK1*%
G90*
G70*
G54D10*
X535Y396D03*
X299Y396D03*
X377Y396D03*
X456Y396D03*
G54D11*
X1499Y1696D03*
X1499Y1596D03*
X1499Y1496D03*
X1499Y1396D03*
X1499Y1296D03*
X1499Y1196D03*
X1499Y1096D03*
X1499Y996D03*
X1499Y896D03*
X1499Y796D03*
X1499Y696D03*
X1499Y596D03*
X1499Y496D03*
X1499Y396D03*
X1499Y296D03*
X899Y1696D03*
X899Y1596D03*
X899Y1496D03*
X899Y1396D03*
X899Y1296D03*
X899Y1196D03*
X899Y1096D03*
X899Y996D03*
X899Y896D03*
X899Y796D03*
X899Y696D03*
X899Y596D03*
X899Y496D03*
X899Y396D03*
X899Y296D03*
X1499Y1696D03*
X1499Y1596D03*
X1499Y1496D03*
X1499Y1396D03*
X1499Y1296D03*
X1499Y1196D03*
X1499Y1096D03*
X1499Y996D03*
X1499Y896D03*
X1499Y796D03*
X1499Y696D03*
X1499Y596D03*
X1499Y496D03*
X1499Y396D03*
X1499Y296D03*
X899Y1696D03*
X899Y1596D03*
X899Y1496D03*
X899Y1396D03*
X899Y1296D03*
X899Y1196D03*
X899Y1096D03*
X899Y996D03*
X899Y896D03*
X899Y796D03*
X899Y696D03*
X899Y596D03*
X899Y496D03*
X899Y396D03*
X899Y296D03*
G54D12*
X2199Y1796D03*
X2199Y1540D03*
X2021Y1796D03*
X2021Y1540D03*
X2199Y1796D03*
X2199Y1540D03*
X2021Y1796D03*
X2021Y1540D03*
G54D13*
X2199Y396D03*
X2099Y396D03*
X1999Y396D03*
X1899Y396D03*
X2199Y796D03*
X2099Y796D03*
X1999Y796D03*
X1899Y796D03*
X2199Y1196D03*
X2099Y1196D03*
X1999Y1196D03*
X1899Y1196D03*
X2199Y496D03*
X2099Y496D03*
X1999Y496D03*
X1899Y496D03*
X2199Y896D03*
X2099Y896D03*
X1999Y896D03*
X1899Y896D03*
X2199Y196D03*
X2099Y196D03*
X1999Y196D03*
X1899Y196D03*
X2199Y296D03*
X2099Y296D03*
X1999Y296D03*
X1899Y296D03*
X2199Y596D03*
X2099Y596D03*
X1999Y596D03*
X1899Y596D03*
X2199Y696D03*
X2099Y696D03*
X1999Y696D03*
X1899Y696D03*
X2199Y996D03*
X2099Y996D03*
X1999Y996D03*
X1899Y996D03*
X2199Y1096D03*
X2099Y1096D03*
X1999Y1096D03*
X1899Y1096D03*
X2199Y1296D03*
X2099Y1296D03*
X1999Y1296D03*
X1899Y1296D03*
X99Y596D03*
X99Y496D03*
X99Y396D03*
G54D14*
X539Y1896D03*
X299Y1896D03*
X419Y2086D03*
X539Y1896D03*
X299Y1896D03*
X419Y2086D03*
G54D13*
X2399Y1096D03*
X2399Y996D03*
X2399Y896D03*
X2399Y796D03*
G54D15*
X599Y796D03*
X899Y1996D03*
G54D16*
X2400Y1596D03*
X2499Y1596D03*
G54D15*
X2399Y1996D03*
G54D17*
X2599Y2096D03*
X2599Y96D03*
X199Y96D03*
X799Y2096D03*
G54D18*
X535Y396D03*
G54D19*
X1499Y1696D03*
X1499Y1696D03*
G54D20*
X99Y596D03*
G54D21*
X2400Y1596D03*
G54D22*
X2499Y1796D03*
X2387Y1796D03*
G04 End of Mask1*
M02*