G04 MADE WITH FRITZING*
G04 WWW.FRITZING.ORG*
G04 DOUBLE SIDED*
G04 HOLES PLATED*
G04 CONTOUR ON CENTER OF CONTOUR VECTOR*
%ASAXBY*%
%FSLAX23Y23*%
%MOIN*%
%OFA0B0*%
%SFA1.0B1.0*%
%ADD10C,0.059200*%
%ADD11C,0.070000*%
%ADD12C,0.074000*%
%ADD13C,0.078000*%
%ADD14C,0.140000*%
%ADD15C,0.039370*%
%ADD16C,0.062992*%
%ADD17R,0.059200X0.059200*%
%ADD18R,0.069972X0.070000*%
%ADD19R,0.078000X0.078000*%
%ADD20R,0.074803X0.062992*%
%ADD21R,0.062992X0.074803*%
%ADD22R,0.062992X0.062992*%
%ADD23C,0.024000*%
%LNCOPPER0*%
G90*
G70*
G54D10*
X535Y396D03*
X299Y396D03*
X377Y396D03*
X456Y396D03*
G54D11*
X1499Y1696D03*
X1499Y1596D03*
X1499Y1496D03*
X1499Y1396D03*
X1499Y1296D03*
X1499Y1196D03*
X1499Y1096D03*
X1499Y996D03*
X1499Y896D03*
X1499Y796D03*
X1499Y696D03*
X1499Y596D03*
X1499Y496D03*
X1499Y396D03*
X1499Y296D03*
X899Y1696D03*
X899Y1596D03*
X899Y1496D03*
X899Y1396D03*
X899Y1296D03*
X899Y1196D03*
X899Y1096D03*
X899Y996D03*
X899Y896D03*
X899Y796D03*
X899Y696D03*
X899Y596D03*
X899Y496D03*
X899Y396D03*
X899Y296D03*
X1499Y1696D03*
X1499Y1596D03*
X1499Y1496D03*
X1499Y1396D03*
X1499Y1296D03*
X1499Y1196D03*
X1499Y1096D03*
X1499Y996D03*
X1499Y896D03*
X1499Y796D03*
X1499Y696D03*
X1499Y596D03*
X1499Y496D03*
X1499Y396D03*
X1499Y296D03*
X899Y1696D03*
X899Y1596D03*
X899Y1496D03*
X899Y1396D03*
X899Y1296D03*
X899Y1196D03*
X899Y1096D03*
X899Y996D03*
X899Y896D03*
X899Y796D03*
X899Y696D03*
X899Y596D03*
X899Y496D03*
X899Y396D03*
X899Y296D03*
G54D12*
X2199Y1796D03*
X2199Y1540D03*
X2021Y1796D03*
X2021Y1540D03*
G54D13*
X99Y596D03*
X99Y496D03*
X99Y396D03*
X2199Y396D03*
X2099Y396D03*
X1999Y396D03*
X1899Y396D03*
X2199Y796D03*
X2099Y796D03*
X1999Y796D03*
X1899Y796D03*
X2199Y1196D03*
X2099Y1196D03*
X1999Y1196D03*
X1899Y1196D03*
X2199Y496D03*
X2099Y496D03*
X1999Y496D03*
X1899Y496D03*
X2199Y896D03*
X2099Y896D03*
X1999Y896D03*
X1899Y896D03*
X2199Y1296D03*
X2099Y1296D03*
X1999Y1296D03*
X1899Y1296D03*
X2199Y196D03*
X2099Y196D03*
X1999Y196D03*
X1899Y196D03*
X2199Y296D03*
X2099Y296D03*
X1999Y296D03*
X1899Y296D03*
X2399Y1096D03*
X2399Y996D03*
X2399Y896D03*
X2399Y796D03*
X2199Y596D03*
X2099Y596D03*
X1999Y596D03*
X1899Y596D03*
X2199Y696D03*
X2099Y696D03*
X1999Y696D03*
X1899Y696D03*
X2199Y996D03*
X2099Y996D03*
X1999Y996D03*
X1899Y996D03*
X2199Y1096D03*
X2099Y1096D03*
X1999Y1096D03*
X1899Y1096D03*
G54D14*
X539Y1896D03*
X299Y1896D03*
X419Y2086D03*
X539Y1896D03*
X299Y1896D03*
X419Y2086D03*
G54D15*
X599Y796D03*
X899Y1996D03*
G54D16*
X2400Y1596D03*
X2499Y1596D03*
G54D15*
X2399Y1996D03*
G54D17*
X535Y396D03*
G54D18*
X1499Y1696D03*
X1499Y1696D03*
G54D19*
X99Y596D03*
G54D20*
X499Y1096D03*
X499Y974D03*
G54D21*
X1799Y1796D03*
X1677Y1796D03*
G54D20*
X199Y1096D03*
X199Y974D03*
X599Y1096D03*
X599Y974D03*
X2499Y1296D03*
X2499Y1418D03*
G54D22*
X2400Y1596D03*
G54D23*
X1999Y1326D02*
X1999Y1396D01*
D02*
X1999Y1396D02*
X1528Y1396D01*
D02*
X499Y497D02*
X467Y421D01*
D02*
X700Y997D02*
X700Y497D01*
D02*
X700Y497D02*
X499Y497D01*
D02*
X870Y996D02*
X700Y997D01*
D02*
X1990Y1796D02*
X1825Y1796D01*
D02*
X1518Y1417D02*
X1677Y1594D01*
D02*
X1677Y1594D02*
X1677Y1764D01*
D02*
X535Y95D02*
X535Y361D01*
D02*
X2200Y95D02*
X535Y95D01*
D02*
X2199Y166D02*
X2200Y95D01*
D02*
X599Y815D02*
X599Y948D01*
D02*
X797Y1195D02*
X630Y1112D01*
D02*
X878Y1375D02*
X797Y1296D01*
D02*
X797Y1296D02*
X797Y1195D01*
D02*
X870Y1596D02*
X499Y1594D01*
D02*
X499Y1594D02*
X332Y1845D01*
D02*
X700Y1695D02*
X870Y1696D01*
D02*
X577Y1848D02*
X700Y1695D01*
D02*
X297Y497D02*
X129Y496D01*
D02*
X361Y417D02*
X297Y497D01*
D02*
X99Y896D02*
X167Y949D01*
D02*
X99Y626D02*
X99Y896D01*
D02*
X599Y1396D02*
X297Y1396D01*
D02*
X297Y1396D02*
X297Y1195D01*
D02*
X874Y1580D02*
X599Y1396D01*
D02*
X297Y1195D02*
X224Y1122D01*
D02*
X398Y896D02*
X467Y949D01*
D02*
X443Y419D02*
X398Y497D01*
D02*
X398Y497D02*
X398Y896D01*
D02*
X599Y1296D02*
X499Y1296D01*
D02*
X499Y1296D02*
X499Y1122D01*
D02*
X870Y1396D02*
X797Y1396D01*
D02*
X797Y1396D02*
X599Y1296D01*
D02*
X1099Y1997D02*
X1099Y997D01*
D02*
X1099Y997D02*
X919Y816D01*
D02*
X918Y1996D02*
X1099Y1997D01*
D02*
X2297Y796D02*
X2369Y796D01*
D02*
X2297Y1896D02*
X2297Y796D01*
D02*
X2099Y1896D02*
X2297Y1896D01*
D02*
X2040Y1820D02*
X2099Y1896D01*
D02*
X2499Y1569D02*
X2499Y1444D01*
D02*
X2498Y997D02*
X2499Y1270D01*
D02*
X2429Y996D02*
X2498Y997D01*
D02*
X1299Y1996D02*
X1299Y796D01*
D02*
X1299Y796D02*
X925Y609D01*
D02*
X2380Y1996D02*
X1299Y1996D01*
G04 End of Copper0*
M02*