; NON-PLATED HOLES START AT T1
; THROUGH (PLATED) HOLES START AT T100
M48
INCH
T1C0.086614
T100C0.032000
T101C0.038000
T102C0.040000
T103C0.100000
T104C0.015748
T105C0.036000
%
T1
X001197Y000872
X001197Y026872
X034197Y026872
X034197Y000872
T100
X004771Y005872
X003197Y005872
X005559Y005872
X003984Y005872
T101
X023197Y023872
X001197Y007872
X022197Y023872
X001197Y006872
X025197Y023872
X024197Y023872
T102
X022197Y018471
X030197Y013228
X033197Y005430
X023197Y010516
X034197Y015851
X020197Y007892
X025197Y018471
X033197Y013228
X031197Y008030
X021197Y013115
X029197Y010629
X032197Y018451
X021197Y005293
X023197Y007892
X017197Y024872
X022197Y015872
X034197Y008030
X030197Y010629
X024197Y013115
X020197Y018471
X024197Y005293
X025197Y015872
X031197Y005430
X033197Y010629
X021197Y010516
X029197Y018451
X032197Y015851
X023197Y018471
X031197Y013228
X019757Y023092
X030197Y018451
X034197Y005430
X024197Y010516
X021197Y007892
X020197Y015872
X034197Y013228
X032197Y008030
X022197Y013115
X033197Y018451
X029197Y015851
X024197Y007892
X022197Y005293
X023197Y015872
X031197Y010629
X025197Y013115
X017197Y023092
X030197Y015851
X021197Y018471
X025197Y005293
X029197Y008030
X032197Y005430
X034197Y010629
X022197Y010516
X033197Y015851
X024197Y018471
X032197Y013228
X030197Y008030
X020197Y013115
X031197Y018451
X025197Y010516
X020197Y005293
X022197Y007892
X021197Y015872
X033197Y008030
X023197Y013115
X029197Y005430
X034197Y018451
X023197Y005293
X025197Y007892
X029197Y013228
X024197Y015872
X032197Y010629
X030197Y005430
X020197Y010516
X019757Y024872
X031197Y015851
T103
X003197Y020872
X005597Y020872
X004397Y022772
T104
X021197Y021872
X022197Y026872
X009197Y021872
X006197Y009872
T105
X015197Y014872
X009197Y009872
X015197Y006872
X009197Y010872
X009197Y015872
X015197Y012872
X009197Y007872
X015197Y004872
X015197Y017872
X015197Y009872
X009197Y013872
X015197Y010872
X009197Y005872
X009197Y018872
X015197Y015872
X015197Y007872
X009197Y011872
X009197Y016872
X015197Y013872
X009197Y008872
X015197Y005872
X015197Y018872
X009197Y014872
X015197Y011872
X009197Y006872
X015197Y016872
X015197Y008872
X009197Y012872
X009197Y004872
X009197Y017872
T00
M30
