G04 MADE WITH FRITZING*
G04 WWW.FRITZING.ORG*
G04 DOUBLE SIDED*
G04 HOLES PLATED*
G04 CONTOUR ON CENTER OF CONTOUR VECTOR*
%ASAXBY*%
%FSLAX23Y23*%
%MOIN*%
%OFA0B0*%
%SFA1.0B1.0*%
%ADD10C,0.078000*%
%ADD11C,0.080000*%
%ADD12C,0.039370*%
%ADD13C,0.059200*%
%ADD14C,0.070000*%
%ADD15C,0.074000*%
%ADD16C,0.140000*%
%ADD17R,0.078000X0.078000*%
%ADD18R,0.039370X0.043307*%
%ADD19R,0.043307X0.039370*%
%ADD20R,0.080000X0.080000*%
%ADD21R,0.031496X0.031496*%
%ADD22R,0.059200X0.059200*%
%ADD23R,0.069972X0.070000*%
%ADD24C,0.024000*%
%LNCOPPER1*%
G90*
G70*
G54D10*
X120Y787D03*
X120Y687D03*
G54D11*
X2020Y1052D03*
X2120Y1052D03*
X2220Y1052D03*
X2320Y1052D03*
X2420Y1052D03*
X2520Y1052D03*
X2020Y529D03*
X2120Y529D03*
X2220Y529D03*
X2320Y529D03*
X2420Y529D03*
X2520Y529D03*
X2020Y789D03*
X2120Y789D03*
X2220Y789D03*
X2320Y789D03*
X2420Y789D03*
X2520Y789D03*
X2020Y1312D03*
X2120Y1312D03*
X2220Y1312D03*
X2320Y1312D03*
X2420Y1312D03*
X2520Y1312D03*
X2920Y543D03*
X3020Y543D03*
X3120Y543D03*
X3220Y543D03*
X3320Y543D03*
X3420Y543D03*
X2020Y1587D03*
X2120Y1587D03*
X2220Y1587D03*
X2320Y1587D03*
X2420Y1587D03*
X2520Y1587D03*
X2020Y1847D03*
X2120Y1847D03*
X2220Y1847D03*
X2320Y1847D03*
X2420Y1847D03*
X2520Y1847D03*
X2920Y803D03*
X3020Y803D03*
X3120Y803D03*
X3220Y803D03*
X3320Y803D03*
X3420Y803D03*
X2920Y1323D03*
X3020Y1323D03*
X3120Y1323D03*
X3220Y1323D03*
X3320Y1323D03*
X3420Y1323D03*
X2920Y1063D03*
X3020Y1063D03*
X3120Y1063D03*
X3220Y1063D03*
X3320Y1063D03*
X3420Y1063D03*
X2920Y1585D03*
X3020Y1585D03*
X3120Y1585D03*
X3220Y1585D03*
X3320Y1585D03*
X3420Y1585D03*
X2920Y1845D03*
X3020Y1845D03*
X3120Y1845D03*
X3220Y1845D03*
X3320Y1845D03*
X3420Y1845D03*
G54D12*
X620Y987D03*
X920Y2187D03*
X2220Y2687D03*
G54D13*
X556Y587D03*
X320Y587D03*
X398Y587D03*
X477Y587D03*
G54D14*
X1520Y1887D03*
X1520Y1787D03*
X1520Y1687D03*
X1520Y1587D03*
X1520Y1487D03*
X1520Y1387D03*
X1520Y1287D03*
X1520Y1187D03*
X1520Y1087D03*
X1520Y987D03*
X1520Y887D03*
X1520Y787D03*
X1520Y687D03*
X1520Y587D03*
X1520Y487D03*
X920Y1887D03*
X920Y1787D03*
X920Y1687D03*
X920Y1587D03*
X920Y1487D03*
X920Y1387D03*
X920Y1287D03*
X920Y1187D03*
X920Y1087D03*
X920Y987D03*
X920Y887D03*
X920Y787D03*
X920Y687D03*
X920Y587D03*
X920Y487D03*
X1520Y1887D03*
X1520Y1787D03*
X1520Y1687D03*
X1520Y1587D03*
X1520Y1487D03*
X1520Y1387D03*
X1520Y1287D03*
X1520Y1187D03*
X1520Y1087D03*
X1520Y987D03*
X1520Y887D03*
X1520Y787D03*
X1520Y687D03*
X1520Y587D03*
X1520Y487D03*
X920Y1887D03*
X920Y1787D03*
X920Y1687D03*
X920Y1587D03*
X920Y1487D03*
X920Y1387D03*
X920Y1287D03*
X920Y1187D03*
X920Y1087D03*
X920Y987D03*
X920Y887D03*
X920Y787D03*
X920Y687D03*
X920Y587D03*
X920Y487D03*
G54D15*
X1720Y2487D03*
X1976Y2487D03*
X1720Y2309D03*
X1976Y2309D03*
X1720Y2487D03*
X1976Y2487D03*
X1720Y2309D03*
X1976Y2309D03*
G54D10*
X2520Y2387D03*
X2420Y2387D03*
X2320Y2387D03*
X2220Y2387D03*
G54D16*
X560Y2087D03*
X320Y2087D03*
X440Y2277D03*
X560Y2087D03*
X320Y2087D03*
X440Y2277D03*
G54D12*
X2120Y2187D03*
G54D17*
X120Y787D03*
G54D18*
X1720Y2087D03*
X1720Y2020D03*
G54D19*
X2820Y2287D03*
X2753Y2287D03*
G54D20*
X2020Y1052D03*
X2020Y529D03*
X2020Y789D03*
X2020Y1312D03*
X2920Y543D03*
X2020Y1587D03*
X2020Y1847D03*
X2920Y803D03*
X2920Y1323D03*
X2920Y1063D03*
X2920Y1585D03*
X2920Y1845D03*
G54D21*
X3061Y2287D03*
X3120Y2287D03*
G54D22*
X556Y587D03*
G54D23*
X1520Y1887D03*
X1520Y1887D03*
G54D24*
X2620Y1286D02*
X2620Y387D01*
D02*
X2620Y387D02*
X1721Y387D01*
D02*
X1721Y387D02*
X1721Y489D01*
D02*
X1721Y489D02*
X1540Y667D01*
D02*
X2889Y1319D02*
X2620Y1286D01*
D02*
X1997Y550D02*
X1541Y968D01*
D02*
X1993Y805D02*
X1545Y1072D01*
D02*
X1990Y1060D02*
X1548Y1180D01*
D02*
X1989Y1310D02*
X1549Y1289D01*
D02*
X1991Y1576D02*
X1547Y1398D01*
D02*
X1994Y1829D02*
X1543Y1504D01*
D02*
X2518Y2288D02*
X2737Y2287D01*
D02*
X2441Y2366D02*
X2518Y2288D01*
D02*
X2836Y2287D02*
X3037Y2287D01*
D02*
X3120Y2311D02*
X3121Y2385D01*
D02*
X3121Y2385D02*
X2550Y2387D01*
D02*
X2918Y88D02*
X2920Y512D01*
D02*
X919Y88D02*
X2918Y88D01*
D02*
X920Y458D02*
X919Y88D01*
D02*
X2718Y988D02*
X2718Y289D01*
D02*
X2821Y788D02*
X2821Y186D01*
D02*
X2718Y289D02*
X1618Y289D01*
D02*
X1618Y289D02*
X1618Y489D01*
D02*
X1618Y489D02*
X1540Y567D01*
D02*
X2821Y186D02*
X1520Y186D01*
D02*
X1520Y186D02*
X1520Y458D01*
D02*
X2889Y798D02*
X2821Y788D01*
D02*
X2891Y1052D02*
X2718Y988D01*
D02*
X1720Y2103D02*
X1720Y2278D01*
D02*
X1221Y1088D02*
X944Y903D01*
D02*
X1221Y2088D02*
X1221Y1088D01*
D02*
X1691Y2297D02*
X1221Y2088D01*
D02*
X1120Y2286D02*
X1120Y1588D01*
D02*
X1120Y1588D02*
X949Y1587D01*
D02*
X1690Y2477D02*
X1120Y2286D01*
D02*
X721Y1689D02*
X318Y1689D01*
D02*
X318Y1689D02*
X320Y614D01*
D02*
X894Y1774D02*
X721Y1689D01*
D02*
X398Y1587D02*
X398Y614D01*
D02*
X891Y1587D02*
X398Y1587D01*
D02*
X617Y968D02*
X561Y622D01*
D02*
X620Y1786D02*
X120Y1786D01*
D02*
X120Y1786D02*
X120Y817D01*
D02*
X908Y2172D02*
X620Y1786D01*
D02*
X2390Y2387D02*
X2350Y2387D01*
D02*
X2420Y2687D02*
X2239Y2687D01*
D02*
X2510Y2416D02*
X2420Y2687D01*
D02*
X818Y588D02*
X591Y587D01*
D02*
X819Y1088D02*
X818Y588D01*
D02*
X899Y1167D02*
X819Y1088D01*
D02*
X1734Y2030D02*
X2120Y2288D01*
D02*
X2319Y2288D02*
X2319Y2357D01*
D02*
X2120Y2288D02*
X2319Y2288D01*
D02*
X1722Y1788D02*
X1720Y2004D01*
D02*
X1540Y1608D02*
X1722Y1788D01*
D02*
X2289Y529D02*
X2251Y529D01*
D02*
X2289Y789D02*
X2251Y789D01*
D02*
X2289Y1052D02*
X2251Y1052D01*
D02*
X2289Y1312D02*
X2251Y1312D01*
D02*
X2289Y1587D02*
X2251Y1587D01*
D02*
X2289Y1847D02*
X2251Y1847D01*
D02*
X3189Y1845D02*
X3151Y1845D01*
D02*
X3189Y1585D02*
X3151Y1585D01*
D02*
X3189Y1323D02*
X3151Y1323D01*
D02*
X3189Y1063D02*
X3151Y1063D01*
D02*
X3189Y803D02*
X3151Y803D01*
D02*
X3189Y543D02*
X3151Y543D01*
D02*
X3120Y772D02*
X3120Y574D01*
D02*
X3120Y834D02*
X3120Y1032D01*
D02*
X3120Y1354D02*
X3120Y1554D01*
D02*
X3120Y1094D02*
X3120Y1292D01*
D02*
X3120Y1616D02*
X3120Y1814D01*
D02*
X2220Y1618D02*
X2220Y1816D01*
D02*
X2220Y1556D02*
X2220Y1343D01*
D02*
X2220Y1280D02*
X2220Y1083D01*
D02*
X2220Y1021D02*
X2220Y820D01*
D02*
X2220Y758D02*
X2220Y560D01*
D02*
X2120Y758D02*
X2120Y560D01*
D02*
X2120Y820D02*
X2120Y1021D01*
D02*
X2120Y1083D02*
X2120Y1280D01*
D02*
X2120Y1343D02*
X2120Y1556D01*
D02*
X2120Y1618D02*
X2120Y1816D01*
D02*
X1819Y2388D02*
X2190Y2387D01*
D02*
X1744Y2329D02*
X1819Y2388D01*
D02*
X3021Y1987D02*
X2219Y1987D01*
D02*
X2219Y1987D02*
X2138Y1872D01*
D02*
X3020Y1876D02*
X3021Y1987D01*
D02*
X2120Y1878D02*
X2120Y2168D01*
D02*
X3020Y1814D02*
X3020Y1616D01*
D02*
X3020Y1554D02*
X3020Y1354D01*
D02*
X3020Y1292D02*
X3020Y1094D01*
D02*
X3020Y1032D02*
X3020Y834D01*
D02*
X3020Y772D02*
X3020Y574D01*
D02*
X2420Y758D02*
X2420Y560D01*
D02*
X2420Y820D02*
X2420Y1021D01*
D02*
X2420Y1083D02*
X2420Y1280D01*
D02*
X2420Y1343D02*
X2420Y1556D01*
D02*
X2420Y1618D02*
X2420Y1816D01*
D02*
X2520Y1618D02*
X2520Y1816D01*
D02*
X2520Y1556D02*
X2520Y1343D01*
D02*
X2520Y1280D02*
X2520Y1083D01*
D02*
X2520Y1021D02*
X2520Y820D01*
D02*
X2520Y758D02*
X2520Y560D01*
D02*
X3320Y772D02*
X3320Y574D01*
D02*
X3420Y772D02*
X3420Y574D01*
D02*
X3420Y834D02*
X3420Y1032D01*
D02*
X3320Y834D02*
X3320Y1032D01*
D02*
X3320Y1094D02*
X3320Y1292D01*
D02*
X3420Y1094D02*
X3420Y1292D01*
D02*
X3420Y1354D02*
X3420Y1554D01*
D02*
X3320Y1354D02*
X3320Y1554D01*
D02*
X3320Y1616D02*
X3320Y1814D01*
D02*
X3420Y1616D02*
X3420Y1814D01*
D02*
X3120Y1876D02*
X3121Y2188D01*
D02*
X3121Y2188D02*
X2418Y2188D01*
D02*
X2418Y2188D02*
X2419Y2357D01*
G04 End of Copper1*
M02*