G04 MADE WITH FRITZING*
G04 WWW.FRITZING.ORG*
G04 DOUBLE SIDED*
G04 HOLES PLATED*
G04 CONTOUR ON CENTER OF CONTOUR VECTOR*
%ASAXBY*%
%FSLAX23Y23*%
%MOIN*%
%OFA0B0*%
%SFA1.0B1.0*%
%ADD10C,0.080000*%
%ADD11C,0.088000*%
%ADD12C,0.096614*%
%ADD13R,0.079972X0.080000*%
%LNMASK0*%
G90*
G70*
G54D10*
X607Y1519D03*
X607Y1419D03*
X607Y1319D03*
X607Y1219D03*
X607Y1119D03*
X607Y1019D03*
X607Y919D03*
X607Y819D03*
X607Y719D03*
X607Y619D03*
X607Y519D03*
X607Y419D03*
X607Y319D03*
X607Y219D03*
X607Y119D03*
X1207Y1519D03*
X1207Y1419D03*
X1207Y1319D03*
X1207Y1219D03*
X1207Y1119D03*
X1207Y1019D03*
X1207Y919D03*
X1207Y819D03*
X1207Y719D03*
X1207Y619D03*
X1207Y519D03*
X1207Y419D03*
X1207Y319D03*
X1207Y219D03*
X1207Y119D03*
G54D11*
X1407Y619D03*
X1407Y519D03*
X1407Y419D03*
X407Y519D03*
X307Y519D03*
X207Y519D03*
X407Y719D03*
X307Y719D03*
X207Y719D03*
X407Y1019D03*
X307Y1019D03*
X207Y1019D03*
X407Y1319D03*
X307Y1319D03*
X207Y1319D03*
X407Y319D03*
X307Y319D03*
X407Y219D03*
X307Y219D03*
X407Y119D03*
X307Y119D03*
X1207Y1819D03*
X1107Y1819D03*
G54D12*
X1505Y1893D03*
X71Y1893D03*
X71Y84D03*
X1507Y84D03*
G54D13*
X607Y1519D03*
G04 End of Mask0*
M02*