; NON-PLATED HOLES START AT T1
; THROUGH (PLATED) HOLES START AT T100
M48
INCH
T1C0.086614
T100C0.038000
T101C0.036000
%
T1
X015045Y018934
X000714Y000840
X000714Y018934
X015069Y000840
T100
X003069Y001194
X004069Y005194
X004069Y002194
X014069Y004194
X012069Y018194
X003069Y013194
X002069Y013194
X003069Y010194
X003069Y003194
X002069Y010194
X004069Y007194
X014069Y006194
X004069Y001194
X003069Y005194
X002069Y005194
X003069Y002194
X004069Y013194
X011069Y018194
X004069Y010194
X004069Y003194
X014069Y005194
X003069Y007194
X002069Y007194
T101
X012069Y006194
X006069Y009194
X012069Y010194
X006069Y013194
X012069Y003194
X006069Y006194
X006069Y010194
X006069Y003194
X012069Y015194
X012069Y008194
X012069Y012194
X006069Y015194
X012069Y005194
X006069Y008194
X006069Y012194
X012069Y002194
X006069Y005194
X006069Y002194
X012069Y014194
X012069Y007194
X012069Y011194
X006069Y014194
X012069Y004194
X006069Y007194
X006069Y011194
X012069Y001194
X006069Y004194
X006069Y001194
X012069Y009194
X012069Y013194
T00
M30
