G04 MADE WITH FRITZING*
G04 WWW.FRITZING.ORG*
G04 DOUBLE SIDED*
G04 HOLES PLATED*
G04 CONTOUR ON CENTER OF CONTOUR VECTOR*
%ASAXBY*%
%FSLAX23Y23*%
%MOIN*%
%OFA0B0*%
%SFA1.0B1.0*%
%ADD10C,0.070000*%
%ADD11C,0.078000*%
%ADD12C,0.080000*%
%ADD13R,0.069972X0.070000*%
%ADD14R,0.078000X0.078000*%
%ADD15C,0.024000*%
%ADD16C,0.020000*%
%LNCOPPER1*%
G90*
G70*
G54D10*
X179Y1729D03*
X179Y1629D03*
X179Y1529D03*
X179Y1429D03*
X179Y1329D03*
X179Y1229D03*
X179Y1129D03*
X179Y1029D03*
X179Y929D03*
X179Y829D03*
X179Y729D03*
X179Y629D03*
X179Y529D03*
X179Y429D03*
X179Y329D03*
X779Y1729D03*
X779Y1629D03*
X779Y1529D03*
X779Y1429D03*
X779Y1329D03*
X779Y1229D03*
X779Y1129D03*
X779Y1029D03*
X779Y929D03*
X779Y829D03*
X779Y729D03*
X779Y629D03*
X779Y529D03*
X779Y429D03*
X779Y329D03*
G54D11*
X479Y1129D03*
X479Y1229D03*
X479Y1329D03*
X479Y1429D03*
X479Y1529D03*
X479Y1629D03*
X479Y1729D03*
X479Y1829D03*
X479Y1129D03*
X479Y1229D03*
X479Y1329D03*
X479Y1429D03*
X479Y1529D03*
X479Y1629D03*
X479Y1729D03*
X479Y1829D03*
G54D12*
X231Y76D03*
X331Y76D03*
X431Y76D03*
X531Y76D03*
X631Y76D03*
X731Y76D03*
X231Y76D03*
X331Y76D03*
X431Y76D03*
X531Y76D03*
X631Y76D03*
X731Y76D03*
G54D13*
X179Y1729D03*
G54D14*
X479Y1129D03*
X479Y1129D03*
G54D15*
X500Y76D02*
X462Y76D01*
D02*
X379Y528D02*
X199Y349D01*
D02*
X379Y1427D02*
X379Y528D01*
D02*
X448Y1428D02*
X379Y1427D01*
D02*
X280Y728D02*
X280Y1730D01*
D02*
X199Y649D02*
X280Y728D01*
D02*
X280Y1730D02*
X448Y1729D01*
D02*
X677Y1828D02*
X677Y528D01*
D02*
X677Y528D02*
X758Y449D01*
D02*
X509Y1829D02*
X677Y1828D01*
D02*
X579Y429D02*
X677Y327D01*
D02*
X677Y327D02*
X749Y328D01*
D02*
X509Y1228D02*
X579Y1227D01*
D02*
X579Y1227D02*
X579Y429D01*
D02*
X579Y229D02*
X878Y229D01*
D02*
X878Y229D02*
X878Y1529D01*
D02*
X878Y1529D02*
X799Y1608D01*
D02*
X541Y105D02*
X579Y229D01*
D02*
X80Y229D02*
X80Y1930D01*
D02*
X80Y1930D02*
X677Y1930D01*
D02*
X677Y1930D02*
X765Y1755D01*
D02*
X331Y107D02*
X331Y229D01*
D02*
X331Y229D02*
X80Y229D01*
G54D16*
X201Y106D02*
X261Y106D01*
X261Y46D01*
X201Y46D01*
X201Y106D01*
D02*
X201Y106D02*
X261Y106D01*
X261Y46D01*
X201Y46D01*
X201Y106D01*
D02*
G04 End of Copper1*
M02*