; NON-PLATED HOLES START AT T1
; THROUGH (PLATED) HOLES START AT T100
M48
INCH
T100C0.036000
T101C0.040000
T102C0.038000
%
T100
X001785Y015286
X001785Y008286
X007785Y017286
X001785Y012286
X001785Y005286
X007785Y014286
X007785Y007286
X007785Y011286
X007785Y004286
X001785Y017286
X001785Y014286
X001785Y007286
X007785Y016286
X007785Y009286
X001785Y011286
X001785Y004286
X007785Y013286
X007785Y006286
X007785Y010286
X007785Y003286
X001785Y016286
X001785Y009286
X001785Y013286
X001785Y006286
X007785Y015286
X007785Y008286
X001785Y010286
X001785Y003286
X007785Y012286
X007785Y005286
T101
X006313Y000757
X007313Y000757
X002313Y000757
X003313Y000757
X004313Y000757
X005313Y000757
T102
X004785Y014286
X004785Y015286
X004785Y016286
X004785Y017286
X004785Y011286
X004785Y018286
X004785Y012286
X004785Y013286
T00
M30
