G04 MADE WITH FRITZING*
G04 WWW.FRITZING.ORG*
G04 DOUBLE SIDED*
G04 HOLES PLATED*
G04 CONTOUR ON CENTER OF CONTOUR VECTOR*
%ASAXBY*%
%FSLAX23Y23*%
%MOIN*%
%OFA0B0*%
%SFA1.0B1.0*%
%ADD10C,0.070000*%
%ADD11C,0.080000*%
%ADD12C,0.078000*%
%ADD13R,0.069972X0.070000*%
%ADD14R,0.059055X0.055118*%
%ADD15R,0.078000X0.078000*%
%ADD16C,0.024000*%
%ADD17C,0.020000*%
%LNCOPPER0*%
G90*
G70*
G54D10*
X179Y1729D03*
X179Y1629D03*
X179Y1529D03*
X179Y1429D03*
X179Y1329D03*
X179Y1229D03*
X179Y1129D03*
X179Y1029D03*
X179Y929D03*
X179Y829D03*
X179Y729D03*
X179Y629D03*
X179Y529D03*
X179Y429D03*
X179Y329D03*
X779Y1729D03*
X779Y1629D03*
X779Y1529D03*
X779Y1429D03*
X779Y1329D03*
X779Y1229D03*
X779Y1129D03*
X779Y1029D03*
X779Y929D03*
X779Y829D03*
X779Y729D03*
X779Y629D03*
X779Y529D03*
X779Y429D03*
X779Y329D03*
G54D11*
X231Y76D03*
X331Y76D03*
X431Y76D03*
X531Y76D03*
X631Y76D03*
X731Y76D03*
X231Y76D03*
X331Y76D03*
X431Y76D03*
X531Y76D03*
X631Y76D03*
X731Y76D03*
G54D12*
X479Y1129D03*
X479Y1229D03*
X479Y1329D03*
X479Y1429D03*
X479Y1529D03*
X479Y1629D03*
X479Y1729D03*
X479Y1829D03*
X479Y1129D03*
X479Y1229D03*
X479Y1329D03*
X479Y1429D03*
X479Y1529D03*
X479Y1629D03*
X479Y1729D03*
X479Y1829D03*
G54D13*
X179Y1729D03*
G54D14*
X356Y1025D03*
X356Y1106D03*
X638Y1288D03*
X638Y1369D03*
X379Y229D03*
X379Y309D03*
X479Y229D03*
X479Y309D03*
G54D15*
X479Y1129D03*
X479Y1129D03*
G54D16*
X280Y1427D02*
X452Y1342D01*
D02*
X280Y1828D02*
X280Y1427D01*
D02*
X80Y1828D02*
X280Y1828D01*
D02*
X80Y528D02*
X80Y1828D01*
D02*
X158Y449D02*
X80Y528D01*
D02*
X509Y1629D02*
X749Y1629D01*
D02*
X677Y928D02*
X677Y229D01*
D02*
X758Y1008D02*
X677Y928D01*
D02*
X878Y1030D02*
X878Y229D01*
D02*
X799Y1108D02*
X878Y1030D01*
D02*
X280Y830D02*
X208Y829D01*
D02*
X280Y327D02*
X280Y830D01*
D02*
X237Y106D02*
X280Y327D01*
D02*
X203Y1313D02*
X453Y1145D01*
D02*
X677Y1529D02*
X758Y1608D01*
D02*
X644Y1391D02*
X677Y1529D01*
D02*
X579Y1030D02*
X633Y1266D01*
D02*
X380Y1026D02*
X579Y1030D01*
D02*
X280Y928D02*
X280Y1106D01*
D02*
X280Y1106D02*
X332Y1106D01*
D02*
X208Y929D02*
X280Y928D01*
D02*
X878Y229D02*
X753Y98D01*
D02*
X677Y229D02*
X640Y106D01*
D02*
X379Y830D02*
X208Y829D01*
D02*
X379Y331D02*
X379Y830D01*
D02*
X455Y229D02*
X403Y229D01*
D02*
X537Y106D02*
X579Y327D01*
D02*
X579Y327D02*
X503Y314D01*
G54D17*
X201Y106D02*
X261Y106D01*
X261Y46D01*
X201Y46D01*
X201Y106D01*
D02*
X201Y106D02*
X261Y106D01*
X261Y46D01*
X201Y46D01*
X201Y106D01*
D02*
G04 End of Copper0*
M02*