G04 MADE WITH FRITZING*
G04 WWW.FRITZING.ORG*
G04 DOUBLE SIDED*
G04 HOLES PLATED*
G04 CONTOUR ON CENTER OF CONTOUR VECTOR*
%ASAXBY*%
%FSLAX23Y23*%
%MOIN*%
%OFA0B0*%
%SFA1.0B1.0*%
%ADD10C,0.080000*%
%ADD11C,0.088000*%
%ADD12C,0.090000*%
%ADD13R,0.079972X0.080000*%
%ADD14R,0.088000X0.088000*%
%ADD15C,0.030000*%
%LNMASK1*%
G90*
G70*
G54D10*
X179Y1729D03*
X179Y1629D03*
X179Y1529D03*
X179Y1429D03*
X179Y1329D03*
X179Y1229D03*
X179Y1129D03*
X179Y1029D03*
X179Y929D03*
X179Y829D03*
X179Y729D03*
X179Y629D03*
X179Y529D03*
X179Y429D03*
X179Y329D03*
X779Y1729D03*
X779Y1629D03*
X779Y1529D03*
X779Y1429D03*
X779Y1329D03*
X779Y1229D03*
X779Y1129D03*
X779Y1029D03*
X779Y929D03*
X779Y829D03*
X779Y729D03*
X779Y629D03*
X779Y529D03*
X779Y429D03*
X779Y329D03*
G54D11*
X479Y1129D03*
X479Y1229D03*
X479Y1329D03*
X479Y1429D03*
X479Y1529D03*
X479Y1629D03*
X479Y1729D03*
X479Y1829D03*
X479Y1129D03*
X479Y1229D03*
X479Y1329D03*
X479Y1429D03*
X479Y1529D03*
X479Y1629D03*
X479Y1729D03*
X479Y1829D03*
G54D12*
X231Y76D03*
X331Y76D03*
X431Y76D03*
X531Y76D03*
X631Y76D03*
X731Y76D03*
X231Y76D03*
X331Y76D03*
X431Y76D03*
X531Y76D03*
X631Y76D03*
X731Y76D03*
G54D13*
X179Y1729D03*
G54D14*
X479Y1129D03*
X479Y1129D03*
G54D15*
G36*
X201Y106D02*
X261Y106D01*
X261Y46D01*
X201Y46D01*
X201Y106D01*
G37*
D02*
G36*
X201Y106D02*
X261Y106D01*
X261Y46D01*
X201Y46D01*
X201Y106D01*
G37*
D02*
G04 End of Mask1*
M02*