G04 MADE WITH FRITZING*
G04 WWW.FRITZING.ORG*
G04 DOUBLE SIDED*
G04 HOLES PLATED*
G04 CONTOUR ON CENTER OF CONTOUR VECTOR*
%ASAXBY*%
%FSLAX23Y23*%
%MOIN*%
%OFA0B0*%
%SFA1.0B1.0*%
%ADD10R,0.001000X0.001000*%
%LNSILK1*%
G90*
G70*
G54D10*
X0Y1983D02*
X952Y1983D01*
X0Y1982D02*
X952Y1982D01*
X0Y1981D02*
X952Y1981D01*
X0Y1980D02*
X952Y1980D01*
X0Y1979D02*
X952Y1979D01*
X0Y1978D02*
X952Y1978D01*
X0Y1977D02*
X952Y1977D01*
X0Y1976D02*
X952Y1976D01*
X0Y1975D02*
X7Y1975D01*
X945Y1975D02*
X952Y1975D01*
X0Y1974D02*
X7Y1974D01*
X945Y1974D02*
X952Y1974D01*
X0Y1973D02*
X7Y1973D01*
X945Y1973D02*
X952Y1973D01*
X0Y1972D02*
X7Y1972D01*
X945Y1972D02*
X952Y1972D01*
X0Y1971D02*
X7Y1971D01*
X945Y1971D02*
X952Y1971D01*
X0Y1970D02*
X7Y1970D01*
X945Y1970D02*
X952Y1970D01*
X0Y1969D02*
X7Y1969D01*
X945Y1969D02*
X952Y1969D01*
X0Y1968D02*
X7Y1968D01*
X945Y1968D02*
X952Y1968D01*
X0Y1967D02*
X7Y1967D01*
X945Y1967D02*
X952Y1967D01*
X0Y1966D02*
X7Y1966D01*
X945Y1966D02*
X952Y1966D01*
X0Y1965D02*
X7Y1965D01*
X945Y1965D02*
X952Y1965D01*
X0Y1964D02*
X7Y1964D01*
X945Y1964D02*
X952Y1964D01*
X0Y1963D02*
X7Y1963D01*
X945Y1963D02*
X952Y1963D01*
X0Y1962D02*
X7Y1962D01*
X945Y1962D02*
X952Y1962D01*
X0Y1961D02*
X7Y1961D01*
X945Y1961D02*
X952Y1961D01*
X0Y1960D02*
X7Y1960D01*
X945Y1960D02*
X952Y1960D01*
X0Y1959D02*
X7Y1959D01*
X836Y1959D02*
X862Y1959D01*
X945Y1959D02*
X952Y1959D01*
X0Y1958D02*
X7Y1958D01*
X836Y1958D02*
X864Y1958D01*
X945Y1958D02*
X952Y1958D01*
X0Y1957D02*
X7Y1957D01*
X836Y1957D02*
X866Y1957D01*
X945Y1957D02*
X952Y1957D01*
X0Y1956D02*
X7Y1956D01*
X836Y1956D02*
X867Y1956D01*
X945Y1956D02*
X952Y1956D01*
X0Y1955D02*
X7Y1955D01*
X836Y1955D02*
X868Y1955D01*
X945Y1955D02*
X952Y1955D01*
X0Y1954D02*
X7Y1954D01*
X836Y1954D02*
X868Y1954D01*
X945Y1954D02*
X952Y1954D01*
X0Y1953D02*
X7Y1953D01*
X836Y1953D02*
X869Y1953D01*
X945Y1953D02*
X952Y1953D01*
X0Y1952D02*
X7Y1952D01*
X836Y1952D02*
X842Y1952D01*
X862Y1952D02*
X869Y1952D01*
X945Y1952D02*
X952Y1952D01*
X0Y1951D02*
X7Y1951D01*
X836Y1951D02*
X842Y1951D01*
X863Y1951D02*
X870Y1951D01*
X945Y1951D02*
X952Y1951D01*
X0Y1950D02*
X7Y1950D01*
X836Y1950D02*
X842Y1950D01*
X864Y1950D02*
X870Y1950D01*
X945Y1950D02*
X952Y1950D01*
X0Y1949D02*
X7Y1949D01*
X836Y1949D02*
X842Y1949D01*
X864Y1949D02*
X870Y1949D01*
X945Y1949D02*
X952Y1949D01*
X0Y1948D02*
X7Y1948D01*
X836Y1948D02*
X842Y1948D01*
X864Y1948D02*
X870Y1948D01*
X945Y1948D02*
X952Y1948D01*
X0Y1947D02*
X7Y1947D01*
X836Y1947D02*
X842Y1947D01*
X864Y1947D02*
X870Y1947D01*
X945Y1947D02*
X952Y1947D01*
X0Y1946D02*
X7Y1946D01*
X836Y1946D02*
X842Y1946D01*
X864Y1946D02*
X870Y1946D01*
X945Y1946D02*
X952Y1946D01*
X0Y1945D02*
X7Y1945D01*
X836Y1945D02*
X842Y1945D01*
X864Y1945D02*
X870Y1945D01*
X945Y1945D02*
X952Y1945D01*
X0Y1944D02*
X7Y1944D01*
X836Y1944D02*
X842Y1944D01*
X864Y1944D02*
X870Y1944D01*
X895Y1944D02*
X912Y1944D01*
X938Y1944D02*
X941Y1944D01*
X0Y1943D02*
X7Y1943D01*
X836Y1943D02*
X842Y1943D01*
X864Y1943D02*
X870Y1943D01*
X894Y1943D02*
X914Y1943D01*
X937Y1943D02*
X942Y1943D01*
X0Y1942D02*
X7Y1942D01*
X836Y1942D02*
X842Y1942D01*
X864Y1942D02*
X870Y1942D01*
X893Y1942D02*
X916Y1942D01*
X937Y1942D02*
X942Y1942D01*
X0Y1941D02*
X7Y1941D01*
X836Y1941D02*
X842Y1941D01*
X864Y1941D02*
X870Y1941D01*
X893Y1941D02*
X917Y1941D01*
X937Y1941D02*
X943Y1941D01*
X0Y1940D02*
X7Y1940D01*
X836Y1940D02*
X842Y1940D01*
X864Y1940D02*
X870Y1940D01*
X894Y1940D02*
X917Y1940D01*
X937Y1940D02*
X943Y1940D01*
X0Y1939D02*
X7Y1939D01*
X836Y1939D02*
X842Y1939D01*
X864Y1939D02*
X870Y1939D01*
X894Y1939D02*
X918Y1939D01*
X937Y1939D02*
X943Y1939D01*
X0Y1938D02*
X7Y1938D01*
X836Y1938D02*
X842Y1938D01*
X864Y1938D02*
X870Y1938D01*
X895Y1938D02*
X918Y1938D01*
X937Y1938D02*
X943Y1938D01*
X0Y1937D02*
X7Y1937D01*
X836Y1937D02*
X842Y1937D01*
X864Y1937D02*
X870Y1937D01*
X912Y1937D02*
X919Y1937D01*
X937Y1937D02*
X953Y1937D01*
X0Y1936D02*
X7Y1936D01*
X836Y1936D02*
X842Y1936D01*
X864Y1936D02*
X870Y1936D01*
X912Y1936D02*
X919Y1936D01*
X937Y1936D02*
X952Y1936D01*
X0Y1935D02*
X7Y1935D01*
X836Y1935D02*
X842Y1935D01*
X863Y1935D02*
X870Y1935D01*
X913Y1935D02*
X919Y1935D01*
X937Y1935D02*
X952Y1935D01*
X0Y1934D02*
X7Y1934D01*
X836Y1934D02*
X842Y1934D01*
X863Y1934D02*
X870Y1934D01*
X913Y1934D02*
X919Y1934D01*
X937Y1934D02*
X952Y1934D01*
X0Y1933D02*
X7Y1933D01*
X836Y1933D02*
X842Y1933D01*
X861Y1933D02*
X869Y1933D01*
X913Y1933D02*
X919Y1933D01*
X937Y1933D02*
X952Y1933D01*
X0Y1932D02*
X7Y1932D01*
X836Y1932D02*
X869Y1932D01*
X913Y1932D02*
X919Y1932D01*
X937Y1932D02*
X952Y1932D01*
X0Y1931D02*
X7Y1931D01*
X836Y1931D02*
X868Y1931D01*
X913Y1931D02*
X919Y1931D01*
X937Y1931D02*
X952Y1931D01*
X0Y1930D02*
X7Y1930D01*
X836Y1930D02*
X868Y1930D01*
X913Y1930D02*
X919Y1930D01*
X937Y1930D02*
X952Y1930D01*
X0Y1929D02*
X7Y1929D01*
X836Y1929D02*
X867Y1929D01*
X893Y1929D02*
X919Y1929D01*
X937Y1929D02*
X952Y1929D01*
X0Y1928D02*
X7Y1928D01*
X836Y1928D02*
X866Y1928D01*
X891Y1928D02*
X919Y1928D01*
X937Y1928D02*
X943Y1928D01*
X945Y1928D02*
X952Y1928D01*
X0Y1927D02*
X7Y1927D01*
X836Y1927D02*
X864Y1927D01*
X890Y1927D02*
X919Y1927D01*
X937Y1927D02*
X943Y1927D01*
X945Y1927D02*
X952Y1927D01*
X0Y1926D02*
X7Y1926D01*
X836Y1926D02*
X861Y1926D01*
X889Y1926D02*
X919Y1926D01*
X937Y1926D02*
X943Y1926D01*
X945Y1926D02*
X952Y1926D01*
X0Y1925D02*
X7Y1925D01*
X836Y1925D02*
X842Y1925D01*
X888Y1925D02*
X919Y1925D01*
X937Y1925D02*
X943Y1925D01*
X945Y1925D02*
X952Y1925D01*
X0Y1924D02*
X7Y1924D01*
X836Y1924D02*
X842Y1924D01*
X887Y1924D02*
X919Y1924D01*
X937Y1924D02*
X943Y1924D01*
X945Y1924D02*
X952Y1924D01*
X0Y1923D02*
X7Y1923D01*
X836Y1923D02*
X842Y1923D01*
X887Y1923D02*
X920Y1923D01*
X937Y1923D02*
X943Y1923D01*
X945Y1923D02*
X952Y1923D01*
X0Y1922D02*
X7Y1922D01*
X836Y1922D02*
X842Y1922D01*
X887Y1922D02*
X894Y1922D01*
X912Y1922D02*
X920Y1922D01*
X937Y1922D02*
X943Y1922D01*
X945Y1922D02*
X952Y1922D01*
X0Y1921D02*
X7Y1921D01*
X836Y1921D02*
X842Y1921D01*
X887Y1921D02*
X893Y1921D01*
X913Y1921D02*
X920Y1921D01*
X937Y1921D02*
X943Y1921D01*
X945Y1921D02*
X952Y1921D01*
X0Y1920D02*
X7Y1920D01*
X836Y1920D02*
X842Y1920D01*
X886Y1920D02*
X893Y1920D01*
X914Y1920D02*
X920Y1920D01*
X937Y1920D02*
X943Y1920D01*
X945Y1920D02*
X952Y1920D01*
X0Y1919D02*
X7Y1919D01*
X836Y1919D02*
X842Y1919D01*
X886Y1919D02*
X892Y1919D01*
X914Y1919D02*
X920Y1919D01*
X937Y1919D02*
X943Y1919D01*
X945Y1919D02*
X952Y1919D01*
X0Y1918D02*
X7Y1918D01*
X836Y1918D02*
X842Y1918D01*
X886Y1918D02*
X892Y1918D01*
X914Y1918D02*
X920Y1918D01*
X937Y1918D02*
X943Y1918D01*
X945Y1918D02*
X952Y1918D01*
X0Y1917D02*
X7Y1917D01*
X836Y1917D02*
X842Y1917D01*
X886Y1917D02*
X892Y1917D01*
X914Y1917D02*
X920Y1917D01*
X937Y1917D02*
X943Y1917D01*
X945Y1917D02*
X952Y1917D01*
X0Y1916D02*
X7Y1916D01*
X836Y1916D02*
X842Y1916D01*
X886Y1916D02*
X892Y1916D01*
X913Y1916D02*
X920Y1916D01*
X937Y1916D02*
X943Y1916D01*
X945Y1916D02*
X952Y1916D01*
X0Y1915D02*
X7Y1915D01*
X836Y1915D02*
X842Y1915D01*
X886Y1915D02*
X893Y1915D01*
X911Y1915D02*
X920Y1915D01*
X937Y1915D02*
X943Y1915D01*
X945Y1915D02*
X952Y1915D01*
X0Y1914D02*
X7Y1914D01*
X836Y1914D02*
X842Y1914D01*
X887Y1914D02*
X893Y1914D01*
X909Y1914D02*
X920Y1914D01*
X937Y1914D02*
X943Y1914D01*
X945Y1914D02*
X952Y1914D01*
X0Y1913D02*
X7Y1913D01*
X836Y1913D02*
X842Y1913D01*
X887Y1913D02*
X894Y1913D01*
X908Y1913D02*
X920Y1913D01*
X937Y1913D02*
X943Y1913D01*
X945Y1913D02*
X952Y1913D01*
X0Y1912D02*
X7Y1912D01*
X836Y1912D02*
X842Y1912D01*
X887Y1912D02*
X920Y1912D01*
X937Y1912D02*
X943Y1912D01*
X945Y1912D02*
X952Y1912D01*
X0Y1911D02*
X7Y1911D01*
X836Y1911D02*
X842Y1911D01*
X888Y1911D02*
X920Y1911D01*
X937Y1911D02*
X943Y1911D01*
X945Y1911D02*
X952Y1911D01*
X0Y1910D02*
X7Y1910D01*
X836Y1910D02*
X842Y1910D01*
X888Y1910D02*
X920Y1910D01*
X937Y1910D02*
X943Y1910D01*
X945Y1910D02*
X952Y1910D01*
X0Y1909D02*
X7Y1909D01*
X836Y1909D02*
X842Y1909D01*
X889Y1909D02*
X920Y1909D01*
X937Y1909D02*
X943Y1909D01*
X945Y1909D02*
X952Y1909D01*
X0Y1908D02*
X7Y1908D01*
X836Y1908D02*
X842Y1908D01*
X890Y1908D02*
X912Y1908D01*
X914Y1908D02*
X920Y1908D01*
X937Y1908D02*
X943Y1908D01*
X945Y1908D02*
X952Y1908D01*
X0Y1907D02*
X7Y1907D01*
X837Y1907D02*
X842Y1907D01*
X891Y1907D02*
X910Y1907D01*
X914Y1907D02*
X920Y1907D01*
X937Y1907D02*
X942Y1907D01*
X945Y1907D02*
X952Y1907D01*
X0Y1906D02*
X7Y1906D01*
X838Y1906D02*
X841Y1906D01*
X893Y1906D02*
X908Y1906D01*
X915Y1906D02*
X919Y1906D01*
X938Y1906D02*
X941Y1906D01*
X945Y1906D02*
X952Y1906D01*
X0Y1905D02*
X7Y1905D01*
X945Y1905D02*
X952Y1905D01*
X0Y1904D02*
X7Y1904D01*
X945Y1904D02*
X952Y1904D01*
X0Y1903D02*
X7Y1903D01*
X945Y1903D02*
X952Y1903D01*
X0Y1902D02*
X7Y1902D01*
X945Y1902D02*
X952Y1902D01*
X0Y1901D02*
X7Y1901D01*
X945Y1901D02*
X952Y1901D01*
X0Y1900D02*
X7Y1900D01*
X945Y1900D02*
X952Y1900D01*
X0Y1899D02*
X7Y1899D01*
X945Y1899D02*
X952Y1899D01*
X0Y1898D02*
X7Y1898D01*
X945Y1898D02*
X952Y1898D01*
X0Y1897D02*
X7Y1897D01*
X945Y1897D02*
X952Y1897D01*
X0Y1896D02*
X7Y1896D01*
X945Y1896D02*
X952Y1896D01*
X0Y1895D02*
X7Y1895D01*
X945Y1895D02*
X952Y1895D01*
X0Y1894D02*
X7Y1894D01*
X945Y1894D02*
X952Y1894D01*
X0Y1893D02*
X7Y1893D01*
X945Y1893D02*
X952Y1893D01*
X0Y1892D02*
X7Y1892D01*
X945Y1892D02*
X952Y1892D01*
X0Y1891D02*
X7Y1891D01*
X945Y1891D02*
X952Y1891D01*
X0Y1890D02*
X7Y1890D01*
X945Y1890D02*
X952Y1890D01*
X0Y1889D02*
X7Y1889D01*
X945Y1889D02*
X952Y1889D01*
X0Y1888D02*
X7Y1888D01*
X945Y1888D02*
X952Y1888D01*
X0Y1887D02*
X7Y1887D01*
X945Y1887D02*
X952Y1887D01*
X0Y1886D02*
X7Y1886D01*
X945Y1886D02*
X952Y1886D01*
X0Y1885D02*
X7Y1885D01*
X945Y1885D02*
X952Y1885D01*
X0Y1884D02*
X7Y1884D01*
X945Y1884D02*
X952Y1884D01*
X0Y1883D02*
X7Y1883D01*
X945Y1883D02*
X952Y1883D01*
X0Y1882D02*
X7Y1882D01*
X945Y1882D02*
X952Y1882D01*
X0Y1881D02*
X7Y1881D01*
X945Y1881D02*
X952Y1881D01*
X0Y1880D02*
X7Y1880D01*
X945Y1880D02*
X952Y1880D01*
X0Y1879D02*
X7Y1879D01*
X129Y1879D02*
X827Y1879D01*
X945Y1879D02*
X952Y1879D01*
X0Y1878D02*
X7Y1878D01*
X129Y1878D02*
X827Y1878D01*
X945Y1878D02*
X952Y1878D01*
X0Y1877D02*
X7Y1877D01*
X129Y1877D02*
X827Y1877D01*
X945Y1877D02*
X952Y1877D01*
X0Y1876D02*
X7Y1876D01*
X129Y1876D02*
X827Y1876D01*
X945Y1876D02*
X952Y1876D01*
X0Y1875D02*
X7Y1875D01*
X129Y1875D02*
X827Y1875D01*
X945Y1875D02*
X952Y1875D01*
X0Y1874D02*
X7Y1874D01*
X129Y1874D02*
X827Y1874D01*
X945Y1874D02*
X952Y1874D01*
X0Y1873D02*
X7Y1873D01*
X129Y1873D02*
X472Y1873D01*
X484Y1873D02*
X827Y1873D01*
X945Y1873D02*
X952Y1873D01*
X0Y1872D02*
X7Y1872D01*
X129Y1872D02*
X466Y1872D01*
X489Y1872D02*
X827Y1872D01*
X945Y1872D02*
X952Y1872D01*
X0Y1871D02*
X7Y1871D01*
X129Y1871D02*
X136Y1871D01*
X820Y1871D02*
X827Y1871D01*
X945Y1871D02*
X952Y1871D01*
X0Y1870D02*
X7Y1870D01*
X129Y1870D02*
X136Y1870D01*
X820Y1870D02*
X827Y1870D01*
X945Y1870D02*
X952Y1870D01*
X0Y1869D02*
X7Y1869D01*
X129Y1869D02*
X136Y1869D01*
X820Y1869D02*
X827Y1869D01*
X945Y1869D02*
X952Y1869D01*
X0Y1868D02*
X7Y1868D01*
X129Y1868D02*
X136Y1868D01*
X820Y1868D02*
X827Y1868D01*
X945Y1868D02*
X952Y1868D01*
X0Y1867D02*
X7Y1867D01*
X129Y1867D02*
X136Y1867D01*
X820Y1867D02*
X827Y1867D01*
X945Y1867D02*
X952Y1867D01*
X0Y1866D02*
X7Y1866D01*
X129Y1866D02*
X136Y1866D01*
X820Y1866D02*
X827Y1866D01*
X945Y1866D02*
X952Y1866D01*
X0Y1865D02*
X7Y1865D01*
X129Y1865D02*
X136Y1865D01*
X820Y1865D02*
X827Y1865D01*
X945Y1865D02*
X952Y1865D01*
X0Y1864D02*
X7Y1864D01*
X129Y1864D02*
X136Y1864D01*
X820Y1864D02*
X827Y1864D01*
X945Y1864D02*
X952Y1864D01*
X0Y1863D02*
X7Y1863D01*
X129Y1863D02*
X136Y1863D01*
X820Y1863D02*
X827Y1863D01*
X945Y1863D02*
X952Y1863D01*
X0Y1862D02*
X7Y1862D01*
X129Y1862D02*
X136Y1862D01*
X820Y1862D02*
X827Y1862D01*
X945Y1862D02*
X952Y1862D01*
X0Y1861D02*
X7Y1861D01*
X129Y1861D02*
X136Y1861D01*
X820Y1861D02*
X827Y1861D01*
X945Y1861D02*
X952Y1861D01*
X0Y1860D02*
X7Y1860D01*
X129Y1860D02*
X136Y1860D01*
X820Y1860D02*
X827Y1860D01*
X945Y1860D02*
X952Y1860D01*
X0Y1859D02*
X7Y1859D01*
X129Y1859D02*
X136Y1859D01*
X820Y1859D02*
X827Y1859D01*
X945Y1859D02*
X952Y1859D01*
X0Y1858D02*
X7Y1858D01*
X129Y1858D02*
X136Y1858D01*
X820Y1858D02*
X827Y1858D01*
X945Y1858D02*
X952Y1858D01*
X0Y1857D02*
X7Y1857D01*
X129Y1857D02*
X136Y1857D01*
X820Y1857D02*
X827Y1857D01*
X945Y1857D02*
X952Y1857D01*
X0Y1856D02*
X7Y1856D01*
X129Y1856D02*
X136Y1856D01*
X820Y1856D02*
X827Y1856D01*
X945Y1856D02*
X952Y1856D01*
X0Y1855D02*
X7Y1855D01*
X129Y1855D02*
X136Y1855D01*
X820Y1855D02*
X827Y1855D01*
X945Y1855D02*
X952Y1855D01*
X0Y1854D02*
X7Y1854D01*
X129Y1854D02*
X136Y1854D01*
X820Y1854D02*
X827Y1854D01*
X945Y1854D02*
X952Y1854D01*
X0Y1853D02*
X7Y1853D01*
X129Y1853D02*
X136Y1853D01*
X820Y1853D02*
X827Y1853D01*
X945Y1853D02*
X952Y1853D01*
X0Y1852D02*
X7Y1852D01*
X129Y1852D02*
X136Y1852D01*
X820Y1852D02*
X827Y1852D01*
X945Y1852D02*
X952Y1852D01*
X0Y1851D02*
X7Y1851D01*
X129Y1851D02*
X136Y1851D01*
X820Y1851D02*
X827Y1851D01*
X945Y1851D02*
X952Y1851D01*
X0Y1850D02*
X7Y1850D01*
X129Y1850D02*
X136Y1850D01*
X820Y1850D02*
X827Y1850D01*
X945Y1850D02*
X952Y1850D01*
X0Y1849D02*
X7Y1849D01*
X129Y1849D02*
X136Y1849D01*
X820Y1849D02*
X827Y1849D01*
X945Y1849D02*
X952Y1849D01*
X0Y1848D02*
X7Y1848D01*
X129Y1848D02*
X136Y1848D01*
X820Y1848D02*
X827Y1848D01*
X945Y1848D02*
X952Y1848D01*
X0Y1847D02*
X7Y1847D01*
X129Y1847D02*
X136Y1847D01*
X820Y1847D02*
X827Y1847D01*
X945Y1847D02*
X952Y1847D01*
X0Y1846D02*
X7Y1846D01*
X129Y1846D02*
X136Y1846D01*
X820Y1846D02*
X827Y1846D01*
X945Y1846D02*
X952Y1846D01*
X0Y1845D02*
X7Y1845D01*
X129Y1845D02*
X136Y1845D01*
X820Y1845D02*
X827Y1845D01*
X945Y1845D02*
X952Y1845D01*
X0Y1844D02*
X7Y1844D01*
X129Y1844D02*
X136Y1844D01*
X820Y1844D02*
X827Y1844D01*
X945Y1844D02*
X952Y1844D01*
X0Y1843D02*
X7Y1843D01*
X129Y1843D02*
X136Y1843D01*
X820Y1843D02*
X827Y1843D01*
X945Y1843D02*
X952Y1843D01*
X0Y1842D02*
X7Y1842D01*
X129Y1842D02*
X136Y1842D01*
X820Y1842D02*
X827Y1842D01*
X945Y1842D02*
X952Y1842D01*
X0Y1841D02*
X7Y1841D01*
X129Y1841D02*
X136Y1841D01*
X820Y1841D02*
X827Y1841D01*
X945Y1841D02*
X952Y1841D01*
X0Y1840D02*
X7Y1840D01*
X129Y1840D02*
X136Y1840D01*
X820Y1840D02*
X827Y1840D01*
X945Y1840D02*
X952Y1840D01*
X0Y1839D02*
X7Y1839D01*
X129Y1839D02*
X136Y1839D01*
X820Y1839D02*
X827Y1839D01*
X945Y1839D02*
X952Y1839D01*
X0Y1838D02*
X7Y1838D01*
X129Y1838D02*
X136Y1838D01*
X820Y1838D02*
X827Y1838D01*
X945Y1838D02*
X952Y1838D01*
X0Y1837D02*
X7Y1837D01*
X129Y1837D02*
X136Y1837D01*
X820Y1837D02*
X827Y1837D01*
X945Y1837D02*
X952Y1837D01*
X0Y1836D02*
X7Y1836D01*
X129Y1836D02*
X136Y1836D01*
X820Y1836D02*
X827Y1836D01*
X945Y1836D02*
X952Y1836D01*
X0Y1835D02*
X7Y1835D01*
X129Y1835D02*
X136Y1835D01*
X820Y1835D02*
X827Y1835D01*
X945Y1835D02*
X952Y1835D01*
X0Y1834D02*
X7Y1834D01*
X129Y1834D02*
X136Y1834D01*
X820Y1834D02*
X827Y1834D01*
X945Y1834D02*
X952Y1834D01*
X0Y1833D02*
X7Y1833D01*
X129Y1833D02*
X136Y1833D01*
X820Y1833D02*
X827Y1833D01*
X945Y1833D02*
X952Y1833D01*
X0Y1832D02*
X7Y1832D01*
X129Y1832D02*
X136Y1832D01*
X820Y1832D02*
X827Y1832D01*
X945Y1832D02*
X952Y1832D01*
X0Y1831D02*
X7Y1831D01*
X129Y1831D02*
X136Y1831D01*
X820Y1831D02*
X827Y1831D01*
X945Y1831D02*
X952Y1831D01*
X0Y1830D02*
X7Y1830D01*
X129Y1830D02*
X136Y1830D01*
X820Y1830D02*
X827Y1830D01*
X945Y1830D02*
X952Y1830D01*
X0Y1829D02*
X7Y1829D01*
X129Y1829D02*
X136Y1829D01*
X820Y1829D02*
X827Y1829D01*
X945Y1829D02*
X952Y1829D01*
X0Y1828D02*
X7Y1828D01*
X129Y1828D02*
X136Y1828D01*
X820Y1828D02*
X827Y1828D01*
X945Y1828D02*
X952Y1828D01*
X0Y1827D02*
X7Y1827D01*
X129Y1827D02*
X136Y1827D01*
X820Y1827D02*
X827Y1827D01*
X945Y1827D02*
X952Y1827D01*
X0Y1826D02*
X7Y1826D01*
X129Y1826D02*
X136Y1826D01*
X820Y1826D02*
X827Y1826D01*
X945Y1826D02*
X952Y1826D01*
X0Y1825D02*
X7Y1825D01*
X129Y1825D02*
X136Y1825D01*
X820Y1825D02*
X827Y1825D01*
X945Y1825D02*
X952Y1825D01*
X0Y1824D02*
X7Y1824D01*
X129Y1824D02*
X136Y1824D01*
X820Y1824D02*
X827Y1824D01*
X945Y1824D02*
X952Y1824D01*
X0Y1823D02*
X7Y1823D01*
X129Y1823D02*
X136Y1823D01*
X820Y1823D02*
X827Y1823D01*
X945Y1823D02*
X952Y1823D01*
X0Y1822D02*
X7Y1822D01*
X129Y1822D02*
X136Y1822D01*
X820Y1822D02*
X827Y1822D01*
X945Y1822D02*
X952Y1822D01*
X0Y1821D02*
X7Y1821D01*
X129Y1821D02*
X136Y1821D01*
X820Y1821D02*
X827Y1821D01*
X945Y1821D02*
X952Y1821D01*
X0Y1820D02*
X7Y1820D01*
X129Y1820D02*
X136Y1820D01*
X820Y1820D02*
X827Y1820D01*
X945Y1820D02*
X952Y1820D01*
X0Y1819D02*
X7Y1819D01*
X129Y1819D02*
X136Y1819D01*
X820Y1819D02*
X827Y1819D01*
X945Y1819D02*
X952Y1819D01*
X0Y1818D02*
X7Y1818D01*
X129Y1818D02*
X136Y1818D01*
X820Y1818D02*
X827Y1818D01*
X945Y1818D02*
X952Y1818D01*
X0Y1817D02*
X7Y1817D01*
X129Y1817D02*
X136Y1817D01*
X820Y1817D02*
X827Y1817D01*
X945Y1817D02*
X952Y1817D01*
X0Y1816D02*
X7Y1816D01*
X129Y1816D02*
X136Y1816D01*
X820Y1816D02*
X827Y1816D01*
X945Y1816D02*
X952Y1816D01*
X0Y1815D02*
X7Y1815D01*
X129Y1815D02*
X136Y1815D01*
X820Y1815D02*
X827Y1815D01*
X945Y1815D02*
X952Y1815D01*
X0Y1814D02*
X7Y1814D01*
X129Y1814D02*
X136Y1814D01*
X820Y1814D02*
X827Y1814D01*
X945Y1814D02*
X952Y1814D01*
X0Y1813D02*
X7Y1813D01*
X129Y1813D02*
X136Y1813D01*
X820Y1813D02*
X827Y1813D01*
X945Y1813D02*
X952Y1813D01*
X0Y1812D02*
X7Y1812D01*
X129Y1812D02*
X136Y1812D01*
X820Y1812D02*
X827Y1812D01*
X945Y1812D02*
X952Y1812D01*
X0Y1811D02*
X7Y1811D01*
X129Y1811D02*
X136Y1811D01*
X820Y1811D02*
X827Y1811D01*
X945Y1811D02*
X952Y1811D01*
X0Y1810D02*
X7Y1810D01*
X129Y1810D02*
X136Y1810D01*
X820Y1810D02*
X827Y1810D01*
X945Y1810D02*
X952Y1810D01*
X0Y1809D02*
X7Y1809D01*
X129Y1809D02*
X136Y1809D01*
X820Y1809D02*
X827Y1809D01*
X945Y1809D02*
X952Y1809D01*
X0Y1808D02*
X7Y1808D01*
X129Y1808D02*
X136Y1808D01*
X820Y1808D02*
X827Y1808D01*
X945Y1808D02*
X952Y1808D01*
X0Y1807D02*
X7Y1807D01*
X129Y1807D02*
X136Y1807D01*
X820Y1807D02*
X827Y1807D01*
X945Y1807D02*
X952Y1807D01*
X0Y1806D02*
X7Y1806D01*
X129Y1806D02*
X136Y1806D01*
X820Y1806D02*
X827Y1806D01*
X945Y1806D02*
X952Y1806D01*
X0Y1805D02*
X7Y1805D01*
X129Y1805D02*
X136Y1805D01*
X820Y1805D02*
X827Y1805D01*
X945Y1805D02*
X952Y1805D01*
X0Y1804D02*
X7Y1804D01*
X129Y1804D02*
X136Y1804D01*
X820Y1804D02*
X827Y1804D01*
X945Y1804D02*
X952Y1804D01*
X0Y1803D02*
X7Y1803D01*
X129Y1803D02*
X136Y1803D01*
X820Y1803D02*
X827Y1803D01*
X945Y1803D02*
X952Y1803D01*
X0Y1802D02*
X7Y1802D01*
X129Y1802D02*
X136Y1802D01*
X820Y1802D02*
X827Y1802D01*
X945Y1802D02*
X952Y1802D01*
X0Y1801D02*
X7Y1801D01*
X129Y1801D02*
X136Y1801D01*
X820Y1801D02*
X827Y1801D01*
X945Y1801D02*
X952Y1801D01*
X0Y1800D02*
X7Y1800D01*
X129Y1800D02*
X136Y1800D01*
X820Y1800D02*
X827Y1800D01*
X945Y1800D02*
X952Y1800D01*
X0Y1799D02*
X7Y1799D01*
X129Y1799D02*
X136Y1799D01*
X820Y1799D02*
X827Y1799D01*
X945Y1799D02*
X952Y1799D01*
X0Y1798D02*
X7Y1798D01*
X129Y1798D02*
X136Y1798D01*
X820Y1798D02*
X827Y1798D01*
X945Y1798D02*
X952Y1798D01*
X0Y1797D02*
X7Y1797D01*
X129Y1797D02*
X136Y1797D01*
X820Y1797D02*
X827Y1797D01*
X945Y1797D02*
X952Y1797D01*
X0Y1796D02*
X7Y1796D01*
X129Y1796D02*
X136Y1796D01*
X820Y1796D02*
X827Y1796D01*
X945Y1796D02*
X952Y1796D01*
X0Y1795D02*
X7Y1795D01*
X129Y1795D02*
X136Y1795D01*
X820Y1795D02*
X827Y1795D01*
X945Y1795D02*
X952Y1795D01*
X0Y1794D02*
X7Y1794D01*
X129Y1794D02*
X136Y1794D01*
X820Y1794D02*
X827Y1794D01*
X945Y1794D02*
X952Y1794D01*
X0Y1793D02*
X7Y1793D01*
X129Y1793D02*
X136Y1793D01*
X820Y1793D02*
X827Y1793D01*
X945Y1793D02*
X952Y1793D01*
X0Y1792D02*
X7Y1792D01*
X129Y1792D02*
X136Y1792D01*
X820Y1792D02*
X827Y1792D01*
X945Y1792D02*
X952Y1792D01*
X0Y1791D02*
X7Y1791D01*
X129Y1791D02*
X136Y1791D01*
X820Y1791D02*
X827Y1791D01*
X945Y1791D02*
X952Y1791D01*
X0Y1790D02*
X7Y1790D01*
X129Y1790D02*
X136Y1790D01*
X820Y1790D02*
X827Y1790D01*
X945Y1790D02*
X952Y1790D01*
X0Y1789D02*
X7Y1789D01*
X129Y1789D02*
X136Y1789D01*
X820Y1789D02*
X827Y1789D01*
X945Y1789D02*
X952Y1789D01*
X0Y1788D02*
X7Y1788D01*
X129Y1788D02*
X136Y1788D01*
X820Y1788D02*
X827Y1788D01*
X945Y1788D02*
X952Y1788D01*
X0Y1787D02*
X7Y1787D01*
X129Y1787D02*
X136Y1787D01*
X820Y1787D02*
X827Y1787D01*
X945Y1787D02*
X952Y1787D01*
X0Y1786D02*
X7Y1786D01*
X129Y1786D02*
X136Y1786D01*
X820Y1786D02*
X827Y1786D01*
X945Y1786D02*
X952Y1786D01*
X0Y1785D02*
X7Y1785D01*
X129Y1785D02*
X136Y1785D01*
X820Y1785D02*
X827Y1785D01*
X945Y1785D02*
X952Y1785D01*
X0Y1784D02*
X7Y1784D01*
X129Y1784D02*
X136Y1784D01*
X820Y1784D02*
X827Y1784D01*
X945Y1784D02*
X952Y1784D01*
X0Y1783D02*
X7Y1783D01*
X129Y1783D02*
X136Y1783D01*
X820Y1783D02*
X827Y1783D01*
X945Y1783D02*
X952Y1783D01*
X0Y1782D02*
X7Y1782D01*
X129Y1782D02*
X136Y1782D01*
X820Y1782D02*
X827Y1782D01*
X945Y1782D02*
X952Y1782D01*
X0Y1781D02*
X7Y1781D01*
X129Y1781D02*
X136Y1781D01*
X820Y1781D02*
X827Y1781D01*
X945Y1781D02*
X952Y1781D01*
X0Y1780D02*
X7Y1780D01*
X129Y1780D02*
X136Y1780D01*
X820Y1780D02*
X827Y1780D01*
X945Y1780D02*
X952Y1780D01*
X0Y1779D02*
X7Y1779D01*
X129Y1779D02*
X136Y1779D01*
X820Y1779D02*
X827Y1779D01*
X945Y1779D02*
X952Y1779D01*
X0Y1778D02*
X7Y1778D01*
X129Y1778D02*
X136Y1778D01*
X820Y1778D02*
X827Y1778D01*
X945Y1778D02*
X952Y1778D01*
X0Y1777D02*
X7Y1777D01*
X129Y1777D02*
X136Y1777D01*
X820Y1777D02*
X827Y1777D01*
X945Y1777D02*
X952Y1777D01*
X0Y1776D02*
X7Y1776D01*
X129Y1776D02*
X136Y1776D01*
X820Y1776D02*
X827Y1776D01*
X945Y1776D02*
X952Y1776D01*
X0Y1775D02*
X7Y1775D01*
X129Y1775D02*
X136Y1775D01*
X820Y1775D02*
X827Y1775D01*
X945Y1775D02*
X952Y1775D01*
X0Y1774D02*
X7Y1774D01*
X129Y1774D02*
X136Y1774D01*
X820Y1774D02*
X827Y1774D01*
X945Y1774D02*
X952Y1774D01*
X0Y1773D02*
X7Y1773D01*
X129Y1773D02*
X136Y1773D01*
X820Y1773D02*
X827Y1773D01*
X945Y1773D02*
X952Y1773D01*
X0Y1772D02*
X7Y1772D01*
X129Y1772D02*
X136Y1772D01*
X820Y1772D02*
X827Y1772D01*
X945Y1772D02*
X952Y1772D01*
X0Y1771D02*
X7Y1771D01*
X129Y1771D02*
X136Y1771D01*
X820Y1771D02*
X827Y1771D01*
X945Y1771D02*
X952Y1771D01*
X0Y1770D02*
X7Y1770D01*
X129Y1770D02*
X136Y1770D01*
X820Y1770D02*
X827Y1770D01*
X945Y1770D02*
X952Y1770D01*
X0Y1769D02*
X7Y1769D01*
X129Y1769D02*
X136Y1769D01*
X820Y1769D02*
X827Y1769D01*
X945Y1769D02*
X952Y1769D01*
X0Y1768D02*
X7Y1768D01*
X129Y1768D02*
X136Y1768D01*
X820Y1768D02*
X827Y1768D01*
X945Y1768D02*
X952Y1768D01*
X0Y1767D02*
X7Y1767D01*
X129Y1767D02*
X136Y1767D01*
X820Y1767D02*
X827Y1767D01*
X945Y1767D02*
X952Y1767D01*
X0Y1766D02*
X7Y1766D01*
X129Y1766D02*
X136Y1766D01*
X820Y1766D02*
X827Y1766D01*
X945Y1766D02*
X952Y1766D01*
X0Y1765D02*
X7Y1765D01*
X129Y1765D02*
X136Y1765D01*
X820Y1765D02*
X827Y1765D01*
X945Y1765D02*
X952Y1765D01*
X0Y1764D02*
X7Y1764D01*
X129Y1764D02*
X136Y1764D01*
X820Y1764D02*
X827Y1764D01*
X945Y1764D02*
X952Y1764D01*
X0Y1763D02*
X7Y1763D01*
X129Y1763D02*
X136Y1763D01*
X820Y1763D02*
X827Y1763D01*
X945Y1763D02*
X952Y1763D01*
X0Y1762D02*
X7Y1762D01*
X129Y1762D02*
X136Y1762D01*
X820Y1762D02*
X827Y1762D01*
X945Y1762D02*
X952Y1762D01*
X0Y1761D02*
X7Y1761D01*
X129Y1761D02*
X136Y1761D01*
X820Y1761D02*
X827Y1761D01*
X945Y1761D02*
X952Y1761D01*
X0Y1760D02*
X7Y1760D01*
X129Y1760D02*
X136Y1760D01*
X820Y1760D02*
X827Y1760D01*
X945Y1760D02*
X952Y1760D01*
X0Y1759D02*
X7Y1759D01*
X129Y1759D02*
X136Y1759D01*
X820Y1759D02*
X827Y1759D01*
X945Y1759D02*
X952Y1759D01*
X0Y1758D02*
X7Y1758D01*
X129Y1758D02*
X136Y1758D01*
X820Y1758D02*
X827Y1758D01*
X945Y1758D02*
X952Y1758D01*
X0Y1757D02*
X7Y1757D01*
X129Y1757D02*
X136Y1757D01*
X820Y1757D02*
X827Y1757D01*
X945Y1757D02*
X952Y1757D01*
X0Y1756D02*
X7Y1756D01*
X129Y1756D02*
X136Y1756D01*
X820Y1756D02*
X827Y1756D01*
X945Y1756D02*
X952Y1756D01*
X0Y1755D02*
X7Y1755D01*
X129Y1755D02*
X136Y1755D01*
X820Y1755D02*
X827Y1755D01*
X945Y1755D02*
X952Y1755D01*
X0Y1754D02*
X7Y1754D01*
X129Y1754D02*
X136Y1754D01*
X820Y1754D02*
X827Y1754D01*
X945Y1754D02*
X952Y1754D01*
X0Y1753D02*
X7Y1753D01*
X129Y1753D02*
X136Y1753D01*
X820Y1753D02*
X827Y1753D01*
X945Y1753D02*
X952Y1753D01*
X0Y1752D02*
X7Y1752D01*
X129Y1752D02*
X136Y1752D01*
X820Y1752D02*
X827Y1752D01*
X945Y1752D02*
X952Y1752D01*
X0Y1751D02*
X7Y1751D01*
X129Y1751D02*
X136Y1751D01*
X820Y1751D02*
X827Y1751D01*
X945Y1751D02*
X952Y1751D01*
X0Y1750D02*
X7Y1750D01*
X129Y1750D02*
X136Y1750D01*
X820Y1750D02*
X827Y1750D01*
X945Y1750D02*
X952Y1750D01*
X0Y1749D02*
X7Y1749D01*
X129Y1749D02*
X136Y1749D01*
X820Y1749D02*
X827Y1749D01*
X945Y1749D02*
X952Y1749D01*
X0Y1748D02*
X7Y1748D01*
X129Y1748D02*
X136Y1748D01*
X820Y1748D02*
X827Y1748D01*
X945Y1748D02*
X952Y1748D01*
X0Y1747D02*
X7Y1747D01*
X129Y1747D02*
X136Y1747D01*
X820Y1747D02*
X827Y1747D01*
X945Y1747D02*
X952Y1747D01*
X0Y1746D02*
X7Y1746D01*
X129Y1746D02*
X136Y1746D01*
X820Y1746D02*
X827Y1746D01*
X945Y1746D02*
X952Y1746D01*
X0Y1745D02*
X7Y1745D01*
X129Y1745D02*
X136Y1745D01*
X820Y1745D02*
X827Y1745D01*
X945Y1745D02*
X952Y1745D01*
X0Y1744D02*
X7Y1744D01*
X129Y1744D02*
X136Y1744D01*
X820Y1744D02*
X827Y1744D01*
X945Y1744D02*
X952Y1744D01*
X0Y1743D02*
X7Y1743D01*
X129Y1743D02*
X136Y1743D01*
X820Y1743D02*
X827Y1743D01*
X945Y1743D02*
X952Y1743D01*
X0Y1742D02*
X7Y1742D01*
X129Y1742D02*
X136Y1742D01*
X820Y1742D02*
X827Y1742D01*
X945Y1742D02*
X952Y1742D01*
X0Y1741D02*
X7Y1741D01*
X129Y1741D02*
X136Y1741D01*
X820Y1741D02*
X827Y1741D01*
X945Y1741D02*
X952Y1741D01*
X0Y1740D02*
X7Y1740D01*
X129Y1740D02*
X136Y1740D01*
X820Y1740D02*
X827Y1740D01*
X945Y1740D02*
X952Y1740D01*
X0Y1739D02*
X7Y1739D01*
X129Y1739D02*
X136Y1739D01*
X820Y1739D02*
X827Y1739D01*
X945Y1739D02*
X952Y1739D01*
X0Y1738D02*
X7Y1738D01*
X129Y1738D02*
X136Y1738D01*
X820Y1738D02*
X827Y1738D01*
X945Y1738D02*
X952Y1738D01*
X0Y1737D02*
X7Y1737D01*
X129Y1737D02*
X136Y1737D01*
X820Y1737D02*
X827Y1737D01*
X945Y1737D02*
X952Y1737D01*
X0Y1736D02*
X7Y1736D01*
X129Y1736D02*
X136Y1736D01*
X820Y1736D02*
X827Y1736D01*
X945Y1736D02*
X952Y1736D01*
X0Y1735D02*
X7Y1735D01*
X129Y1735D02*
X136Y1735D01*
X820Y1735D02*
X827Y1735D01*
X945Y1735D02*
X952Y1735D01*
X0Y1734D02*
X7Y1734D01*
X129Y1734D02*
X136Y1734D01*
X820Y1734D02*
X827Y1734D01*
X945Y1734D02*
X952Y1734D01*
X0Y1733D02*
X7Y1733D01*
X129Y1733D02*
X136Y1733D01*
X820Y1733D02*
X827Y1733D01*
X945Y1733D02*
X952Y1733D01*
X0Y1732D02*
X7Y1732D01*
X129Y1732D02*
X136Y1732D01*
X820Y1732D02*
X827Y1732D01*
X945Y1732D02*
X952Y1732D01*
X0Y1731D02*
X7Y1731D01*
X129Y1731D02*
X136Y1731D01*
X820Y1731D02*
X827Y1731D01*
X945Y1731D02*
X952Y1731D01*
X0Y1730D02*
X7Y1730D01*
X129Y1730D02*
X136Y1730D01*
X820Y1730D02*
X827Y1730D01*
X945Y1730D02*
X952Y1730D01*
X0Y1729D02*
X7Y1729D01*
X129Y1729D02*
X136Y1729D01*
X820Y1729D02*
X827Y1729D01*
X945Y1729D02*
X952Y1729D01*
X0Y1728D02*
X7Y1728D01*
X129Y1728D02*
X136Y1728D01*
X820Y1728D02*
X827Y1728D01*
X945Y1728D02*
X952Y1728D01*
X0Y1727D02*
X7Y1727D01*
X129Y1727D02*
X136Y1727D01*
X820Y1727D02*
X827Y1727D01*
X945Y1727D02*
X952Y1727D01*
X0Y1726D02*
X7Y1726D01*
X129Y1726D02*
X136Y1726D01*
X820Y1726D02*
X827Y1726D01*
X945Y1726D02*
X952Y1726D01*
X0Y1725D02*
X7Y1725D01*
X129Y1725D02*
X136Y1725D01*
X820Y1725D02*
X827Y1725D01*
X945Y1725D02*
X952Y1725D01*
X0Y1724D02*
X7Y1724D01*
X129Y1724D02*
X136Y1724D01*
X820Y1724D02*
X827Y1724D01*
X945Y1724D02*
X952Y1724D01*
X0Y1723D02*
X7Y1723D01*
X129Y1723D02*
X136Y1723D01*
X820Y1723D02*
X827Y1723D01*
X945Y1723D02*
X952Y1723D01*
X0Y1722D02*
X7Y1722D01*
X129Y1722D02*
X136Y1722D01*
X820Y1722D02*
X827Y1722D01*
X945Y1722D02*
X952Y1722D01*
X0Y1721D02*
X7Y1721D01*
X129Y1721D02*
X136Y1721D01*
X820Y1721D02*
X827Y1721D01*
X945Y1721D02*
X952Y1721D01*
X0Y1720D02*
X7Y1720D01*
X129Y1720D02*
X136Y1720D01*
X820Y1720D02*
X827Y1720D01*
X945Y1720D02*
X952Y1720D01*
X0Y1719D02*
X7Y1719D01*
X129Y1719D02*
X136Y1719D01*
X820Y1719D02*
X827Y1719D01*
X945Y1719D02*
X952Y1719D01*
X0Y1718D02*
X7Y1718D01*
X129Y1718D02*
X136Y1718D01*
X820Y1718D02*
X827Y1718D01*
X945Y1718D02*
X952Y1718D01*
X0Y1717D02*
X7Y1717D01*
X129Y1717D02*
X136Y1717D01*
X820Y1717D02*
X827Y1717D01*
X945Y1717D02*
X952Y1717D01*
X0Y1716D02*
X7Y1716D01*
X129Y1716D02*
X136Y1716D01*
X820Y1716D02*
X827Y1716D01*
X945Y1716D02*
X952Y1716D01*
X0Y1715D02*
X7Y1715D01*
X129Y1715D02*
X136Y1715D01*
X820Y1715D02*
X827Y1715D01*
X945Y1715D02*
X952Y1715D01*
X0Y1714D02*
X7Y1714D01*
X129Y1714D02*
X136Y1714D01*
X820Y1714D02*
X827Y1714D01*
X945Y1714D02*
X952Y1714D01*
X0Y1713D02*
X7Y1713D01*
X129Y1713D02*
X136Y1713D01*
X820Y1713D02*
X827Y1713D01*
X945Y1713D02*
X952Y1713D01*
X0Y1712D02*
X7Y1712D01*
X129Y1712D02*
X136Y1712D01*
X820Y1712D02*
X827Y1712D01*
X945Y1712D02*
X952Y1712D01*
X0Y1711D02*
X7Y1711D01*
X129Y1711D02*
X136Y1711D01*
X820Y1711D02*
X827Y1711D01*
X945Y1711D02*
X952Y1711D01*
X0Y1710D02*
X7Y1710D01*
X129Y1710D02*
X136Y1710D01*
X820Y1710D02*
X827Y1710D01*
X945Y1710D02*
X952Y1710D01*
X0Y1709D02*
X7Y1709D01*
X129Y1709D02*
X136Y1709D01*
X820Y1709D02*
X827Y1709D01*
X945Y1709D02*
X952Y1709D01*
X0Y1708D02*
X7Y1708D01*
X129Y1708D02*
X136Y1708D01*
X820Y1708D02*
X827Y1708D01*
X945Y1708D02*
X952Y1708D01*
X0Y1707D02*
X7Y1707D01*
X129Y1707D02*
X136Y1707D01*
X820Y1707D02*
X827Y1707D01*
X945Y1707D02*
X952Y1707D01*
X0Y1706D02*
X7Y1706D01*
X129Y1706D02*
X136Y1706D01*
X820Y1706D02*
X827Y1706D01*
X945Y1706D02*
X952Y1706D01*
X0Y1705D02*
X7Y1705D01*
X129Y1705D02*
X136Y1705D01*
X820Y1705D02*
X827Y1705D01*
X945Y1705D02*
X952Y1705D01*
X0Y1704D02*
X7Y1704D01*
X129Y1704D02*
X136Y1704D01*
X820Y1704D02*
X827Y1704D01*
X945Y1704D02*
X952Y1704D01*
X0Y1703D02*
X7Y1703D01*
X129Y1703D02*
X136Y1703D01*
X820Y1703D02*
X827Y1703D01*
X945Y1703D02*
X952Y1703D01*
X0Y1702D02*
X7Y1702D01*
X129Y1702D02*
X136Y1702D01*
X820Y1702D02*
X827Y1702D01*
X945Y1702D02*
X952Y1702D01*
X0Y1701D02*
X7Y1701D01*
X129Y1701D02*
X136Y1701D01*
X820Y1701D02*
X827Y1701D01*
X945Y1701D02*
X952Y1701D01*
X0Y1700D02*
X7Y1700D01*
X129Y1700D02*
X136Y1700D01*
X820Y1700D02*
X827Y1700D01*
X945Y1700D02*
X952Y1700D01*
X0Y1699D02*
X7Y1699D01*
X129Y1699D02*
X136Y1699D01*
X820Y1699D02*
X827Y1699D01*
X945Y1699D02*
X952Y1699D01*
X0Y1698D02*
X7Y1698D01*
X129Y1698D02*
X136Y1698D01*
X820Y1698D02*
X827Y1698D01*
X945Y1698D02*
X952Y1698D01*
X0Y1697D02*
X7Y1697D01*
X129Y1697D02*
X136Y1697D01*
X820Y1697D02*
X827Y1697D01*
X945Y1697D02*
X952Y1697D01*
X0Y1696D02*
X7Y1696D01*
X129Y1696D02*
X136Y1696D01*
X820Y1696D02*
X827Y1696D01*
X945Y1696D02*
X952Y1696D01*
X0Y1695D02*
X7Y1695D01*
X129Y1695D02*
X136Y1695D01*
X820Y1695D02*
X827Y1695D01*
X945Y1695D02*
X952Y1695D01*
X0Y1694D02*
X7Y1694D01*
X129Y1694D02*
X136Y1694D01*
X820Y1694D02*
X827Y1694D01*
X945Y1694D02*
X952Y1694D01*
X0Y1693D02*
X7Y1693D01*
X129Y1693D02*
X136Y1693D01*
X820Y1693D02*
X827Y1693D01*
X945Y1693D02*
X952Y1693D01*
X0Y1692D02*
X7Y1692D01*
X129Y1692D02*
X136Y1692D01*
X820Y1692D02*
X827Y1692D01*
X945Y1692D02*
X952Y1692D01*
X0Y1691D02*
X7Y1691D01*
X129Y1691D02*
X136Y1691D01*
X820Y1691D02*
X827Y1691D01*
X945Y1691D02*
X952Y1691D01*
X0Y1690D02*
X7Y1690D01*
X129Y1690D02*
X136Y1690D01*
X820Y1690D02*
X827Y1690D01*
X945Y1690D02*
X952Y1690D01*
X0Y1689D02*
X7Y1689D01*
X129Y1689D02*
X136Y1689D01*
X820Y1689D02*
X827Y1689D01*
X945Y1689D02*
X952Y1689D01*
X0Y1688D02*
X7Y1688D01*
X129Y1688D02*
X136Y1688D01*
X820Y1688D02*
X827Y1688D01*
X945Y1688D02*
X952Y1688D01*
X0Y1687D02*
X7Y1687D01*
X129Y1687D02*
X136Y1687D01*
X820Y1687D02*
X827Y1687D01*
X945Y1687D02*
X952Y1687D01*
X0Y1686D02*
X7Y1686D01*
X129Y1686D02*
X136Y1686D01*
X820Y1686D02*
X827Y1686D01*
X945Y1686D02*
X952Y1686D01*
X0Y1685D02*
X7Y1685D01*
X129Y1685D02*
X136Y1685D01*
X820Y1685D02*
X827Y1685D01*
X945Y1685D02*
X952Y1685D01*
X0Y1684D02*
X7Y1684D01*
X129Y1684D02*
X136Y1684D01*
X820Y1684D02*
X827Y1684D01*
X945Y1684D02*
X952Y1684D01*
X0Y1683D02*
X7Y1683D01*
X129Y1683D02*
X136Y1683D01*
X820Y1683D02*
X827Y1683D01*
X945Y1683D02*
X952Y1683D01*
X0Y1682D02*
X7Y1682D01*
X129Y1682D02*
X136Y1682D01*
X820Y1682D02*
X827Y1682D01*
X945Y1682D02*
X952Y1682D01*
X0Y1681D02*
X7Y1681D01*
X129Y1681D02*
X136Y1681D01*
X820Y1681D02*
X827Y1681D01*
X945Y1681D02*
X952Y1681D01*
X0Y1680D02*
X7Y1680D01*
X129Y1680D02*
X136Y1680D01*
X820Y1680D02*
X827Y1680D01*
X945Y1680D02*
X952Y1680D01*
X0Y1679D02*
X7Y1679D01*
X129Y1679D02*
X136Y1679D01*
X820Y1679D02*
X827Y1679D01*
X945Y1679D02*
X952Y1679D01*
X0Y1678D02*
X7Y1678D01*
X129Y1678D02*
X136Y1678D01*
X820Y1678D02*
X827Y1678D01*
X945Y1678D02*
X952Y1678D01*
X0Y1677D02*
X7Y1677D01*
X129Y1677D02*
X136Y1677D01*
X820Y1677D02*
X827Y1677D01*
X945Y1677D02*
X952Y1677D01*
X0Y1676D02*
X7Y1676D01*
X129Y1676D02*
X136Y1676D01*
X820Y1676D02*
X827Y1676D01*
X945Y1676D02*
X952Y1676D01*
X0Y1675D02*
X7Y1675D01*
X129Y1675D02*
X136Y1675D01*
X820Y1675D02*
X827Y1675D01*
X945Y1675D02*
X952Y1675D01*
X0Y1674D02*
X7Y1674D01*
X129Y1674D02*
X136Y1674D01*
X820Y1674D02*
X827Y1674D01*
X945Y1674D02*
X952Y1674D01*
X0Y1673D02*
X7Y1673D01*
X129Y1673D02*
X136Y1673D01*
X820Y1673D02*
X827Y1673D01*
X945Y1673D02*
X952Y1673D01*
X0Y1672D02*
X7Y1672D01*
X129Y1672D02*
X136Y1672D01*
X820Y1672D02*
X827Y1672D01*
X945Y1672D02*
X952Y1672D01*
X0Y1671D02*
X7Y1671D01*
X129Y1671D02*
X136Y1671D01*
X820Y1671D02*
X827Y1671D01*
X945Y1671D02*
X952Y1671D01*
X0Y1670D02*
X7Y1670D01*
X129Y1670D02*
X136Y1670D01*
X820Y1670D02*
X827Y1670D01*
X945Y1670D02*
X952Y1670D01*
X0Y1669D02*
X7Y1669D01*
X129Y1669D02*
X136Y1669D01*
X820Y1669D02*
X827Y1669D01*
X945Y1669D02*
X952Y1669D01*
X0Y1668D02*
X7Y1668D01*
X129Y1668D02*
X136Y1668D01*
X820Y1668D02*
X827Y1668D01*
X945Y1668D02*
X952Y1668D01*
X0Y1667D02*
X7Y1667D01*
X129Y1667D02*
X136Y1667D01*
X820Y1667D02*
X827Y1667D01*
X945Y1667D02*
X952Y1667D01*
X0Y1666D02*
X7Y1666D01*
X129Y1666D02*
X136Y1666D01*
X820Y1666D02*
X827Y1666D01*
X945Y1666D02*
X952Y1666D01*
X0Y1665D02*
X7Y1665D01*
X129Y1665D02*
X136Y1665D01*
X820Y1665D02*
X827Y1665D01*
X945Y1665D02*
X952Y1665D01*
X0Y1664D02*
X7Y1664D01*
X129Y1664D02*
X136Y1664D01*
X820Y1664D02*
X827Y1664D01*
X945Y1664D02*
X952Y1664D01*
X0Y1663D02*
X7Y1663D01*
X129Y1663D02*
X136Y1663D01*
X820Y1663D02*
X827Y1663D01*
X945Y1663D02*
X952Y1663D01*
X0Y1662D02*
X7Y1662D01*
X129Y1662D02*
X136Y1662D01*
X820Y1662D02*
X827Y1662D01*
X945Y1662D02*
X952Y1662D01*
X0Y1661D02*
X7Y1661D01*
X129Y1661D02*
X136Y1661D01*
X820Y1661D02*
X827Y1661D01*
X945Y1661D02*
X952Y1661D01*
X0Y1660D02*
X7Y1660D01*
X129Y1660D02*
X136Y1660D01*
X820Y1660D02*
X827Y1660D01*
X945Y1660D02*
X952Y1660D01*
X0Y1659D02*
X7Y1659D01*
X129Y1659D02*
X136Y1659D01*
X820Y1659D02*
X827Y1659D01*
X945Y1659D02*
X952Y1659D01*
X0Y1658D02*
X7Y1658D01*
X129Y1658D02*
X136Y1658D01*
X820Y1658D02*
X827Y1658D01*
X945Y1658D02*
X952Y1658D01*
X0Y1657D02*
X7Y1657D01*
X129Y1657D02*
X136Y1657D01*
X820Y1657D02*
X827Y1657D01*
X945Y1657D02*
X952Y1657D01*
X0Y1656D02*
X7Y1656D01*
X129Y1656D02*
X136Y1656D01*
X820Y1656D02*
X827Y1656D01*
X945Y1656D02*
X952Y1656D01*
X0Y1655D02*
X7Y1655D01*
X129Y1655D02*
X136Y1655D01*
X820Y1655D02*
X827Y1655D01*
X945Y1655D02*
X952Y1655D01*
X0Y1654D02*
X7Y1654D01*
X129Y1654D02*
X136Y1654D01*
X820Y1654D02*
X827Y1654D01*
X945Y1654D02*
X952Y1654D01*
X0Y1653D02*
X7Y1653D01*
X129Y1653D02*
X136Y1653D01*
X820Y1653D02*
X827Y1653D01*
X945Y1653D02*
X952Y1653D01*
X0Y1652D02*
X7Y1652D01*
X129Y1652D02*
X136Y1652D01*
X820Y1652D02*
X827Y1652D01*
X945Y1652D02*
X952Y1652D01*
X0Y1651D02*
X7Y1651D01*
X129Y1651D02*
X136Y1651D01*
X820Y1651D02*
X827Y1651D01*
X945Y1651D02*
X952Y1651D01*
X0Y1650D02*
X7Y1650D01*
X129Y1650D02*
X136Y1650D01*
X820Y1650D02*
X827Y1650D01*
X945Y1650D02*
X952Y1650D01*
X0Y1649D02*
X7Y1649D01*
X129Y1649D02*
X136Y1649D01*
X820Y1649D02*
X827Y1649D01*
X945Y1649D02*
X952Y1649D01*
X0Y1648D02*
X7Y1648D01*
X129Y1648D02*
X136Y1648D01*
X820Y1648D02*
X827Y1648D01*
X945Y1648D02*
X952Y1648D01*
X0Y1647D02*
X7Y1647D01*
X129Y1647D02*
X136Y1647D01*
X820Y1647D02*
X827Y1647D01*
X945Y1647D02*
X952Y1647D01*
X0Y1646D02*
X7Y1646D01*
X129Y1646D02*
X136Y1646D01*
X820Y1646D02*
X827Y1646D01*
X945Y1646D02*
X952Y1646D01*
X0Y1645D02*
X7Y1645D01*
X129Y1645D02*
X136Y1645D01*
X820Y1645D02*
X827Y1645D01*
X945Y1645D02*
X952Y1645D01*
X0Y1644D02*
X7Y1644D01*
X129Y1644D02*
X136Y1644D01*
X820Y1644D02*
X827Y1644D01*
X945Y1644D02*
X952Y1644D01*
X0Y1643D02*
X7Y1643D01*
X129Y1643D02*
X136Y1643D01*
X820Y1643D02*
X827Y1643D01*
X945Y1643D02*
X952Y1643D01*
X0Y1642D02*
X7Y1642D01*
X129Y1642D02*
X136Y1642D01*
X820Y1642D02*
X827Y1642D01*
X945Y1642D02*
X952Y1642D01*
X0Y1641D02*
X7Y1641D01*
X129Y1641D02*
X136Y1641D01*
X820Y1641D02*
X827Y1641D01*
X945Y1641D02*
X952Y1641D01*
X0Y1640D02*
X7Y1640D01*
X129Y1640D02*
X136Y1640D01*
X820Y1640D02*
X827Y1640D01*
X945Y1640D02*
X952Y1640D01*
X0Y1639D02*
X7Y1639D01*
X129Y1639D02*
X136Y1639D01*
X820Y1639D02*
X827Y1639D01*
X945Y1639D02*
X952Y1639D01*
X0Y1638D02*
X7Y1638D01*
X129Y1638D02*
X136Y1638D01*
X820Y1638D02*
X827Y1638D01*
X945Y1638D02*
X952Y1638D01*
X0Y1637D02*
X7Y1637D01*
X129Y1637D02*
X136Y1637D01*
X820Y1637D02*
X827Y1637D01*
X945Y1637D02*
X952Y1637D01*
X0Y1636D02*
X7Y1636D01*
X129Y1636D02*
X136Y1636D01*
X820Y1636D02*
X827Y1636D01*
X945Y1636D02*
X952Y1636D01*
X0Y1635D02*
X7Y1635D01*
X129Y1635D02*
X136Y1635D01*
X820Y1635D02*
X827Y1635D01*
X945Y1635D02*
X952Y1635D01*
X0Y1634D02*
X7Y1634D01*
X129Y1634D02*
X136Y1634D01*
X820Y1634D02*
X827Y1634D01*
X945Y1634D02*
X952Y1634D01*
X0Y1633D02*
X7Y1633D01*
X129Y1633D02*
X136Y1633D01*
X820Y1633D02*
X827Y1633D01*
X945Y1633D02*
X952Y1633D01*
X0Y1632D02*
X7Y1632D01*
X129Y1632D02*
X136Y1632D01*
X820Y1632D02*
X827Y1632D01*
X945Y1632D02*
X952Y1632D01*
X0Y1631D02*
X7Y1631D01*
X129Y1631D02*
X136Y1631D01*
X820Y1631D02*
X827Y1631D01*
X945Y1631D02*
X952Y1631D01*
X0Y1630D02*
X7Y1630D01*
X129Y1630D02*
X136Y1630D01*
X820Y1630D02*
X827Y1630D01*
X945Y1630D02*
X952Y1630D01*
X0Y1629D02*
X7Y1629D01*
X129Y1629D02*
X136Y1629D01*
X820Y1629D02*
X827Y1629D01*
X945Y1629D02*
X952Y1629D01*
X0Y1628D02*
X7Y1628D01*
X129Y1628D02*
X136Y1628D01*
X820Y1628D02*
X827Y1628D01*
X945Y1628D02*
X952Y1628D01*
X0Y1627D02*
X7Y1627D01*
X129Y1627D02*
X136Y1627D01*
X820Y1627D02*
X827Y1627D01*
X945Y1627D02*
X952Y1627D01*
X0Y1626D02*
X7Y1626D01*
X129Y1626D02*
X136Y1626D01*
X820Y1626D02*
X827Y1626D01*
X945Y1626D02*
X952Y1626D01*
X0Y1625D02*
X7Y1625D01*
X129Y1625D02*
X136Y1625D01*
X820Y1625D02*
X827Y1625D01*
X945Y1625D02*
X952Y1625D01*
X0Y1624D02*
X7Y1624D01*
X129Y1624D02*
X136Y1624D01*
X820Y1624D02*
X827Y1624D01*
X945Y1624D02*
X952Y1624D01*
X0Y1623D02*
X7Y1623D01*
X129Y1623D02*
X136Y1623D01*
X820Y1623D02*
X827Y1623D01*
X945Y1623D02*
X952Y1623D01*
X0Y1622D02*
X7Y1622D01*
X129Y1622D02*
X136Y1622D01*
X820Y1622D02*
X827Y1622D01*
X945Y1622D02*
X952Y1622D01*
X0Y1621D02*
X7Y1621D01*
X129Y1621D02*
X136Y1621D01*
X820Y1621D02*
X827Y1621D01*
X945Y1621D02*
X952Y1621D01*
X0Y1620D02*
X7Y1620D01*
X129Y1620D02*
X136Y1620D01*
X820Y1620D02*
X827Y1620D01*
X945Y1620D02*
X952Y1620D01*
X0Y1619D02*
X7Y1619D01*
X129Y1619D02*
X136Y1619D01*
X820Y1619D02*
X827Y1619D01*
X945Y1619D02*
X952Y1619D01*
X0Y1618D02*
X7Y1618D01*
X129Y1618D02*
X136Y1618D01*
X820Y1618D02*
X827Y1618D01*
X945Y1618D02*
X952Y1618D01*
X0Y1617D02*
X7Y1617D01*
X129Y1617D02*
X136Y1617D01*
X820Y1617D02*
X827Y1617D01*
X945Y1617D02*
X952Y1617D01*
X0Y1616D02*
X7Y1616D01*
X129Y1616D02*
X136Y1616D01*
X820Y1616D02*
X827Y1616D01*
X945Y1616D02*
X952Y1616D01*
X0Y1615D02*
X7Y1615D01*
X129Y1615D02*
X136Y1615D01*
X820Y1615D02*
X827Y1615D01*
X945Y1615D02*
X952Y1615D01*
X0Y1614D02*
X7Y1614D01*
X129Y1614D02*
X136Y1614D01*
X820Y1614D02*
X827Y1614D01*
X945Y1614D02*
X952Y1614D01*
X0Y1613D02*
X7Y1613D01*
X129Y1613D02*
X136Y1613D01*
X820Y1613D02*
X827Y1613D01*
X945Y1613D02*
X952Y1613D01*
X0Y1612D02*
X7Y1612D01*
X129Y1612D02*
X136Y1612D01*
X820Y1612D02*
X827Y1612D01*
X945Y1612D02*
X952Y1612D01*
X0Y1611D02*
X7Y1611D01*
X129Y1611D02*
X136Y1611D01*
X820Y1611D02*
X827Y1611D01*
X945Y1611D02*
X952Y1611D01*
X0Y1610D02*
X7Y1610D01*
X129Y1610D02*
X136Y1610D01*
X820Y1610D02*
X827Y1610D01*
X945Y1610D02*
X952Y1610D01*
X0Y1609D02*
X7Y1609D01*
X129Y1609D02*
X136Y1609D01*
X820Y1609D02*
X827Y1609D01*
X945Y1609D02*
X952Y1609D01*
X0Y1608D02*
X7Y1608D01*
X129Y1608D02*
X136Y1608D01*
X820Y1608D02*
X827Y1608D01*
X945Y1608D02*
X952Y1608D01*
X0Y1607D02*
X7Y1607D01*
X129Y1607D02*
X136Y1607D01*
X820Y1607D02*
X827Y1607D01*
X945Y1607D02*
X952Y1607D01*
X0Y1606D02*
X7Y1606D01*
X129Y1606D02*
X136Y1606D01*
X820Y1606D02*
X827Y1606D01*
X945Y1606D02*
X952Y1606D01*
X0Y1605D02*
X7Y1605D01*
X129Y1605D02*
X136Y1605D01*
X820Y1605D02*
X827Y1605D01*
X945Y1605D02*
X952Y1605D01*
X0Y1604D02*
X7Y1604D01*
X129Y1604D02*
X136Y1604D01*
X820Y1604D02*
X827Y1604D01*
X945Y1604D02*
X952Y1604D01*
X0Y1603D02*
X7Y1603D01*
X129Y1603D02*
X136Y1603D01*
X820Y1603D02*
X827Y1603D01*
X945Y1603D02*
X952Y1603D01*
X0Y1602D02*
X7Y1602D01*
X129Y1602D02*
X136Y1602D01*
X820Y1602D02*
X827Y1602D01*
X945Y1602D02*
X952Y1602D01*
X0Y1601D02*
X7Y1601D01*
X129Y1601D02*
X136Y1601D01*
X820Y1601D02*
X827Y1601D01*
X945Y1601D02*
X952Y1601D01*
X0Y1600D02*
X7Y1600D01*
X129Y1600D02*
X136Y1600D01*
X820Y1600D02*
X827Y1600D01*
X945Y1600D02*
X952Y1600D01*
X0Y1599D02*
X7Y1599D01*
X129Y1599D02*
X136Y1599D01*
X820Y1599D02*
X827Y1599D01*
X945Y1599D02*
X952Y1599D01*
X0Y1598D02*
X7Y1598D01*
X129Y1598D02*
X136Y1598D01*
X820Y1598D02*
X827Y1598D01*
X945Y1598D02*
X952Y1598D01*
X0Y1597D02*
X7Y1597D01*
X129Y1597D02*
X136Y1597D01*
X820Y1597D02*
X827Y1597D01*
X945Y1597D02*
X952Y1597D01*
X0Y1596D02*
X7Y1596D01*
X129Y1596D02*
X136Y1596D01*
X820Y1596D02*
X827Y1596D01*
X945Y1596D02*
X952Y1596D01*
X0Y1595D02*
X7Y1595D01*
X129Y1595D02*
X136Y1595D01*
X820Y1595D02*
X827Y1595D01*
X945Y1595D02*
X952Y1595D01*
X0Y1594D02*
X7Y1594D01*
X129Y1594D02*
X136Y1594D01*
X820Y1594D02*
X827Y1594D01*
X945Y1594D02*
X952Y1594D01*
X0Y1593D02*
X7Y1593D01*
X129Y1593D02*
X136Y1593D01*
X820Y1593D02*
X827Y1593D01*
X945Y1593D02*
X952Y1593D01*
X0Y1592D02*
X7Y1592D01*
X129Y1592D02*
X136Y1592D01*
X820Y1592D02*
X827Y1592D01*
X945Y1592D02*
X952Y1592D01*
X0Y1591D02*
X7Y1591D01*
X129Y1591D02*
X136Y1591D01*
X820Y1591D02*
X827Y1591D01*
X945Y1591D02*
X952Y1591D01*
X0Y1590D02*
X7Y1590D01*
X129Y1590D02*
X136Y1590D01*
X820Y1590D02*
X827Y1590D01*
X945Y1590D02*
X952Y1590D01*
X0Y1589D02*
X7Y1589D01*
X129Y1589D02*
X136Y1589D01*
X820Y1589D02*
X827Y1589D01*
X945Y1589D02*
X952Y1589D01*
X0Y1588D02*
X7Y1588D01*
X129Y1588D02*
X136Y1588D01*
X820Y1588D02*
X827Y1588D01*
X945Y1588D02*
X952Y1588D01*
X0Y1587D02*
X7Y1587D01*
X129Y1587D02*
X136Y1587D01*
X820Y1587D02*
X827Y1587D01*
X945Y1587D02*
X952Y1587D01*
X0Y1586D02*
X7Y1586D01*
X129Y1586D02*
X136Y1586D01*
X820Y1586D02*
X827Y1586D01*
X945Y1586D02*
X952Y1586D01*
X0Y1585D02*
X7Y1585D01*
X129Y1585D02*
X136Y1585D01*
X820Y1585D02*
X827Y1585D01*
X945Y1585D02*
X952Y1585D01*
X0Y1584D02*
X7Y1584D01*
X129Y1584D02*
X136Y1584D01*
X820Y1584D02*
X827Y1584D01*
X945Y1584D02*
X952Y1584D01*
X0Y1583D02*
X7Y1583D01*
X129Y1583D02*
X136Y1583D01*
X820Y1583D02*
X827Y1583D01*
X945Y1583D02*
X952Y1583D01*
X0Y1582D02*
X7Y1582D01*
X129Y1582D02*
X136Y1582D01*
X820Y1582D02*
X827Y1582D01*
X945Y1582D02*
X952Y1582D01*
X0Y1581D02*
X7Y1581D01*
X129Y1581D02*
X136Y1581D01*
X820Y1581D02*
X827Y1581D01*
X945Y1581D02*
X952Y1581D01*
X0Y1580D02*
X7Y1580D01*
X129Y1580D02*
X136Y1580D01*
X820Y1580D02*
X827Y1580D01*
X945Y1580D02*
X952Y1580D01*
X0Y1579D02*
X7Y1579D01*
X129Y1579D02*
X136Y1579D01*
X820Y1579D02*
X827Y1579D01*
X945Y1579D02*
X952Y1579D01*
X0Y1578D02*
X7Y1578D01*
X129Y1578D02*
X136Y1578D01*
X820Y1578D02*
X827Y1578D01*
X945Y1578D02*
X952Y1578D01*
X0Y1577D02*
X7Y1577D01*
X129Y1577D02*
X136Y1577D01*
X820Y1577D02*
X827Y1577D01*
X945Y1577D02*
X952Y1577D01*
X0Y1576D02*
X7Y1576D01*
X129Y1576D02*
X136Y1576D01*
X820Y1576D02*
X827Y1576D01*
X945Y1576D02*
X952Y1576D01*
X0Y1575D02*
X7Y1575D01*
X129Y1575D02*
X136Y1575D01*
X820Y1575D02*
X827Y1575D01*
X945Y1575D02*
X952Y1575D01*
X0Y1574D02*
X7Y1574D01*
X129Y1574D02*
X136Y1574D01*
X820Y1574D02*
X827Y1574D01*
X945Y1574D02*
X952Y1574D01*
X0Y1573D02*
X7Y1573D01*
X129Y1573D02*
X136Y1573D01*
X820Y1573D02*
X827Y1573D01*
X945Y1573D02*
X952Y1573D01*
X0Y1572D02*
X7Y1572D01*
X129Y1572D02*
X136Y1572D01*
X820Y1572D02*
X827Y1572D01*
X945Y1572D02*
X952Y1572D01*
X0Y1571D02*
X7Y1571D01*
X129Y1571D02*
X136Y1571D01*
X820Y1571D02*
X827Y1571D01*
X945Y1571D02*
X952Y1571D01*
X0Y1570D02*
X7Y1570D01*
X129Y1570D02*
X136Y1570D01*
X820Y1570D02*
X827Y1570D01*
X945Y1570D02*
X952Y1570D01*
X0Y1569D02*
X7Y1569D01*
X129Y1569D02*
X136Y1569D01*
X820Y1569D02*
X827Y1569D01*
X945Y1569D02*
X952Y1569D01*
X0Y1568D02*
X7Y1568D01*
X129Y1568D02*
X136Y1568D01*
X820Y1568D02*
X827Y1568D01*
X945Y1568D02*
X952Y1568D01*
X0Y1567D02*
X7Y1567D01*
X129Y1567D02*
X136Y1567D01*
X820Y1567D02*
X827Y1567D01*
X945Y1567D02*
X952Y1567D01*
X0Y1566D02*
X7Y1566D01*
X129Y1566D02*
X136Y1566D01*
X820Y1566D02*
X827Y1566D01*
X945Y1566D02*
X952Y1566D01*
X0Y1565D02*
X7Y1565D01*
X129Y1565D02*
X136Y1565D01*
X820Y1565D02*
X827Y1565D01*
X945Y1565D02*
X952Y1565D01*
X0Y1564D02*
X7Y1564D01*
X129Y1564D02*
X136Y1564D01*
X820Y1564D02*
X827Y1564D01*
X945Y1564D02*
X952Y1564D01*
X0Y1563D02*
X7Y1563D01*
X129Y1563D02*
X136Y1563D01*
X820Y1563D02*
X827Y1563D01*
X945Y1563D02*
X952Y1563D01*
X0Y1562D02*
X7Y1562D01*
X129Y1562D02*
X136Y1562D01*
X820Y1562D02*
X827Y1562D01*
X945Y1562D02*
X952Y1562D01*
X0Y1561D02*
X7Y1561D01*
X129Y1561D02*
X136Y1561D01*
X820Y1561D02*
X827Y1561D01*
X945Y1561D02*
X952Y1561D01*
X0Y1560D02*
X7Y1560D01*
X129Y1560D02*
X136Y1560D01*
X820Y1560D02*
X827Y1560D01*
X945Y1560D02*
X952Y1560D01*
X0Y1559D02*
X7Y1559D01*
X129Y1559D02*
X136Y1559D01*
X820Y1559D02*
X827Y1559D01*
X945Y1559D02*
X952Y1559D01*
X0Y1558D02*
X7Y1558D01*
X129Y1558D02*
X136Y1558D01*
X820Y1558D02*
X827Y1558D01*
X945Y1558D02*
X952Y1558D01*
X0Y1557D02*
X7Y1557D01*
X129Y1557D02*
X136Y1557D01*
X820Y1557D02*
X827Y1557D01*
X945Y1557D02*
X952Y1557D01*
X0Y1556D02*
X7Y1556D01*
X129Y1556D02*
X136Y1556D01*
X820Y1556D02*
X827Y1556D01*
X945Y1556D02*
X952Y1556D01*
X0Y1555D02*
X7Y1555D01*
X129Y1555D02*
X136Y1555D01*
X820Y1555D02*
X827Y1555D01*
X945Y1555D02*
X952Y1555D01*
X0Y1554D02*
X7Y1554D01*
X129Y1554D02*
X136Y1554D01*
X820Y1554D02*
X827Y1554D01*
X945Y1554D02*
X952Y1554D01*
X0Y1553D02*
X7Y1553D01*
X129Y1553D02*
X136Y1553D01*
X820Y1553D02*
X827Y1553D01*
X945Y1553D02*
X952Y1553D01*
X0Y1552D02*
X7Y1552D01*
X129Y1552D02*
X136Y1552D01*
X820Y1552D02*
X827Y1552D01*
X945Y1552D02*
X952Y1552D01*
X0Y1551D02*
X7Y1551D01*
X129Y1551D02*
X136Y1551D01*
X820Y1551D02*
X827Y1551D01*
X945Y1551D02*
X952Y1551D01*
X0Y1550D02*
X7Y1550D01*
X129Y1550D02*
X136Y1550D01*
X820Y1550D02*
X827Y1550D01*
X945Y1550D02*
X952Y1550D01*
X0Y1549D02*
X7Y1549D01*
X129Y1549D02*
X136Y1549D01*
X820Y1549D02*
X827Y1549D01*
X945Y1549D02*
X952Y1549D01*
X0Y1548D02*
X7Y1548D01*
X129Y1548D02*
X136Y1548D01*
X820Y1548D02*
X827Y1548D01*
X945Y1548D02*
X952Y1548D01*
X0Y1547D02*
X7Y1547D01*
X129Y1547D02*
X136Y1547D01*
X820Y1547D02*
X827Y1547D01*
X945Y1547D02*
X952Y1547D01*
X0Y1546D02*
X7Y1546D01*
X129Y1546D02*
X136Y1546D01*
X820Y1546D02*
X827Y1546D01*
X945Y1546D02*
X952Y1546D01*
X0Y1545D02*
X7Y1545D01*
X129Y1545D02*
X136Y1545D01*
X820Y1545D02*
X827Y1545D01*
X945Y1545D02*
X952Y1545D01*
X0Y1544D02*
X7Y1544D01*
X129Y1544D02*
X136Y1544D01*
X820Y1544D02*
X827Y1544D01*
X945Y1544D02*
X952Y1544D01*
X0Y1543D02*
X7Y1543D01*
X129Y1543D02*
X136Y1543D01*
X820Y1543D02*
X827Y1543D01*
X945Y1543D02*
X952Y1543D01*
X0Y1542D02*
X7Y1542D01*
X129Y1542D02*
X136Y1542D01*
X820Y1542D02*
X827Y1542D01*
X945Y1542D02*
X952Y1542D01*
X0Y1541D02*
X7Y1541D01*
X129Y1541D02*
X136Y1541D01*
X820Y1541D02*
X827Y1541D01*
X945Y1541D02*
X952Y1541D01*
X0Y1540D02*
X7Y1540D01*
X129Y1540D02*
X136Y1540D01*
X820Y1540D02*
X827Y1540D01*
X945Y1540D02*
X952Y1540D01*
X0Y1539D02*
X7Y1539D01*
X129Y1539D02*
X136Y1539D01*
X820Y1539D02*
X827Y1539D01*
X945Y1539D02*
X952Y1539D01*
X0Y1538D02*
X7Y1538D01*
X129Y1538D02*
X136Y1538D01*
X820Y1538D02*
X827Y1538D01*
X945Y1538D02*
X952Y1538D01*
X0Y1537D02*
X7Y1537D01*
X129Y1537D02*
X136Y1537D01*
X820Y1537D02*
X827Y1537D01*
X945Y1537D02*
X952Y1537D01*
X0Y1536D02*
X7Y1536D01*
X129Y1536D02*
X136Y1536D01*
X820Y1536D02*
X827Y1536D01*
X945Y1536D02*
X952Y1536D01*
X0Y1535D02*
X7Y1535D01*
X129Y1535D02*
X136Y1535D01*
X820Y1535D02*
X827Y1535D01*
X945Y1535D02*
X952Y1535D01*
X0Y1534D02*
X7Y1534D01*
X129Y1534D02*
X136Y1534D01*
X820Y1534D02*
X827Y1534D01*
X945Y1534D02*
X952Y1534D01*
X0Y1533D02*
X7Y1533D01*
X129Y1533D02*
X136Y1533D01*
X820Y1533D02*
X827Y1533D01*
X945Y1533D02*
X952Y1533D01*
X0Y1532D02*
X7Y1532D01*
X129Y1532D02*
X136Y1532D01*
X820Y1532D02*
X827Y1532D01*
X945Y1532D02*
X952Y1532D01*
X0Y1531D02*
X7Y1531D01*
X129Y1531D02*
X136Y1531D01*
X820Y1531D02*
X827Y1531D01*
X945Y1531D02*
X952Y1531D01*
X0Y1530D02*
X7Y1530D01*
X129Y1530D02*
X136Y1530D01*
X820Y1530D02*
X827Y1530D01*
X945Y1530D02*
X952Y1530D01*
X0Y1529D02*
X7Y1529D01*
X129Y1529D02*
X136Y1529D01*
X820Y1529D02*
X827Y1529D01*
X945Y1529D02*
X952Y1529D01*
X0Y1528D02*
X7Y1528D01*
X129Y1528D02*
X136Y1528D01*
X820Y1528D02*
X827Y1528D01*
X945Y1528D02*
X952Y1528D01*
X0Y1527D02*
X7Y1527D01*
X129Y1527D02*
X136Y1527D01*
X820Y1527D02*
X827Y1527D01*
X945Y1527D02*
X952Y1527D01*
X0Y1526D02*
X7Y1526D01*
X129Y1526D02*
X136Y1526D01*
X820Y1526D02*
X827Y1526D01*
X945Y1526D02*
X952Y1526D01*
X0Y1525D02*
X7Y1525D01*
X129Y1525D02*
X136Y1525D01*
X820Y1525D02*
X827Y1525D01*
X945Y1525D02*
X952Y1525D01*
X0Y1524D02*
X7Y1524D01*
X129Y1524D02*
X136Y1524D01*
X820Y1524D02*
X827Y1524D01*
X945Y1524D02*
X952Y1524D01*
X0Y1523D02*
X7Y1523D01*
X129Y1523D02*
X136Y1523D01*
X820Y1523D02*
X827Y1523D01*
X945Y1523D02*
X952Y1523D01*
X0Y1522D02*
X7Y1522D01*
X129Y1522D02*
X136Y1522D01*
X820Y1522D02*
X827Y1522D01*
X945Y1522D02*
X952Y1522D01*
X0Y1521D02*
X7Y1521D01*
X129Y1521D02*
X136Y1521D01*
X820Y1521D02*
X827Y1521D01*
X945Y1521D02*
X952Y1521D01*
X0Y1520D02*
X7Y1520D01*
X129Y1520D02*
X136Y1520D01*
X820Y1520D02*
X827Y1520D01*
X945Y1520D02*
X952Y1520D01*
X0Y1519D02*
X7Y1519D01*
X129Y1519D02*
X136Y1519D01*
X820Y1519D02*
X827Y1519D01*
X945Y1519D02*
X952Y1519D01*
X0Y1518D02*
X7Y1518D01*
X129Y1518D02*
X136Y1518D01*
X820Y1518D02*
X827Y1518D01*
X945Y1518D02*
X952Y1518D01*
X0Y1517D02*
X7Y1517D01*
X129Y1517D02*
X136Y1517D01*
X820Y1517D02*
X827Y1517D01*
X945Y1517D02*
X952Y1517D01*
X0Y1516D02*
X7Y1516D01*
X129Y1516D02*
X136Y1516D01*
X820Y1516D02*
X827Y1516D01*
X945Y1516D02*
X952Y1516D01*
X0Y1515D02*
X7Y1515D01*
X129Y1515D02*
X136Y1515D01*
X820Y1515D02*
X827Y1515D01*
X945Y1515D02*
X952Y1515D01*
X0Y1514D02*
X7Y1514D01*
X129Y1514D02*
X136Y1514D01*
X820Y1514D02*
X827Y1514D01*
X945Y1514D02*
X952Y1514D01*
X0Y1513D02*
X7Y1513D01*
X129Y1513D02*
X136Y1513D01*
X820Y1513D02*
X827Y1513D01*
X945Y1513D02*
X952Y1513D01*
X0Y1512D02*
X7Y1512D01*
X129Y1512D02*
X136Y1512D01*
X820Y1512D02*
X827Y1512D01*
X945Y1512D02*
X952Y1512D01*
X0Y1511D02*
X7Y1511D01*
X129Y1511D02*
X136Y1511D01*
X820Y1511D02*
X827Y1511D01*
X945Y1511D02*
X952Y1511D01*
X0Y1510D02*
X7Y1510D01*
X129Y1510D02*
X136Y1510D01*
X820Y1510D02*
X827Y1510D01*
X945Y1510D02*
X952Y1510D01*
X0Y1509D02*
X7Y1509D01*
X129Y1509D02*
X136Y1509D01*
X820Y1509D02*
X827Y1509D01*
X945Y1509D02*
X952Y1509D01*
X0Y1508D02*
X7Y1508D01*
X129Y1508D02*
X136Y1508D01*
X820Y1508D02*
X827Y1508D01*
X945Y1508D02*
X952Y1508D01*
X0Y1507D02*
X7Y1507D01*
X129Y1507D02*
X136Y1507D01*
X820Y1507D02*
X827Y1507D01*
X945Y1507D02*
X952Y1507D01*
X0Y1506D02*
X7Y1506D01*
X129Y1506D02*
X136Y1506D01*
X820Y1506D02*
X827Y1506D01*
X945Y1506D02*
X952Y1506D01*
X0Y1505D02*
X7Y1505D01*
X129Y1505D02*
X136Y1505D01*
X820Y1505D02*
X827Y1505D01*
X945Y1505D02*
X952Y1505D01*
X0Y1504D02*
X7Y1504D01*
X129Y1504D02*
X136Y1504D01*
X820Y1504D02*
X827Y1504D01*
X945Y1504D02*
X952Y1504D01*
X0Y1503D02*
X7Y1503D01*
X129Y1503D02*
X136Y1503D01*
X820Y1503D02*
X827Y1503D01*
X945Y1503D02*
X952Y1503D01*
X0Y1502D02*
X7Y1502D01*
X129Y1502D02*
X136Y1502D01*
X820Y1502D02*
X827Y1502D01*
X945Y1502D02*
X952Y1502D01*
X0Y1501D02*
X7Y1501D01*
X129Y1501D02*
X136Y1501D01*
X820Y1501D02*
X827Y1501D01*
X945Y1501D02*
X952Y1501D01*
X0Y1500D02*
X7Y1500D01*
X129Y1500D02*
X136Y1500D01*
X820Y1500D02*
X827Y1500D01*
X945Y1500D02*
X952Y1500D01*
X0Y1499D02*
X7Y1499D01*
X129Y1499D02*
X136Y1499D01*
X820Y1499D02*
X827Y1499D01*
X945Y1499D02*
X952Y1499D01*
X0Y1498D02*
X7Y1498D01*
X129Y1498D02*
X136Y1498D01*
X820Y1498D02*
X827Y1498D01*
X945Y1498D02*
X952Y1498D01*
X0Y1497D02*
X7Y1497D01*
X129Y1497D02*
X136Y1497D01*
X820Y1497D02*
X827Y1497D01*
X945Y1497D02*
X952Y1497D01*
X0Y1496D02*
X7Y1496D01*
X129Y1496D02*
X136Y1496D01*
X820Y1496D02*
X827Y1496D01*
X945Y1496D02*
X952Y1496D01*
X0Y1495D02*
X7Y1495D01*
X129Y1495D02*
X136Y1495D01*
X820Y1495D02*
X827Y1495D01*
X945Y1495D02*
X952Y1495D01*
X0Y1494D02*
X7Y1494D01*
X129Y1494D02*
X136Y1494D01*
X820Y1494D02*
X827Y1494D01*
X945Y1494D02*
X952Y1494D01*
X0Y1493D02*
X7Y1493D01*
X129Y1493D02*
X136Y1493D01*
X820Y1493D02*
X827Y1493D01*
X945Y1493D02*
X952Y1493D01*
X0Y1492D02*
X7Y1492D01*
X129Y1492D02*
X136Y1492D01*
X820Y1492D02*
X827Y1492D01*
X945Y1492D02*
X952Y1492D01*
X0Y1491D02*
X7Y1491D01*
X129Y1491D02*
X136Y1491D01*
X820Y1491D02*
X827Y1491D01*
X945Y1491D02*
X952Y1491D01*
X0Y1490D02*
X7Y1490D01*
X129Y1490D02*
X136Y1490D01*
X820Y1490D02*
X827Y1490D01*
X945Y1490D02*
X952Y1490D01*
X0Y1489D02*
X7Y1489D01*
X129Y1489D02*
X136Y1489D01*
X820Y1489D02*
X827Y1489D01*
X945Y1489D02*
X952Y1489D01*
X0Y1488D02*
X7Y1488D01*
X129Y1488D02*
X136Y1488D01*
X820Y1488D02*
X827Y1488D01*
X945Y1488D02*
X952Y1488D01*
X0Y1487D02*
X7Y1487D01*
X129Y1487D02*
X136Y1487D01*
X820Y1487D02*
X827Y1487D01*
X945Y1487D02*
X952Y1487D01*
X0Y1486D02*
X7Y1486D01*
X129Y1486D02*
X136Y1486D01*
X820Y1486D02*
X827Y1486D01*
X945Y1486D02*
X952Y1486D01*
X0Y1485D02*
X7Y1485D01*
X129Y1485D02*
X136Y1485D01*
X820Y1485D02*
X827Y1485D01*
X945Y1485D02*
X952Y1485D01*
X0Y1484D02*
X7Y1484D01*
X129Y1484D02*
X136Y1484D01*
X820Y1484D02*
X827Y1484D01*
X945Y1484D02*
X952Y1484D01*
X0Y1483D02*
X7Y1483D01*
X129Y1483D02*
X136Y1483D01*
X820Y1483D02*
X827Y1483D01*
X945Y1483D02*
X952Y1483D01*
X0Y1482D02*
X7Y1482D01*
X129Y1482D02*
X136Y1482D01*
X820Y1482D02*
X827Y1482D01*
X945Y1482D02*
X952Y1482D01*
X0Y1481D02*
X7Y1481D01*
X129Y1481D02*
X136Y1481D01*
X820Y1481D02*
X827Y1481D01*
X945Y1481D02*
X952Y1481D01*
X0Y1480D02*
X7Y1480D01*
X129Y1480D02*
X136Y1480D01*
X820Y1480D02*
X827Y1480D01*
X945Y1480D02*
X952Y1480D01*
X0Y1479D02*
X7Y1479D01*
X129Y1479D02*
X136Y1479D01*
X820Y1479D02*
X827Y1479D01*
X945Y1479D02*
X952Y1479D01*
X0Y1478D02*
X7Y1478D01*
X129Y1478D02*
X136Y1478D01*
X820Y1478D02*
X827Y1478D01*
X945Y1478D02*
X952Y1478D01*
X0Y1477D02*
X7Y1477D01*
X129Y1477D02*
X136Y1477D01*
X820Y1477D02*
X827Y1477D01*
X945Y1477D02*
X952Y1477D01*
X0Y1476D02*
X7Y1476D01*
X129Y1476D02*
X136Y1476D01*
X820Y1476D02*
X827Y1476D01*
X945Y1476D02*
X952Y1476D01*
X0Y1475D02*
X7Y1475D01*
X129Y1475D02*
X136Y1475D01*
X820Y1475D02*
X827Y1475D01*
X945Y1475D02*
X952Y1475D01*
X0Y1474D02*
X7Y1474D01*
X129Y1474D02*
X136Y1474D01*
X820Y1474D02*
X827Y1474D01*
X945Y1474D02*
X952Y1474D01*
X0Y1473D02*
X7Y1473D01*
X129Y1473D02*
X136Y1473D01*
X820Y1473D02*
X827Y1473D01*
X945Y1473D02*
X952Y1473D01*
X0Y1472D02*
X7Y1472D01*
X129Y1472D02*
X136Y1472D01*
X820Y1472D02*
X827Y1472D01*
X945Y1472D02*
X952Y1472D01*
X0Y1471D02*
X7Y1471D01*
X129Y1471D02*
X136Y1471D01*
X820Y1471D02*
X827Y1471D01*
X945Y1471D02*
X952Y1471D01*
X0Y1470D02*
X7Y1470D01*
X129Y1470D02*
X136Y1470D01*
X820Y1470D02*
X827Y1470D01*
X945Y1470D02*
X952Y1470D01*
X0Y1469D02*
X7Y1469D01*
X129Y1469D02*
X136Y1469D01*
X820Y1469D02*
X827Y1469D01*
X945Y1469D02*
X952Y1469D01*
X0Y1468D02*
X7Y1468D01*
X129Y1468D02*
X136Y1468D01*
X820Y1468D02*
X827Y1468D01*
X945Y1468D02*
X952Y1468D01*
X0Y1467D02*
X7Y1467D01*
X129Y1467D02*
X136Y1467D01*
X820Y1467D02*
X827Y1467D01*
X945Y1467D02*
X952Y1467D01*
X0Y1466D02*
X7Y1466D01*
X129Y1466D02*
X136Y1466D01*
X820Y1466D02*
X827Y1466D01*
X945Y1466D02*
X952Y1466D01*
X0Y1465D02*
X7Y1465D01*
X129Y1465D02*
X136Y1465D01*
X820Y1465D02*
X827Y1465D01*
X945Y1465D02*
X952Y1465D01*
X0Y1464D02*
X7Y1464D01*
X129Y1464D02*
X136Y1464D01*
X820Y1464D02*
X827Y1464D01*
X945Y1464D02*
X952Y1464D01*
X0Y1463D02*
X7Y1463D01*
X129Y1463D02*
X136Y1463D01*
X820Y1463D02*
X827Y1463D01*
X945Y1463D02*
X952Y1463D01*
X0Y1462D02*
X7Y1462D01*
X129Y1462D02*
X136Y1462D01*
X820Y1462D02*
X827Y1462D01*
X945Y1462D02*
X952Y1462D01*
X0Y1461D02*
X7Y1461D01*
X129Y1461D02*
X136Y1461D01*
X820Y1461D02*
X827Y1461D01*
X945Y1461D02*
X952Y1461D01*
X0Y1460D02*
X7Y1460D01*
X129Y1460D02*
X136Y1460D01*
X820Y1460D02*
X827Y1460D01*
X945Y1460D02*
X952Y1460D01*
X0Y1459D02*
X7Y1459D01*
X129Y1459D02*
X136Y1459D01*
X820Y1459D02*
X827Y1459D01*
X945Y1459D02*
X952Y1459D01*
X0Y1458D02*
X7Y1458D01*
X129Y1458D02*
X136Y1458D01*
X820Y1458D02*
X827Y1458D01*
X945Y1458D02*
X952Y1458D01*
X0Y1457D02*
X7Y1457D01*
X129Y1457D02*
X136Y1457D01*
X820Y1457D02*
X827Y1457D01*
X945Y1457D02*
X952Y1457D01*
X0Y1456D02*
X7Y1456D01*
X129Y1456D02*
X136Y1456D01*
X820Y1456D02*
X827Y1456D01*
X945Y1456D02*
X952Y1456D01*
X0Y1455D02*
X7Y1455D01*
X129Y1455D02*
X136Y1455D01*
X820Y1455D02*
X827Y1455D01*
X945Y1455D02*
X952Y1455D01*
X0Y1454D02*
X7Y1454D01*
X129Y1454D02*
X136Y1454D01*
X820Y1454D02*
X827Y1454D01*
X945Y1454D02*
X952Y1454D01*
X0Y1453D02*
X7Y1453D01*
X129Y1453D02*
X136Y1453D01*
X820Y1453D02*
X827Y1453D01*
X945Y1453D02*
X952Y1453D01*
X0Y1452D02*
X7Y1452D01*
X129Y1452D02*
X136Y1452D01*
X820Y1452D02*
X827Y1452D01*
X945Y1452D02*
X952Y1452D01*
X0Y1451D02*
X7Y1451D01*
X129Y1451D02*
X136Y1451D01*
X820Y1451D02*
X827Y1451D01*
X945Y1451D02*
X952Y1451D01*
X0Y1450D02*
X7Y1450D01*
X129Y1450D02*
X136Y1450D01*
X820Y1450D02*
X827Y1450D01*
X945Y1450D02*
X952Y1450D01*
X0Y1449D02*
X7Y1449D01*
X129Y1449D02*
X136Y1449D01*
X820Y1449D02*
X827Y1449D01*
X945Y1449D02*
X952Y1449D01*
X0Y1448D02*
X7Y1448D01*
X129Y1448D02*
X136Y1448D01*
X820Y1448D02*
X827Y1448D01*
X945Y1448D02*
X952Y1448D01*
X0Y1447D02*
X7Y1447D01*
X129Y1447D02*
X136Y1447D01*
X820Y1447D02*
X827Y1447D01*
X945Y1447D02*
X952Y1447D01*
X0Y1446D02*
X7Y1446D01*
X129Y1446D02*
X136Y1446D01*
X820Y1446D02*
X827Y1446D01*
X945Y1446D02*
X952Y1446D01*
X0Y1445D02*
X7Y1445D01*
X129Y1445D02*
X136Y1445D01*
X820Y1445D02*
X827Y1445D01*
X945Y1445D02*
X952Y1445D01*
X0Y1444D02*
X7Y1444D01*
X129Y1444D02*
X136Y1444D01*
X820Y1444D02*
X827Y1444D01*
X945Y1444D02*
X952Y1444D01*
X0Y1443D02*
X7Y1443D01*
X129Y1443D02*
X136Y1443D01*
X820Y1443D02*
X827Y1443D01*
X945Y1443D02*
X952Y1443D01*
X0Y1442D02*
X7Y1442D01*
X129Y1442D02*
X136Y1442D01*
X820Y1442D02*
X827Y1442D01*
X945Y1442D02*
X952Y1442D01*
X0Y1441D02*
X7Y1441D01*
X129Y1441D02*
X136Y1441D01*
X820Y1441D02*
X827Y1441D01*
X945Y1441D02*
X952Y1441D01*
X0Y1440D02*
X7Y1440D01*
X129Y1440D02*
X136Y1440D01*
X820Y1440D02*
X827Y1440D01*
X945Y1440D02*
X952Y1440D01*
X0Y1439D02*
X7Y1439D01*
X129Y1439D02*
X136Y1439D01*
X820Y1439D02*
X827Y1439D01*
X945Y1439D02*
X952Y1439D01*
X0Y1438D02*
X7Y1438D01*
X129Y1438D02*
X136Y1438D01*
X820Y1438D02*
X827Y1438D01*
X945Y1438D02*
X952Y1438D01*
X0Y1437D02*
X7Y1437D01*
X129Y1437D02*
X136Y1437D01*
X820Y1437D02*
X827Y1437D01*
X945Y1437D02*
X952Y1437D01*
X0Y1436D02*
X7Y1436D01*
X129Y1436D02*
X136Y1436D01*
X820Y1436D02*
X827Y1436D01*
X945Y1436D02*
X952Y1436D01*
X0Y1435D02*
X7Y1435D01*
X129Y1435D02*
X136Y1435D01*
X820Y1435D02*
X827Y1435D01*
X945Y1435D02*
X952Y1435D01*
X0Y1434D02*
X7Y1434D01*
X129Y1434D02*
X136Y1434D01*
X820Y1434D02*
X827Y1434D01*
X945Y1434D02*
X952Y1434D01*
X0Y1433D02*
X7Y1433D01*
X129Y1433D02*
X136Y1433D01*
X820Y1433D02*
X827Y1433D01*
X945Y1433D02*
X952Y1433D01*
X0Y1432D02*
X7Y1432D01*
X129Y1432D02*
X136Y1432D01*
X820Y1432D02*
X827Y1432D01*
X945Y1432D02*
X952Y1432D01*
X0Y1431D02*
X7Y1431D01*
X129Y1431D02*
X136Y1431D01*
X820Y1431D02*
X827Y1431D01*
X945Y1431D02*
X952Y1431D01*
X0Y1430D02*
X7Y1430D01*
X129Y1430D02*
X136Y1430D01*
X820Y1430D02*
X827Y1430D01*
X945Y1430D02*
X952Y1430D01*
X0Y1429D02*
X7Y1429D01*
X129Y1429D02*
X136Y1429D01*
X820Y1429D02*
X827Y1429D01*
X945Y1429D02*
X952Y1429D01*
X0Y1428D02*
X7Y1428D01*
X129Y1428D02*
X136Y1428D01*
X820Y1428D02*
X827Y1428D01*
X945Y1428D02*
X952Y1428D01*
X0Y1427D02*
X7Y1427D01*
X129Y1427D02*
X136Y1427D01*
X820Y1427D02*
X827Y1427D01*
X945Y1427D02*
X952Y1427D01*
X0Y1426D02*
X7Y1426D01*
X129Y1426D02*
X136Y1426D01*
X820Y1426D02*
X827Y1426D01*
X945Y1426D02*
X952Y1426D01*
X0Y1425D02*
X7Y1425D01*
X129Y1425D02*
X136Y1425D01*
X820Y1425D02*
X827Y1425D01*
X945Y1425D02*
X952Y1425D01*
X0Y1424D02*
X7Y1424D01*
X129Y1424D02*
X136Y1424D01*
X820Y1424D02*
X827Y1424D01*
X945Y1424D02*
X952Y1424D01*
X0Y1423D02*
X7Y1423D01*
X129Y1423D02*
X136Y1423D01*
X820Y1423D02*
X827Y1423D01*
X945Y1423D02*
X952Y1423D01*
X0Y1422D02*
X7Y1422D01*
X129Y1422D02*
X136Y1422D01*
X820Y1422D02*
X827Y1422D01*
X945Y1422D02*
X952Y1422D01*
X0Y1421D02*
X7Y1421D01*
X129Y1421D02*
X136Y1421D01*
X820Y1421D02*
X827Y1421D01*
X945Y1421D02*
X952Y1421D01*
X0Y1420D02*
X7Y1420D01*
X129Y1420D02*
X136Y1420D01*
X820Y1420D02*
X827Y1420D01*
X945Y1420D02*
X952Y1420D01*
X0Y1419D02*
X7Y1419D01*
X129Y1419D02*
X136Y1419D01*
X820Y1419D02*
X827Y1419D01*
X945Y1419D02*
X952Y1419D01*
X0Y1418D02*
X7Y1418D01*
X129Y1418D02*
X136Y1418D01*
X820Y1418D02*
X827Y1418D01*
X945Y1418D02*
X952Y1418D01*
X0Y1417D02*
X7Y1417D01*
X129Y1417D02*
X136Y1417D01*
X820Y1417D02*
X827Y1417D01*
X945Y1417D02*
X952Y1417D01*
X0Y1416D02*
X7Y1416D01*
X129Y1416D02*
X136Y1416D01*
X820Y1416D02*
X827Y1416D01*
X945Y1416D02*
X952Y1416D01*
X0Y1415D02*
X7Y1415D01*
X129Y1415D02*
X136Y1415D01*
X820Y1415D02*
X827Y1415D01*
X945Y1415D02*
X952Y1415D01*
X0Y1414D02*
X7Y1414D01*
X129Y1414D02*
X136Y1414D01*
X820Y1414D02*
X827Y1414D01*
X945Y1414D02*
X952Y1414D01*
X0Y1413D02*
X7Y1413D01*
X129Y1413D02*
X136Y1413D01*
X820Y1413D02*
X827Y1413D01*
X945Y1413D02*
X952Y1413D01*
X0Y1412D02*
X7Y1412D01*
X129Y1412D02*
X136Y1412D01*
X820Y1412D02*
X827Y1412D01*
X945Y1412D02*
X952Y1412D01*
X0Y1411D02*
X7Y1411D01*
X129Y1411D02*
X136Y1411D01*
X820Y1411D02*
X827Y1411D01*
X945Y1411D02*
X952Y1411D01*
X0Y1410D02*
X7Y1410D01*
X129Y1410D02*
X136Y1410D01*
X820Y1410D02*
X827Y1410D01*
X945Y1410D02*
X952Y1410D01*
X0Y1409D02*
X7Y1409D01*
X129Y1409D02*
X136Y1409D01*
X820Y1409D02*
X827Y1409D01*
X945Y1409D02*
X952Y1409D01*
X0Y1408D02*
X7Y1408D01*
X129Y1408D02*
X136Y1408D01*
X820Y1408D02*
X827Y1408D01*
X945Y1408D02*
X952Y1408D01*
X0Y1407D02*
X7Y1407D01*
X129Y1407D02*
X136Y1407D01*
X820Y1407D02*
X827Y1407D01*
X945Y1407D02*
X952Y1407D01*
X0Y1406D02*
X7Y1406D01*
X129Y1406D02*
X136Y1406D01*
X820Y1406D02*
X827Y1406D01*
X945Y1406D02*
X952Y1406D01*
X0Y1405D02*
X7Y1405D01*
X129Y1405D02*
X136Y1405D01*
X820Y1405D02*
X827Y1405D01*
X945Y1405D02*
X952Y1405D01*
X0Y1404D02*
X7Y1404D01*
X129Y1404D02*
X136Y1404D01*
X820Y1404D02*
X827Y1404D01*
X945Y1404D02*
X952Y1404D01*
X0Y1403D02*
X7Y1403D01*
X129Y1403D02*
X136Y1403D01*
X820Y1403D02*
X827Y1403D01*
X945Y1403D02*
X952Y1403D01*
X0Y1402D02*
X7Y1402D01*
X129Y1402D02*
X136Y1402D01*
X820Y1402D02*
X827Y1402D01*
X945Y1402D02*
X952Y1402D01*
X0Y1401D02*
X7Y1401D01*
X129Y1401D02*
X136Y1401D01*
X820Y1401D02*
X827Y1401D01*
X945Y1401D02*
X952Y1401D01*
X0Y1400D02*
X7Y1400D01*
X129Y1400D02*
X136Y1400D01*
X820Y1400D02*
X827Y1400D01*
X945Y1400D02*
X952Y1400D01*
X0Y1399D02*
X7Y1399D01*
X129Y1399D02*
X136Y1399D01*
X820Y1399D02*
X827Y1399D01*
X945Y1399D02*
X952Y1399D01*
X0Y1398D02*
X7Y1398D01*
X129Y1398D02*
X136Y1398D01*
X820Y1398D02*
X827Y1398D01*
X945Y1398D02*
X952Y1398D01*
X0Y1397D02*
X7Y1397D01*
X129Y1397D02*
X136Y1397D01*
X820Y1397D02*
X827Y1397D01*
X945Y1397D02*
X952Y1397D01*
X0Y1396D02*
X7Y1396D01*
X129Y1396D02*
X136Y1396D01*
X820Y1396D02*
X827Y1396D01*
X945Y1396D02*
X952Y1396D01*
X0Y1395D02*
X7Y1395D01*
X129Y1395D02*
X136Y1395D01*
X820Y1395D02*
X827Y1395D01*
X945Y1395D02*
X952Y1395D01*
X0Y1394D02*
X7Y1394D01*
X129Y1394D02*
X136Y1394D01*
X820Y1394D02*
X827Y1394D01*
X945Y1394D02*
X952Y1394D01*
X0Y1393D02*
X7Y1393D01*
X129Y1393D02*
X136Y1393D01*
X820Y1393D02*
X827Y1393D01*
X945Y1393D02*
X952Y1393D01*
X0Y1392D02*
X7Y1392D01*
X129Y1392D02*
X136Y1392D01*
X820Y1392D02*
X827Y1392D01*
X945Y1392D02*
X952Y1392D01*
X0Y1391D02*
X7Y1391D01*
X129Y1391D02*
X136Y1391D01*
X820Y1391D02*
X827Y1391D01*
X945Y1391D02*
X952Y1391D01*
X0Y1390D02*
X7Y1390D01*
X129Y1390D02*
X136Y1390D01*
X820Y1390D02*
X827Y1390D01*
X945Y1390D02*
X952Y1390D01*
X0Y1389D02*
X7Y1389D01*
X129Y1389D02*
X136Y1389D01*
X820Y1389D02*
X827Y1389D01*
X945Y1389D02*
X952Y1389D01*
X0Y1388D02*
X7Y1388D01*
X129Y1388D02*
X136Y1388D01*
X820Y1388D02*
X827Y1388D01*
X945Y1388D02*
X952Y1388D01*
X0Y1387D02*
X7Y1387D01*
X129Y1387D02*
X136Y1387D01*
X820Y1387D02*
X827Y1387D01*
X945Y1387D02*
X952Y1387D01*
X0Y1386D02*
X7Y1386D01*
X129Y1386D02*
X136Y1386D01*
X820Y1386D02*
X827Y1386D01*
X945Y1386D02*
X952Y1386D01*
X0Y1385D02*
X7Y1385D01*
X129Y1385D02*
X136Y1385D01*
X820Y1385D02*
X827Y1385D01*
X945Y1385D02*
X952Y1385D01*
X0Y1384D02*
X7Y1384D01*
X129Y1384D02*
X136Y1384D01*
X820Y1384D02*
X827Y1384D01*
X945Y1384D02*
X952Y1384D01*
X0Y1383D02*
X7Y1383D01*
X129Y1383D02*
X136Y1383D01*
X820Y1383D02*
X827Y1383D01*
X945Y1383D02*
X952Y1383D01*
X0Y1382D02*
X7Y1382D01*
X129Y1382D02*
X136Y1382D01*
X820Y1382D02*
X827Y1382D01*
X945Y1382D02*
X952Y1382D01*
X0Y1381D02*
X7Y1381D01*
X129Y1381D02*
X136Y1381D01*
X820Y1381D02*
X827Y1381D01*
X945Y1381D02*
X952Y1381D01*
X0Y1380D02*
X7Y1380D01*
X129Y1380D02*
X136Y1380D01*
X820Y1380D02*
X827Y1380D01*
X945Y1380D02*
X952Y1380D01*
X0Y1379D02*
X7Y1379D01*
X129Y1379D02*
X136Y1379D01*
X820Y1379D02*
X827Y1379D01*
X945Y1379D02*
X952Y1379D01*
X0Y1378D02*
X7Y1378D01*
X129Y1378D02*
X136Y1378D01*
X820Y1378D02*
X827Y1378D01*
X945Y1378D02*
X952Y1378D01*
X0Y1377D02*
X7Y1377D01*
X129Y1377D02*
X136Y1377D01*
X820Y1377D02*
X827Y1377D01*
X945Y1377D02*
X952Y1377D01*
X0Y1376D02*
X7Y1376D01*
X129Y1376D02*
X136Y1376D01*
X820Y1376D02*
X827Y1376D01*
X945Y1376D02*
X952Y1376D01*
X0Y1375D02*
X7Y1375D01*
X129Y1375D02*
X136Y1375D01*
X820Y1375D02*
X827Y1375D01*
X945Y1375D02*
X952Y1375D01*
X0Y1374D02*
X7Y1374D01*
X129Y1374D02*
X136Y1374D01*
X820Y1374D02*
X827Y1374D01*
X945Y1374D02*
X952Y1374D01*
X0Y1373D02*
X7Y1373D01*
X129Y1373D02*
X136Y1373D01*
X820Y1373D02*
X827Y1373D01*
X945Y1373D02*
X952Y1373D01*
X0Y1372D02*
X7Y1372D01*
X129Y1372D02*
X136Y1372D01*
X820Y1372D02*
X827Y1372D01*
X945Y1372D02*
X952Y1372D01*
X0Y1371D02*
X7Y1371D01*
X129Y1371D02*
X136Y1371D01*
X820Y1371D02*
X827Y1371D01*
X945Y1371D02*
X952Y1371D01*
X0Y1370D02*
X7Y1370D01*
X129Y1370D02*
X136Y1370D01*
X820Y1370D02*
X827Y1370D01*
X945Y1370D02*
X952Y1370D01*
X0Y1369D02*
X7Y1369D01*
X129Y1369D02*
X136Y1369D01*
X820Y1369D02*
X827Y1369D01*
X945Y1369D02*
X952Y1369D01*
X0Y1368D02*
X7Y1368D01*
X129Y1368D02*
X136Y1368D01*
X820Y1368D02*
X827Y1368D01*
X945Y1368D02*
X952Y1368D01*
X0Y1367D02*
X7Y1367D01*
X129Y1367D02*
X136Y1367D01*
X820Y1367D02*
X827Y1367D01*
X945Y1367D02*
X952Y1367D01*
X0Y1366D02*
X7Y1366D01*
X129Y1366D02*
X136Y1366D01*
X820Y1366D02*
X827Y1366D01*
X945Y1366D02*
X952Y1366D01*
X0Y1365D02*
X7Y1365D01*
X129Y1365D02*
X136Y1365D01*
X820Y1365D02*
X827Y1365D01*
X945Y1365D02*
X952Y1365D01*
X0Y1364D02*
X7Y1364D01*
X129Y1364D02*
X136Y1364D01*
X820Y1364D02*
X827Y1364D01*
X945Y1364D02*
X952Y1364D01*
X0Y1363D02*
X7Y1363D01*
X129Y1363D02*
X136Y1363D01*
X820Y1363D02*
X827Y1363D01*
X945Y1363D02*
X952Y1363D01*
X0Y1362D02*
X7Y1362D01*
X129Y1362D02*
X136Y1362D01*
X820Y1362D02*
X827Y1362D01*
X945Y1362D02*
X952Y1362D01*
X0Y1361D02*
X7Y1361D01*
X129Y1361D02*
X136Y1361D01*
X820Y1361D02*
X827Y1361D01*
X945Y1361D02*
X952Y1361D01*
X0Y1360D02*
X7Y1360D01*
X129Y1360D02*
X136Y1360D01*
X820Y1360D02*
X827Y1360D01*
X945Y1360D02*
X952Y1360D01*
X0Y1359D02*
X7Y1359D01*
X129Y1359D02*
X136Y1359D01*
X820Y1359D02*
X827Y1359D01*
X945Y1359D02*
X952Y1359D01*
X0Y1358D02*
X7Y1358D01*
X129Y1358D02*
X136Y1358D01*
X820Y1358D02*
X827Y1358D01*
X945Y1358D02*
X952Y1358D01*
X0Y1357D02*
X7Y1357D01*
X129Y1357D02*
X136Y1357D01*
X820Y1357D02*
X827Y1357D01*
X945Y1357D02*
X952Y1357D01*
X0Y1356D02*
X7Y1356D01*
X129Y1356D02*
X136Y1356D01*
X820Y1356D02*
X827Y1356D01*
X945Y1356D02*
X952Y1356D01*
X0Y1355D02*
X7Y1355D01*
X129Y1355D02*
X136Y1355D01*
X820Y1355D02*
X827Y1355D01*
X945Y1355D02*
X952Y1355D01*
X0Y1354D02*
X7Y1354D01*
X129Y1354D02*
X136Y1354D01*
X820Y1354D02*
X827Y1354D01*
X945Y1354D02*
X952Y1354D01*
X0Y1353D02*
X7Y1353D01*
X129Y1353D02*
X136Y1353D01*
X820Y1353D02*
X827Y1353D01*
X945Y1353D02*
X952Y1353D01*
X0Y1352D02*
X7Y1352D01*
X129Y1352D02*
X136Y1352D01*
X820Y1352D02*
X827Y1352D01*
X945Y1352D02*
X952Y1352D01*
X0Y1351D02*
X7Y1351D01*
X129Y1351D02*
X136Y1351D01*
X820Y1351D02*
X827Y1351D01*
X945Y1351D02*
X952Y1351D01*
X0Y1350D02*
X7Y1350D01*
X129Y1350D02*
X136Y1350D01*
X820Y1350D02*
X827Y1350D01*
X945Y1350D02*
X952Y1350D01*
X0Y1349D02*
X7Y1349D01*
X129Y1349D02*
X136Y1349D01*
X820Y1349D02*
X827Y1349D01*
X945Y1349D02*
X952Y1349D01*
X0Y1348D02*
X7Y1348D01*
X129Y1348D02*
X136Y1348D01*
X820Y1348D02*
X827Y1348D01*
X945Y1348D02*
X952Y1348D01*
X0Y1347D02*
X7Y1347D01*
X129Y1347D02*
X136Y1347D01*
X820Y1347D02*
X827Y1347D01*
X945Y1347D02*
X952Y1347D01*
X0Y1346D02*
X7Y1346D01*
X129Y1346D02*
X136Y1346D01*
X820Y1346D02*
X827Y1346D01*
X945Y1346D02*
X952Y1346D01*
X0Y1345D02*
X7Y1345D01*
X129Y1345D02*
X136Y1345D01*
X820Y1345D02*
X827Y1345D01*
X945Y1345D02*
X952Y1345D01*
X0Y1344D02*
X7Y1344D01*
X129Y1344D02*
X136Y1344D01*
X820Y1344D02*
X827Y1344D01*
X945Y1344D02*
X952Y1344D01*
X0Y1343D02*
X7Y1343D01*
X129Y1343D02*
X136Y1343D01*
X820Y1343D02*
X827Y1343D01*
X945Y1343D02*
X952Y1343D01*
X0Y1342D02*
X7Y1342D01*
X129Y1342D02*
X136Y1342D01*
X820Y1342D02*
X827Y1342D01*
X945Y1342D02*
X952Y1342D01*
X0Y1341D02*
X7Y1341D01*
X129Y1341D02*
X136Y1341D01*
X820Y1341D02*
X827Y1341D01*
X945Y1341D02*
X952Y1341D01*
X0Y1340D02*
X7Y1340D01*
X129Y1340D02*
X136Y1340D01*
X820Y1340D02*
X827Y1340D01*
X945Y1340D02*
X952Y1340D01*
X0Y1339D02*
X7Y1339D01*
X129Y1339D02*
X136Y1339D01*
X820Y1339D02*
X827Y1339D01*
X945Y1339D02*
X952Y1339D01*
X0Y1338D02*
X7Y1338D01*
X129Y1338D02*
X136Y1338D01*
X820Y1338D02*
X827Y1338D01*
X945Y1338D02*
X952Y1338D01*
X0Y1337D02*
X7Y1337D01*
X129Y1337D02*
X136Y1337D01*
X820Y1337D02*
X827Y1337D01*
X945Y1337D02*
X952Y1337D01*
X0Y1336D02*
X7Y1336D01*
X129Y1336D02*
X136Y1336D01*
X820Y1336D02*
X827Y1336D01*
X945Y1336D02*
X952Y1336D01*
X0Y1335D02*
X7Y1335D01*
X129Y1335D02*
X136Y1335D01*
X820Y1335D02*
X827Y1335D01*
X945Y1335D02*
X952Y1335D01*
X0Y1334D02*
X7Y1334D01*
X129Y1334D02*
X136Y1334D01*
X820Y1334D02*
X827Y1334D01*
X945Y1334D02*
X952Y1334D01*
X0Y1333D02*
X7Y1333D01*
X129Y1333D02*
X136Y1333D01*
X820Y1333D02*
X827Y1333D01*
X945Y1333D02*
X952Y1333D01*
X0Y1332D02*
X7Y1332D01*
X129Y1332D02*
X136Y1332D01*
X820Y1332D02*
X827Y1332D01*
X945Y1332D02*
X952Y1332D01*
X0Y1331D02*
X7Y1331D01*
X129Y1331D02*
X136Y1331D01*
X820Y1331D02*
X827Y1331D01*
X945Y1331D02*
X952Y1331D01*
X0Y1330D02*
X7Y1330D01*
X129Y1330D02*
X136Y1330D01*
X820Y1330D02*
X827Y1330D01*
X945Y1330D02*
X952Y1330D01*
X0Y1329D02*
X7Y1329D01*
X129Y1329D02*
X136Y1329D01*
X820Y1329D02*
X827Y1329D01*
X945Y1329D02*
X952Y1329D01*
X0Y1328D02*
X7Y1328D01*
X129Y1328D02*
X136Y1328D01*
X820Y1328D02*
X827Y1328D01*
X945Y1328D02*
X952Y1328D01*
X0Y1327D02*
X7Y1327D01*
X129Y1327D02*
X136Y1327D01*
X820Y1327D02*
X827Y1327D01*
X945Y1327D02*
X952Y1327D01*
X0Y1326D02*
X7Y1326D01*
X129Y1326D02*
X136Y1326D01*
X820Y1326D02*
X827Y1326D01*
X945Y1326D02*
X952Y1326D01*
X0Y1325D02*
X7Y1325D01*
X129Y1325D02*
X136Y1325D01*
X820Y1325D02*
X827Y1325D01*
X945Y1325D02*
X952Y1325D01*
X0Y1324D02*
X7Y1324D01*
X129Y1324D02*
X136Y1324D01*
X820Y1324D02*
X827Y1324D01*
X945Y1324D02*
X952Y1324D01*
X0Y1323D02*
X7Y1323D01*
X129Y1323D02*
X136Y1323D01*
X820Y1323D02*
X827Y1323D01*
X945Y1323D02*
X952Y1323D01*
X0Y1322D02*
X7Y1322D01*
X129Y1322D02*
X136Y1322D01*
X820Y1322D02*
X827Y1322D01*
X945Y1322D02*
X952Y1322D01*
X0Y1321D02*
X7Y1321D01*
X129Y1321D02*
X136Y1321D01*
X820Y1321D02*
X827Y1321D01*
X945Y1321D02*
X952Y1321D01*
X0Y1320D02*
X7Y1320D01*
X129Y1320D02*
X136Y1320D01*
X820Y1320D02*
X827Y1320D01*
X945Y1320D02*
X952Y1320D01*
X0Y1319D02*
X7Y1319D01*
X129Y1319D02*
X136Y1319D01*
X820Y1319D02*
X827Y1319D01*
X945Y1319D02*
X952Y1319D01*
X0Y1318D02*
X7Y1318D01*
X129Y1318D02*
X136Y1318D01*
X820Y1318D02*
X827Y1318D01*
X945Y1318D02*
X952Y1318D01*
X0Y1317D02*
X7Y1317D01*
X129Y1317D02*
X136Y1317D01*
X820Y1317D02*
X827Y1317D01*
X945Y1317D02*
X952Y1317D01*
X0Y1316D02*
X7Y1316D01*
X129Y1316D02*
X136Y1316D01*
X820Y1316D02*
X827Y1316D01*
X945Y1316D02*
X952Y1316D01*
X0Y1315D02*
X7Y1315D01*
X129Y1315D02*
X136Y1315D01*
X820Y1315D02*
X827Y1315D01*
X945Y1315D02*
X952Y1315D01*
X0Y1314D02*
X7Y1314D01*
X129Y1314D02*
X136Y1314D01*
X820Y1314D02*
X827Y1314D01*
X945Y1314D02*
X952Y1314D01*
X0Y1313D02*
X7Y1313D01*
X129Y1313D02*
X136Y1313D01*
X820Y1313D02*
X827Y1313D01*
X945Y1313D02*
X952Y1313D01*
X0Y1312D02*
X7Y1312D01*
X129Y1312D02*
X136Y1312D01*
X820Y1312D02*
X827Y1312D01*
X945Y1312D02*
X952Y1312D01*
X0Y1311D02*
X7Y1311D01*
X129Y1311D02*
X136Y1311D01*
X820Y1311D02*
X827Y1311D01*
X945Y1311D02*
X952Y1311D01*
X0Y1310D02*
X7Y1310D01*
X129Y1310D02*
X136Y1310D01*
X820Y1310D02*
X827Y1310D01*
X945Y1310D02*
X952Y1310D01*
X0Y1309D02*
X7Y1309D01*
X129Y1309D02*
X136Y1309D01*
X820Y1309D02*
X827Y1309D01*
X945Y1309D02*
X952Y1309D01*
X0Y1308D02*
X7Y1308D01*
X129Y1308D02*
X136Y1308D01*
X820Y1308D02*
X827Y1308D01*
X945Y1308D02*
X952Y1308D01*
X0Y1307D02*
X7Y1307D01*
X129Y1307D02*
X136Y1307D01*
X820Y1307D02*
X827Y1307D01*
X945Y1307D02*
X952Y1307D01*
X0Y1306D02*
X7Y1306D01*
X129Y1306D02*
X136Y1306D01*
X820Y1306D02*
X827Y1306D01*
X945Y1306D02*
X952Y1306D01*
X0Y1305D02*
X7Y1305D01*
X129Y1305D02*
X136Y1305D01*
X820Y1305D02*
X827Y1305D01*
X945Y1305D02*
X952Y1305D01*
X0Y1304D02*
X7Y1304D01*
X129Y1304D02*
X136Y1304D01*
X820Y1304D02*
X827Y1304D01*
X945Y1304D02*
X952Y1304D01*
X0Y1303D02*
X7Y1303D01*
X129Y1303D02*
X136Y1303D01*
X820Y1303D02*
X827Y1303D01*
X945Y1303D02*
X952Y1303D01*
X0Y1302D02*
X7Y1302D01*
X129Y1302D02*
X136Y1302D01*
X820Y1302D02*
X827Y1302D01*
X945Y1302D02*
X952Y1302D01*
X0Y1301D02*
X7Y1301D01*
X129Y1301D02*
X136Y1301D01*
X820Y1301D02*
X827Y1301D01*
X945Y1301D02*
X952Y1301D01*
X0Y1300D02*
X7Y1300D01*
X129Y1300D02*
X136Y1300D01*
X820Y1300D02*
X827Y1300D01*
X945Y1300D02*
X952Y1300D01*
X0Y1299D02*
X7Y1299D01*
X129Y1299D02*
X136Y1299D01*
X820Y1299D02*
X827Y1299D01*
X945Y1299D02*
X952Y1299D01*
X0Y1298D02*
X7Y1298D01*
X129Y1298D02*
X136Y1298D01*
X820Y1298D02*
X827Y1298D01*
X945Y1298D02*
X952Y1298D01*
X0Y1297D02*
X7Y1297D01*
X129Y1297D02*
X136Y1297D01*
X820Y1297D02*
X827Y1297D01*
X945Y1297D02*
X952Y1297D01*
X0Y1296D02*
X7Y1296D01*
X129Y1296D02*
X136Y1296D01*
X820Y1296D02*
X827Y1296D01*
X945Y1296D02*
X952Y1296D01*
X0Y1295D02*
X7Y1295D01*
X129Y1295D02*
X136Y1295D01*
X820Y1295D02*
X827Y1295D01*
X945Y1295D02*
X952Y1295D01*
X0Y1294D02*
X7Y1294D01*
X129Y1294D02*
X136Y1294D01*
X820Y1294D02*
X827Y1294D01*
X945Y1294D02*
X952Y1294D01*
X0Y1293D02*
X7Y1293D01*
X129Y1293D02*
X136Y1293D01*
X820Y1293D02*
X827Y1293D01*
X945Y1293D02*
X952Y1293D01*
X0Y1292D02*
X7Y1292D01*
X129Y1292D02*
X136Y1292D01*
X820Y1292D02*
X827Y1292D01*
X945Y1292D02*
X952Y1292D01*
X0Y1291D02*
X7Y1291D01*
X129Y1291D02*
X136Y1291D01*
X820Y1291D02*
X827Y1291D01*
X945Y1291D02*
X952Y1291D01*
X0Y1290D02*
X7Y1290D01*
X129Y1290D02*
X136Y1290D01*
X820Y1290D02*
X827Y1290D01*
X945Y1290D02*
X952Y1290D01*
X0Y1289D02*
X7Y1289D01*
X129Y1289D02*
X136Y1289D01*
X820Y1289D02*
X827Y1289D01*
X945Y1289D02*
X952Y1289D01*
X0Y1288D02*
X7Y1288D01*
X129Y1288D02*
X136Y1288D01*
X820Y1288D02*
X827Y1288D01*
X945Y1288D02*
X952Y1288D01*
X0Y1287D02*
X7Y1287D01*
X129Y1287D02*
X136Y1287D01*
X820Y1287D02*
X827Y1287D01*
X945Y1287D02*
X952Y1287D01*
X0Y1286D02*
X7Y1286D01*
X129Y1286D02*
X136Y1286D01*
X820Y1286D02*
X827Y1286D01*
X945Y1286D02*
X952Y1286D01*
X0Y1285D02*
X7Y1285D01*
X129Y1285D02*
X136Y1285D01*
X820Y1285D02*
X827Y1285D01*
X945Y1285D02*
X952Y1285D01*
X0Y1284D02*
X7Y1284D01*
X129Y1284D02*
X136Y1284D01*
X820Y1284D02*
X827Y1284D01*
X945Y1284D02*
X952Y1284D01*
X0Y1283D02*
X7Y1283D01*
X129Y1283D02*
X136Y1283D01*
X820Y1283D02*
X827Y1283D01*
X945Y1283D02*
X952Y1283D01*
X0Y1282D02*
X7Y1282D01*
X129Y1282D02*
X136Y1282D01*
X820Y1282D02*
X827Y1282D01*
X945Y1282D02*
X952Y1282D01*
X0Y1281D02*
X7Y1281D01*
X129Y1281D02*
X136Y1281D01*
X820Y1281D02*
X827Y1281D01*
X945Y1281D02*
X952Y1281D01*
X0Y1280D02*
X7Y1280D01*
X129Y1280D02*
X136Y1280D01*
X820Y1280D02*
X827Y1280D01*
X945Y1280D02*
X952Y1280D01*
X0Y1279D02*
X7Y1279D01*
X129Y1279D02*
X136Y1279D01*
X820Y1279D02*
X827Y1279D01*
X945Y1279D02*
X952Y1279D01*
X0Y1278D02*
X7Y1278D01*
X129Y1278D02*
X136Y1278D01*
X820Y1278D02*
X827Y1278D01*
X945Y1278D02*
X952Y1278D01*
X0Y1277D02*
X7Y1277D01*
X129Y1277D02*
X136Y1277D01*
X820Y1277D02*
X827Y1277D01*
X945Y1277D02*
X952Y1277D01*
X0Y1276D02*
X7Y1276D01*
X129Y1276D02*
X136Y1276D01*
X820Y1276D02*
X827Y1276D01*
X945Y1276D02*
X952Y1276D01*
X0Y1275D02*
X7Y1275D01*
X129Y1275D02*
X136Y1275D01*
X820Y1275D02*
X827Y1275D01*
X945Y1275D02*
X952Y1275D01*
X0Y1274D02*
X7Y1274D01*
X129Y1274D02*
X136Y1274D01*
X820Y1274D02*
X827Y1274D01*
X945Y1274D02*
X952Y1274D01*
X0Y1273D02*
X7Y1273D01*
X129Y1273D02*
X136Y1273D01*
X820Y1273D02*
X827Y1273D01*
X945Y1273D02*
X952Y1273D01*
X0Y1272D02*
X7Y1272D01*
X129Y1272D02*
X136Y1272D01*
X820Y1272D02*
X827Y1272D01*
X945Y1272D02*
X952Y1272D01*
X0Y1271D02*
X7Y1271D01*
X129Y1271D02*
X136Y1271D01*
X820Y1271D02*
X827Y1271D01*
X945Y1271D02*
X952Y1271D01*
X0Y1270D02*
X7Y1270D01*
X129Y1270D02*
X136Y1270D01*
X820Y1270D02*
X827Y1270D01*
X945Y1270D02*
X952Y1270D01*
X0Y1269D02*
X7Y1269D01*
X129Y1269D02*
X136Y1269D01*
X820Y1269D02*
X827Y1269D01*
X945Y1269D02*
X952Y1269D01*
X0Y1268D02*
X7Y1268D01*
X129Y1268D02*
X136Y1268D01*
X820Y1268D02*
X827Y1268D01*
X945Y1268D02*
X952Y1268D01*
X0Y1267D02*
X7Y1267D01*
X129Y1267D02*
X136Y1267D01*
X820Y1267D02*
X827Y1267D01*
X945Y1267D02*
X952Y1267D01*
X0Y1266D02*
X7Y1266D01*
X129Y1266D02*
X136Y1266D01*
X820Y1266D02*
X827Y1266D01*
X945Y1266D02*
X952Y1266D01*
X0Y1265D02*
X7Y1265D01*
X129Y1265D02*
X136Y1265D01*
X820Y1265D02*
X827Y1265D01*
X945Y1265D02*
X952Y1265D01*
X0Y1264D02*
X7Y1264D01*
X129Y1264D02*
X136Y1264D01*
X820Y1264D02*
X827Y1264D01*
X945Y1264D02*
X952Y1264D01*
X0Y1263D02*
X7Y1263D01*
X129Y1263D02*
X136Y1263D01*
X820Y1263D02*
X827Y1263D01*
X945Y1263D02*
X952Y1263D01*
X0Y1262D02*
X7Y1262D01*
X129Y1262D02*
X136Y1262D01*
X820Y1262D02*
X827Y1262D01*
X945Y1262D02*
X952Y1262D01*
X0Y1261D02*
X7Y1261D01*
X129Y1261D02*
X136Y1261D01*
X820Y1261D02*
X827Y1261D01*
X945Y1261D02*
X952Y1261D01*
X0Y1260D02*
X7Y1260D01*
X129Y1260D02*
X136Y1260D01*
X820Y1260D02*
X827Y1260D01*
X945Y1260D02*
X952Y1260D01*
X0Y1259D02*
X7Y1259D01*
X129Y1259D02*
X136Y1259D01*
X820Y1259D02*
X827Y1259D01*
X945Y1259D02*
X952Y1259D01*
X0Y1258D02*
X7Y1258D01*
X129Y1258D02*
X136Y1258D01*
X820Y1258D02*
X827Y1258D01*
X945Y1258D02*
X952Y1258D01*
X0Y1257D02*
X7Y1257D01*
X129Y1257D02*
X136Y1257D01*
X820Y1257D02*
X827Y1257D01*
X945Y1257D02*
X952Y1257D01*
X0Y1256D02*
X7Y1256D01*
X129Y1256D02*
X136Y1256D01*
X820Y1256D02*
X827Y1256D01*
X945Y1256D02*
X952Y1256D01*
X0Y1255D02*
X7Y1255D01*
X129Y1255D02*
X136Y1255D01*
X820Y1255D02*
X827Y1255D01*
X945Y1255D02*
X952Y1255D01*
X0Y1254D02*
X7Y1254D01*
X129Y1254D02*
X136Y1254D01*
X820Y1254D02*
X827Y1254D01*
X945Y1254D02*
X952Y1254D01*
X0Y1253D02*
X7Y1253D01*
X129Y1253D02*
X136Y1253D01*
X820Y1253D02*
X827Y1253D01*
X945Y1253D02*
X952Y1253D01*
X0Y1252D02*
X7Y1252D01*
X129Y1252D02*
X136Y1252D01*
X820Y1252D02*
X827Y1252D01*
X945Y1252D02*
X952Y1252D01*
X0Y1251D02*
X7Y1251D01*
X129Y1251D02*
X136Y1251D01*
X820Y1251D02*
X827Y1251D01*
X945Y1251D02*
X952Y1251D01*
X0Y1250D02*
X7Y1250D01*
X129Y1250D02*
X136Y1250D01*
X820Y1250D02*
X827Y1250D01*
X945Y1250D02*
X952Y1250D01*
X0Y1249D02*
X7Y1249D01*
X129Y1249D02*
X136Y1249D01*
X820Y1249D02*
X827Y1249D01*
X945Y1249D02*
X952Y1249D01*
X0Y1248D02*
X7Y1248D01*
X129Y1248D02*
X136Y1248D01*
X820Y1248D02*
X827Y1248D01*
X945Y1248D02*
X952Y1248D01*
X0Y1247D02*
X7Y1247D01*
X129Y1247D02*
X136Y1247D01*
X820Y1247D02*
X827Y1247D01*
X945Y1247D02*
X952Y1247D01*
X0Y1246D02*
X7Y1246D01*
X129Y1246D02*
X136Y1246D01*
X820Y1246D02*
X827Y1246D01*
X945Y1246D02*
X952Y1246D01*
X0Y1245D02*
X7Y1245D01*
X129Y1245D02*
X136Y1245D01*
X820Y1245D02*
X827Y1245D01*
X945Y1245D02*
X952Y1245D01*
X0Y1244D02*
X7Y1244D01*
X129Y1244D02*
X136Y1244D01*
X820Y1244D02*
X827Y1244D01*
X945Y1244D02*
X952Y1244D01*
X0Y1243D02*
X7Y1243D01*
X129Y1243D02*
X136Y1243D01*
X820Y1243D02*
X827Y1243D01*
X945Y1243D02*
X952Y1243D01*
X0Y1242D02*
X7Y1242D01*
X129Y1242D02*
X136Y1242D01*
X820Y1242D02*
X827Y1242D01*
X945Y1242D02*
X952Y1242D01*
X0Y1241D02*
X7Y1241D01*
X129Y1241D02*
X136Y1241D01*
X820Y1241D02*
X827Y1241D01*
X945Y1241D02*
X952Y1241D01*
X0Y1240D02*
X7Y1240D01*
X129Y1240D02*
X136Y1240D01*
X820Y1240D02*
X827Y1240D01*
X945Y1240D02*
X952Y1240D01*
X0Y1239D02*
X7Y1239D01*
X129Y1239D02*
X136Y1239D01*
X820Y1239D02*
X827Y1239D01*
X945Y1239D02*
X952Y1239D01*
X0Y1238D02*
X7Y1238D01*
X129Y1238D02*
X136Y1238D01*
X820Y1238D02*
X827Y1238D01*
X945Y1238D02*
X952Y1238D01*
X0Y1237D02*
X7Y1237D01*
X129Y1237D02*
X136Y1237D01*
X820Y1237D02*
X827Y1237D01*
X945Y1237D02*
X952Y1237D01*
X0Y1236D02*
X7Y1236D01*
X129Y1236D02*
X136Y1236D01*
X820Y1236D02*
X827Y1236D01*
X945Y1236D02*
X952Y1236D01*
X0Y1235D02*
X7Y1235D01*
X129Y1235D02*
X136Y1235D01*
X820Y1235D02*
X827Y1235D01*
X945Y1235D02*
X952Y1235D01*
X0Y1234D02*
X7Y1234D01*
X129Y1234D02*
X136Y1234D01*
X820Y1234D02*
X827Y1234D01*
X945Y1234D02*
X952Y1234D01*
X0Y1233D02*
X7Y1233D01*
X129Y1233D02*
X136Y1233D01*
X820Y1233D02*
X827Y1233D01*
X945Y1233D02*
X952Y1233D01*
X0Y1232D02*
X7Y1232D01*
X129Y1232D02*
X136Y1232D01*
X820Y1232D02*
X827Y1232D01*
X945Y1232D02*
X952Y1232D01*
X0Y1231D02*
X7Y1231D01*
X129Y1231D02*
X136Y1231D01*
X820Y1231D02*
X827Y1231D01*
X945Y1231D02*
X952Y1231D01*
X0Y1230D02*
X7Y1230D01*
X129Y1230D02*
X136Y1230D01*
X820Y1230D02*
X827Y1230D01*
X945Y1230D02*
X952Y1230D01*
X0Y1229D02*
X7Y1229D01*
X129Y1229D02*
X136Y1229D01*
X820Y1229D02*
X827Y1229D01*
X945Y1229D02*
X952Y1229D01*
X0Y1228D02*
X7Y1228D01*
X129Y1228D02*
X136Y1228D01*
X820Y1228D02*
X827Y1228D01*
X945Y1228D02*
X952Y1228D01*
X0Y1227D02*
X7Y1227D01*
X129Y1227D02*
X136Y1227D01*
X820Y1227D02*
X827Y1227D01*
X945Y1227D02*
X952Y1227D01*
X0Y1226D02*
X7Y1226D01*
X129Y1226D02*
X136Y1226D01*
X820Y1226D02*
X827Y1226D01*
X945Y1226D02*
X952Y1226D01*
X0Y1225D02*
X7Y1225D01*
X129Y1225D02*
X136Y1225D01*
X820Y1225D02*
X827Y1225D01*
X945Y1225D02*
X952Y1225D01*
X0Y1224D02*
X7Y1224D01*
X129Y1224D02*
X136Y1224D01*
X820Y1224D02*
X827Y1224D01*
X945Y1224D02*
X952Y1224D01*
X0Y1223D02*
X7Y1223D01*
X129Y1223D02*
X136Y1223D01*
X820Y1223D02*
X827Y1223D01*
X945Y1223D02*
X952Y1223D01*
X0Y1222D02*
X7Y1222D01*
X129Y1222D02*
X136Y1222D01*
X820Y1222D02*
X827Y1222D01*
X945Y1222D02*
X952Y1222D01*
X0Y1221D02*
X7Y1221D01*
X129Y1221D02*
X136Y1221D01*
X820Y1221D02*
X827Y1221D01*
X945Y1221D02*
X952Y1221D01*
X0Y1220D02*
X7Y1220D01*
X129Y1220D02*
X136Y1220D01*
X820Y1220D02*
X827Y1220D01*
X945Y1220D02*
X952Y1220D01*
X0Y1219D02*
X7Y1219D01*
X129Y1219D02*
X136Y1219D01*
X820Y1219D02*
X827Y1219D01*
X945Y1219D02*
X952Y1219D01*
X0Y1218D02*
X7Y1218D01*
X129Y1218D02*
X136Y1218D01*
X820Y1218D02*
X827Y1218D01*
X945Y1218D02*
X952Y1218D01*
X0Y1217D02*
X7Y1217D01*
X129Y1217D02*
X136Y1217D01*
X820Y1217D02*
X827Y1217D01*
X945Y1217D02*
X952Y1217D01*
X0Y1216D02*
X7Y1216D01*
X129Y1216D02*
X136Y1216D01*
X820Y1216D02*
X827Y1216D01*
X945Y1216D02*
X952Y1216D01*
X0Y1215D02*
X7Y1215D01*
X129Y1215D02*
X136Y1215D01*
X820Y1215D02*
X827Y1215D01*
X945Y1215D02*
X952Y1215D01*
X0Y1214D02*
X7Y1214D01*
X129Y1214D02*
X136Y1214D01*
X820Y1214D02*
X827Y1214D01*
X945Y1214D02*
X952Y1214D01*
X0Y1213D02*
X7Y1213D01*
X129Y1213D02*
X136Y1213D01*
X820Y1213D02*
X827Y1213D01*
X945Y1213D02*
X952Y1213D01*
X0Y1212D02*
X7Y1212D01*
X129Y1212D02*
X136Y1212D01*
X820Y1212D02*
X827Y1212D01*
X945Y1212D02*
X952Y1212D01*
X0Y1211D02*
X7Y1211D01*
X129Y1211D02*
X136Y1211D01*
X820Y1211D02*
X827Y1211D01*
X945Y1211D02*
X952Y1211D01*
X0Y1210D02*
X7Y1210D01*
X129Y1210D02*
X136Y1210D01*
X820Y1210D02*
X827Y1210D01*
X945Y1210D02*
X952Y1210D01*
X0Y1209D02*
X7Y1209D01*
X129Y1209D02*
X136Y1209D01*
X820Y1209D02*
X827Y1209D01*
X945Y1209D02*
X952Y1209D01*
X0Y1208D02*
X7Y1208D01*
X129Y1208D02*
X136Y1208D01*
X820Y1208D02*
X827Y1208D01*
X945Y1208D02*
X952Y1208D01*
X0Y1207D02*
X7Y1207D01*
X129Y1207D02*
X136Y1207D01*
X820Y1207D02*
X827Y1207D01*
X945Y1207D02*
X952Y1207D01*
X0Y1206D02*
X7Y1206D01*
X129Y1206D02*
X136Y1206D01*
X820Y1206D02*
X827Y1206D01*
X945Y1206D02*
X952Y1206D01*
X0Y1205D02*
X7Y1205D01*
X129Y1205D02*
X136Y1205D01*
X820Y1205D02*
X827Y1205D01*
X945Y1205D02*
X952Y1205D01*
X0Y1204D02*
X7Y1204D01*
X129Y1204D02*
X136Y1204D01*
X820Y1204D02*
X827Y1204D01*
X945Y1204D02*
X952Y1204D01*
X0Y1203D02*
X7Y1203D01*
X129Y1203D02*
X136Y1203D01*
X820Y1203D02*
X827Y1203D01*
X945Y1203D02*
X952Y1203D01*
X0Y1202D02*
X7Y1202D01*
X129Y1202D02*
X136Y1202D01*
X820Y1202D02*
X827Y1202D01*
X945Y1202D02*
X952Y1202D01*
X0Y1201D02*
X7Y1201D01*
X129Y1201D02*
X136Y1201D01*
X820Y1201D02*
X827Y1201D01*
X945Y1201D02*
X952Y1201D01*
X0Y1200D02*
X7Y1200D01*
X129Y1200D02*
X136Y1200D01*
X820Y1200D02*
X827Y1200D01*
X945Y1200D02*
X952Y1200D01*
X0Y1199D02*
X7Y1199D01*
X129Y1199D02*
X136Y1199D01*
X820Y1199D02*
X827Y1199D01*
X945Y1199D02*
X952Y1199D01*
X0Y1198D02*
X7Y1198D01*
X129Y1198D02*
X136Y1198D01*
X820Y1198D02*
X827Y1198D01*
X945Y1198D02*
X952Y1198D01*
X0Y1197D02*
X7Y1197D01*
X129Y1197D02*
X136Y1197D01*
X820Y1197D02*
X827Y1197D01*
X945Y1197D02*
X952Y1197D01*
X0Y1196D02*
X7Y1196D01*
X129Y1196D02*
X136Y1196D01*
X820Y1196D02*
X827Y1196D01*
X945Y1196D02*
X952Y1196D01*
X0Y1195D02*
X7Y1195D01*
X129Y1195D02*
X136Y1195D01*
X820Y1195D02*
X827Y1195D01*
X945Y1195D02*
X952Y1195D01*
X0Y1194D02*
X7Y1194D01*
X129Y1194D02*
X136Y1194D01*
X820Y1194D02*
X827Y1194D01*
X945Y1194D02*
X952Y1194D01*
X0Y1193D02*
X7Y1193D01*
X129Y1193D02*
X136Y1193D01*
X820Y1193D02*
X827Y1193D01*
X945Y1193D02*
X952Y1193D01*
X0Y1192D02*
X7Y1192D01*
X129Y1192D02*
X136Y1192D01*
X820Y1192D02*
X827Y1192D01*
X945Y1192D02*
X952Y1192D01*
X0Y1191D02*
X7Y1191D01*
X129Y1191D02*
X136Y1191D01*
X820Y1191D02*
X827Y1191D01*
X945Y1191D02*
X952Y1191D01*
X0Y1190D02*
X7Y1190D01*
X129Y1190D02*
X136Y1190D01*
X820Y1190D02*
X827Y1190D01*
X945Y1190D02*
X952Y1190D01*
X0Y1189D02*
X7Y1189D01*
X129Y1189D02*
X136Y1189D01*
X820Y1189D02*
X827Y1189D01*
X945Y1189D02*
X952Y1189D01*
X0Y1188D02*
X7Y1188D01*
X129Y1188D02*
X136Y1188D01*
X820Y1188D02*
X827Y1188D01*
X945Y1188D02*
X952Y1188D01*
X0Y1187D02*
X7Y1187D01*
X129Y1187D02*
X136Y1187D01*
X820Y1187D02*
X827Y1187D01*
X945Y1187D02*
X952Y1187D01*
X0Y1186D02*
X7Y1186D01*
X129Y1186D02*
X136Y1186D01*
X820Y1186D02*
X827Y1186D01*
X945Y1186D02*
X952Y1186D01*
X0Y1185D02*
X7Y1185D01*
X129Y1185D02*
X136Y1185D01*
X820Y1185D02*
X827Y1185D01*
X945Y1185D02*
X952Y1185D01*
X0Y1184D02*
X7Y1184D01*
X129Y1184D02*
X136Y1184D01*
X820Y1184D02*
X827Y1184D01*
X945Y1184D02*
X952Y1184D01*
X0Y1183D02*
X7Y1183D01*
X129Y1183D02*
X136Y1183D01*
X820Y1183D02*
X827Y1183D01*
X945Y1183D02*
X952Y1183D01*
X0Y1182D02*
X7Y1182D01*
X129Y1182D02*
X136Y1182D01*
X820Y1182D02*
X827Y1182D01*
X945Y1182D02*
X952Y1182D01*
X0Y1181D02*
X7Y1181D01*
X129Y1181D02*
X136Y1181D01*
X820Y1181D02*
X827Y1181D01*
X945Y1181D02*
X952Y1181D01*
X0Y1180D02*
X7Y1180D01*
X129Y1180D02*
X136Y1180D01*
X820Y1180D02*
X827Y1180D01*
X945Y1180D02*
X952Y1180D01*
X0Y1179D02*
X7Y1179D01*
X129Y1179D02*
X136Y1179D01*
X820Y1179D02*
X827Y1179D01*
X945Y1179D02*
X952Y1179D01*
X0Y1178D02*
X7Y1178D01*
X129Y1178D02*
X136Y1178D01*
X820Y1178D02*
X827Y1178D01*
X945Y1178D02*
X952Y1178D01*
X0Y1177D02*
X7Y1177D01*
X129Y1177D02*
X136Y1177D01*
X820Y1177D02*
X827Y1177D01*
X945Y1177D02*
X952Y1177D01*
X0Y1176D02*
X7Y1176D01*
X129Y1176D02*
X136Y1176D01*
X820Y1176D02*
X827Y1176D01*
X945Y1176D02*
X952Y1176D01*
X0Y1175D02*
X7Y1175D01*
X129Y1175D02*
X136Y1175D01*
X820Y1175D02*
X827Y1175D01*
X945Y1175D02*
X952Y1175D01*
X0Y1174D02*
X7Y1174D01*
X129Y1174D02*
X136Y1174D01*
X820Y1174D02*
X827Y1174D01*
X945Y1174D02*
X952Y1174D01*
X0Y1173D02*
X7Y1173D01*
X129Y1173D02*
X136Y1173D01*
X820Y1173D02*
X827Y1173D01*
X945Y1173D02*
X952Y1173D01*
X0Y1172D02*
X7Y1172D01*
X129Y1172D02*
X136Y1172D01*
X820Y1172D02*
X827Y1172D01*
X945Y1172D02*
X952Y1172D01*
X0Y1171D02*
X7Y1171D01*
X129Y1171D02*
X136Y1171D01*
X820Y1171D02*
X827Y1171D01*
X945Y1171D02*
X952Y1171D01*
X0Y1170D02*
X7Y1170D01*
X129Y1170D02*
X136Y1170D01*
X820Y1170D02*
X827Y1170D01*
X945Y1170D02*
X952Y1170D01*
X0Y1169D02*
X7Y1169D01*
X129Y1169D02*
X136Y1169D01*
X820Y1169D02*
X827Y1169D01*
X945Y1169D02*
X952Y1169D01*
X0Y1168D02*
X7Y1168D01*
X129Y1168D02*
X136Y1168D01*
X820Y1168D02*
X827Y1168D01*
X945Y1168D02*
X952Y1168D01*
X0Y1167D02*
X7Y1167D01*
X129Y1167D02*
X136Y1167D01*
X820Y1167D02*
X827Y1167D01*
X945Y1167D02*
X952Y1167D01*
X0Y1166D02*
X7Y1166D01*
X129Y1166D02*
X136Y1166D01*
X820Y1166D02*
X827Y1166D01*
X945Y1166D02*
X952Y1166D01*
X0Y1165D02*
X7Y1165D01*
X129Y1165D02*
X136Y1165D01*
X820Y1165D02*
X827Y1165D01*
X945Y1165D02*
X952Y1165D01*
X0Y1164D02*
X7Y1164D01*
X129Y1164D02*
X136Y1164D01*
X820Y1164D02*
X827Y1164D01*
X945Y1164D02*
X952Y1164D01*
X0Y1163D02*
X7Y1163D01*
X129Y1163D02*
X136Y1163D01*
X820Y1163D02*
X827Y1163D01*
X945Y1163D02*
X952Y1163D01*
X0Y1162D02*
X7Y1162D01*
X129Y1162D02*
X136Y1162D01*
X820Y1162D02*
X827Y1162D01*
X945Y1162D02*
X952Y1162D01*
X0Y1161D02*
X7Y1161D01*
X129Y1161D02*
X136Y1161D01*
X820Y1161D02*
X827Y1161D01*
X945Y1161D02*
X952Y1161D01*
X0Y1160D02*
X7Y1160D01*
X129Y1160D02*
X136Y1160D01*
X820Y1160D02*
X827Y1160D01*
X945Y1160D02*
X952Y1160D01*
X0Y1159D02*
X7Y1159D01*
X129Y1159D02*
X136Y1159D01*
X820Y1159D02*
X827Y1159D01*
X945Y1159D02*
X952Y1159D01*
X0Y1158D02*
X7Y1158D01*
X129Y1158D02*
X136Y1158D01*
X820Y1158D02*
X827Y1158D01*
X945Y1158D02*
X952Y1158D01*
X0Y1157D02*
X7Y1157D01*
X129Y1157D02*
X136Y1157D01*
X820Y1157D02*
X827Y1157D01*
X945Y1157D02*
X952Y1157D01*
X0Y1156D02*
X7Y1156D01*
X129Y1156D02*
X136Y1156D01*
X820Y1156D02*
X827Y1156D01*
X945Y1156D02*
X952Y1156D01*
X0Y1155D02*
X7Y1155D01*
X129Y1155D02*
X136Y1155D01*
X820Y1155D02*
X827Y1155D01*
X945Y1155D02*
X952Y1155D01*
X0Y1154D02*
X7Y1154D01*
X129Y1154D02*
X136Y1154D01*
X820Y1154D02*
X827Y1154D01*
X945Y1154D02*
X952Y1154D01*
X0Y1153D02*
X7Y1153D01*
X129Y1153D02*
X136Y1153D01*
X820Y1153D02*
X827Y1153D01*
X945Y1153D02*
X952Y1153D01*
X0Y1152D02*
X7Y1152D01*
X129Y1152D02*
X136Y1152D01*
X820Y1152D02*
X827Y1152D01*
X945Y1152D02*
X952Y1152D01*
X0Y1151D02*
X7Y1151D01*
X129Y1151D02*
X136Y1151D01*
X820Y1151D02*
X827Y1151D01*
X945Y1151D02*
X952Y1151D01*
X0Y1150D02*
X7Y1150D01*
X129Y1150D02*
X136Y1150D01*
X820Y1150D02*
X827Y1150D01*
X945Y1150D02*
X952Y1150D01*
X0Y1149D02*
X7Y1149D01*
X129Y1149D02*
X136Y1149D01*
X820Y1149D02*
X827Y1149D01*
X945Y1149D02*
X952Y1149D01*
X0Y1148D02*
X7Y1148D01*
X129Y1148D02*
X136Y1148D01*
X820Y1148D02*
X827Y1148D01*
X945Y1148D02*
X952Y1148D01*
X0Y1147D02*
X7Y1147D01*
X129Y1147D02*
X136Y1147D01*
X820Y1147D02*
X827Y1147D01*
X945Y1147D02*
X952Y1147D01*
X0Y1146D02*
X7Y1146D01*
X129Y1146D02*
X136Y1146D01*
X820Y1146D02*
X827Y1146D01*
X945Y1146D02*
X952Y1146D01*
X0Y1145D02*
X7Y1145D01*
X129Y1145D02*
X136Y1145D01*
X820Y1145D02*
X827Y1145D01*
X945Y1145D02*
X952Y1145D01*
X0Y1144D02*
X7Y1144D01*
X129Y1144D02*
X136Y1144D01*
X820Y1144D02*
X827Y1144D01*
X945Y1144D02*
X952Y1144D01*
X0Y1143D02*
X7Y1143D01*
X129Y1143D02*
X136Y1143D01*
X820Y1143D02*
X827Y1143D01*
X945Y1143D02*
X952Y1143D01*
X0Y1142D02*
X7Y1142D01*
X129Y1142D02*
X136Y1142D01*
X820Y1142D02*
X827Y1142D01*
X945Y1142D02*
X952Y1142D01*
X0Y1141D02*
X7Y1141D01*
X129Y1141D02*
X136Y1141D01*
X820Y1141D02*
X827Y1141D01*
X945Y1141D02*
X952Y1141D01*
X0Y1140D02*
X7Y1140D01*
X129Y1140D02*
X136Y1140D01*
X820Y1140D02*
X827Y1140D01*
X945Y1140D02*
X952Y1140D01*
X0Y1139D02*
X7Y1139D01*
X129Y1139D02*
X136Y1139D01*
X820Y1139D02*
X827Y1139D01*
X945Y1139D02*
X952Y1139D01*
X0Y1138D02*
X7Y1138D01*
X129Y1138D02*
X136Y1138D01*
X820Y1138D02*
X827Y1138D01*
X945Y1138D02*
X952Y1138D01*
X0Y1137D02*
X7Y1137D01*
X129Y1137D02*
X136Y1137D01*
X820Y1137D02*
X827Y1137D01*
X945Y1137D02*
X952Y1137D01*
X0Y1136D02*
X7Y1136D01*
X129Y1136D02*
X136Y1136D01*
X820Y1136D02*
X827Y1136D01*
X945Y1136D02*
X952Y1136D01*
X0Y1135D02*
X7Y1135D01*
X129Y1135D02*
X136Y1135D01*
X820Y1135D02*
X827Y1135D01*
X945Y1135D02*
X952Y1135D01*
X0Y1134D02*
X7Y1134D01*
X129Y1134D02*
X136Y1134D01*
X820Y1134D02*
X827Y1134D01*
X945Y1134D02*
X952Y1134D01*
X0Y1133D02*
X7Y1133D01*
X129Y1133D02*
X136Y1133D01*
X820Y1133D02*
X827Y1133D01*
X945Y1133D02*
X952Y1133D01*
X0Y1132D02*
X7Y1132D01*
X129Y1132D02*
X136Y1132D01*
X820Y1132D02*
X827Y1132D01*
X945Y1132D02*
X952Y1132D01*
X0Y1131D02*
X7Y1131D01*
X129Y1131D02*
X136Y1131D01*
X820Y1131D02*
X827Y1131D01*
X945Y1131D02*
X952Y1131D01*
X0Y1130D02*
X7Y1130D01*
X129Y1130D02*
X136Y1130D01*
X820Y1130D02*
X827Y1130D01*
X945Y1130D02*
X952Y1130D01*
X0Y1129D02*
X7Y1129D01*
X129Y1129D02*
X136Y1129D01*
X820Y1129D02*
X827Y1129D01*
X945Y1129D02*
X952Y1129D01*
X0Y1128D02*
X7Y1128D01*
X129Y1128D02*
X136Y1128D01*
X820Y1128D02*
X827Y1128D01*
X945Y1128D02*
X952Y1128D01*
X0Y1127D02*
X7Y1127D01*
X129Y1127D02*
X136Y1127D01*
X820Y1127D02*
X827Y1127D01*
X945Y1127D02*
X952Y1127D01*
X0Y1126D02*
X7Y1126D01*
X129Y1126D02*
X136Y1126D01*
X820Y1126D02*
X827Y1126D01*
X945Y1126D02*
X952Y1126D01*
X0Y1125D02*
X7Y1125D01*
X129Y1125D02*
X136Y1125D01*
X820Y1125D02*
X827Y1125D01*
X945Y1125D02*
X952Y1125D01*
X0Y1124D02*
X7Y1124D01*
X129Y1124D02*
X136Y1124D01*
X820Y1124D02*
X827Y1124D01*
X945Y1124D02*
X952Y1124D01*
X0Y1123D02*
X7Y1123D01*
X129Y1123D02*
X136Y1123D01*
X820Y1123D02*
X827Y1123D01*
X945Y1123D02*
X952Y1123D01*
X0Y1122D02*
X7Y1122D01*
X129Y1122D02*
X136Y1122D01*
X820Y1122D02*
X827Y1122D01*
X945Y1122D02*
X952Y1122D01*
X0Y1121D02*
X7Y1121D01*
X129Y1121D02*
X136Y1121D01*
X820Y1121D02*
X827Y1121D01*
X945Y1121D02*
X952Y1121D01*
X0Y1120D02*
X7Y1120D01*
X129Y1120D02*
X136Y1120D01*
X820Y1120D02*
X827Y1120D01*
X945Y1120D02*
X952Y1120D01*
X0Y1119D02*
X7Y1119D01*
X129Y1119D02*
X136Y1119D01*
X820Y1119D02*
X827Y1119D01*
X945Y1119D02*
X952Y1119D01*
X0Y1118D02*
X7Y1118D01*
X129Y1118D02*
X136Y1118D01*
X820Y1118D02*
X827Y1118D01*
X945Y1118D02*
X952Y1118D01*
X0Y1117D02*
X7Y1117D01*
X129Y1117D02*
X136Y1117D01*
X820Y1117D02*
X827Y1117D01*
X945Y1117D02*
X952Y1117D01*
X0Y1116D02*
X7Y1116D01*
X129Y1116D02*
X136Y1116D01*
X820Y1116D02*
X827Y1116D01*
X945Y1116D02*
X952Y1116D01*
X0Y1115D02*
X7Y1115D01*
X129Y1115D02*
X136Y1115D01*
X820Y1115D02*
X827Y1115D01*
X945Y1115D02*
X952Y1115D01*
X0Y1114D02*
X7Y1114D01*
X129Y1114D02*
X136Y1114D01*
X820Y1114D02*
X827Y1114D01*
X945Y1114D02*
X952Y1114D01*
X0Y1113D02*
X7Y1113D01*
X129Y1113D02*
X136Y1113D01*
X820Y1113D02*
X827Y1113D01*
X945Y1113D02*
X952Y1113D01*
X0Y1112D02*
X7Y1112D01*
X129Y1112D02*
X136Y1112D01*
X820Y1112D02*
X827Y1112D01*
X945Y1112D02*
X952Y1112D01*
X0Y1111D02*
X7Y1111D01*
X129Y1111D02*
X136Y1111D01*
X820Y1111D02*
X827Y1111D01*
X945Y1111D02*
X952Y1111D01*
X0Y1110D02*
X7Y1110D01*
X129Y1110D02*
X136Y1110D01*
X820Y1110D02*
X827Y1110D01*
X945Y1110D02*
X952Y1110D01*
X0Y1109D02*
X7Y1109D01*
X129Y1109D02*
X136Y1109D01*
X820Y1109D02*
X827Y1109D01*
X945Y1109D02*
X952Y1109D01*
X0Y1108D02*
X7Y1108D01*
X129Y1108D02*
X136Y1108D01*
X820Y1108D02*
X827Y1108D01*
X945Y1108D02*
X952Y1108D01*
X0Y1107D02*
X7Y1107D01*
X129Y1107D02*
X136Y1107D01*
X820Y1107D02*
X827Y1107D01*
X945Y1107D02*
X952Y1107D01*
X0Y1106D02*
X7Y1106D01*
X129Y1106D02*
X136Y1106D01*
X820Y1106D02*
X827Y1106D01*
X945Y1106D02*
X952Y1106D01*
X0Y1105D02*
X7Y1105D01*
X129Y1105D02*
X136Y1105D01*
X820Y1105D02*
X827Y1105D01*
X945Y1105D02*
X952Y1105D01*
X0Y1104D02*
X7Y1104D01*
X129Y1104D02*
X136Y1104D01*
X820Y1104D02*
X827Y1104D01*
X945Y1104D02*
X952Y1104D01*
X0Y1103D02*
X7Y1103D01*
X129Y1103D02*
X136Y1103D01*
X820Y1103D02*
X827Y1103D01*
X945Y1103D02*
X952Y1103D01*
X0Y1102D02*
X7Y1102D01*
X129Y1102D02*
X136Y1102D01*
X820Y1102D02*
X827Y1102D01*
X945Y1102D02*
X952Y1102D01*
X0Y1101D02*
X7Y1101D01*
X129Y1101D02*
X136Y1101D01*
X820Y1101D02*
X827Y1101D01*
X945Y1101D02*
X952Y1101D01*
X0Y1100D02*
X7Y1100D01*
X129Y1100D02*
X136Y1100D01*
X820Y1100D02*
X827Y1100D01*
X945Y1100D02*
X952Y1100D01*
X0Y1099D02*
X7Y1099D01*
X129Y1099D02*
X136Y1099D01*
X820Y1099D02*
X827Y1099D01*
X945Y1099D02*
X952Y1099D01*
X0Y1098D02*
X7Y1098D01*
X129Y1098D02*
X136Y1098D01*
X820Y1098D02*
X827Y1098D01*
X945Y1098D02*
X952Y1098D01*
X0Y1097D02*
X7Y1097D01*
X129Y1097D02*
X136Y1097D01*
X820Y1097D02*
X827Y1097D01*
X945Y1097D02*
X952Y1097D01*
X0Y1096D02*
X7Y1096D01*
X129Y1096D02*
X136Y1096D01*
X820Y1096D02*
X827Y1096D01*
X945Y1096D02*
X952Y1096D01*
X0Y1095D02*
X7Y1095D01*
X129Y1095D02*
X136Y1095D01*
X820Y1095D02*
X827Y1095D01*
X945Y1095D02*
X952Y1095D01*
X0Y1094D02*
X7Y1094D01*
X129Y1094D02*
X136Y1094D01*
X820Y1094D02*
X827Y1094D01*
X945Y1094D02*
X952Y1094D01*
X0Y1093D02*
X7Y1093D01*
X129Y1093D02*
X136Y1093D01*
X820Y1093D02*
X827Y1093D01*
X945Y1093D02*
X952Y1093D01*
X0Y1092D02*
X7Y1092D01*
X129Y1092D02*
X136Y1092D01*
X820Y1092D02*
X827Y1092D01*
X945Y1092D02*
X952Y1092D01*
X0Y1091D02*
X7Y1091D01*
X129Y1091D02*
X136Y1091D01*
X820Y1091D02*
X827Y1091D01*
X945Y1091D02*
X952Y1091D01*
X0Y1090D02*
X7Y1090D01*
X129Y1090D02*
X136Y1090D01*
X820Y1090D02*
X827Y1090D01*
X945Y1090D02*
X952Y1090D01*
X0Y1089D02*
X7Y1089D01*
X129Y1089D02*
X136Y1089D01*
X820Y1089D02*
X827Y1089D01*
X945Y1089D02*
X952Y1089D01*
X0Y1088D02*
X7Y1088D01*
X129Y1088D02*
X136Y1088D01*
X820Y1088D02*
X827Y1088D01*
X945Y1088D02*
X952Y1088D01*
X0Y1087D02*
X7Y1087D01*
X129Y1087D02*
X136Y1087D01*
X820Y1087D02*
X827Y1087D01*
X945Y1087D02*
X952Y1087D01*
X0Y1086D02*
X7Y1086D01*
X129Y1086D02*
X136Y1086D01*
X820Y1086D02*
X827Y1086D01*
X945Y1086D02*
X952Y1086D01*
X0Y1085D02*
X7Y1085D01*
X129Y1085D02*
X136Y1085D01*
X820Y1085D02*
X827Y1085D01*
X945Y1085D02*
X952Y1085D01*
X0Y1084D02*
X7Y1084D01*
X129Y1084D02*
X136Y1084D01*
X820Y1084D02*
X827Y1084D01*
X945Y1084D02*
X952Y1084D01*
X0Y1083D02*
X7Y1083D01*
X129Y1083D02*
X136Y1083D01*
X820Y1083D02*
X827Y1083D01*
X945Y1083D02*
X952Y1083D01*
X0Y1082D02*
X7Y1082D01*
X129Y1082D02*
X136Y1082D01*
X820Y1082D02*
X827Y1082D01*
X945Y1082D02*
X952Y1082D01*
X0Y1081D02*
X7Y1081D01*
X129Y1081D02*
X136Y1081D01*
X820Y1081D02*
X827Y1081D01*
X945Y1081D02*
X952Y1081D01*
X0Y1080D02*
X7Y1080D01*
X129Y1080D02*
X136Y1080D01*
X820Y1080D02*
X827Y1080D01*
X945Y1080D02*
X952Y1080D01*
X0Y1079D02*
X7Y1079D01*
X129Y1079D02*
X136Y1079D01*
X820Y1079D02*
X827Y1079D01*
X945Y1079D02*
X952Y1079D01*
X0Y1078D02*
X7Y1078D01*
X129Y1078D02*
X136Y1078D01*
X820Y1078D02*
X827Y1078D01*
X945Y1078D02*
X952Y1078D01*
X0Y1077D02*
X7Y1077D01*
X129Y1077D02*
X136Y1077D01*
X820Y1077D02*
X827Y1077D01*
X945Y1077D02*
X952Y1077D01*
X0Y1076D02*
X7Y1076D01*
X129Y1076D02*
X136Y1076D01*
X820Y1076D02*
X827Y1076D01*
X945Y1076D02*
X952Y1076D01*
X0Y1075D02*
X7Y1075D01*
X129Y1075D02*
X136Y1075D01*
X820Y1075D02*
X827Y1075D01*
X945Y1075D02*
X952Y1075D01*
X0Y1074D02*
X7Y1074D01*
X129Y1074D02*
X136Y1074D01*
X820Y1074D02*
X827Y1074D01*
X945Y1074D02*
X952Y1074D01*
X0Y1073D02*
X7Y1073D01*
X129Y1073D02*
X136Y1073D01*
X820Y1073D02*
X827Y1073D01*
X945Y1073D02*
X952Y1073D01*
X0Y1072D02*
X7Y1072D01*
X129Y1072D02*
X136Y1072D01*
X820Y1072D02*
X827Y1072D01*
X945Y1072D02*
X952Y1072D01*
X0Y1071D02*
X7Y1071D01*
X129Y1071D02*
X136Y1071D01*
X820Y1071D02*
X827Y1071D01*
X945Y1071D02*
X952Y1071D01*
X0Y1070D02*
X7Y1070D01*
X129Y1070D02*
X136Y1070D01*
X820Y1070D02*
X827Y1070D01*
X945Y1070D02*
X952Y1070D01*
X0Y1069D02*
X7Y1069D01*
X129Y1069D02*
X136Y1069D01*
X820Y1069D02*
X827Y1069D01*
X945Y1069D02*
X952Y1069D01*
X0Y1068D02*
X7Y1068D01*
X129Y1068D02*
X136Y1068D01*
X820Y1068D02*
X827Y1068D01*
X945Y1068D02*
X952Y1068D01*
X0Y1067D02*
X7Y1067D01*
X129Y1067D02*
X136Y1067D01*
X820Y1067D02*
X827Y1067D01*
X945Y1067D02*
X952Y1067D01*
X0Y1066D02*
X7Y1066D01*
X129Y1066D02*
X136Y1066D01*
X820Y1066D02*
X827Y1066D01*
X945Y1066D02*
X952Y1066D01*
X0Y1065D02*
X7Y1065D01*
X129Y1065D02*
X136Y1065D01*
X820Y1065D02*
X827Y1065D01*
X945Y1065D02*
X952Y1065D01*
X0Y1064D02*
X7Y1064D01*
X129Y1064D02*
X136Y1064D01*
X820Y1064D02*
X827Y1064D01*
X945Y1064D02*
X952Y1064D01*
X0Y1063D02*
X7Y1063D01*
X129Y1063D02*
X136Y1063D01*
X820Y1063D02*
X827Y1063D01*
X945Y1063D02*
X952Y1063D01*
X0Y1062D02*
X7Y1062D01*
X129Y1062D02*
X136Y1062D01*
X820Y1062D02*
X827Y1062D01*
X945Y1062D02*
X952Y1062D01*
X0Y1061D02*
X7Y1061D01*
X129Y1061D02*
X136Y1061D01*
X820Y1061D02*
X827Y1061D01*
X945Y1061D02*
X952Y1061D01*
X0Y1060D02*
X7Y1060D01*
X129Y1060D02*
X136Y1060D01*
X820Y1060D02*
X827Y1060D01*
X945Y1060D02*
X952Y1060D01*
X0Y1059D02*
X7Y1059D01*
X129Y1059D02*
X136Y1059D01*
X820Y1059D02*
X827Y1059D01*
X945Y1059D02*
X952Y1059D01*
X0Y1058D02*
X7Y1058D01*
X129Y1058D02*
X136Y1058D01*
X820Y1058D02*
X827Y1058D01*
X945Y1058D02*
X952Y1058D01*
X0Y1057D02*
X7Y1057D01*
X129Y1057D02*
X136Y1057D01*
X820Y1057D02*
X827Y1057D01*
X945Y1057D02*
X952Y1057D01*
X0Y1056D02*
X7Y1056D01*
X129Y1056D02*
X136Y1056D01*
X820Y1056D02*
X827Y1056D01*
X945Y1056D02*
X952Y1056D01*
X0Y1055D02*
X7Y1055D01*
X129Y1055D02*
X136Y1055D01*
X820Y1055D02*
X827Y1055D01*
X945Y1055D02*
X952Y1055D01*
X0Y1054D02*
X7Y1054D01*
X129Y1054D02*
X136Y1054D01*
X820Y1054D02*
X827Y1054D01*
X945Y1054D02*
X952Y1054D01*
X0Y1053D02*
X7Y1053D01*
X129Y1053D02*
X136Y1053D01*
X820Y1053D02*
X827Y1053D01*
X945Y1053D02*
X952Y1053D01*
X0Y1052D02*
X7Y1052D01*
X129Y1052D02*
X136Y1052D01*
X820Y1052D02*
X827Y1052D01*
X945Y1052D02*
X952Y1052D01*
X0Y1051D02*
X7Y1051D01*
X129Y1051D02*
X136Y1051D01*
X820Y1051D02*
X827Y1051D01*
X945Y1051D02*
X952Y1051D01*
X0Y1050D02*
X7Y1050D01*
X129Y1050D02*
X136Y1050D01*
X820Y1050D02*
X827Y1050D01*
X945Y1050D02*
X952Y1050D01*
X0Y1049D02*
X7Y1049D01*
X129Y1049D02*
X136Y1049D01*
X820Y1049D02*
X827Y1049D01*
X945Y1049D02*
X952Y1049D01*
X0Y1048D02*
X7Y1048D01*
X129Y1048D02*
X136Y1048D01*
X820Y1048D02*
X827Y1048D01*
X945Y1048D02*
X952Y1048D01*
X0Y1047D02*
X7Y1047D01*
X129Y1047D02*
X136Y1047D01*
X820Y1047D02*
X827Y1047D01*
X945Y1047D02*
X952Y1047D01*
X0Y1046D02*
X7Y1046D01*
X129Y1046D02*
X136Y1046D01*
X820Y1046D02*
X827Y1046D01*
X945Y1046D02*
X952Y1046D01*
X0Y1045D02*
X7Y1045D01*
X129Y1045D02*
X136Y1045D01*
X820Y1045D02*
X827Y1045D01*
X945Y1045D02*
X952Y1045D01*
X0Y1044D02*
X7Y1044D01*
X129Y1044D02*
X136Y1044D01*
X820Y1044D02*
X827Y1044D01*
X945Y1044D02*
X952Y1044D01*
X0Y1043D02*
X7Y1043D01*
X129Y1043D02*
X136Y1043D01*
X820Y1043D02*
X827Y1043D01*
X945Y1043D02*
X952Y1043D01*
X0Y1042D02*
X7Y1042D01*
X129Y1042D02*
X136Y1042D01*
X820Y1042D02*
X827Y1042D01*
X945Y1042D02*
X952Y1042D01*
X0Y1041D02*
X7Y1041D01*
X129Y1041D02*
X136Y1041D01*
X820Y1041D02*
X827Y1041D01*
X945Y1041D02*
X952Y1041D01*
X0Y1040D02*
X7Y1040D01*
X129Y1040D02*
X136Y1040D01*
X820Y1040D02*
X827Y1040D01*
X945Y1040D02*
X952Y1040D01*
X0Y1039D02*
X7Y1039D01*
X129Y1039D02*
X136Y1039D01*
X820Y1039D02*
X827Y1039D01*
X945Y1039D02*
X952Y1039D01*
X0Y1038D02*
X7Y1038D01*
X129Y1038D02*
X136Y1038D01*
X820Y1038D02*
X827Y1038D01*
X945Y1038D02*
X952Y1038D01*
X0Y1037D02*
X7Y1037D01*
X129Y1037D02*
X136Y1037D01*
X820Y1037D02*
X827Y1037D01*
X945Y1037D02*
X952Y1037D01*
X0Y1036D02*
X7Y1036D01*
X129Y1036D02*
X136Y1036D01*
X820Y1036D02*
X827Y1036D01*
X945Y1036D02*
X952Y1036D01*
X0Y1035D02*
X7Y1035D01*
X129Y1035D02*
X136Y1035D01*
X820Y1035D02*
X827Y1035D01*
X945Y1035D02*
X952Y1035D01*
X0Y1034D02*
X7Y1034D01*
X129Y1034D02*
X136Y1034D01*
X820Y1034D02*
X827Y1034D01*
X945Y1034D02*
X952Y1034D01*
X0Y1033D02*
X7Y1033D01*
X129Y1033D02*
X136Y1033D01*
X820Y1033D02*
X827Y1033D01*
X945Y1033D02*
X952Y1033D01*
X0Y1032D02*
X7Y1032D01*
X129Y1032D02*
X136Y1032D01*
X820Y1032D02*
X827Y1032D01*
X945Y1032D02*
X952Y1032D01*
X0Y1031D02*
X7Y1031D01*
X129Y1031D02*
X136Y1031D01*
X820Y1031D02*
X827Y1031D01*
X945Y1031D02*
X952Y1031D01*
X0Y1030D02*
X7Y1030D01*
X129Y1030D02*
X136Y1030D01*
X820Y1030D02*
X827Y1030D01*
X945Y1030D02*
X952Y1030D01*
X0Y1029D02*
X7Y1029D01*
X129Y1029D02*
X136Y1029D01*
X820Y1029D02*
X827Y1029D01*
X945Y1029D02*
X952Y1029D01*
X0Y1028D02*
X7Y1028D01*
X129Y1028D02*
X136Y1028D01*
X820Y1028D02*
X827Y1028D01*
X945Y1028D02*
X952Y1028D01*
X0Y1027D02*
X7Y1027D01*
X129Y1027D02*
X136Y1027D01*
X820Y1027D02*
X827Y1027D01*
X945Y1027D02*
X952Y1027D01*
X0Y1026D02*
X7Y1026D01*
X129Y1026D02*
X136Y1026D01*
X820Y1026D02*
X827Y1026D01*
X945Y1026D02*
X952Y1026D01*
X0Y1025D02*
X7Y1025D01*
X129Y1025D02*
X136Y1025D01*
X820Y1025D02*
X827Y1025D01*
X945Y1025D02*
X952Y1025D01*
X0Y1024D02*
X7Y1024D01*
X129Y1024D02*
X136Y1024D01*
X820Y1024D02*
X827Y1024D01*
X945Y1024D02*
X952Y1024D01*
X0Y1023D02*
X7Y1023D01*
X129Y1023D02*
X136Y1023D01*
X820Y1023D02*
X827Y1023D01*
X945Y1023D02*
X952Y1023D01*
X0Y1022D02*
X7Y1022D01*
X129Y1022D02*
X136Y1022D01*
X820Y1022D02*
X827Y1022D01*
X945Y1022D02*
X952Y1022D01*
X0Y1021D02*
X7Y1021D01*
X129Y1021D02*
X136Y1021D01*
X820Y1021D02*
X827Y1021D01*
X945Y1021D02*
X952Y1021D01*
X0Y1020D02*
X7Y1020D01*
X129Y1020D02*
X136Y1020D01*
X820Y1020D02*
X827Y1020D01*
X945Y1020D02*
X952Y1020D01*
X0Y1019D02*
X7Y1019D01*
X129Y1019D02*
X136Y1019D01*
X820Y1019D02*
X827Y1019D01*
X945Y1019D02*
X952Y1019D01*
X0Y1018D02*
X7Y1018D01*
X129Y1018D02*
X136Y1018D01*
X820Y1018D02*
X827Y1018D01*
X945Y1018D02*
X952Y1018D01*
X0Y1017D02*
X7Y1017D01*
X129Y1017D02*
X136Y1017D01*
X820Y1017D02*
X827Y1017D01*
X945Y1017D02*
X952Y1017D01*
X0Y1016D02*
X7Y1016D01*
X129Y1016D02*
X136Y1016D01*
X820Y1016D02*
X827Y1016D01*
X945Y1016D02*
X952Y1016D01*
X0Y1015D02*
X7Y1015D01*
X129Y1015D02*
X136Y1015D01*
X820Y1015D02*
X827Y1015D01*
X945Y1015D02*
X952Y1015D01*
X0Y1014D02*
X7Y1014D01*
X129Y1014D02*
X136Y1014D01*
X820Y1014D02*
X827Y1014D01*
X945Y1014D02*
X952Y1014D01*
X0Y1013D02*
X7Y1013D01*
X129Y1013D02*
X136Y1013D01*
X820Y1013D02*
X827Y1013D01*
X945Y1013D02*
X952Y1013D01*
X0Y1012D02*
X7Y1012D01*
X129Y1012D02*
X136Y1012D01*
X820Y1012D02*
X827Y1012D01*
X945Y1012D02*
X952Y1012D01*
X0Y1011D02*
X7Y1011D01*
X129Y1011D02*
X136Y1011D01*
X820Y1011D02*
X827Y1011D01*
X945Y1011D02*
X952Y1011D01*
X0Y1010D02*
X7Y1010D01*
X129Y1010D02*
X136Y1010D01*
X820Y1010D02*
X827Y1010D01*
X945Y1010D02*
X952Y1010D01*
X0Y1009D02*
X7Y1009D01*
X129Y1009D02*
X136Y1009D01*
X820Y1009D02*
X827Y1009D01*
X945Y1009D02*
X952Y1009D01*
X0Y1008D02*
X7Y1008D01*
X129Y1008D02*
X136Y1008D01*
X820Y1008D02*
X827Y1008D01*
X945Y1008D02*
X952Y1008D01*
X0Y1007D02*
X7Y1007D01*
X129Y1007D02*
X136Y1007D01*
X820Y1007D02*
X827Y1007D01*
X945Y1007D02*
X952Y1007D01*
X0Y1006D02*
X7Y1006D01*
X129Y1006D02*
X136Y1006D01*
X820Y1006D02*
X827Y1006D01*
X945Y1006D02*
X952Y1006D01*
X0Y1005D02*
X7Y1005D01*
X129Y1005D02*
X136Y1005D01*
X820Y1005D02*
X827Y1005D01*
X945Y1005D02*
X952Y1005D01*
X0Y1004D02*
X7Y1004D01*
X129Y1004D02*
X136Y1004D01*
X820Y1004D02*
X827Y1004D01*
X945Y1004D02*
X952Y1004D01*
X0Y1003D02*
X7Y1003D01*
X129Y1003D02*
X136Y1003D01*
X820Y1003D02*
X827Y1003D01*
X945Y1003D02*
X952Y1003D01*
X0Y1002D02*
X7Y1002D01*
X129Y1002D02*
X136Y1002D01*
X820Y1002D02*
X827Y1002D01*
X945Y1002D02*
X952Y1002D01*
X0Y1001D02*
X7Y1001D01*
X129Y1001D02*
X136Y1001D01*
X820Y1001D02*
X827Y1001D01*
X945Y1001D02*
X952Y1001D01*
X0Y1000D02*
X7Y1000D01*
X129Y1000D02*
X136Y1000D01*
X820Y1000D02*
X827Y1000D01*
X945Y1000D02*
X952Y1000D01*
X0Y999D02*
X7Y999D01*
X129Y999D02*
X136Y999D01*
X820Y999D02*
X827Y999D01*
X945Y999D02*
X952Y999D01*
X0Y998D02*
X7Y998D01*
X129Y998D02*
X136Y998D01*
X820Y998D02*
X827Y998D01*
X945Y998D02*
X952Y998D01*
X0Y997D02*
X7Y997D01*
X129Y997D02*
X136Y997D01*
X820Y997D02*
X827Y997D01*
X945Y997D02*
X952Y997D01*
X0Y996D02*
X7Y996D01*
X129Y996D02*
X136Y996D01*
X820Y996D02*
X827Y996D01*
X945Y996D02*
X952Y996D01*
X0Y995D02*
X7Y995D01*
X129Y995D02*
X136Y995D01*
X820Y995D02*
X827Y995D01*
X945Y995D02*
X952Y995D01*
X0Y994D02*
X7Y994D01*
X129Y994D02*
X136Y994D01*
X820Y994D02*
X827Y994D01*
X945Y994D02*
X952Y994D01*
X0Y993D02*
X7Y993D01*
X129Y993D02*
X136Y993D01*
X820Y993D02*
X827Y993D01*
X945Y993D02*
X952Y993D01*
X0Y992D02*
X7Y992D01*
X129Y992D02*
X136Y992D01*
X820Y992D02*
X827Y992D01*
X945Y992D02*
X952Y992D01*
X0Y991D02*
X7Y991D01*
X129Y991D02*
X136Y991D01*
X820Y991D02*
X827Y991D01*
X945Y991D02*
X952Y991D01*
X0Y990D02*
X7Y990D01*
X129Y990D02*
X136Y990D01*
X820Y990D02*
X827Y990D01*
X945Y990D02*
X952Y990D01*
X0Y989D02*
X7Y989D01*
X129Y989D02*
X136Y989D01*
X820Y989D02*
X827Y989D01*
X945Y989D02*
X952Y989D01*
X0Y988D02*
X7Y988D01*
X129Y988D02*
X136Y988D01*
X820Y988D02*
X827Y988D01*
X945Y988D02*
X952Y988D01*
X0Y987D02*
X7Y987D01*
X129Y987D02*
X136Y987D01*
X820Y987D02*
X827Y987D01*
X945Y987D02*
X952Y987D01*
X0Y986D02*
X7Y986D01*
X129Y986D02*
X136Y986D01*
X820Y986D02*
X827Y986D01*
X945Y986D02*
X952Y986D01*
X0Y985D02*
X7Y985D01*
X129Y985D02*
X136Y985D01*
X820Y985D02*
X827Y985D01*
X945Y985D02*
X952Y985D01*
X0Y984D02*
X7Y984D01*
X129Y984D02*
X136Y984D01*
X820Y984D02*
X827Y984D01*
X945Y984D02*
X952Y984D01*
X0Y983D02*
X7Y983D01*
X129Y983D02*
X136Y983D01*
X820Y983D02*
X827Y983D01*
X945Y983D02*
X952Y983D01*
X0Y982D02*
X7Y982D01*
X129Y982D02*
X136Y982D01*
X820Y982D02*
X827Y982D01*
X945Y982D02*
X952Y982D01*
X0Y981D02*
X7Y981D01*
X129Y981D02*
X136Y981D01*
X820Y981D02*
X827Y981D01*
X945Y981D02*
X952Y981D01*
X0Y980D02*
X7Y980D01*
X129Y980D02*
X136Y980D01*
X820Y980D02*
X827Y980D01*
X945Y980D02*
X952Y980D01*
X0Y979D02*
X7Y979D01*
X129Y979D02*
X136Y979D01*
X820Y979D02*
X827Y979D01*
X945Y979D02*
X952Y979D01*
X0Y978D02*
X7Y978D01*
X129Y978D02*
X136Y978D01*
X820Y978D02*
X827Y978D01*
X945Y978D02*
X952Y978D01*
X0Y977D02*
X7Y977D01*
X129Y977D02*
X136Y977D01*
X820Y977D02*
X827Y977D01*
X945Y977D02*
X952Y977D01*
X0Y976D02*
X7Y976D01*
X129Y976D02*
X136Y976D01*
X820Y976D02*
X827Y976D01*
X945Y976D02*
X952Y976D01*
X0Y975D02*
X7Y975D01*
X129Y975D02*
X136Y975D01*
X820Y975D02*
X827Y975D01*
X945Y975D02*
X952Y975D01*
X0Y974D02*
X7Y974D01*
X129Y974D02*
X136Y974D01*
X820Y974D02*
X827Y974D01*
X945Y974D02*
X952Y974D01*
X0Y973D02*
X7Y973D01*
X129Y973D02*
X136Y973D01*
X820Y973D02*
X827Y973D01*
X945Y973D02*
X952Y973D01*
X0Y972D02*
X7Y972D01*
X129Y972D02*
X136Y972D01*
X820Y972D02*
X827Y972D01*
X945Y972D02*
X952Y972D01*
X0Y971D02*
X7Y971D01*
X129Y971D02*
X136Y971D01*
X820Y971D02*
X827Y971D01*
X945Y971D02*
X952Y971D01*
X0Y970D02*
X7Y970D01*
X129Y970D02*
X136Y970D01*
X820Y970D02*
X827Y970D01*
X945Y970D02*
X952Y970D01*
X0Y969D02*
X7Y969D01*
X129Y969D02*
X136Y969D01*
X820Y969D02*
X827Y969D01*
X945Y969D02*
X952Y969D01*
X0Y968D02*
X7Y968D01*
X129Y968D02*
X136Y968D01*
X820Y968D02*
X827Y968D01*
X945Y968D02*
X952Y968D01*
X0Y967D02*
X7Y967D01*
X129Y967D02*
X136Y967D01*
X820Y967D02*
X827Y967D01*
X945Y967D02*
X952Y967D01*
X0Y966D02*
X7Y966D01*
X129Y966D02*
X136Y966D01*
X820Y966D02*
X827Y966D01*
X945Y966D02*
X952Y966D01*
X0Y965D02*
X7Y965D01*
X129Y965D02*
X136Y965D01*
X331Y965D02*
X338Y965D01*
X346Y965D02*
X349Y965D01*
X358Y965D02*
X359Y965D01*
X368Y965D02*
X376Y965D01*
X820Y965D02*
X827Y965D01*
X945Y965D02*
X952Y965D01*
X0Y964D02*
X7Y964D01*
X129Y964D02*
X136Y964D01*
X330Y964D02*
X338Y964D01*
X346Y964D02*
X350Y964D01*
X358Y964D02*
X360Y964D01*
X368Y964D02*
X377Y964D01*
X820Y964D02*
X827Y964D01*
X945Y964D02*
X952Y964D01*
X0Y963D02*
X7Y963D01*
X129Y963D02*
X136Y963D01*
X329Y963D02*
X338Y963D01*
X346Y963D02*
X350Y963D01*
X358Y963D02*
X360Y963D01*
X368Y963D02*
X377Y963D01*
X820Y963D02*
X827Y963D01*
X945Y963D02*
X952Y963D01*
X0Y962D02*
X7Y962D01*
X129Y962D02*
X136Y962D01*
X329Y962D02*
X331Y962D01*
X346Y962D02*
X351Y962D01*
X358Y962D02*
X360Y962D01*
X370Y962D02*
X372Y962D01*
X376Y962D02*
X378Y962D01*
X820Y962D02*
X827Y962D01*
X945Y962D02*
X952Y962D01*
X0Y961D02*
X7Y961D01*
X129Y961D02*
X136Y961D01*
X328Y961D02*
X331Y961D01*
X346Y961D02*
X351Y961D01*
X358Y961D02*
X360Y961D01*
X370Y961D02*
X372Y961D01*
X376Y961D02*
X378Y961D01*
X820Y961D02*
X827Y961D01*
X945Y961D02*
X952Y961D01*
X0Y960D02*
X7Y960D01*
X129Y960D02*
X136Y960D01*
X327Y960D02*
X330Y960D01*
X346Y960D02*
X351Y960D01*
X358Y960D02*
X360Y960D01*
X370Y960D02*
X372Y960D01*
X377Y960D02*
X379Y960D01*
X820Y960D02*
X827Y960D01*
X945Y960D02*
X952Y960D01*
X0Y959D02*
X7Y959D01*
X129Y959D02*
X136Y959D01*
X326Y959D02*
X329Y959D01*
X346Y959D02*
X348Y959D01*
X350Y959D02*
X352Y959D01*
X358Y959D02*
X360Y959D01*
X370Y959D02*
X372Y959D01*
X377Y959D02*
X379Y959D01*
X820Y959D02*
X827Y959D01*
X945Y959D02*
X952Y959D01*
X0Y958D02*
X7Y958D01*
X129Y958D02*
X136Y958D01*
X326Y958D02*
X328Y958D01*
X346Y958D02*
X348Y958D01*
X350Y958D02*
X352Y958D01*
X358Y958D02*
X360Y958D01*
X370Y958D02*
X372Y958D01*
X378Y958D02*
X380Y958D01*
X820Y958D02*
X827Y958D01*
X945Y958D02*
X952Y958D01*
X0Y957D02*
X7Y957D01*
X129Y957D02*
X136Y957D01*
X325Y957D02*
X327Y957D01*
X346Y957D02*
X348Y957D01*
X351Y957D02*
X353Y957D01*
X358Y957D02*
X360Y957D01*
X370Y957D02*
X372Y957D01*
X378Y957D02*
X380Y957D01*
X820Y957D02*
X827Y957D01*
X945Y957D02*
X952Y957D01*
X0Y956D02*
X7Y956D01*
X129Y956D02*
X136Y956D01*
X325Y956D02*
X327Y956D01*
X346Y956D02*
X348Y956D01*
X351Y956D02*
X353Y956D01*
X358Y956D02*
X360Y956D01*
X370Y956D02*
X372Y956D01*
X379Y956D02*
X381Y956D01*
X820Y956D02*
X827Y956D01*
X945Y956D02*
X952Y956D01*
X0Y955D02*
X7Y955D01*
X129Y955D02*
X136Y955D01*
X325Y955D02*
X327Y955D01*
X346Y955D02*
X348Y955D01*
X351Y955D02*
X354Y955D01*
X358Y955D02*
X360Y955D01*
X370Y955D02*
X372Y955D01*
X379Y955D02*
X381Y955D01*
X820Y955D02*
X827Y955D01*
X945Y955D02*
X952Y955D01*
X0Y954D02*
X7Y954D01*
X129Y954D02*
X136Y954D01*
X325Y954D02*
X327Y954D01*
X346Y954D02*
X348Y954D01*
X352Y954D02*
X354Y954D01*
X358Y954D02*
X360Y954D01*
X370Y954D02*
X372Y954D01*
X379Y954D02*
X381Y954D01*
X820Y954D02*
X827Y954D01*
X945Y954D02*
X952Y954D01*
X0Y953D02*
X7Y953D01*
X129Y953D02*
X136Y953D01*
X325Y953D02*
X327Y953D01*
X333Y953D02*
X338Y953D01*
X346Y953D02*
X348Y953D01*
X352Y953D02*
X355Y953D01*
X358Y953D02*
X360Y953D01*
X370Y953D02*
X372Y953D01*
X379Y953D02*
X381Y953D01*
X820Y953D02*
X827Y953D01*
X945Y953D02*
X952Y953D01*
X0Y952D02*
X7Y952D01*
X129Y952D02*
X136Y952D01*
X325Y952D02*
X327Y952D01*
X332Y952D02*
X338Y952D01*
X346Y952D02*
X348Y952D01*
X353Y952D02*
X355Y952D01*
X358Y952D02*
X360Y952D01*
X370Y952D02*
X372Y952D01*
X379Y952D02*
X381Y952D01*
X820Y952D02*
X827Y952D01*
X945Y952D02*
X952Y952D01*
X0Y951D02*
X7Y951D01*
X129Y951D02*
X136Y951D01*
X325Y951D02*
X327Y951D01*
X332Y951D02*
X338Y951D01*
X346Y951D02*
X348Y951D01*
X353Y951D02*
X355Y951D01*
X358Y951D02*
X360Y951D01*
X370Y951D02*
X372Y951D01*
X378Y951D02*
X380Y951D01*
X820Y951D02*
X827Y951D01*
X945Y951D02*
X952Y951D01*
X0Y950D02*
X7Y950D01*
X129Y950D02*
X136Y950D01*
X325Y950D02*
X327Y950D01*
X336Y950D02*
X338Y950D01*
X346Y950D02*
X348Y950D01*
X354Y950D02*
X356Y950D01*
X358Y950D02*
X360Y950D01*
X370Y950D02*
X372Y950D01*
X378Y950D02*
X380Y950D01*
X820Y950D02*
X827Y950D01*
X945Y950D02*
X952Y950D01*
X0Y949D02*
X7Y949D01*
X129Y949D02*
X136Y949D01*
X325Y949D02*
X327Y949D01*
X336Y949D02*
X338Y949D01*
X346Y949D02*
X348Y949D01*
X354Y949D02*
X360Y949D01*
X370Y949D02*
X372Y949D01*
X377Y949D02*
X379Y949D01*
X820Y949D02*
X827Y949D01*
X945Y949D02*
X952Y949D01*
X0Y948D02*
X7Y948D01*
X129Y948D02*
X136Y948D01*
X325Y948D02*
X327Y948D01*
X336Y948D02*
X338Y948D01*
X346Y948D02*
X348Y948D01*
X354Y948D02*
X360Y948D01*
X370Y948D02*
X372Y948D01*
X376Y948D02*
X379Y948D01*
X820Y948D02*
X827Y948D01*
X945Y948D02*
X952Y948D01*
X0Y947D02*
X7Y947D01*
X129Y947D02*
X136Y947D01*
X325Y947D02*
X327Y947D01*
X336Y947D02*
X338Y947D01*
X346Y947D02*
X348Y947D01*
X355Y947D02*
X360Y947D01*
X370Y947D02*
X372Y947D01*
X376Y947D02*
X378Y947D01*
X820Y947D02*
X827Y947D01*
X945Y947D02*
X952Y947D01*
X0Y946D02*
X7Y946D01*
X129Y946D02*
X136Y946D01*
X325Y946D02*
X327Y946D01*
X336Y946D02*
X338Y946D01*
X346Y946D02*
X348Y946D01*
X355Y946D02*
X360Y946D01*
X370Y946D02*
X372Y946D01*
X375Y946D02*
X378Y946D01*
X820Y946D02*
X827Y946D01*
X945Y946D02*
X952Y946D01*
X0Y945D02*
X7Y945D01*
X129Y945D02*
X136Y945D01*
X325Y945D02*
X338Y945D01*
X346Y945D02*
X348Y945D01*
X356Y945D02*
X360Y945D01*
X368Y945D02*
X377Y945D01*
X820Y945D02*
X827Y945D01*
X945Y945D02*
X952Y945D01*
X0Y944D02*
X7Y944D01*
X129Y944D02*
X136Y944D01*
X326Y944D02*
X337Y944D01*
X346Y944D02*
X348Y944D01*
X356Y944D02*
X360Y944D01*
X368Y944D02*
X377Y944D01*
X820Y944D02*
X827Y944D01*
X945Y944D02*
X952Y944D01*
X0Y943D02*
X7Y943D01*
X129Y943D02*
X136Y943D01*
X327Y943D02*
X336Y943D01*
X347Y943D02*
X347Y943D01*
X357Y943D02*
X360Y943D01*
X368Y943D02*
X375Y943D01*
X820Y943D02*
X827Y943D01*
X945Y943D02*
X952Y943D01*
X0Y942D02*
X7Y942D01*
X129Y942D02*
X136Y942D01*
X820Y942D02*
X827Y942D01*
X945Y942D02*
X952Y942D01*
X0Y941D02*
X7Y941D01*
X129Y941D02*
X136Y941D01*
X820Y941D02*
X827Y941D01*
X945Y941D02*
X952Y941D01*
X0Y940D02*
X7Y940D01*
X129Y940D02*
X136Y940D01*
X820Y940D02*
X827Y940D01*
X945Y940D02*
X952Y940D01*
X0Y939D02*
X7Y939D01*
X129Y939D02*
X136Y939D01*
X820Y939D02*
X827Y939D01*
X945Y939D02*
X952Y939D01*
X0Y938D02*
X7Y938D01*
X129Y938D02*
X136Y938D01*
X820Y938D02*
X827Y938D01*
X945Y938D02*
X952Y938D01*
X0Y937D02*
X7Y937D01*
X129Y937D02*
X136Y937D01*
X820Y937D02*
X827Y937D01*
X945Y937D02*
X952Y937D01*
X0Y936D02*
X7Y936D01*
X129Y936D02*
X136Y936D01*
X820Y936D02*
X827Y936D01*
X945Y936D02*
X952Y936D01*
X0Y935D02*
X7Y935D01*
X129Y935D02*
X136Y935D01*
X820Y935D02*
X827Y935D01*
X945Y935D02*
X952Y935D01*
X0Y934D02*
X7Y934D01*
X129Y934D02*
X136Y934D01*
X820Y934D02*
X827Y934D01*
X945Y934D02*
X952Y934D01*
X0Y933D02*
X7Y933D01*
X129Y933D02*
X136Y933D01*
X820Y933D02*
X827Y933D01*
X945Y933D02*
X952Y933D01*
X0Y932D02*
X7Y932D01*
X129Y932D02*
X136Y932D01*
X820Y932D02*
X827Y932D01*
X945Y932D02*
X952Y932D01*
X0Y931D02*
X7Y931D01*
X129Y931D02*
X136Y931D01*
X820Y931D02*
X827Y931D01*
X945Y931D02*
X952Y931D01*
X0Y930D02*
X7Y930D01*
X129Y930D02*
X136Y930D01*
X820Y930D02*
X827Y930D01*
X945Y930D02*
X952Y930D01*
X0Y929D02*
X7Y929D01*
X129Y929D02*
X136Y929D01*
X820Y929D02*
X827Y929D01*
X945Y929D02*
X952Y929D01*
X0Y928D02*
X7Y928D01*
X129Y928D02*
X136Y928D01*
X820Y928D02*
X827Y928D01*
X945Y928D02*
X952Y928D01*
X0Y927D02*
X7Y927D01*
X129Y927D02*
X136Y927D01*
X820Y927D02*
X827Y927D01*
X945Y927D02*
X952Y927D01*
X0Y926D02*
X7Y926D01*
X129Y926D02*
X136Y926D01*
X820Y926D02*
X827Y926D01*
X945Y926D02*
X952Y926D01*
X0Y925D02*
X7Y925D01*
X129Y925D02*
X136Y925D01*
X820Y925D02*
X827Y925D01*
X945Y925D02*
X952Y925D01*
X0Y924D02*
X7Y924D01*
X129Y924D02*
X136Y924D01*
X820Y924D02*
X827Y924D01*
X945Y924D02*
X952Y924D01*
X0Y923D02*
X7Y923D01*
X129Y923D02*
X136Y923D01*
X820Y923D02*
X827Y923D01*
X945Y923D02*
X952Y923D01*
X0Y922D02*
X7Y922D01*
X129Y922D02*
X136Y922D01*
X820Y922D02*
X827Y922D01*
X945Y922D02*
X952Y922D01*
X0Y921D02*
X7Y921D01*
X129Y921D02*
X136Y921D01*
X820Y921D02*
X827Y921D01*
X945Y921D02*
X952Y921D01*
X0Y920D02*
X7Y920D01*
X129Y920D02*
X136Y920D01*
X820Y920D02*
X827Y920D01*
X945Y920D02*
X952Y920D01*
X0Y919D02*
X7Y919D01*
X129Y919D02*
X136Y919D01*
X820Y919D02*
X827Y919D01*
X945Y919D02*
X952Y919D01*
X0Y918D02*
X7Y918D01*
X129Y918D02*
X136Y918D01*
X820Y918D02*
X827Y918D01*
X945Y918D02*
X952Y918D01*
X0Y917D02*
X7Y917D01*
X129Y917D02*
X136Y917D01*
X820Y917D02*
X827Y917D01*
X945Y917D02*
X952Y917D01*
X0Y916D02*
X7Y916D01*
X129Y916D02*
X136Y916D01*
X820Y916D02*
X827Y916D01*
X945Y916D02*
X952Y916D01*
X0Y915D02*
X7Y915D01*
X129Y915D02*
X136Y915D01*
X820Y915D02*
X827Y915D01*
X945Y915D02*
X952Y915D01*
X0Y914D02*
X7Y914D01*
X129Y914D02*
X136Y914D01*
X820Y914D02*
X827Y914D01*
X945Y914D02*
X952Y914D01*
X0Y913D02*
X7Y913D01*
X129Y913D02*
X136Y913D01*
X820Y913D02*
X827Y913D01*
X945Y913D02*
X952Y913D01*
X0Y912D02*
X7Y912D01*
X129Y912D02*
X136Y912D01*
X820Y912D02*
X827Y912D01*
X945Y912D02*
X952Y912D01*
X0Y911D02*
X7Y911D01*
X129Y911D02*
X136Y911D01*
X820Y911D02*
X827Y911D01*
X945Y911D02*
X952Y911D01*
X0Y910D02*
X7Y910D01*
X129Y910D02*
X136Y910D01*
X820Y910D02*
X827Y910D01*
X945Y910D02*
X952Y910D01*
X0Y909D02*
X7Y909D01*
X129Y909D02*
X136Y909D01*
X820Y909D02*
X827Y909D01*
X945Y909D02*
X952Y909D01*
X0Y908D02*
X7Y908D01*
X129Y908D02*
X136Y908D01*
X820Y908D02*
X827Y908D01*
X945Y908D02*
X952Y908D01*
X0Y907D02*
X7Y907D01*
X129Y907D02*
X136Y907D01*
X820Y907D02*
X827Y907D01*
X945Y907D02*
X952Y907D01*
X0Y906D02*
X7Y906D01*
X129Y906D02*
X136Y906D01*
X820Y906D02*
X827Y906D01*
X945Y906D02*
X952Y906D01*
X0Y905D02*
X7Y905D01*
X129Y905D02*
X136Y905D01*
X820Y905D02*
X827Y905D01*
X945Y905D02*
X952Y905D01*
X0Y904D02*
X7Y904D01*
X129Y904D02*
X136Y904D01*
X820Y904D02*
X827Y904D01*
X945Y904D02*
X952Y904D01*
X0Y903D02*
X7Y903D01*
X129Y903D02*
X136Y903D01*
X820Y903D02*
X827Y903D01*
X945Y903D02*
X952Y903D01*
X0Y902D02*
X7Y902D01*
X129Y902D02*
X136Y902D01*
X820Y902D02*
X827Y902D01*
X945Y902D02*
X952Y902D01*
X0Y901D02*
X7Y901D01*
X129Y901D02*
X136Y901D01*
X820Y901D02*
X827Y901D01*
X945Y901D02*
X952Y901D01*
X0Y900D02*
X7Y900D01*
X129Y900D02*
X136Y900D01*
X820Y900D02*
X827Y900D01*
X945Y900D02*
X952Y900D01*
X0Y899D02*
X7Y899D01*
X129Y899D02*
X136Y899D01*
X820Y899D02*
X827Y899D01*
X945Y899D02*
X952Y899D01*
X0Y898D02*
X7Y898D01*
X129Y898D02*
X136Y898D01*
X820Y898D02*
X827Y898D01*
X945Y898D02*
X952Y898D01*
X0Y897D02*
X7Y897D01*
X129Y897D02*
X136Y897D01*
X820Y897D02*
X827Y897D01*
X945Y897D02*
X952Y897D01*
X0Y896D02*
X7Y896D01*
X129Y896D02*
X136Y896D01*
X820Y896D02*
X827Y896D01*
X945Y896D02*
X952Y896D01*
X0Y895D02*
X7Y895D01*
X129Y895D02*
X136Y895D01*
X820Y895D02*
X827Y895D01*
X945Y895D02*
X952Y895D01*
X0Y894D02*
X7Y894D01*
X129Y894D02*
X136Y894D01*
X820Y894D02*
X827Y894D01*
X945Y894D02*
X952Y894D01*
X0Y893D02*
X7Y893D01*
X129Y893D02*
X136Y893D01*
X820Y893D02*
X827Y893D01*
X945Y893D02*
X952Y893D01*
X0Y892D02*
X7Y892D01*
X129Y892D02*
X136Y892D01*
X820Y892D02*
X827Y892D01*
X945Y892D02*
X952Y892D01*
X0Y891D02*
X7Y891D01*
X129Y891D02*
X136Y891D01*
X820Y891D02*
X827Y891D01*
X945Y891D02*
X952Y891D01*
X0Y890D02*
X7Y890D01*
X129Y890D02*
X136Y890D01*
X820Y890D02*
X827Y890D01*
X945Y890D02*
X952Y890D01*
X0Y889D02*
X7Y889D01*
X129Y889D02*
X136Y889D01*
X820Y889D02*
X827Y889D01*
X945Y889D02*
X952Y889D01*
X0Y888D02*
X7Y888D01*
X129Y888D02*
X136Y888D01*
X820Y888D02*
X827Y888D01*
X945Y888D02*
X952Y888D01*
X0Y887D02*
X7Y887D01*
X129Y887D02*
X136Y887D01*
X820Y887D02*
X827Y887D01*
X945Y887D02*
X952Y887D01*
X0Y886D02*
X7Y886D01*
X129Y886D02*
X136Y886D01*
X820Y886D02*
X827Y886D01*
X945Y886D02*
X952Y886D01*
X0Y885D02*
X7Y885D01*
X129Y885D02*
X136Y885D01*
X820Y885D02*
X827Y885D01*
X945Y885D02*
X952Y885D01*
X0Y884D02*
X7Y884D01*
X129Y884D02*
X136Y884D01*
X820Y884D02*
X827Y884D01*
X945Y884D02*
X952Y884D01*
X0Y883D02*
X7Y883D01*
X129Y883D02*
X136Y883D01*
X820Y883D02*
X827Y883D01*
X945Y883D02*
X952Y883D01*
X0Y882D02*
X7Y882D01*
X129Y882D02*
X136Y882D01*
X820Y882D02*
X827Y882D01*
X945Y882D02*
X952Y882D01*
X0Y881D02*
X7Y881D01*
X129Y881D02*
X136Y881D01*
X820Y881D02*
X827Y881D01*
X945Y881D02*
X952Y881D01*
X0Y880D02*
X7Y880D01*
X129Y880D02*
X136Y880D01*
X820Y880D02*
X827Y880D01*
X945Y880D02*
X952Y880D01*
X0Y879D02*
X7Y879D01*
X129Y879D02*
X136Y879D01*
X820Y879D02*
X827Y879D01*
X945Y879D02*
X952Y879D01*
X0Y878D02*
X7Y878D01*
X129Y878D02*
X136Y878D01*
X820Y878D02*
X827Y878D01*
X945Y878D02*
X952Y878D01*
X0Y877D02*
X7Y877D01*
X129Y877D02*
X136Y877D01*
X820Y877D02*
X827Y877D01*
X945Y877D02*
X952Y877D01*
X0Y876D02*
X7Y876D01*
X129Y876D02*
X136Y876D01*
X820Y876D02*
X827Y876D01*
X945Y876D02*
X952Y876D01*
X0Y875D02*
X7Y875D01*
X129Y875D02*
X136Y875D01*
X820Y875D02*
X827Y875D01*
X945Y875D02*
X952Y875D01*
X0Y874D02*
X7Y874D01*
X129Y874D02*
X136Y874D01*
X820Y874D02*
X827Y874D01*
X945Y874D02*
X952Y874D01*
X0Y873D02*
X7Y873D01*
X129Y873D02*
X136Y873D01*
X820Y873D02*
X827Y873D01*
X945Y873D02*
X952Y873D01*
X0Y872D02*
X7Y872D01*
X129Y872D02*
X136Y872D01*
X820Y872D02*
X827Y872D01*
X945Y872D02*
X952Y872D01*
X0Y871D02*
X7Y871D01*
X129Y871D02*
X136Y871D01*
X820Y871D02*
X827Y871D01*
X945Y871D02*
X952Y871D01*
X0Y870D02*
X7Y870D01*
X129Y870D02*
X136Y870D01*
X820Y870D02*
X827Y870D01*
X945Y870D02*
X952Y870D01*
X0Y869D02*
X7Y869D01*
X129Y869D02*
X136Y869D01*
X820Y869D02*
X827Y869D01*
X945Y869D02*
X952Y869D01*
X0Y868D02*
X7Y868D01*
X129Y868D02*
X136Y868D01*
X820Y868D02*
X827Y868D01*
X945Y868D02*
X952Y868D01*
X0Y867D02*
X7Y867D01*
X129Y867D02*
X136Y867D01*
X820Y867D02*
X827Y867D01*
X945Y867D02*
X952Y867D01*
X0Y866D02*
X7Y866D01*
X129Y866D02*
X136Y866D01*
X820Y866D02*
X827Y866D01*
X945Y866D02*
X952Y866D01*
X0Y865D02*
X7Y865D01*
X129Y865D02*
X136Y865D01*
X820Y865D02*
X827Y865D01*
X945Y865D02*
X952Y865D01*
X0Y864D02*
X7Y864D01*
X129Y864D02*
X136Y864D01*
X820Y864D02*
X827Y864D01*
X945Y864D02*
X952Y864D01*
X0Y863D02*
X7Y863D01*
X129Y863D02*
X136Y863D01*
X820Y863D02*
X827Y863D01*
X945Y863D02*
X952Y863D01*
X0Y862D02*
X7Y862D01*
X129Y862D02*
X136Y862D01*
X820Y862D02*
X827Y862D01*
X945Y862D02*
X952Y862D01*
X0Y861D02*
X7Y861D01*
X129Y861D02*
X136Y861D01*
X820Y861D02*
X827Y861D01*
X945Y861D02*
X952Y861D01*
X0Y860D02*
X7Y860D01*
X129Y860D02*
X136Y860D01*
X820Y860D02*
X827Y860D01*
X945Y860D02*
X952Y860D01*
X0Y859D02*
X7Y859D01*
X129Y859D02*
X136Y859D01*
X820Y859D02*
X827Y859D01*
X945Y859D02*
X952Y859D01*
X0Y858D02*
X7Y858D01*
X129Y858D02*
X136Y858D01*
X820Y858D02*
X827Y858D01*
X945Y858D02*
X952Y858D01*
X0Y857D02*
X7Y857D01*
X129Y857D02*
X136Y857D01*
X820Y857D02*
X827Y857D01*
X945Y857D02*
X952Y857D01*
X0Y856D02*
X7Y856D01*
X129Y856D02*
X136Y856D01*
X820Y856D02*
X827Y856D01*
X945Y856D02*
X952Y856D01*
X0Y855D02*
X7Y855D01*
X129Y855D02*
X136Y855D01*
X820Y855D02*
X827Y855D01*
X945Y855D02*
X952Y855D01*
X0Y854D02*
X7Y854D01*
X129Y854D02*
X136Y854D01*
X820Y854D02*
X827Y854D01*
X945Y854D02*
X952Y854D01*
X0Y853D02*
X7Y853D01*
X129Y853D02*
X136Y853D01*
X820Y853D02*
X827Y853D01*
X945Y853D02*
X952Y853D01*
X0Y852D02*
X7Y852D01*
X129Y852D02*
X136Y852D01*
X820Y852D02*
X827Y852D01*
X945Y852D02*
X952Y852D01*
X0Y851D02*
X7Y851D01*
X129Y851D02*
X136Y851D01*
X820Y851D02*
X827Y851D01*
X945Y851D02*
X952Y851D01*
X0Y850D02*
X7Y850D01*
X129Y850D02*
X136Y850D01*
X820Y850D02*
X827Y850D01*
X945Y850D02*
X952Y850D01*
X0Y849D02*
X7Y849D01*
X129Y849D02*
X136Y849D01*
X820Y849D02*
X827Y849D01*
X945Y849D02*
X952Y849D01*
X0Y848D02*
X7Y848D01*
X129Y848D02*
X136Y848D01*
X820Y848D02*
X827Y848D01*
X945Y848D02*
X952Y848D01*
X0Y847D02*
X7Y847D01*
X129Y847D02*
X136Y847D01*
X820Y847D02*
X827Y847D01*
X945Y847D02*
X952Y847D01*
X0Y846D02*
X7Y846D01*
X129Y846D02*
X136Y846D01*
X820Y846D02*
X827Y846D01*
X945Y846D02*
X952Y846D01*
X0Y845D02*
X7Y845D01*
X129Y845D02*
X136Y845D01*
X820Y845D02*
X827Y845D01*
X945Y845D02*
X952Y845D01*
X0Y844D02*
X7Y844D01*
X129Y844D02*
X136Y844D01*
X820Y844D02*
X827Y844D01*
X945Y844D02*
X952Y844D01*
X0Y843D02*
X7Y843D01*
X129Y843D02*
X136Y843D01*
X820Y843D02*
X827Y843D01*
X945Y843D02*
X952Y843D01*
X0Y842D02*
X7Y842D01*
X129Y842D02*
X136Y842D01*
X820Y842D02*
X827Y842D01*
X945Y842D02*
X952Y842D01*
X0Y841D02*
X7Y841D01*
X129Y841D02*
X136Y841D01*
X820Y841D02*
X827Y841D01*
X945Y841D02*
X952Y841D01*
X0Y840D02*
X7Y840D01*
X129Y840D02*
X136Y840D01*
X820Y840D02*
X827Y840D01*
X945Y840D02*
X952Y840D01*
X0Y839D02*
X7Y839D01*
X129Y839D02*
X136Y839D01*
X820Y839D02*
X827Y839D01*
X945Y839D02*
X952Y839D01*
X0Y838D02*
X7Y838D01*
X129Y838D02*
X136Y838D01*
X820Y838D02*
X827Y838D01*
X945Y838D02*
X952Y838D01*
X0Y837D02*
X7Y837D01*
X129Y837D02*
X136Y837D01*
X820Y837D02*
X827Y837D01*
X945Y837D02*
X952Y837D01*
X0Y836D02*
X7Y836D01*
X129Y836D02*
X136Y836D01*
X820Y836D02*
X827Y836D01*
X945Y836D02*
X952Y836D01*
X0Y835D02*
X7Y835D01*
X129Y835D02*
X136Y835D01*
X820Y835D02*
X827Y835D01*
X945Y835D02*
X952Y835D01*
X0Y834D02*
X7Y834D01*
X129Y834D02*
X136Y834D01*
X820Y834D02*
X827Y834D01*
X945Y834D02*
X952Y834D01*
X0Y833D02*
X7Y833D01*
X129Y833D02*
X136Y833D01*
X820Y833D02*
X827Y833D01*
X945Y833D02*
X952Y833D01*
X0Y832D02*
X7Y832D01*
X129Y832D02*
X136Y832D01*
X820Y832D02*
X827Y832D01*
X945Y832D02*
X952Y832D01*
X0Y831D02*
X7Y831D01*
X129Y831D02*
X136Y831D01*
X820Y831D02*
X827Y831D01*
X945Y831D02*
X952Y831D01*
X0Y830D02*
X7Y830D01*
X129Y830D02*
X136Y830D01*
X820Y830D02*
X827Y830D01*
X945Y830D02*
X952Y830D01*
X0Y829D02*
X7Y829D01*
X129Y829D02*
X136Y829D01*
X820Y829D02*
X827Y829D01*
X945Y829D02*
X952Y829D01*
X0Y828D02*
X7Y828D01*
X129Y828D02*
X136Y828D01*
X820Y828D02*
X827Y828D01*
X945Y828D02*
X952Y828D01*
X0Y827D02*
X7Y827D01*
X129Y827D02*
X136Y827D01*
X820Y827D02*
X827Y827D01*
X945Y827D02*
X952Y827D01*
X0Y826D02*
X7Y826D01*
X129Y826D02*
X136Y826D01*
X820Y826D02*
X827Y826D01*
X945Y826D02*
X952Y826D01*
X0Y825D02*
X7Y825D01*
X129Y825D02*
X136Y825D01*
X820Y825D02*
X827Y825D01*
X945Y825D02*
X952Y825D01*
X0Y824D02*
X7Y824D01*
X129Y824D02*
X136Y824D01*
X820Y824D02*
X827Y824D01*
X945Y824D02*
X952Y824D01*
X0Y823D02*
X7Y823D01*
X129Y823D02*
X136Y823D01*
X820Y823D02*
X827Y823D01*
X945Y823D02*
X952Y823D01*
X0Y822D02*
X7Y822D01*
X129Y822D02*
X136Y822D01*
X820Y822D02*
X827Y822D01*
X945Y822D02*
X952Y822D01*
X0Y821D02*
X7Y821D01*
X129Y821D02*
X136Y821D01*
X820Y821D02*
X827Y821D01*
X945Y821D02*
X952Y821D01*
X0Y820D02*
X7Y820D01*
X129Y820D02*
X136Y820D01*
X820Y820D02*
X827Y820D01*
X945Y820D02*
X952Y820D01*
X0Y819D02*
X7Y819D01*
X129Y819D02*
X136Y819D01*
X820Y819D02*
X827Y819D01*
X945Y819D02*
X952Y819D01*
X0Y818D02*
X7Y818D01*
X129Y818D02*
X136Y818D01*
X820Y818D02*
X827Y818D01*
X945Y818D02*
X952Y818D01*
X0Y817D02*
X7Y817D01*
X129Y817D02*
X136Y817D01*
X820Y817D02*
X827Y817D01*
X945Y817D02*
X952Y817D01*
X0Y816D02*
X7Y816D01*
X129Y816D02*
X136Y816D01*
X820Y816D02*
X827Y816D01*
X945Y816D02*
X952Y816D01*
X0Y815D02*
X7Y815D01*
X129Y815D02*
X136Y815D01*
X820Y815D02*
X827Y815D01*
X945Y815D02*
X952Y815D01*
X0Y814D02*
X7Y814D01*
X129Y814D02*
X136Y814D01*
X820Y814D02*
X827Y814D01*
X945Y814D02*
X952Y814D01*
X0Y813D02*
X7Y813D01*
X129Y813D02*
X136Y813D01*
X820Y813D02*
X827Y813D01*
X945Y813D02*
X952Y813D01*
X0Y812D02*
X7Y812D01*
X129Y812D02*
X136Y812D01*
X820Y812D02*
X827Y812D01*
X945Y812D02*
X952Y812D01*
X0Y811D02*
X7Y811D01*
X129Y811D02*
X136Y811D01*
X820Y811D02*
X827Y811D01*
X945Y811D02*
X952Y811D01*
X0Y810D02*
X7Y810D01*
X129Y810D02*
X136Y810D01*
X820Y810D02*
X827Y810D01*
X945Y810D02*
X952Y810D01*
X0Y809D02*
X7Y809D01*
X129Y809D02*
X136Y809D01*
X820Y809D02*
X827Y809D01*
X945Y809D02*
X952Y809D01*
X0Y808D02*
X7Y808D01*
X129Y808D02*
X136Y808D01*
X820Y808D02*
X827Y808D01*
X945Y808D02*
X952Y808D01*
X0Y807D02*
X7Y807D01*
X129Y807D02*
X136Y807D01*
X820Y807D02*
X827Y807D01*
X945Y807D02*
X952Y807D01*
X0Y806D02*
X7Y806D01*
X129Y806D02*
X136Y806D01*
X820Y806D02*
X827Y806D01*
X945Y806D02*
X952Y806D01*
X0Y805D02*
X7Y805D01*
X129Y805D02*
X136Y805D01*
X820Y805D02*
X827Y805D01*
X945Y805D02*
X952Y805D01*
X0Y804D02*
X7Y804D01*
X129Y804D02*
X136Y804D01*
X820Y804D02*
X827Y804D01*
X945Y804D02*
X952Y804D01*
X0Y803D02*
X7Y803D01*
X129Y803D02*
X136Y803D01*
X820Y803D02*
X827Y803D01*
X945Y803D02*
X952Y803D01*
X0Y802D02*
X7Y802D01*
X129Y802D02*
X136Y802D01*
X820Y802D02*
X827Y802D01*
X945Y802D02*
X952Y802D01*
X0Y801D02*
X7Y801D01*
X129Y801D02*
X136Y801D01*
X820Y801D02*
X827Y801D01*
X945Y801D02*
X952Y801D01*
X0Y800D02*
X7Y800D01*
X129Y800D02*
X136Y800D01*
X820Y800D02*
X827Y800D01*
X945Y800D02*
X952Y800D01*
X0Y799D02*
X7Y799D01*
X129Y799D02*
X136Y799D01*
X820Y799D02*
X827Y799D01*
X945Y799D02*
X952Y799D01*
X0Y798D02*
X7Y798D01*
X129Y798D02*
X136Y798D01*
X820Y798D02*
X827Y798D01*
X945Y798D02*
X952Y798D01*
X0Y797D02*
X7Y797D01*
X129Y797D02*
X136Y797D01*
X820Y797D02*
X827Y797D01*
X945Y797D02*
X952Y797D01*
X0Y796D02*
X7Y796D01*
X129Y796D02*
X136Y796D01*
X820Y796D02*
X827Y796D01*
X945Y796D02*
X952Y796D01*
X0Y795D02*
X7Y795D01*
X129Y795D02*
X136Y795D01*
X820Y795D02*
X827Y795D01*
X945Y795D02*
X952Y795D01*
X0Y794D02*
X7Y794D01*
X129Y794D02*
X136Y794D01*
X820Y794D02*
X827Y794D01*
X945Y794D02*
X952Y794D01*
X0Y793D02*
X7Y793D01*
X129Y793D02*
X136Y793D01*
X820Y793D02*
X827Y793D01*
X945Y793D02*
X952Y793D01*
X0Y792D02*
X7Y792D01*
X129Y792D02*
X136Y792D01*
X820Y792D02*
X827Y792D01*
X945Y792D02*
X952Y792D01*
X0Y791D02*
X7Y791D01*
X129Y791D02*
X136Y791D01*
X820Y791D02*
X827Y791D01*
X945Y791D02*
X952Y791D01*
X0Y790D02*
X7Y790D01*
X129Y790D02*
X136Y790D01*
X820Y790D02*
X827Y790D01*
X945Y790D02*
X952Y790D01*
X0Y789D02*
X7Y789D01*
X129Y789D02*
X136Y789D01*
X820Y789D02*
X827Y789D01*
X945Y789D02*
X952Y789D01*
X0Y788D02*
X7Y788D01*
X129Y788D02*
X136Y788D01*
X820Y788D02*
X827Y788D01*
X945Y788D02*
X952Y788D01*
X0Y787D02*
X7Y787D01*
X129Y787D02*
X136Y787D01*
X820Y787D02*
X827Y787D01*
X945Y787D02*
X952Y787D01*
X0Y786D02*
X7Y786D01*
X129Y786D02*
X136Y786D01*
X820Y786D02*
X827Y786D01*
X945Y786D02*
X952Y786D01*
X0Y785D02*
X7Y785D01*
X129Y785D02*
X136Y785D01*
X820Y785D02*
X827Y785D01*
X945Y785D02*
X952Y785D01*
X0Y784D02*
X7Y784D01*
X129Y784D02*
X136Y784D01*
X820Y784D02*
X827Y784D01*
X945Y784D02*
X952Y784D01*
X0Y783D02*
X7Y783D01*
X129Y783D02*
X136Y783D01*
X820Y783D02*
X827Y783D01*
X945Y783D02*
X952Y783D01*
X0Y782D02*
X7Y782D01*
X129Y782D02*
X136Y782D01*
X820Y782D02*
X827Y782D01*
X945Y782D02*
X952Y782D01*
X0Y781D02*
X7Y781D01*
X129Y781D02*
X136Y781D01*
X820Y781D02*
X827Y781D01*
X945Y781D02*
X952Y781D01*
X0Y780D02*
X7Y780D01*
X129Y780D02*
X136Y780D01*
X820Y780D02*
X827Y780D01*
X945Y780D02*
X952Y780D01*
X0Y779D02*
X7Y779D01*
X129Y779D02*
X136Y779D01*
X820Y779D02*
X827Y779D01*
X945Y779D02*
X952Y779D01*
X0Y778D02*
X7Y778D01*
X129Y778D02*
X136Y778D01*
X820Y778D02*
X827Y778D01*
X945Y778D02*
X952Y778D01*
X0Y777D02*
X7Y777D01*
X129Y777D02*
X136Y777D01*
X820Y777D02*
X827Y777D01*
X945Y777D02*
X952Y777D01*
X0Y776D02*
X7Y776D01*
X129Y776D02*
X136Y776D01*
X820Y776D02*
X827Y776D01*
X945Y776D02*
X952Y776D01*
X0Y775D02*
X7Y775D01*
X129Y775D02*
X136Y775D01*
X820Y775D02*
X827Y775D01*
X945Y775D02*
X952Y775D01*
X0Y774D02*
X7Y774D01*
X129Y774D02*
X136Y774D01*
X820Y774D02*
X827Y774D01*
X945Y774D02*
X952Y774D01*
X0Y773D02*
X7Y773D01*
X129Y773D02*
X136Y773D01*
X820Y773D02*
X827Y773D01*
X945Y773D02*
X952Y773D01*
X0Y772D02*
X7Y772D01*
X129Y772D02*
X136Y772D01*
X820Y772D02*
X827Y772D01*
X945Y772D02*
X952Y772D01*
X0Y771D02*
X7Y771D01*
X129Y771D02*
X136Y771D01*
X820Y771D02*
X827Y771D01*
X945Y771D02*
X952Y771D01*
X0Y770D02*
X7Y770D01*
X129Y770D02*
X136Y770D01*
X820Y770D02*
X827Y770D01*
X945Y770D02*
X952Y770D01*
X0Y769D02*
X7Y769D01*
X129Y769D02*
X136Y769D01*
X820Y769D02*
X827Y769D01*
X945Y769D02*
X952Y769D01*
X0Y768D02*
X7Y768D01*
X129Y768D02*
X136Y768D01*
X820Y768D02*
X827Y768D01*
X945Y768D02*
X952Y768D01*
X0Y767D02*
X7Y767D01*
X129Y767D02*
X136Y767D01*
X820Y767D02*
X827Y767D01*
X945Y767D02*
X952Y767D01*
X0Y766D02*
X7Y766D01*
X129Y766D02*
X136Y766D01*
X820Y766D02*
X827Y766D01*
X945Y766D02*
X952Y766D01*
X0Y765D02*
X7Y765D01*
X129Y765D02*
X136Y765D01*
X820Y765D02*
X827Y765D01*
X945Y765D02*
X952Y765D01*
X0Y764D02*
X7Y764D01*
X129Y764D02*
X136Y764D01*
X820Y764D02*
X827Y764D01*
X945Y764D02*
X952Y764D01*
X0Y763D02*
X7Y763D01*
X129Y763D02*
X136Y763D01*
X820Y763D02*
X827Y763D01*
X945Y763D02*
X952Y763D01*
X0Y762D02*
X7Y762D01*
X129Y762D02*
X136Y762D01*
X820Y762D02*
X827Y762D01*
X945Y762D02*
X952Y762D01*
X0Y761D02*
X7Y761D01*
X129Y761D02*
X136Y761D01*
X820Y761D02*
X827Y761D01*
X945Y761D02*
X952Y761D01*
X0Y760D02*
X7Y760D01*
X129Y760D02*
X136Y760D01*
X820Y760D02*
X827Y760D01*
X945Y760D02*
X952Y760D01*
X0Y759D02*
X7Y759D01*
X129Y759D02*
X136Y759D01*
X820Y759D02*
X827Y759D01*
X945Y759D02*
X952Y759D01*
X0Y758D02*
X7Y758D01*
X129Y758D02*
X136Y758D01*
X820Y758D02*
X827Y758D01*
X945Y758D02*
X952Y758D01*
X0Y757D02*
X7Y757D01*
X129Y757D02*
X136Y757D01*
X820Y757D02*
X827Y757D01*
X945Y757D02*
X952Y757D01*
X0Y756D02*
X7Y756D01*
X129Y756D02*
X136Y756D01*
X820Y756D02*
X827Y756D01*
X945Y756D02*
X952Y756D01*
X0Y755D02*
X7Y755D01*
X129Y755D02*
X136Y755D01*
X820Y755D02*
X827Y755D01*
X945Y755D02*
X952Y755D01*
X0Y754D02*
X7Y754D01*
X129Y754D02*
X136Y754D01*
X820Y754D02*
X827Y754D01*
X945Y754D02*
X952Y754D01*
X0Y753D02*
X7Y753D01*
X129Y753D02*
X136Y753D01*
X820Y753D02*
X827Y753D01*
X945Y753D02*
X952Y753D01*
X0Y752D02*
X7Y752D01*
X129Y752D02*
X136Y752D01*
X820Y752D02*
X827Y752D01*
X945Y752D02*
X952Y752D01*
X0Y751D02*
X7Y751D01*
X129Y751D02*
X136Y751D01*
X820Y751D02*
X827Y751D01*
X945Y751D02*
X952Y751D01*
X0Y750D02*
X7Y750D01*
X129Y750D02*
X136Y750D01*
X820Y750D02*
X827Y750D01*
X945Y750D02*
X952Y750D01*
X0Y749D02*
X7Y749D01*
X129Y749D02*
X136Y749D01*
X820Y749D02*
X827Y749D01*
X945Y749D02*
X952Y749D01*
X0Y748D02*
X7Y748D01*
X129Y748D02*
X136Y748D01*
X820Y748D02*
X827Y748D01*
X945Y748D02*
X952Y748D01*
X0Y747D02*
X7Y747D01*
X129Y747D02*
X136Y747D01*
X820Y747D02*
X827Y747D01*
X945Y747D02*
X952Y747D01*
X0Y746D02*
X7Y746D01*
X129Y746D02*
X136Y746D01*
X820Y746D02*
X827Y746D01*
X945Y746D02*
X952Y746D01*
X0Y745D02*
X7Y745D01*
X129Y745D02*
X136Y745D01*
X820Y745D02*
X827Y745D01*
X945Y745D02*
X952Y745D01*
X0Y744D02*
X7Y744D01*
X129Y744D02*
X136Y744D01*
X820Y744D02*
X827Y744D01*
X945Y744D02*
X952Y744D01*
X0Y743D02*
X7Y743D01*
X129Y743D02*
X136Y743D01*
X820Y743D02*
X827Y743D01*
X945Y743D02*
X952Y743D01*
X0Y742D02*
X7Y742D01*
X129Y742D02*
X136Y742D01*
X820Y742D02*
X827Y742D01*
X945Y742D02*
X952Y742D01*
X0Y741D02*
X7Y741D01*
X129Y741D02*
X136Y741D01*
X820Y741D02*
X827Y741D01*
X945Y741D02*
X952Y741D01*
X0Y740D02*
X7Y740D01*
X129Y740D02*
X136Y740D01*
X820Y740D02*
X827Y740D01*
X945Y740D02*
X952Y740D01*
X0Y739D02*
X7Y739D01*
X129Y739D02*
X136Y739D01*
X820Y739D02*
X827Y739D01*
X945Y739D02*
X952Y739D01*
X0Y738D02*
X7Y738D01*
X129Y738D02*
X136Y738D01*
X820Y738D02*
X827Y738D01*
X945Y738D02*
X952Y738D01*
X0Y737D02*
X7Y737D01*
X129Y737D02*
X136Y737D01*
X820Y737D02*
X827Y737D01*
X945Y737D02*
X952Y737D01*
X0Y736D02*
X7Y736D01*
X129Y736D02*
X136Y736D01*
X820Y736D02*
X827Y736D01*
X945Y736D02*
X952Y736D01*
X0Y735D02*
X7Y735D01*
X129Y735D02*
X136Y735D01*
X820Y735D02*
X827Y735D01*
X945Y735D02*
X952Y735D01*
X0Y734D02*
X7Y734D01*
X129Y734D02*
X136Y734D01*
X820Y734D02*
X827Y734D01*
X945Y734D02*
X952Y734D01*
X0Y733D02*
X7Y733D01*
X129Y733D02*
X136Y733D01*
X820Y733D02*
X827Y733D01*
X945Y733D02*
X952Y733D01*
X0Y732D02*
X7Y732D01*
X129Y732D02*
X136Y732D01*
X820Y732D02*
X827Y732D01*
X945Y732D02*
X952Y732D01*
X0Y731D02*
X7Y731D01*
X129Y731D02*
X136Y731D01*
X820Y731D02*
X827Y731D01*
X945Y731D02*
X952Y731D01*
X0Y730D02*
X7Y730D01*
X129Y730D02*
X136Y730D01*
X820Y730D02*
X827Y730D01*
X945Y730D02*
X952Y730D01*
X0Y729D02*
X7Y729D01*
X129Y729D02*
X136Y729D01*
X820Y729D02*
X827Y729D01*
X945Y729D02*
X952Y729D01*
X0Y728D02*
X7Y728D01*
X129Y728D02*
X136Y728D01*
X820Y728D02*
X827Y728D01*
X945Y728D02*
X952Y728D01*
X0Y727D02*
X7Y727D01*
X129Y727D02*
X136Y727D01*
X820Y727D02*
X827Y727D01*
X945Y727D02*
X952Y727D01*
X0Y726D02*
X7Y726D01*
X129Y726D02*
X136Y726D01*
X820Y726D02*
X827Y726D01*
X945Y726D02*
X952Y726D01*
X0Y725D02*
X7Y725D01*
X129Y725D02*
X136Y725D01*
X820Y725D02*
X827Y725D01*
X945Y725D02*
X952Y725D01*
X0Y724D02*
X7Y724D01*
X129Y724D02*
X136Y724D01*
X820Y724D02*
X827Y724D01*
X945Y724D02*
X952Y724D01*
X0Y723D02*
X7Y723D01*
X129Y723D02*
X136Y723D01*
X820Y723D02*
X827Y723D01*
X945Y723D02*
X952Y723D01*
X0Y722D02*
X7Y722D01*
X129Y722D02*
X136Y722D01*
X820Y722D02*
X827Y722D01*
X945Y722D02*
X952Y722D01*
X0Y721D02*
X7Y721D01*
X129Y721D02*
X136Y721D01*
X820Y721D02*
X827Y721D01*
X945Y721D02*
X952Y721D01*
X0Y720D02*
X7Y720D01*
X129Y720D02*
X136Y720D01*
X820Y720D02*
X827Y720D01*
X945Y720D02*
X952Y720D01*
X0Y719D02*
X7Y719D01*
X129Y719D02*
X136Y719D01*
X820Y719D02*
X827Y719D01*
X945Y719D02*
X952Y719D01*
X0Y718D02*
X7Y718D01*
X129Y718D02*
X136Y718D01*
X820Y718D02*
X827Y718D01*
X945Y718D02*
X952Y718D01*
X0Y717D02*
X7Y717D01*
X129Y717D02*
X136Y717D01*
X820Y717D02*
X827Y717D01*
X945Y717D02*
X952Y717D01*
X0Y716D02*
X7Y716D01*
X129Y716D02*
X136Y716D01*
X820Y716D02*
X827Y716D01*
X945Y716D02*
X952Y716D01*
X0Y715D02*
X7Y715D01*
X129Y715D02*
X136Y715D01*
X820Y715D02*
X827Y715D01*
X945Y715D02*
X952Y715D01*
X0Y714D02*
X7Y714D01*
X129Y714D02*
X136Y714D01*
X820Y714D02*
X827Y714D01*
X945Y714D02*
X952Y714D01*
X0Y713D02*
X7Y713D01*
X129Y713D02*
X136Y713D01*
X820Y713D02*
X827Y713D01*
X945Y713D02*
X952Y713D01*
X0Y712D02*
X7Y712D01*
X129Y712D02*
X136Y712D01*
X820Y712D02*
X827Y712D01*
X945Y712D02*
X952Y712D01*
X0Y711D02*
X7Y711D01*
X129Y711D02*
X136Y711D01*
X820Y711D02*
X827Y711D01*
X945Y711D02*
X952Y711D01*
X0Y710D02*
X7Y710D01*
X129Y710D02*
X136Y710D01*
X820Y710D02*
X827Y710D01*
X945Y710D02*
X952Y710D01*
X0Y709D02*
X7Y709D01*
X129Y709D02*
X136Y709D01*
X820Y709D02*
X827Y709D01*
X945Y709D02*
X952Y709D01*
X0Y708D02*
X7Y708D01*
X129Y708D02*
X136Y708D01*
X820Y708D02*
X827Y708D01*
X945Y708D02*
X952Y708D01*
X0Y707D02*
X7Y707D01*
X129Y707D02*
X136Y707D01*
X820Y707D02*
X827Y707D01*
X945Y707D02*
X952Y707D01*
X0Y706D02*
X7Y706D01*
X129Y706D02*
X136Y706D01*
X820Y706D02*
X827Y706D01*
X945Y706D02*
X952Y706D01*
X0Y705D02*
X7Y705D01*
X129Y705D02*
X136Y705D01*
X820Y705D02*
X827Y705D01*
X945Y705D02*
X952Y705D01*
X0Y704D02*
X7Y704D01*
X129Y704D02*
X136Y704D01*
X820Y704D02*
X827Y704D01*
X945Y704D02*
X952Y704D01*
X0Y703D02*
X7Y703D01*
X129Y703D02*
X136Y703D01*
X820Y703D02*
X827Y703D01*
X945Y703D02*
X952Y703D01*
X0Y702D02*
X7Y702D01*
X129Y702D02*
X136Y702D01*
X820Y702D02*
X827Y702D01*
X945Y702D02*
X952Y702D01*
X0Y701D02*
X7Y701D01*
X129Y701D02*
X136Y701D01*
X820Y701D02*
X827Y701D01*
X945Y701D02*
X952Y701D01*
X0Y700D02*
X7Y700D01*
X129Y700D02*
X136Y700D01*
X820Y700D02*
X827Y700D01*
X945Y700D02*
X952Y700D01*
X0Y699D02*
X7Y699D01*
X129Y699D02*
X136Y699D01*
X820Y699D02*
X827Y699D01*
X945Y699D02*
X952Y699D01*
X0Y698D02*
X7Y698D01*
X129Y698D02*
X136Y698D01*
X820Y698D02*
X827Y698D01*
X945Y698D02*
X952Y698D01*
X0Y697D02*
X7Y697D01*
X129Y697D02*
X136Y697D01*
X820Y697D02*
X827Y697D01*
X945Y697D02*
X952Y697D01*
X0Y696D02*
X7Y696D01*
X129Y696D02*
X136Y696D01*
X820Y696D02*
X827Y696D01*
X945Y696D02*
X952Y696D01*
X0Y695D02*
X7Y695D01*
X129Y695D02*
X136Y695D01*
X820Y695D02*
X827Y695D01*
X945Y695D02*
X952Y695D01*
X0Y694D02*
X7Y694D01*
X129Y694D02*
X136Y694D01*
X820Y694D02*
X827Y694D01*
X945Y694D02*
X952Y694D01*
X0Y693D02*
X7Y693D01*
X129Y693D02*
X136Y693D01*
X820Y693D02*
X827Y693D01*
X945Y693D02*
X952Y693D01*
X0Y692D02*
X7Y692D01*
X129Y692D02*
X136Y692D01*
X820Y692D02*
X827Y692D01*
X945Y692D02*
X952Y692D01*
X0Y691D02*
X7Y691D01*
X129Y691D02*
X136Y691D01*
X820Y691D02*
X827Y691D01*
X945Y691D02*
X952Y691D01*
X0Y690D02*
X7Y690D01*
X129Y690D02*
X136Y690D01*
X820Y690D02*
X827Y690D01*
X945Y690D02*
X952Y690D01*
X0Y689D02*
X7Y689D01*
X129Y689D02*
X136Y689D01*
X820Y689D02*
X827Y689D01*
X945Y689D02*
X952Y689D01*
X0Y688D02*
X7Y688D01*
X129Y688D02*
X136Y688D01*
X820Y688D02*
X827Y688D01*
X945Y688D02*
X952Y688D01*
X0Y687D02*
X7Y687D01*
X129Y687D02*
X136Y687D01*
X820Y687D02*
X827Y687D01*
X945Y687D02*
X952Y687D01*
X0Y686D02*
X7Y686D01*
X129Y686D02*
X136Y686D01*
X820Y686D02*
X827Y686D01*
X945Y686D02*
X952Y686D01*
X0Y685D02*
X7Y685D01*
X129Y685D02*
X136Y685D01*
X820Y685D02*
X827Y685D01*
X945Y685D02*
X952Y685D01*
X0Y684D02*
X7Y684D01*
X129Y684D02*
X136Y684D01*
X820Y684D02*
X827Y684D01*
X945Y684D02*
X952Y684D01*
X0Y683D02*
X7Y683D01*
X129Y683D02*
X136Y683D01*
X820Y683D02*
X827Y683D01*
X945Y683D02*
X952Y683D01*
X0Y682D02*
X7Y682D01*
X129Y682D02*
X136Y682D01*
X820Y682D02*
X827Y682D01*
X945Y682D02*
X952Y682D01*
X0Y681D02*
X7Y681D01*
X129Y681D02*
X136Y681D01*
X820Y681D02*
X827Y681D01*
X945Y681D02*
X952Y681D01*
X0Y680D02*
X7Y680D01*
X129Y680D02*
X136Y680D01*
X820Y680D02*
X827Y680D01*
X945Y680D02*
X952Y680D01*
X0Y679D02*
X7Y679D01*
X129Y679D02*
X136Y679D01*
X820Y679D02*
X827Y679D01*
X945Y679D02*
X952Y679D01*
X0Y678D02*
X7Y678D01*
X129Y678D02*
X136Y678D01*
X820Y678D02*
X827Y678D01*
X945Y678D02*
X952Y678D01*
X0Y677D02*
X7Y677D01*
X129Y677D02*
X136Y677D01*
X820Y677D02*
X827Y677D01*
X945Y677D02*
X952Y677D01*
X0Y676D02*
X7Y676D01*
X129Y676D02*
X136Y676D01*
X820Y676D02*
X827Y676D01*
X945Y676D02*
X952Y676D01*
X0Y675D02*
X7Y675D01*
X129Y675D02*
X136Y675D01*
X820Y675D02*
X827Y675D01*
X945Y675D02*
X952Y675D01*
X0Y674D02*
X7Y674D01*
X129Y674D02*
X136Y674D01*
X820Y674D02*
X827Y674D01*
X945Y674D02*
X952Y674D01*
X0Y673D02*
X7Y673D01*
X129Y673D02*
X136Y673D01*
X820Y673D02*
X827Y673D01*
X945Y673D02*
X952Y673D01*
X0Y672D02*
X7Y672D01*
X129Y672D02*
X136Y672D01*
X820Y672D02*
X827Y672D01*
X945Y672D02*
X952Y672D01*
X0Y671D02*
X7Y671D01*
X129Y671D02*
X136Y671D01*
X820Y671D02*
X827Y671D01*
X945Y671D02*
X952Y671D01*
X0Y670D02*
X7Y670D01*
X129Y670D02*
X136Y670D01*
X820Y670D02*
X827Y670D01*
X945Y670D02*
X952Y670D01*
X0Y669D02*
X7Y669D01*
X129Y669D02*
X136Y669D01*
X820Y669D02*
X827Y669D01*
X945Y669D02*
X952Y669D01*
X0Y668D02*
X7Y668D01*
X129Y668D02*
X136Y668D01*
X820Y668D02*
X827Y668D01*
X945Y668D02*
X952Y668D01*
X0Y667D02*
X7Y667D01*
X129Y667D02*
X136Y667D01*
X820Y667D02*
X827Y667D01*
X945Y667D02*
X952Y667D01*
X0Y666D02*
X7Y666D01*
X129Y666D02*
X136Y666D01*
X820Y666D02*
X827Y666D01*
X945Y666D02*
X952Y666D01*
X0Y665D02*
X7Y665D01*
X129Y665D02*
X136Y665D01*
X820Y665D02*
X827Y665D01*
X945Y665D02*
X952Y665D01*
X0Y664D02*
X7Y664D01*
X129Y664D02*
X136Y664D01*
X820Y664D02*
X827Y664D01*
X945Y664D02*
X952Y664D01*
X0Y663D02*
X7Y663D01*
X129Y663D02*
X136Y663D01*
X820Y663D02*
X827Y663D01*
X945Y663D02*
X952Y663D01*
X0Y662D02*
X7Y662D01*
X129Y662D02*
X136Y662D01*
X820Y662D02*
X827Y662D01*
X945Y662D02*
X952Y662D01*
X0Y661D02*
X7Y661D01*
X129Y661D02*
X136Y661D01*
X820Y661D02*
X827Y661D01*
X945Y661D02*
X952Y661D01*
X0Y660D02*
X7Y660D01*
X129Y660D02*
X136Y660D01*
X820Y660D02*
X827Y660D01*
X945Y660D02*
X952Y660D01*
X0Y659D02*
X7Y659D01*
X129Y659D02*
X136Y659D01*
X820Y659D02*
X827Y659D01*
X945Y659D02*
X952Y659D01*
X0Y658D02*
X7Y658D01*
X129Y658D02*
X136Y658D01*
X820Y658D02*
X827Y658D01*
X945Y658D02*
X952Y658D01*
X0Y657D02*
X7Y657D01*
X129Y657D02*
X136Y657D01*
X820Y657D02*
X827Y657D01*
X945Y657D02*
X952Y657D01*
X0Y656D02*
X7Y656D01*
X129Y656D02*
X136Y656D01*
X820Y656D02*
X827Y656D01*
X945Y656D02*
X952Y656D01*
X0Y655D02*
X7Y655D01*
X129Y655D02*
X136Y655D01*
X820Y655D02*
X827Y655D01*
X945Y655D02*
X952Y655D01*
X0Y654D02*
X7Y654D01*
X129Y654D02*
X136Y654D01*
X820Y654D02*
X827Y654D01*
X945Y654D02*
X952Y654D01*
X0Y653D02*
X7Y653D01*
X129Y653D02*
X136Y653D01*
X820Y653D02*
X827Y653D01*
X945Y653D02*
X952Y653D01*
X0Y652D02*
X7Y652D01*
X129Y652D02*
X136Y652D01*
X820Y652D02*
X827Y652D01*
X945Y652D02*
X952Y652D01*
X0Y651D02*
X7Y651D01*
X129Y651D02*
X136Y651D01*
X820Y651D02*
X827Y651D01*
X945Y651D02*
X952Y651D01*
X0Y650D02*
X7Y650D01*
X129Y650D02*
X136Y650D01*
X820Y650D02*
X827Y650D01*
X945Y650D02*
X952Y650D01*
X0Y649D02*
X7Y649D01*
X129Y649D02*
X136Y649D01*
X820Y649D02*
X827Y649D01*
X945Y649D02*
X952Y649D01*
X0Y648D02*
X7Y648D01*
X129Y648D02*
X136Y648D01*
X820Y648D02*
X827Y648D01*
X945Y648D02*
X952Y648D01*
X0Y647D02*
X7Y647D01*
X129Y647D02*
X136Y647D01*
X820Y647D02*
X827Y647D01*
X945Y647D02*
X952Y647D01*
X0Y646D02*
X7Y646D01*
X129Y646D02*
X136Y646D01*
X820Y646D02*
X827Y646D01*
X945Y646D02*
X952Y646D01*
X0Y645D02*
X7Y645D01*
X129Y645D02*
X136Y645D01*
X820Y645D02*
X827Y645D01*
X945Y645D02*
X952Y645D01*
X0Y644D02*
X7Y644D01*
X129Y644D02*
X136Y644D01*
X820Y644D02*
X827Y644D01*
X945Y644D02*
X952Y644D01*
X0Y643D02*
X7Y643D01*
X129Y643D02*
X136Y643D01*
X820Y643D02*
X827Y643D01*
X945Y643D02*
X952Y643D01*
X0Y642D02*
X7Y642D01*
X129Y642D02*
X136Y642D01*
X820Y642D02*
X827Y642D01*
X945Y642D02*
X952Y642D01*
X0Y641D02*
X7Y641D01*
X129Y641D02*
X136Y641D01*
X820Y641D02*
X827Y641D01*
X945Y641D02*
X952Y641D01*
X0Y640D02*
X7Y640D01*
X129Y640D02*
X136Y640D01*
X820Y640D02*
X827Y640D01*
X945Y640D02*
X952Y640D01*
X0Y639D02*
X7Y639D01*
X129Y639D02*
X136Y639D01*
X820Y639D02*
X827Y639D01*
X945Y639D02*
X952Y639D01*
X0Y638D02*
X7Y638D01*
X129Y638D02*
X136Y638D01*
X820Y638D02*
X827Y638D01*
X945Y638D02*
X952Y638D01*
X0Y637D02*
X7Y637D01*
X129Y637D02*
X136Y637D01*
X820Y637D02*
X827Y637D01*
X945Y637D02*
X952Y637D01*
X0Y636D02*
X7Y636D01*
X129Y636D02*
X136Y636D01*
X820Y636D02*
X827Y636D01*
X945Y636D02*
X952Y636D01*
X0Y635D02*
X7Y635D01*
X129Y635D02*
X136Y635D01*
X820Y635D02*
X827Y635D01*
X945Y635D02*
X952Y635D01*
X0Y634D02*
X7Y634D01*
X129Y634D02*
X136Y634D01*
X820Y634D02*
X827Y634D01*
X945Y634D02*
X952Y634D01*
X0Y633D02*
X7Y633D01*
X129Y633D02*
X136Y633D01*
X820Y633D02*
X827Y633D01*
X945Y633D02*
X952Y633D01*
X0Y632D02*
X7Y632D01*
X129Y632D02*
X136Y632D01*
X820Y632D02*
X827Y632D01*
X945Y632D02*
X952Y632D01*
X0Y631D02*
X7Y631D01*
X129Y631D02*
X136Y631D01*
X820Y631D02*
X827Y631D01*
X945Y631D02*
X952Y631D01*
X0Y630D02*
X7Y630D01*
X129Y630D02*
X136Y630D01*
X820Y630D02*
X827Y630D01*
X945Y630D02*
X952Y630D01*
X0Y629D02*
X7Y629D01*
X129Y629D02*
X136Y629D01*
X820Y629D02*
X827Y629D01*
X945Y629D02*
X952Y629D01*
X0Y628D02*
X7Y628D01*
X129Y628D02*
X136Y628D01*
X820Y628D02*
X827Y628D01*
X945Y628D02*
X952Y628D01*
X0Y627D02*
X7Y627D01*
X129Y627D02*
X136Y627D01*
X820Y627D02*
X827Y627D01*
X945Y627D02*
X952Y627D01*
X0Y626D02*
X7Y626D01*
X129Y626D02*
X136Y626D01*
X820Y626D02*
X827Y626D01*
X945Y626D02*
X952Y626D01*
X0Y625D02*
X7Y625D01*
X129Y625D02*
X136Y625D01*
X820Y625D02*
X827Y625D01*
X945Y625D02*
X952Y625D01*
X0Y624D02*
X7Y624D01*
X129Y624D02*
X136Y624D01*
X820Y624D02*
X827Y624D01*
X945Y624D02*
X952Y624D01*
X0Y623D02*
X7Y623D01*
X129Y623D02*
X136Y623D01*
X820Y623D02*
X827Y623D01*
X945Y623D02*
X952Y623D01*
X0Y622D02*
X7Y622D01*
X129Y622D02*
X136Y622D01*
X820Y622D02*
X827Y622D01*
X945Y622D02*
X952Y622D01*
X0Y621D02*
X7Y621D01*
X129Y621D02*
X136Y621D01*
X820Y621D02*
X827Y621D01*
X945Y621D02*
X952Y621D01*
X0Y620D02*
X7Y620D01*
X129Y620D02*
X136Y620D01*
X820Y620D02*
X827Y620D01*
X945Y620D02*
X952Y620D01*
X0Y619D02*
X7Y619D01*
X129Y619D02*
X136Y619D01*
X820Y619D02*
X827Y619D01*
X945Y619D02*
X952Y619D01*
X0Y618D02*
X7Y618D01*
X129Y618D02*
X136Y618D01*
X820Y618D02*
X827Y618D01*
X945Y618D02*
X952Y618D01*
X0Y617D02*
X7Y617D01*
X129Y617D02*
X136Y617D01*
X820Y617D02*
X827Y617D01*
X945Y617D02*
X952Y617D01*
X0Y616D02*
X7Y616D01*
X129Y616D02*
X136Y616D01*
X820Y616D02*
X827Y616D01*
X945Y616D02*
X952Y616D01*
X0Y615D02*
X7Y615D01*
X129Y615D02*
X136Y615D01*
X820Y615D02*
X827Y615D01*
X945Y615D02*
X952Y615D01*
X0Y614D02*
X7Y614D01*
X129Y614D02*
X136Y614D01*
X820Y614D02*
X827Y614D01*
X945Y614D02*
X952Y614D01*
X0Y613D02*
X7Y613D01*
X129Y613D02*
X136Y613D01*
X820Y613D02*
X827Y613D01*
X945Y613D02*
X952Y613D01*
X0Y612D02*
X7Y612D01*
X129Y612D02*
X136Y612D01*
X820Y612D02*
X827Y612D01*
X945Y612D02*
X952Y612D01*
X0Y611D02*
X7Y611D01*
X129Y611D02*
X136Y611D01*
X820Y611D02*
X827Y611D01*
X945Y611D02*
X952Y611D01*
X0Y610D02*
X7Y610D01*
X129Y610D02*
X136Y610D01*
X820Y610D02*
X827Y610D01*
X945Y610D02*
X952Y610D01*
X0Y609D02*
X7Y609D01*
X129Y609D02*
X136Y609D01*
X820Y609D02*
X827Y609D01*
X945Y609D02*
X952Y609D01*
X0Y608D02*
X7Y608D01*
X129Y608D02*
X136Y608D01*
X820Y608D02*
X827Y608D01*
X945Y608D02*
X952Y608D01*
X0Y607D02*
X7Y607D01*
X129Y607D02*
X136Y607D01*
X820Y607D02*
X827Y607D01*
X945Y607D02*
X952Y607D01*
X0Y606D02*
X7Y606D01*
X129Y606D02*
X136Y606D01*
X820Y606D02*
X827Y606D01*
X945Y606D02*
X952Y606D01*
X0Y605D02*
X7Y605D01*
X129Y605D02*
X136Y605D01*
X820Y605D02*
X827Y605D01*
X945Y605D02*
X952Y605D01*
X0Y604D02*
X7Y604D01*
X129Y604D02*
X136Y604D01*
X820Y604D02*
X827Y604D01*
X945Y604D02*
X952Y604D01*
X0Y603D02*
X7Y603D01*
X129Y603D02*
X136Y603D01*
X820Y603D02*
X827Y603D01*
X945Y603D02*
X952Y603D01*
X0Y602D02*
X7Y602D01*
X129Y602D02*
X136Y602D01*
X820Y602D02*
X827Y602D01*
X945Y602D02*
X952Y602D01*
X0Y601D02*
X7Y601D01*
X129Y601D02*
X136Y601D01*
X820Y601D02*
X827Y601D01*
X945Y601D02*
X952Y601D01*
X0Y600D02*
X7Y600D01*
X129Y600D02*
X136Y600D01*
X820Y600D02*
X827Y600D01*
X945Y600D02*
X952Y600D01*
X0Y599D02*
X7Y599D01*
X129Y599D02*
X136Y599D01*
X820Y599D02*
X827Y599D01*
X945Y599D02*
X952Y599D01*
X0Y598D02*
X7Y598D01*
X129Y598D02*
X136Y598D01*
X820Y598D02*
X827Y598D01*
X945Y598D02*
X952Y598D01*
X0Y597D02*
X7Y597D01*
X129Y597D02*
X136Y597D01*
X820Y597D02*
X827Y597D01*
X945Y597D02*
X952Y597D01*
X0Y596D02*
X7Y596D01*
X129Y596D02*
X136Y596D01*
X820Y596D02*
X827Y596D01*
X945Y596D02*
X952Y596D01*
X0Y595D02*
X7Y595D01*
X129Y595D02*
X136Y595D01*
X820Y595D02*
X827Y595D01*
X945Y595D02*
X952Y595D01*
X0Y594D02*
X7Y594D01*
X129Y594D02*
X136Y594D01*
X820Y594D02*
X827Y594D01*
X945Y594D02*
X952Y594D01*
X0Y593D02*
X7Y593D01*
X129Y593D02*
X136Y593D01*
X820Y593D02*
X827Y593D01*
X945Y593D02*
X952Y593D01*
X0Y592D02*
X7Y592D01*
X129Y592D02*
X136Y592D01*
X820Y592D02*
X827Y592D01*
X945Y592D02*
X952Y592D01*
X0Y591D02*
X7Y591D01*
X129Y591D02*
X136Y591D01*
X820Y591D02*
X827Y591D01*
X945Y591D02*
X952Y591D01*
X0Y590D02*
X7Y590D01*
X129Y590D02*
X136Y590D01*
X820Y590D02*
X827Y590D01*
X945Y590D02*
X952Y590D01*
X0Y589D02*
X7Y589D01*
X129Y589D02*
X136Y589D01*
X820Y589D02*
X827Y589D01*
X945Y589D02*
X952Y589D01*
X0Y588D02*
X7Y588D01*
X129Y588D02*
X136Y588D01*
X820Y588D02*
X827Y588D01*
X945Y588D02*
X952Y588D01*
X0Y587D02*
X7Y587D01*
X129Y587D02*
X136Y587D01*
X820Y587D02*
X827Y587D01*
X945Y587D02*
X952Y587D01*
X0Y586D02*
X7Y586D01*
X129Y586D02*
X136Y586D01*
X820Y586D02*
X827Y586D01*
X945Y586D02*
X952Y586D01*
X0Y585D02*
X7Y585D01*
X129Y585D02*
X136Y585D01*
X820Y585D02*
X827Y585D01*
X945Y585D02*
X952Y585D01*
X0Y584D02*
X7Y584D01*
X129Y584D02*
X136Y584D01*
X820Y584D02*
X827Y584D01*
X945Y584D02*
X952Y584D01*
X0Y583D02*
X7Y583D01*
X129Y583D02*
X136Y583D01*
X820Y583D02*
X827Y583D01*
X945Y583D02*
X952Y583D01*
X0Y582D02*
X7Y582D01*
X129Y582D02*
X136Y582D01*
X820Y582D02*
X827Y582D01*
X945Y582D02*
X952Y582D01*
X0Y581D02*
X7Y581D01*
X129Y581D02*
X136Y581D01*
X820Y581D02*
X827Y581D01*
X945Y581D02*
X952Y581D01*
X0Y580D02*
X7Y580D01*
X129Y580D02*
X136Y580D01*
X820Y580D02*
X827Y580D01*
X945Y580D02*
X952Y580D01*
X0Y579D02*
X7Y579D01*
X129Y579D02*
X136Y579D01*
X820Y579D02*
X827Y579D01*
X945Y579D02*
X952Y579D01*
X0Y578D02*
X7Y578D01*
X129Y578D02*
X136Y578D01*
X820Y578D02*
X827Y578D01*
X945Y578D02*
X952Y578D01*
X0Y577D02*
X7Y577D01*
X129Y577D02*
X136Y577D01*
X820Y577D02*
X827Y577D01*
X945Y577D02*
X952Y577D01*
X0Y576D02*
X7Y576D01*
X129Y576D02*
X136Y576D01*
X820Y576D02*
X827Y576D01*
X945Y576D02*
X952Y576D01*
X0Y575D02*
X7Y575D01*
X129Y575D02*
X136Y575D01*
X820Y575D02*
X827Y575D01*
X945Y575D02*
X952Y575D01*
X0Y574D02*
X7Y574D01*
X129Y574D02*
X136Y574D01*
X820Y574D02*
X827Y574D01*
X945Y574D02*
X952Y574D01*
X0Y573D02*
X7Y573D01*
X129Y573D02*
X136Y573D01*
X820Y573D02*
X827Y573D01*
X945Y573D02*
X952Y573D01*
X0Y572D02*
X7Y572D01*
X129Y572D02*
X136Y572D01*
X820Y572D02*
X827Y572D01*
X945Y572D02*
X952Y572D01*
X0Y571D02*
X7Y571D01*
X129Y571D02*
X136Y571D01*
X820Y571D02*
X827Y571D01*
X945Y571D02*
X952Y571D01*
X0Y570D02*
X7Y570D01*
X129Y570D02*
X136Y570D01*
X820Y570D02*
X827Y570D01*
X945Y570D02*
X952Y570D01*
X0Y569D02*
X7Y569D01*
X129Y569D02*
X136Y569D01*
X820Y569D02*
X827Y569D01*
X945Y569D02*
X952Y569D01*
X0Y568D02*
X7Y568D01*
X129Y568D02*
X136Y568D01*
X820Y568D02*
X827Y568D01*
X945Y568D02*
X952Y568D01*
X0Y567D02*
X7Y567D01*
X129Y567D02*
X136Y567D01*
X820Y567D02*
X827Y567D01*
X945Y567D02*
X952Y567D01*
X0Y566D02*
X7Y566D01*
X129Y566D02*
X136Y566D01*
X820Y566D02*
X827Y566D01*
X945Y566D02*
X952Y566D01*
X0Y565D02*
X7Y565D01*
X129Y565D02*
X136Y565D01*
X820Y565D02*
X827Y565D01*
X945Y565D02*
X952Y565D01*
X0Y564D02*
X7Y564D01*
X129Y564D02*
X136Y564D01*
X820Y564D02*
X827Y564D01*
X945Y564D02*
X952Y564D01*
X0Y563D02*
X7Y563D01*
X129Y563D02*
X136Y563D01*
X820Y563D02*
X827Y563D01*
X945Y563D02*
X952Y563D01*
X0Y562D02*
X7Y562D01*
X129Y562D02*
X136Y562D01*
X820Y562D02*
X827Y562D01*
X945Y562D02*
X952Y562D01*
X0Y561D02*
X7Y561D01*
X129Y561D02*
X136Y561D01*
X820Y561D02*
X827Y561D01*
X945Y561D02*
X952Y561D01*
X0Y560D02*
X7Y560D01*
X129Y560D02*
X136Y560D01*
X820Y560D02*
X827Y560D01*
X945Y560D02*
X952Y560D01*
X0Y559D02*
X7Y559D01*
X129Y559D02*
X136Y559D01*
X820Y559D02*
X827Y559D01*
X945Y559D02*
X952Y559D01*
X0Y558D02*
X7Y558D01*
X129Y558D02*
X136Y558D01*
X820Y558D02*
X827Y558D01*
X945Y558D02*
X952Y558D01*
X0Y557D02*
X7Y557D01*
X129Y557D02*
X136Y557D01*
X820Y557D02*
X827Y557D01*
X945Y557D02*
X952Y557D01*
X0Y556D02*
X7Y556D01*
X129Y556D02*
X136Y556D01*
X820Y556D02*
X827Y556D01*
X945Y556D02*
X952Y556D01*
X0Y555D02*
X7Y555D01*
X129Y555D02*
X136Y555D01*
X820Y555D02*
X827Y555D01*
X945Y555D02*
X952Y555D01*
X0Y554D02*
X7Y554D01*
X129Y554D02*
X136Y554D01*
X820Y554D02*
X827Y554D01*
X945Y554D02*
X952Y554D01*
X0Y553D02*
X7Y553D01*
X129Y553D02*
X136Y553D01*
X820Y553D02*
X827Y553D01*
X945Y553D02*
X952Y553D01*
X0Y552D02*
X7Y552D01*
X129Y552D02*
X136Y552D01*
X820Y552D02*
X827Y552D01*
X945Y552D02*
X952Y552D01*
X0Y551D02*
X7Y551D01*
X129Y551D02*
X136Y551D01*
X820Y551D02*
X827Y551D01*
X945Y551D02*
X952Y551D01*
X0Y550D02*
X7Y550D01*
X129Y550D02*
X136Y550D01*
X820Y550D02*
X827Y550D01*
X945Y550D02*
X952Y550D01*
X0Y549D02*
X7Y549D01*
X129Y549D02*
X136Y549D01*
X820Y549D02*
X827Y549D01*
X945Y549D02*
X952Y549D01*
X0Y548D02*
X7Y548D01*
X129Y548D02*
X136Y548D01*
X820Y548D02*
X827Y548D01*
X945Y548D02*
X952Y548D01*
X0Y547D02*
X7Y547D01*
X129Y547D02*
X136Y547D01*
X820Y547D02*
X827Y547D01*
X945Y547D02*
X952Y547D01*
X0Y546D02*
X7Y546D01*
X129Y546D02*
X136Y546D01*
X820Y546D02*
X827Y546D01*
X945Y546D02*
X952Y546D01*
X0Y545D02*
X7Y545D01*
X129Y545D02*
X136Y545D01*
X820Y545D02*
X827Y545D01*
X945Y545D02*
X952Y545D01*
X0Y544D02*
X7Y544D01*
X129Y544D02*
X136Y544D01*
X820Y544D02*
X827Y544D01*
X945Y544D02*
X952Y544D01*
X0Y543D02*
X7Y543D01*
X129Y543D02*
X136Y543D01*
X820Y543D02*
X827Y543D01*
X945Y543D02*
X952Y543D01*
X0Y542D02*
X7Y542D01*
X129Y542D02*
X136Y542D01*
X820Y542D02*
X827Y542D01*
X945Y542D02*
X952Y542D01*
X0Y541D02*
X7Y541D01*
X129Y541D02*
X136Y541D01*
X820Y541D02*
X827Y541D01*
X945Y541D02*
X952Y541D01*
X0Y540D02*
X7Y540D01*
X129Y540D02*
X136Y540D01*
X820Y540D02*
X827Y540D01*
X945Y540D02*
X952Y540D01*
X0Y539D02*
X7Y539D01*
X129Y539D02*
X136Y539D01*
X820Y539D02*
X827Y539D01*
X945Y539D02*
X952Y539D01*
X0Y538D02*
X7Y538D01*
X129Y538D02*
X136Y538D01*
X820Y538D02*
X827Y538D01*
X945Y538D02*
X952Y538D01*
X0Y537D02*
X7Y537D01*
X129Y537D02*
X136Y537D01*
X820Y537D02*
X827Y537D01*
X945Y537D02*
X952Y537D01*
X0Y536D02*
X7Y536D01*
X129Y536D02*
X136Y536D01*
X820Y536D02*
X827Y536D01*
X945Y536D02*
X952Y536D01*
X0Y535D02*
X7Y535D01*
X129Y535D02*
X136Y535D01*
X820Y535D02*
X827Y535D01*
X945Y535D02*
X952Y535D01*
X0Y534D02*
X7Y534D01*
X129Y534D02*
X136Y534D01*
X820Y534D02*
X827Y534D01*
X945Y534D02*
X952Y534D01*
X0Y533D02*
X7Y533D01*
X129Y533D02*
X136Y533D01*
X820Y533D02*
X827Y533D01*
X945Y533D02*
X952Y533D01*
X0Y532D02*
X7Y532D01*
X129Y532D02*
X136Y532D01*
X820Y532D02*
X827Y532D01*
X945Y532D02*
X952Y532D01*
X0Y531D02*
X7Y531D01*
X129Y531D02*
X136Y531D01*
X820Y531D02*
X827Y531D01*
X945Y531D02*
X952Y531D01*
X0Y530D02*
X7Y530D01*
X129Y530D02*
X136Y530D01*
X820Y530D02*
X827Y530D01*
X945Y530D02*
X952Y530D01*
X0Y529D02*
X7Y529D01*
X129Y529D02*
X136Y529D01*
X820Y529D02*
X827Y529D01*
X945Y529D02*
X952Y529D01*
X0Y528D02*
X7Y528D01*
X129Y528D02*
X136Y528D01*
X820Y528D02*
X827Y528D01*
X945Y528D02*
X952Y528D01*
X0Y527D02*
X7Y527D01*
X129Y527D02*
X136Y527D01*
X820Y527D02*
X827Y527D01*
X945Y527D02*
X952Y527D01*
X0Y526D02*
X7Y526D01*
X129Y526D02*
X136Y526D01*
X820Y526D02*
X827Y526D01*
X945Y526D02*
X952Y526D01*
X0Y525D02*
X7Y525D01*
X129Y525D02*
X136Y525D01*
X820Y525D02*
X827Y525D01*
X945Y525D02*
X952Y525D01*
X0Y524D02*
X7Y524D01*
X129Y524D02*
X136Y524D01*
X820Y524D02*
X827Y524D01*
X945Y524D02*
X952Y524D01*
X0Y523D02*
X7Y523D01*
X129Y523D02*
X136Y523D01*
X820Y523D02*
X827Y523D01*
X945Y523D02*
X952Y523D01*
X0Y522D02*
X7Y522D01*
X129Y522D02*
X136Y522D01*
X820Y522D02*
X827Y522D01*
X945Y522D02*
X952Y522D01*
X0Y521D02*
X7Y521D01*
X129Y521D02*
X136Y521D01*
X820Y521D02*
X827Y521D01*
X945Y521D02*
X952Y521D01*
X0Y520D02*
X7Y520D01*
X129Y520D02*
X136Y520D01*
X820Y520D02*
X827Y520D01*
X945Y520D02*
X952Y520D01*
X0Y519D02*
X7Y519D01*
X129Y519D02*
X136Y519D01*
X820Y519D02*
X827Y519D01*
X945Y519D02*
X952Y519D01*
X0Y518D02*
X7Y518D01*
X129Y518D02*
X136Y518D01*
X820Y518D02*
X827Y518D01*
X945Y518D02*
X952Y518D01*
X0Y517D02*
X7Y517D01*
X129Y517D02*
X136Y517D01*
X820Y517D02*
X827Y517D01*
X945Y517D02*
X952Y517D01*
X0Y516D02*
X7Y516D01*
X129Y516D02*
X136Y516D01*
X820Y516D02*
X827Y516D01*
X945Y516D02*
X952Y516D01*
X0Y515D02*
X7Y515D01*
X129Y515D02*
X136Y515D01*
X820Y515D02*
X827Y515D01*
X945Y515D02*
X952Y515D01*
X0Y514D02*
X7Y514D01*
X129Y514D02*
X136Y514D01*
X820Y514D02*
X827Y514D01*
X945Y514D02*
X952Y514D01*
X0Y513D02*
X7Y513D01*
X129Y513D02*
X136Y513D01*
X820Y513D02*
X827Y513D01*
X945Y513D02*
X952Y513D01*
X0Y512D02*
X7Y512D01*
X129Y512D02*
X136Y512D01*
X820Y512D02*
X827Y512D01*
X945Y512D02*
X952Y512D01*
X0Y511D02*
X7Y511D01*
X129Y511D02*
X136Y511D01*
X820Y511D02*
X827Y511D01*
X945Y511D02*
X952Y511D01*
X0Y510D02*
X7Y510D01*
X129Y510D02*
X136Y510D01*
X820Y510D02*
X827Y510D01*
X945Y510D02*
X952Y510D01*
X0Y509D02*
X7Y509D01*
X129Y509D02*
X136Y509D01*
X820Y509D02*
X827Y509D01*
X945Y509D02*
X952Y509D01*
X0Y508D02*
X7Y508D01*
X129Y508D02*
X136Y508D01*
X820Y508D02*
X827Y508D01*
X945Y508D02*
X952Y508D01*
X0Y507D02*
X7Y507D01*
X129Y507D02*
X136Y507D01*
X820Y507D02*
X827Y507D01*
X945Y507D02*
X952Y507D01*
X0Y506D02*
X7Y506D01*
X129Y506D02*
X136Y506D01*
X820Y506D02*
X827Y506D01*
X945Y506D02*
X952Y506D01*
X0Y505D02*
X7Y505D01*
X129Y505D02*
X136Y505D01*
X820Y505D02*
X827Y505D01*
X945Y505D02*
X952Y505D01*
X0Y504D02*
X7Y504D01*
X129Y504D02*
X136Y504D01*
X820Y504D02*
X827Y504D01*
X945Y504D02*
X952Y504D01*
X0Y503D02*
X7Y503D01*
X129Y503D02*
X136Y503D01*
X820Y503D02*
X827Y503D01*
X945Y503D02*
X952Y503D01*
X0Y502D02*
X7Y502D01*
X129Y502D02*
X136Y502D01*
X820Y502D02*
X827Y502D01*
X945Y502D02*
X952Y502D01*
X0Y501D02*
X7Y501D01*
X129Y501D02*
X136Y501D01*
X820Y501D02*
X827Y501D01*
X945Y501D02*
X952Y501D01*
X0Y500D02*
X7Y500D01*
X129Y500D02*
X136Y500D01*
X820Y500D02*
X827Y500D01*
X945Y500D02*
X952Y500D01*
X0Y499D02*
X7Y499D01*
X129Y499D02*
X136Y499D01*
X820Y499D02*
X827Y499D01*
X945Y499D02*
X952Y499D01*
X0Y498D02*
X7Y498D01*
X129Y498D02*
X136Y498D01*
X820Y498D02*
X827Y498D01*
X945Y498D02*
X952Y498D01*
X0Y497D02*
X7Y497D01*
X129Y497D02*
X136Y497D01*
X820Y497D02*
X827Y497D01*
X945Y497D02*
X952Y497D01*
X0Y496D02*
X7Y496D01*
X129Y496D02*
X136Y496D01*
X820Y496D02*
X827Y496D01*
X945Y496D02*
X952Y496D01*
X0Y495D02*
X7Y495D01*
X129Y495D02*
X136Y495D01*
X820Y495D02*
X827Y495D01*
X945Y495D02*
X952Y495D01*
X0Y494D02*
X7Y494D01*
X129Y494D02*
X136Y494D01*
X820Y494D02*
X827Y494D01*
X945Y494D02*
X952Y494D01*
X0Y493D02*
X7Y493D01*
X129Y493D02*
X136Y493D01*
X820Y493D02*
X827Y493D01*
X945Y493D02*
X952Y493D01*
X0Y492D02*
X7Y492D01*
X129Y492D02*
X136Y492D01*
X820Y492D02*
X827Y492D01*
X945Y492D02*
X952Y492D01*
X0Y491D02*
X7Y491D01*
X129Y491D02*
X136Y491D01*
X820Y491D02*
X827Y491D01*
X945Y491D02*
X952Y491D01*
X0Y490D02*
X7Y490D01*
X129Y490D02*
X136Y490D01*
X820Y490D02*
X827Y490D01*
X945Y490D02*
X952Y490D01*
X0Y489D02*
X7Y489D01*
X129Y489D02*
X136Y489D01*
X820Y489D02*
X827Y489D01*
X945Y489D02*
X952Y489D01*
X0Y488D02*
X7Y488D01*
X129Y488D02*
X136Y488D01*
X820Y488D02*
X827Y488D01*
X945Y488D02*
X952Y488D01*
X0Y487D02*
X7Y487D01*
X129Y487D02*
X136Y487D01*
X820Y487D02*
X827Y487D01*
X945Y487D02*
X952Y487D01*
X0Y486D02*
X7Y486D01*
X129Y486D02*
X136Y486D01*
X820Y486D02*
X827Y486D01*
X945Y486D02*
X952Y486D01*
X0Y485D02*
X7Y485D01*
X129Y485D02*
X136Y485D01*
X820Y485D02*
X827Y485D01*
X945Y485D02*
X952Y485D01*
X0Y484D02*
X7Y484D01*
X129Y484D02*
X136Y484D01*
X820Y484D02*
X827Y484D01*
X945Y484D02*
X952Y484D01*
X0Y483D02*
X7Y483D01*
X129Y483D02*
X136Y483D01*
X820Y483D02*
X827Y483D01*
X945Y483D02*
X952Y483D01*
X0Y482D02*
X7Y482D01*
X129Y482D02*
X136Y482D01*
X820Y482D02*
X827Y482D01*
X945Y482D02*
X952Y482D01*
X0Y481D02*
X7Y481D01*
X129Y481D02*
X136Y481D01*
X820Y481D02*
X827Y481D01*
X945Y481D02*
X952Y481D01*
X0Y480D02*
X7Y480D01*
X129Y480D02*
X136Y480D01*
X820Y480D02*
X827Y480D01*
X945Y480D02*
X952Y480D01*
X0Y479D02*
X7Y479D01*
X129Y479D02*
X136Y479D01*
X820Y479D02*
X827Y479D01*
X945Y479D02*
X952Y479D01*
X0Y478D02*
X7Y478D01*
X129Y478D02*
X136Y478D01*
X820Y478D02*
X827Y478D01*
X945Y478D02*
X952Y478D01*
X0Y477D02*
X7Y477D01*
X129Y477D02*
X136Y477D01*
X820Y477D02*
X827Y477D01*
X945Y477D02*
X952Y477D01*
X0Y476D02*
X7Y476D01*
X129Y476D02*
X136Y476D01*
X820Y476D02*
X827Y476D01*
X945Y476D02*
X952Y476D01*
X0Y475D02*
X7Y475D01*
X129Y475D02*
X136Y475D01*
X820Y475D02*
X827Y475D01*
X945Y475D02*
X952Y475D01*
X0Y474D02*
X7Y474D01*
X129Y474D02*
X136Y474D01*
X820Y474D02*
X827Y474D01*
X945Y474D02*
X952Y474D01*
X0Y473D02*
X7Y473D01*
X129Y473D02*
X136Y473D01*
X820Y473D02*
X827Y473D01*
X945Y473D02*
X952Y473D01*
X0Y472D02*
X7Y472D01*
X129Y472D02*
X136Y472D01*
X820Y472D02*
X827Y472D01*
X945Y472D02*
X952Y472D01*
X0Y471D02*
X7Y471D01*
X129Y471D02*
X136Y471D01*
X820Y471D02*
X827Y471D01*
X945Y471D02*
X952Y471D01*
X0Y470D02*
X7Y470D01*
X129Y470D02*
X136Y470D01*
X820Y470D02*
X827Y470D01*
X945Y470D02*
X952Y470D01*
X0Y469D02*
X7Y469D01*
X129Y469D02*
X136Y469D01*
X820Y469D02*
X827Y469D01*
X945Y469D02*
X952Y469D01*
X0Y468D02*
X7Y468D01*
X129Y468D02*
X136Y468D01*
X820Y468D02*
X827Y468D01*
X945Y468D02*
X952Y468D01*
X0Y467D02*
X7Y467D01*
X129Y467D02*
X136Y467D01*
X820Y467D02*
X827Y467D01*
X945Y467D02*
X952Y467D01*
X0Y466D02*
X7Y466D01*
X129Y466D02*
X136Y466D01*
X820Y466D02*
X827Y466D01*
X945Y466D02*
X952Y466D01*
X0Y465D02*
X7Y465D01*
X129Y465D02*
X136Y465D01*
X820Y465D02*
X827Y465D01*
X945Y465D02*
X952Y465D01*
X0Y464D02*
X7Y464D01*
X129Y464D02*
X136Y464D01*
X820Y464D02*
X827Y464D01*
X945Y464D02*
X952Y464D01*
X0Y463D02*
X7Y463D01*
X129Y463D02*
X136Y463D01*
X820Y463D02*
X827Y463D01*
X945Y463D02*
X952Y463D01*
X0Y462D02*
X7Y462D01*
X129Y462D02*
X136Y462D01*
X820Y462D02*
X827Y462D01*
X945Y462D02*
X952Y462D01*
X0Y461D02*
X7Y461D01*
X129Y461D02*
X136Y461D01*
X820Y461D02*
X827Y461D01*
X945Y461D02*
X952Y461D01*
X0Y460D02*
X7Y460D01*
X129Y460D02*
X136Y460D01*
X820Y460D02*
X827Y460D01*
X945Y460D02*
X952Y460D01*
X0Y459D02*
X7Y459D01*
X129Y459D02*
X136Y459D01*
X820Y459D02*
X827Y459D01*
X945Y459D02*
X952Y459D01*
X0Y458D02*
X7Y458D01*
X129Y458D02*
X136Y458D01*
X820Y458D02*
X827Y458D01*
X945Y458D02*
X952Y458D01*
X0Y457D02*
X7Y457D01*
X129Y457D02*
X136Y457D01*
X820Y457D02*
X827Y457D01*
X945Y457D02*
X952Y457D01*
X0Y456D02*
X7Y456D01*
X129Y456D02*
X136Y456D01*
X820Y456D02*
X827Y456D01*
X945Y456D02*
X952Y456D01*
X0Y455D02*
X7Y455D01*
X129Y455D02*
X136Y455D01*
X820Y455D02*
X827Y455D01*
X945Y455D02*
X952Y455D01*
X0Y454D02*
X7Y454D01*
X129Y454D02*
X136Y454D01*
X820Y454D02*
X827Y454D01*
X945Y454D02*
X952Y454D01*
X0Y453D02*
X7Y453D01*
X129Y453D02*
X136Y453D01*
X820Y453D02*
X827Y453D01*
X945Y453D02*
X952Y453D01*
X0Y452D02*
X7Y452D01*
X129Y452D02*
X136Y452D01*
X820Y452D02*
X827Y452D01*
X945Y452D02*
X952Y452D01*
X0Y451D02*
X7Y451D01*
X129Y451D02*
X136Y451D01*
X820Y451D02*
X827Y451D01*
X945Y451D02*
X952Y451D01*
X0Y450D02*
X7Y450D01*
X129Y450D02*
X136Y450D01*
X820Y450D02*
X827Y450D01*
X945Y450D02*
X952Y450D01*
X0Y449D02*
X7Y449D01*
X129Y449D02*
X136Y449D01*
X820Y449D02*
X827Y449D01*
X945Y449D02*
X952Y449D01*
X0Y448D02*
X7Y448D01*
X129Y448D02*
X136Y448D01*
X820Y448D02*
X827Y448D01*
X945Y448D02*
X952Y448D01*
X0Y447D02*
X7Y447D01*
X129Y447D02*
X136Y447D01*
X820Y447D02*
X827Y447D01*
X945Y447D02*
X952Y447D01*
X0Y446D02*
X7Y446D01*
X129Y446D02*
X136Y446D01*
X820Y446D02*
X827Y446D01*
X945Y446D02*
X952Y446D01*
X0Y445D02*
X7Y445D01*
X129Y445D02*
X136Y445D01*
X820Y445D02*
X827Y445D01*
X945Y445D02*
X952Y445D01*
X0Y444D02*
X7Y444D01*
X129Y444D02*
X136Y444D01*
X820Y444D02*
X827Y444D01*
X945Y444D02*
X952Y444D01*
X0Y443D02*
X7Y443D01*
X129Y443D02*
X136Y443D01*
X820Y443D02*
X827Y443D01*
X945Y443D02*
X952Y443D01*
X0Y442D02*
X7Y442D01*
X129Y442D02*
X136Y442D01*
X820Y442D02*
X827Y442D01*
X945Y442D02*
X952Y442D01*
X0Y441D02*
X7Y441D01*
X129Y441D02*
X136Y441D01*
X820Y441D02*
X827Y441D01*
X945Y441D02*
X952Y441D01*
X0Y440D02*
X7Y440D01*
X129Y440D02*
X136Y440D01*
X820Y440D02*
X827Y440D01*
X945Y440D02*
X952Y440D01*
X0Y439D02*
X7Y439D01*
X129Y439D02*
X136Y439D01*
X820Y439D02*
X827Y439D01*
X945Y439D02*
X952Y439D01*
X0Y438D02*
X7Y438D01*
X129Y438D02*
X136Y438D01*
X820Y438D02*
X827Y438D01*
X945Y438D02*
X952Y438D01*
X0Y437D02*
X7Y437D01*
X129Y437D02*
X136Y437D01*
X820Y437D02*
X827Y437D01*
X945Y437D02*
X952Y437D01*
X0Y436D02*
X7Y436D01*
X129Y436D02*
X136Y436D01*
X820Y436D02*
X827Y436D01*
X945Y436D02*
X952Y436D01*
X0Y435D02*
X7Y435D01*
X129Y435D02*
X136Y435D01*
X820Y435D02*
X827Y435D01*
X945Y435D02*
X952Y435D01*
X0Y434D02*
X7Y434D01*
X129Y434D02*
X136Y434D01*
X820Y434D02*
X827Y434D01*
X945Y434D02*
X952Y434D01*
X0Y433D02*
X7Y433D01*
X129Y433D02*
X136Y433D01*
X820Y433D02*
X827Y433D01*
X945Y433D02*
X952Y433D01*
X0Y432D02*
X7Y432D01*
X129Y432D02*
X136Y432D01*
X820Y432D02*
X827Y432D01*
X945Y432D02*
X952Y432D01*
X0Y431D02*
X7Y431D01*
X129Y431D02*
X136Y431D01*
X820Y431D02*
X827Y431D01*
X945Y431D02*
X952Y431D01*
X0Y430D02*
X7Y430D01*
X129Y430D02*
X136Y430D01*
X820Y430D02*
X827Y430D01*
X945Y430D02*
X952Y430D01*
X0Y429D02*
X7Y429D01*
X129Y429D02*
X136Y429D01*
X820Y429D02*
X827Y429D01*
X945Y429D02*
X952Y429D01*
X0Y428D02*
X7Y428D01*
X129Y428D02*
X136Y428D01*
X820Y428D02*
X827Y428D01*
X945Y428D02*
X952Y428D01*
X0Y427D02*
X7Y427D01*
X129Y427D02*
X136Y427D01*
X820Y427D02*
X827Y427D01*
X945Y427D02*
X952Y427D01*
X0Y426D02*
X7Y426D01*
X129Y426D02*
X136Y426D01*
X820Y426D02*
X827Y426D01*
X945Y426D02*
X952Y426D01*
X0Y425D02*
X7Y425D01*
X129Y425D02*
X136Y425D01*
X820Y425D02*
X827Y425D01*
X945Y425D02*
X952Y425D01*
X0Y424D02*
X7Y424D01*
X129Y424D02*
X136Y424D01*
X820Y424D02*
X827Y424D01*
X945Y424D02*
X952Y424D01*
X0Y423D02*
X7Y423D01*
X129Y423D02*
X136Y423D01*
X820Y423D02*
X827Y423D01*
X945Y423D02*
X952Y423D01*
X0Y422D02*
X7Y422D01*
X129Y422D02*
X136Y422D01*
X820Y422D02*
X827Y422D01*
X945Y422D02*
X952Y422D01*
X0Y421D02*
X7Y421D01*
X129Y421D02*
X136Y421D01*
X820Y421D02*
X827Y421D01*
X945Y421D02*
X952Y421D01*
X0Y420D02*
X7Y420D01*
X129Y420D02*
X136Y420D01*
X820Y420D02*
X827Y420D01*
X945Y420D02*
X952Y420D01*
X0Y419D02*
X7Y419D01*
X129Y419D02*
X136Y419D01*
X820Y419D02*
X827Y419D01*
X945Y419D02*
X952Y419D01*
X0Y418D02*
X7Y418D01*
X129Y418D02*
X136Y418D01*
X820Y418D02*
X827Y418D01*
X945Y418D02*
X952Y418D01*
X0Y417D02*
X7Y417D01*
X129Y417D02*
X136Y417D01*
X820Y417D02*
X827Y417D01*
X945Y417D02*
X952Y417D01*
X0Y416D02*
X7Y416D01*
X129Y416D02*
X136Y416D01*
X820Y416D02*
X827Y416D01*
X945Y416D02*
X952Y416D01*
X0Y415D02*
X7Y415D01*
X129Y415D02*
X136Y415D01*
X820Y415D02*
X827Y415D01*
X945Y415D02*
X952Y415D01*
X0Y414D02*
X7Y414D01*
X129Y414D02*
X136Y414D01*
X820Y414D02*
X827Y414D01*
X945Y414D02*
X952Y414D01*
X0Y413D02*
X7Y413D01*
X129Y413D02*
X136Y413D01*
X820Y413D02*
X827Y413D01*
X945Y413D02*
X952Y413D01*
X0Y412D02*
X7Y412D01*
X129Y412D02*
X136Y412D01*
X820Y412D02*
X827Y412D01*
X945Y412D02*
X952Y412D01*
X0Y411D02*
X7Y411D01*
X129Y411D02*
X136Y411D01*
X820Y411D02*
X827Y411D01*
X945Y411D02*
X952Y411D01*
X0Y410D02*
X7Y410D01*
X129Y410D02*
X136Y410D01*
X820Y410D02*
X827Y410D01*
X945Y410D02*
X952Y410D01*
X0Y409D02*
X7Y409D01*
X129Y409D02*
X136Y409D01*
X820Y409D02*
X827Y409D01*
X945Y409D02*
X952Y409D01*
X0Y408D02*
X7Y408D01*
X129Y408D02*
X136Y408D01*
X820Y408D02*
X827Y408D01*
X945Y408D02*
X952Y408D01*
X0Y407D02*
X7Y407D01*
X129Y407D02*
X136Y407D01*
X820Y407D02*
X827Y407D01*
X945Y407D02*
X952Y407D01*
X0Y406D02*
X7Y406D01*
X129Y406D02*
X136Y406D01*
X820Y406D02*
X827Y406D01*
X945Y406D02*
X952Y406D01*
X0Y405D02*
X7Y405D01*
X129Y405D02*
X136Y405D01*
X820Y405D02*
X827Y405D01*
X945Y405D02*
X952Y405D01*
X0Y404D02*
X7Y404D01*
X129Y404D02*
X136Y404D01*
X820Y404D02*
X827Y404D01*
X945Y404D02*
X952Y404D01*
X0Y403D02*
X7Y403D01*
X129Y403D02*
X136Y403D01*
X820Y403D02*
X827Y403D01*
X945Y403D02*
X952Y403D01*
X0Y402D02*
X7Y402D01*
X129Y402D02*
X136Y402D01*
X820Y402D02*
X827Y402D01*
X945Y402D02*
X952Y402D01*
X0Y401D02*
X7Y401D01*
X129Y401D02*
X136Y401D01*
X820Y401D02*
X827Y401D01*
X945Y401D02*
X952Y401D01*
X0Y400D02*
X7Y400D01*
X129Y400D02*
X136Y400D01*
X820Y400D02*
X827Y400D01*
X945Y400D02*
X952Y400D01*
X0Y399D02*
X7Y399D01*
X129Y399D02*
X136Y399D01*
X820Y399D02*
X827Y399D01*
X945Y399D02*
X952Y399D01*
X0Y398D02*
X7Y398D01*
X129Y398D02*
X136Y398D01*
X820Y398D02*
X827Y398D01*
X945Y398D02*
X952Y398D01*
X0Y397D02*
X7Y397D01*
X129Y397D02*
X136Y397D01*
X820Y397D02*
X827Y397D01*
X945Y397D02*
X952Y397D01*
X0Y396D02*
X7Y396D01*
X129Y396D02*
X136Y396D01*
X820Y396D02*
X827Y396D01*
X945Y396D02*
X952Y396D01*
X0Y395D02*
X7Y395D01*
X129Y395D02*
X136Y395D01*
X820Y395D02*
X827Y395D01*
X945Y395D02*
X952Y395D01*
X0Y394D02*
X7Y394D01*
X129Y394D02*
X136Y394D01*
X820Y394D02*
X827Y394D01*
X945Y394D02*
X952Y394D01*
X0Y393D02*
X7Y393D01*
X129Y393D02*
X136Y393D01*
X820Y393D02*
X827Y393D01*
X945Y393D02*
X952Y393D01*
X0Y392D02*
X7Y392D01*
X129Y392D02*
X136Y392D01*
X820Y392D02*
X827Y392D01*
X945Y392D02*
X952Y392D01*
X0Y391D02*
X7Y391D01*
X129Y391D02*
X136Y391D01*
X820Y391D02*
X827Y391D01*
X945Y391D02*
X952Y391D01*
X0Y390D02*
X7Y390D01*
X129Y390D02*
X136Y390D01*
X820Y390D02*
X827Y390D01*
X945Y390D02*
X952Y390D01*
X0Y389D02*
X7Y389D01*
X129Y389D02*
X136Y389D01*
X820Y389D02*
X827Y389D01*
X945Y389D02*
X952Y389D01*
X0Y388D02*
X7Y388D01*
X129Y388D02*
X136Y388D01*
X820Y388D02*
X827Y388D01*
X945Y388D02*
X952Y388D01*
X0Y387D02*
X7Y387D01*
X129Y387D02*
X136Y387D01*
X820Y387D02*
X827Y387D01*
X945Y387D02*
X952Y387D01*
X0Y386D02*
X7Y386D01*
X129Y386D02*
X136Y386D01*
X820Y386D02*
X827Y386D01*
X945Y386D02*
X952Y386D01*
X0Y385D02*
X7Y385D01*
X129Y385D02*
X136Y385D01*
X820Y385D02*
X827Y385D01*
X945Y385D02*
X952Y385D01*
X0Y384D02*
X7Y384D01*
X129Y384D02*
X136Y384D01*
X820Y384D02*
X827Y384D01*
X945Y384D02*
X952Y384D01*
X0Y383D02*
X7Y383D01*
X129Y383D02*
X136Y383D01*
X820Y383D02*
X827Y383D01*
X945Y383D02*
X952Y383D01*
X0Y382D02*
X7Y382D01*
X129Y382D02*
X136Y382D01*
X820Y382D02*
X827Y382D01*
X945Y382D02*
X952Y382D01*
X0Y381D02*
X7Y381D01*
X129Y381D02*
X136Y381D01*
X820Y381D02*
X827Y381D01*
X945Y381D02*
X952Y381D01*
X0Y380D02*
X7Y380D01*
X129Y380D02*
X136Y380D01*
X820Y380D02*
X827Y380D01*
X945Y380D02*
X952Y380D01*
X0Y379D02*
X7Y379D01*
X129Y379D02*
X136Y379D01*
X820Y379D02*
X827Y379D01*
X945Y379D02*
X952Y379D01*
X0Y378D02*
X7Y378D01*
X129Y378D02*
X136Y378D01*
X820Y378D02*
X827Y378D01*
X945Y378D02*
X952Y378D01*
X0Y377D02*
X7Y377D01*
X129Y377D02*
X136Y377D01*
X820Y377D02*
X827Y377D01*
X945Y377D02*
X952Y377D01*
X0Y376D02*
X7Y376D01*
X129Y376D02*
X136Y376D01*
X820Y376D02*
X827Y376D01*
X945Y376D02*
X952Y376D01*
X0Y375D02*
X7Y375D01*
X129Y375D02*
X136Y375D01*
X820Y375D02*
X827Y375D01*
X945Y375D02*
X952Y375D01*
X0Y374D02*
X7Y374D01*
X129Y374D02*
X136Y374D01*
X820Y374D02*
X827Y374D01*
X945Y374D02*
X952Y374D01*
X0Y373D02*
X7Y373D01*
X129Y373D02*
X136Y373D01*
X820Y373D02*
X827Y373D01*
X945Y373D02*
X952Y373D01*
X0Y372D02*
X7Y372D01*
X129Y372D02*
X136Y372D01*
X820Y372D02*
X827Y372D01*
X945Y372D02*
X952Y372D01*
X0Y371D02*
X7Y371D01*
X129Y371D02*
X136Y371D01*
X820Y371D02*
X827Y371D01*
X945Y371D02*
X952Y371D01*
X0Y370D02*
X7Y370D01*
X129Y370D02*
X136Y370D01*
X820Y370D02*
X827Y370D01*
X945Y370D02*
X952Y370D01*
X0Y369D02*
X7Y369D01*
X129Y369D02*
X136Y369D01*
X820Y369D02*
X827Y369D01*
X945Y369D02*
X952Y369D01*
X0Y368D02*
X7Y368D01*
X129Y368D02*
X136Y368D01*
X820Y368D02*
X827Y368D01*
X945Y368D02*
X952Y368D01*
X0Y367D02*
X7Y367D01*
X129Y367D02*
X136Y367D01*
X820Y367D02*
X827Y367D01*
X945Y367D02*
X952Y367D01*
X0Y366D02*
X7Y366D01*
X129Y366D02*
X136Y366D01*
X820Y366D02*
X827Y366D01*
X945Y366D02*
X952Y366D01*
X0Y365D02*
X7Y365D01*
X129Y365D02*
X136Y365D01*
X820Y365D02*
X827Y365D01*
X945Y365D02*
X952Y365D01*
X0Y364D02*
X7Y364D01*
X129Y364D02*
X136Y364D01*
X820Y364D02*
X827Y364D01*
X945Y364D02*
X952Y364D01*
X0Y363D02*
X7Y363D01*
X129Y363D02*
X136Y363D01*
X820Y363D02*
X827Y363D01*
X945Y363D02*
X952Y363D01*
X0Y362D02*
X7Y362D01*
X129Y362D02*
X136Y362D01*
X820Y362D02*
X827Y362D01*
X945Y362D02*
X952Y362D01*
X0Y361D02*
X7Y361D01*
X129Y361D02*
X136Y361D01*
X820Y361D02*
X827Y361D01*
X945Y361D02*
X952Y361D01*
X0Y360D02*
X7Y360D01*
X129Y360D02*
X136Y360D01*
X820Y360D02*
X827Y360D01*
X945Y360D02*
X952Y360D01*
X0Y359D02*
X7Y359D01*
X129Y359D02*
X136Y359D01*
X820Y359D02*
X827Y359D01*
X945Y359D02*
X952Y359D01*
X0Y358D02*
X7Y358D01*
X129Y358D02*
X136Y358D01*
X820Y358D02*
X827Y358D01*
X945Y358D02*
X952Y358D01*
X0Y357D02*
X7Y357D01*
X129Y357D02*
X136Y357D01*
X820Y357D02*
X827Y357D01*
X945Y357D02*
X952Y357D01*
X0Y356D02*
X7Y356D01*
X129Y356D02*
X136Y356D01*
X820Y356D02*
X827Y356D01*
X945Y356D02*
X952Y356D01*
X0Y355D02*
X7Y355D01*
X129Y355D02*
X136Y355D01*
X820Y355D02*
X827Y355D01*
X945Y355D02*
X952Y355D01*
X0Y354D02*
X7Y354D01*
X129Y354D02*
X136Y354D01*
X820Y354D02*
X827Y354D01*
X945Y354D02*
X952Y354D01*
X0Y353D02*
X7Y353D01*
X129Y353D02*
X136Y353D01*
X820Y353D02*
X827Y353D01*
X945Y353D02*
X952Y353D01*
X0Y352D02*
X7Y352D01*
X129Y352D02*
X136Y352D01*
X820Y352D02*
X827Y352D01*
X945Y352D02*
X952Y352D01*
X0Y351D02*
X7Y351D01*
X129Y351D02*
X136Y351D01*
X820Y351D02*
X827Y351D01*
X945Y351D02*
X952Y351D01*
X0Y350D02*
X7Y350D01*
X129Y350D02*
X136Y350D01*
X820Y350D02*
X827Y350D01*
X945Y350D02*
X952Y350D01*
X0Y349D02*
X7Y349D01*
X129Y349D02*
X136Y349D01*
X820Y349D02*
X827Y349D01*
X945Y349D02*
X952Y349D01*
X0Y348D02*
X7Y348D01*
X129Y348D02*
X136Y348D01*
X820Y348D02*
X827Y348D01*
X945Y348D02*
X952Y348D01*
X0Y347D02*
X7Y347D01*
X129Y347D02*
X136Y347D01*
X820Y347D02*
X827Y347D01*
X945Y347D02*
X952Y347D01*
X0Y346D02*
X7Y346D01*
X129Y346D02*
X136Y346D01*
X820Y346D02*
X827Y346D01*
X945Y346D02*
X952Y346D01*
X0Y345D02*
X7Y345D01*
X129Y345D02*
X136Y345D01*
X820Y345D02*
X827Y345D01*
X945Y345D02*
X952Y345D01*
X0Y344D02*
X7Y344D01*
X129Y344D02*
X136Y344D01*
X820Y344D02*
X827Y344D01*
X945Y344D02*
X952Y344D01*
X0Y343D02*
X7Y343D01*
X129Y343D02*
X136Y343D01*
X820Y343D02*
X827Y343D01*
X945Y343D02*
X952Y343D01*
X0Y342D02*
X7Y342D01*
X129Y342D02*
X136Y342D01*
X820Y342D02*
X827Y342D01*
X945Y342D02*
X952Y342D01*
X0Y341D02*
X7Y341D01*
X129Y341D02*
X136Y341D01*
X820Y341D02*
X827Y341D01*
X945Y341D02*
X952Y341D01*
X0Y340D02*
X7Y340D01*
X129Y340D02*
X136Y340D01*
X820Y340D02*
X827Y340D01*
X945Y340D02*
X952Y340D01*
X0Y339D02*
X7Y339D01*
X129Y339D02*
X136Y339D01*
X820Y339D02*
X827Y339D01*
X945Y339D02*
X952Y339D01*
X0Y338D02*
X7Y338D01*
X129Y338D02*
X136Y338D01*
X820Y338D02*
X827Y338D01*
X945Y338D02*
X952Y338D01*
X0Y337D02*
X7Y337D01*
X129Y337D02*
X136Y337D01*
X820Y337D02*
X827Y337D01*
X945Y337D02*
X952Y337D01*
X0Y336D02*
X7Y336D01*
X129Y336D02*
X136Y336D01*
X820Y336D02*
X827Y336D01*
X945Y336D02*
X952Y336D01*
X0Y335D02*
X7Y335D01*
X129Y335D02*
X136Y335D01*
X820Y335D02*
X827Y335D01*
X945Y335D02*
X952Y335D01*
X0Y334D02*
X7Y334D01*
X129Y334D02*
X136Y334D01*
X820Y334D02*
X827Y334D01*
X945Y334D02*
X952Y334D01*
X0Y333D02*
X7Y333D01*
X129Y333D02*
X136Y333D01*
X820Y333D02*
X827Y333D01*
X945Y333D02*
X952Y333D01*
X0Y332D02*
X7Y332D01*
X129Y332D02*
X136Y332D01*
X820Y332D02*
X827Y332D01*
X945Y332D02*
X952Y332D01*
X0Y331D02*
X7Y331D01*
X129Y331D02*
X136Y331D01*
X820Y331D02*
X827Y331D01*
X945Y331D02*
X952Y331D01*
X0Y330D02*
X7Y330D01*
X129Y330D02*
X136Y330D01*
X820Y330D02*
X827Y330D01*
X945Y330D02*
X952Y330D01*
X0Y329D02*
X7Y329D01*
X129Y329D02*
X136Y329D01*
X820Y329D02*
X827Y329D01*
X945Y329D02*
X952Y329D01*
X0Y328D02*
X7Y328D01*
X129Y328D02*
X136Y328D01*
X820Y328D02*
X827Y328D01*
X945Y328D02*
X952Y328D01*
X0Y327D02*
X7Y327D01*
X129Y327D02*
X136Y327D01*
X820Y327D02*
X827Y327D01*
X945Y327D02*
X952Y327D01*
X0Y326D02*
X7Y326D01*
X129Y326D02*
X136Y326D01*
X820Y326D02*
X827Y326D01*
X945Y326D02*
X952Y326D01*
X0Y325D02*
X7Y325D01*
X129Y325D02*
X136Y325D01*
X820Y325D02*
X827Y325D01*
X945Y325D02*
X952Y325D01*
X0Y324D02*
X7Y324D01*
X129Y324D02*
X136Y324D01*
X820Y324D02*
X827Y324D01*
X945Y324D02*
X952Y324D01*
X0Y323D02*
X7Y323D01*
X129Y323D02*
X136Y323D01*
X820Y323D02*
X827Y323D01*
X945Y323D02*
X952Y323D01*
X0Y322D02*
X7Y322D01*
X129Y322D02*
X136Y322D01*
X820Y322D02*
X827Y322D01*
X945Y322D02*
X952Y322D01*
X0Y321D02*
X7Y321D01*
X129Y321D02*
X136Y321D01*
X820Y321D02*
X827Y321D01*
X945Y321D02*
X952Y321D01*
X0Y320D02*
X7Y320D01*
X129Y320D02*
X136Y320D01*
X820Y320D02*
X827Y320D01*
X945Y320D02*
X952Y320D01*
X0Y319D02*
X7Y319D01*
X129Y319D02*
X136Y319D01*
X820Y319D02*
X827Y319D01*
X945Y319D02*
X952Y319D01*
X0Y318D02*
X7Y318D01*
X129Y318D02*
X136Y318D01*
X820Y318D02*
X827Y318D01*
X945Y318D02*
X952Y318D01*
X0Y317D02*
X7Y317D01*
X129Y317D02*
X136Y317D01*
X820Y317D02*
X827Y317D01*
X945Y317D02*
X952Y317D01*
X0Y316D02*
X7Y316D01*
X129Y316D02*
X136Y316D01*
X820Y316D02*
X827Y316D01*
X945Y316D02*
X952Y316D01*
X0Y315D02*
X7Y315D01*
X129Y315D02*
X136Y315D01*
X820Y315D02*
X827Y315D01*
X945Y315D02*
X952Y315D01*
X0Y314D02*
X7Y314D01*
X129Y314D02*
X136Y314D01*
X820Y314D02*
X827Y314D01*
X945Y314D02*
X952Y314D01*
X0Y313D02*
X7Y313D01*
X129Y313D02*
X136Y313D01*
X820Y313D02*
X827Y313D01*
X945Y313D02*
X952Y313D01*
X0Y312D02*
X7Y312D01*
X129Y312D02*
X136Y312D01*
X820Y312D02*
X827Y312D01*
X945Y312D02*
X952Y312D01*
X0Y311D02*
X7Y311D01*
X129Y311D02*
X136Y311D01*
X820Y311D02*
X827Y311D01*
X945Y311D02*
X952Y311D01*
X0Y310D02*
X7Y310D01*
X129Y310D02*
X136Y310D01*
X820Y310D02*
X827Y310D01*
X945Y310D02*
X952Y310D01*
X0Y309D02*
X7Y309D01*
X129Y309D02*
X136Y309D01*
X820Y309D02*
X827Y309D01*
X945Y309D02*
X952Y309D01*
X0Y308D02*
X7Y308D01*
X129Y308D02*
X136Y308D01*
X820Y308D02*
X827Y308D01*
X945Y308D02*
X952Y308D01*
X0Y307D02*
X7Y307D01*
X129Y307D02*
X136Y307D01*
X820Y307D02*
X827Y307D01*
X945Y307D02*
X952Y307D01*
X0Y306D02*
X7Y306D01*
X129Y306D02*
X136Y306D01*
X820Y306D02*
X827Y306D01*
X945Y306D02*
X952Y306D01*
X0Y305D02*
X7Y305D01*
X129Y305D02*
X136Y305D01*
X820Y305D02*
X827Y305D01*
X945Y305D02*
X952Y305D01*
X0Y304D02*
X7Y304D01*
X129Y304D02*
X136Y304D01*
X820Y304D02*
X827Y304D01*
X945Y304D02*
X952Y304D01*
X0Y303D02*
X7Y303D01*
X129Y303D02*
X136Y303D01*
X820Y303D02*
X827Y303D01*
X945Y303D02*
X952Y303D01*
X0Y302D02*
X7Y302D01*
X129Y302D02*
X136Y302D01*
X820Y302D02*
X827Y302D01*
X945Y302D02*
X952Y302D01*
X0Y301D02*
X7Y301D01*
X129Y301D02*
X136Y301D01*
X820Y301D02*
X827Y301D01*
X945Y301D02*
X952Y301D01*
X0Y300D02*
X7Y300D01*
X129Y300D02*
X136Y300D01*
X820Y300D02*
X827Y300D01*
X945Y300D02*
X952Y300D01*
X0Y299D02*
X7Y299D01*
X129Y299D02*
X136Y299D01*
X820Y299D02*
X827Y299D01*
X945Y299D02*
X952Y299D01*
X0Y298D02*
X7Y298D01*
X129Y298D02*
X136Y298D01*
X820Y298D02*
X827Y298D01*
X945Y298D02*
X952Y298D01*
X0Y297D02*
X7Y297D01*
X129Y297D02*
X136Y297D01*
X820Y297D02*
X827Y297D01*
X945Y297D02*
X952Y297D01*
X0Y296D02*
X7Y296D01*
X129Y296D02*
X136Y296D01*
X820Y296D02*
X827Y296D01*
X945Y296D02*
X952Y296D01*
X0Y295D02*
X7Y295D01*
X129Y295D02*
X136Y295D01*
X820Y295D02*
X827Y295D01*
X945Y295D02*
X952Y295D01*
X0Y294D02*
X7Y294D01*
X129Y294D02*
X136Y294D01*
X820Y294D02*
X827Y294D01*
X945Y294D02*
X952Y294D01*
X0Y293D02*
X7Y293D01*
X129Y293D02*
X136Y293D01*
X820Y293D02*
X827Y293D01*
X945Y293D02*
X952Y293D01*
X0Y292D02*
X7Y292D01*
X129Y292D02*
X136Y292D01*
X820Y292D02*
X827Y292D01*
X945Y292D02*
X952Y292D01*
X0Y291D02*
X7Y291D01*
X129Y291D02*
X136Y291D01*
X820Y291D02*
X827Y291D01*
X945Y291D02*
X952Y291D01*
X0Y290D02*
X7Y290D01*
X129Y290D02*
X136Y290D01*
X820Y290D02*
X827Y290D01*
X945Y290D02*
X952Y290D01*
X0Y289D02*
X7Y289D01*
X129Y289D02*
X136Y289D01*
X820Y289D02*
X827Y289D01*
X945Y289D02*
X952Y289D01*
X0Y288D02*
X7Y288D01*
X129Y288D02*
X136Y288D01*
X820Y288D02*
X827Y288D01*
X945Y288D02*
X952Y288D01*
X0Y287D02*
X7Y287D01*
X129Y287D02*
X136Y287D01*
X820Y287D02*
X827Y287D01*
X945Y287D02*
X952Y287D01*
X0Y286D02*
X7Y286D01*
X129Y286D02*
X136Y286D01*
X820Y286D02*
X827Y286D01*
X945Y286D02*
X952Y286D01*
X0Y285D02*
X7Y285D01*
X129Y285D02*
X136Y285D01*
X820Y285D02*
X827Y285D01*
X945Y285D02*
X952Y285D01*
X0Y284D02*
X7Y284D01*
X129Y284D02*
X136Y284D01*
X820Y284D02*
X827Y284D01*
X945Y284D02*
X952Y284D01*
X0Y283D02*
X7Y283D01*
X129Y283D02*
X136Y283D01*
X820Y283D02*
X827Y283D01*
X945Y283D02*
X952Y283D01*
X0Y282D02*
X7Y282D01*
X129Y282D02*
X136Y282D01*
X820Y282D02*
X827Y282D01*
X945Y282D02*
X952Y282D01*
X0Y281D02*
X7Y281D01*
X129Y281D02*
X136Y281D01*
X820Y281D02*
X827Y281D01*
X945Y281D02*
X952Y281D01*
X0Y280D02*
X7Y280D01*
X129Y280D02*
X136Y280D01*
X820Y280D02*
X827Y280D01*
X945Y280D02*
X952Y280D01*
X0Y279D02*
X7Y279D01*
X129Y279D02*
X136Y279D01*
X820Y279D02*
X827Y279D01*
X945Y279D02*
X952Y279D01*
X0Y278D02*
X7Y278D01*
X129Y278D02*
X136Y278D01*
X820Y278D02*
X827Y278D01*
X945Y278D02*
X952Y278D01*
X0Y277D02*
X7Y277D01*
X129Y277D02*
X136Y277D01*
X820Y277D02*
X827Y277D01*
X945Y277D02*
X952Y277D01*
X0Y276D02*
X7Y276D01*
X129Y276D02*
X136Y276D01*
X820Y276D02*
X827Y276D01*
X945Y276D02*
X952Y276D01*
X0Y275D02*
X7Y275D01*
X129Y275D02*
X136Y275D01*
X820Y275D02*
X827Y275D01*
X945Y275D02*
X952Y275D01*
X0Y274D02*
X7Y274D01*
X129Y274D02*
X136Y274D01*
X820Y274D02*
X827Y274D01*
X945Y274D02*
X952Y274D01*
X0Y273D02*
X7Y273D01*
X129Y273D02*
X136Y273D01*
X820Y273D02*
X827Y273D01*
X945Y273D02*
X952Y273D01*
X0Y272D02*
X7Y272D01*
X129Y272D02*
X136Y272D01*
X820Y272D02*
X827Y272D01*
X945Y272D02*
X952Y272D01*
X0Y271D02*
X7Y271D01*
X129Y271D02*
X136Y271D01*
X820Y271D02*
X827Y271D01*
X945Y271D02*
X952Y271D01*
X0Y270D02*
X7Y270D01*
X129Y270D02*
X136Y270D01*
X820Y270D02*
X827Y270D01*
X945Y270D02*
X952Y270D01*
X0Y269D02*
X7Y269D01*
X129Y269D02*
X136Y269D01*
X820Y269D02*
X827Y269D01*
X945Y269D02*
X952Y269D01*
X0Y268D02*
X7Y268D01*
X129Y268D02*
X136Y268D01*
X820Y268D02*
X827Y268D01*
X945Y268D02*
X952Y268D01*
X0Y267D02*
X7Y267D01*
X129Y267D02*
X136Y267D01*
X820Y267D02*
X827Y267D01*
X945Y267D02*
X952Y267D01*
X0Y266D02*
X7Y266D01*
X129Y266D02*
X136Y266D01*
X820Y266D02*
X827Y266D01*
X945Y266D02*
X952Y266D01*
X0Y265D02*
X7Y265D01*
X129Y265D02*
X136Y265D01*
X820Y265D02*
X827Y265D01*
X945Y265D02*
X952Y265D01*
X0Y264D02*
X7Y264D01*
X129Y264D02*
X136Y264D01*
X820Y264D02*
X827Y264D01*
X945Y264D02*
X952Y264D01*
X0Y263D02*
X7Y263D01*
X129Y263D02*
X136Y263D01*
X820Y263D02*
X827Y263D01*
X945Y263D02*
X952Y263D01*
X0Y262D02*
X7Y262D01*
X129Y262D02*
X136Y262D01*
X820Y262D02*
X827Y262D01*
X945Y262D02*
X952Y262D01*
X0Y261D02*
X7Y261D01*
X129Y261D02*
X136Y261D01*
X820Y261D02*
X827Y261D01*
X945Y261D02*
X952Y261D01*
X0Y260D02*
X7Y260D01*
X129Y260D02*
X136Y260D01*
X820Y260D02*
X827Y260D01*
X945Y260D02*
X952Y260D01*
X0Y259D02*
X7Y259D01*
X129Y259D02*
X136Y259D01*
X820Y259D02*
X827Y259D01*
X945Y259D02*
X952Y259D01*
X0Y258D02*
X7Y258D01*
X129Y258D02*
X136Y258D01*
X820Y258D02*
X827Y258D01*
X945Y258D02*
X952Y258D01*
X0Y257D02*
X7Y257D01*
X129Y257D02*
X136Y257D01*
X820Y257D02*
X827Y257D01*
X945Y257D02*
X952Y257D01*
X0Y256D02*
X7Y256D01*
X129Y256D02*
X136Y256D01*
X820Y256D02*
X827Y256D01*
X945Y256D02*
X952Y256D01*
X0Y255D02*
X7Y255D01*
X129Y255D02*
X136Y255D01*
X820Y255D02*
X827Y255D01*
X945Y255D02*
X952Y255D01*
X0Y254D02*
X7Y254D01*
X129Y254D02*
X136Y254D01*
X820Y254D02*
X827Y254D01*
X945Y254D02*
X952Y254D01*
X0Y253D02*
X7Y253D01*
X129Y253D02*
X136Y253D01*
X820Y253D02*
X827Y253D01*
X945Y253D02*
X952Y253D01*
X0Y252D02*
X7Y252D01*
X129Y252D02*
X136Y252D01*
X820Y252D02*
X827Y252D01*
X945Y252D02*
X952Y252D01*
X0Y251D02*
X7Y251D01*
X129Y251D02*
X136Y251D01*
X820Y251D02*
X827Y251D01*
X945Y251D02*
X952Y251D01*
X0Y250D02*
X7Y250D01*
X129Y250D02*
X136Y250D01*
X820Y250D02*
X827Y250D01*
X945Y250D02*
X952Y250D01*
X0Y249D02*
X7Y249D01*
X129Y249D02*
X136Y249D01*
X820Y249D02*
X827Y249D01*
X945Y249D02*
X952Y249D01*
X0Y248D02*
X7Y248D01*
X129Y248D02*
X136Y248D01*
X820Y248D02*
X827Y248D01*
X945Y248D02*
X952Y248D01*
X0Y247D02*
X7Y247D01*
X129Y247D02*
X136Y247D01*
X820Y247D02*
X827Y247D01*
X945Y247D02*
X952Y247D01*
X0Y246D02*
X7Y246D01*
X129Y246D02*
X136Y246D01*
X820Y246D02*
X827Y246D01*
X945Y246D02*
X952Y246D01*
X0Y245D02*
X7Y245D01*
X129Y245D02*
X136Y245D01*
X820Y245D02*
X827Y245D01*
X945Y245D02*
X952Y245D01*
X0Y244D02*
X7Y244D01*
X129Y244D02*
X136Y244D01*
X820Y244D02*
X827Y244D01*
X945Y244D02*
X952Y244D01*
X0Y243D02*
X7Y243D01*
X129Y243D02*
X136Y243D01*
X820Y243D02*
X827Y243D01*
X945Y243D02*
X952Y243D01*
X0Y242D02*
X7Y242D01*
X129Y242D02*
X136Y242D01*
X820Y242D02*
X827Y242D01*
X945Y242D02*
X952Y242D01*
X0Y241D02*
X7Y241D01*
X129Y241D02*
X136Y241D01*
X820Y241D02*
X827Y241D01*
X945Y241D02*
X952Y241D01*
X0Y240D02*
X7Y240D01*
X129Y240D02*
X136Y240D01*
X820Y240D02*
X827Y240D01*
X945Y240D02*
X952Y240D01*
X0Y239D02*
X7Y239D01*
X129Y239D02*
X136Y239D01*
X820Y239D02*
X827Y239D01*
X945Y239D02*
X952Y239D01*
X0Y238D02*
X7Y238D01*
X129Y238D02*
X136Y238D01*
X820Y238D02*
X827Y238D01*
X945Y238D02*
X952Y238D01*
X0Y237D02*
X7Y237D01*
X129Y237D02*
X136Y237D01*
X820Y237D02*
X827Y237D01*
X945Y237D02*
X952Y237D01*
X0Y236D02*
X7Y236D01*
X129Y236D02*
X136Y236D01*
X820Y236D02*
X827Y236D01*
X945Y236D02*
X952Y236D01*
X0Y235D02*
X7Y235D01*
X129Y235D02*
X136Y235D01*
X820Y235D02*
X827Y235D01*
X945Y235D02*
X952Y235D01*
X0Y234D02*
X7Y234D01*
X129Y234D02*
X136Y234D01*
X820Y234D02*
X827Y234D01*
X945Y234D02*
X952Y234D01*
X0Y233D02*
X7Y233D01*
X129Y233D02*
X136Y233D01*
X820Y233D02*
X827Y233D01*
X945Y233D02*
X952Y233D01*
X0Y232D02*
X7Y232D01*
X129Y232D02*
X136Y232D01*
X820Y232D02*
X827Y232D01*
X945Y232D02*
X952Y232D01*
X0Y231D02*
X7Y231D01*
X129Y231D02*
X136Y231D01*
X820Y231D02*
X827Y231D01*
X945Y231D02*
X952Y231D01*
X0Y230D02*
X7Y230D01*
X129Y230D02*
X136Y230D01*
X820Y230D02*
X827Y230D01*
X945Y230D02*
X952Y230D01*
X0Y229D02*
X7Y229D01*
X129Y229D02*
X136Y229D01*
X820Y229D02*
X827Y229D01*
X945Y229D02*
X952Y229D01*
X0Y228D02*
X7Y228D01*
X129Y228D02*
X136Y228D01*
X820Y228D02*
X827Y228D01*
X945Y228D02*
X952Y228D01*
X0Y227D02*
X7Y227D01*
X129Y227D02*
X136Y227D01*
X820Y227D02*
X827Y227D01*
X945Y227D02*
X952Y227D01*
X0Y226D02*
X7Y226D01*
X129Y226D02*
X136Y226D01*
X820Y226D02*
X827Y226D01*
X945Y226D02*
X952Y226D01*
X0Y225D02*
X7Y225D01*
X129Y225D02*
X136Y225D01*
X820Y225D02*
X827Y225D01*
X945Y225D02*
X952Y225D01*
X0Y224D02*
X7Y224D01*
X129Y224D02*
X136Y224D01*
X820Y224D02*
X827Y224D01*
X945Y224D02*
X952Y224D01*
X0Y223D02*
X7Y223D01*
X129Y223D02*
X136Y223D01*
X820Y223D02*
X827Y223D01*
X945Y223D02*
X952Y223D01*
X0Y222D02*
X7Y222D01*
X129Y222D02*
X136Y222D01*
X820Y222D02*
X827Y222D01*
X945Y222D02*
X952Y222D01*
X0Y221D02*
X7Y221D01*
X129Y221D02*
X136Y221D01*
X820Y221D02*
X827Y221D01*
X945Y221D02*
X952Y221D01*
X0Y220D02*
X7Y220D01*
X129Y220D02*
X136Y220D01*
X820Y220D02*
X827Y220D01*
X945Y220D02*
X952Y220D01*
X0Y219D02*
X7Y219D01*
X129Y219D02*
X136Y219D01*
X820Y219D02*
X827Y219D01*
X945Y219D02*
X952Y219D01*
X0Y218D02*
X7Y218D01*
X129Y218D02*
X136Y218D01*
X820Y218D02*
X827Y218D01*
X945Y218D02*
X952Y218D01*
X0Y217D02*
X7Y217D01*
X129Y217D02*
X136Y217D01*
X820Y217D02*
X827Y217D01*
X945Y217D02*
X952Y217D01*
X0Y216D02*
X7Y216D01*
X129Y216D02*
X136Y216D01*
X820Y216D02*
X827Y216D01*
X945Y216D02*
X952Y216D01*
X0Y215D02*
X7Y215D01*
X129Y215D02*
X136Y215D01*
X820Y215D02*
X827Y215D01*
X945Y215D02*
X952Y215D01*
X0Y214D02*
X7Y214D01*
X129Y214D02*
X136Y214D01*
X820Y214D02*
X827Y214D01*
X945Y214D02*
X952Y214D01*
X0Y213D02*
X7Y213D01*
X129Y213D02*
X136Y213D01*
X820Y213D02*
X827Y213D01*
X945Y213D02*
X952Y213D01*
X0Y212D02*
X7Y212D01*
X129Y212D02*
X136Y212D01*
X820Y212D02*
X827Y212D01*
X945Y212D02*
X952Y212D01*
X0Y211D02*
X7Y211D01*
X129Y211D02*
X136Y211D01*
X820Y211D02*
X827Y211D01*
X945Y211D02*
X952Y211D01*
X0Y210D02*
X7Y210D01*
X129Y210D02*
X136Y210D01*
X820Y210D02*
X827Y210D01*
X945Y210D02*
X952Y210D01*
X0Y209D02*
X7Y209D01*
X129Y209D02*
X136Y209D01*
X820Y209D02*
X827Y209D01*
X945Y209D02*
X952Y209D01*
X0Y208D02*
X7Y208D01*
X129Y208D02*
X136Y208D01*
X820Y208D02*
X827Y208D01*
X945Y208D02*
X952Y208D01*
X0Y207D02*
X7Y207D01*
X129Y207D02*
X136Y207D01*
X820Y207D02*
X827Y207D01*
X945Y207D02*
X952Y207D01*
X0Y206D02*
X7Y206D01*
X129Y206D02*
X136Y206D01*
X820Y206D02*
X827Y206D01*
X945Y206D02*
X952Y206D01*
X0Y205D02*
X7Y205D01*
X129Y205D02*
X136Y205D01*
X820Y205D02*
X827Y205D01*
X945Y205D02*
X952Y205D01*
X0Y204D02*
X7Y204D01*
X129Y204D02*
X136Y204D01*
X820Y204D02*
X827Y204D01*
X945Y204D02*
X952Y204D01*
X0Y203D02*
X7Y203D01*
X129Y203D02*
X136Y203D01*
X820Y203D02*
X827Y203D01*
X945Y203D02*
X952Y203D01*
X0Y202D02*
X7Y202D01*
X129Y202D02*
X136Y202D01*
X820Y202D02*
X827Y202D01*
X945Y202D02*
X952Y202D01*
X0Y201D02*
X7Y201D01*
X129Y201D02*
X136Y201D01*
X820Y201D02*
X827Y201D01*
X945Y201D02*
X952Y201D01*
X0Y200D02*
X7Y200D01*
X129Y200D02*
X136Y200D01*
X820Y200D02*
X827Y200D01*
X945Y200D02*
X952Y200D01*
X0Y199D02*
X7Y199D01*
X129Y199D02*
X136Y199D01*
X820Y199D02*
X827Y199D01*
X945Y199D02*
X952Y199D01*
X0Y198D02*
X7Y198D01*
X129Y198D02*
X136Y198D01*
X820Y198D02*
X827Y198D01*
X945Y198D02*
X952Y198D01*
X0Y197D02*
X7Y197D01*
X129Y197D02*
X136Y197D01*
X820Y197D02*
X827Y197D01*
X945Y197D02*
X952Y197D01*
X0Y196D02*
X7Y196D01*
X129Y196D02*
X136Y196D01*
X820Y196D02*
X827Y196D01*
X945Y196D02*
X952Y196D01*
X0Y195D02*
X7Y195D01*
X129Y195D02*
X136Y195D01*
X820Y195D02*
X827Y195D01*
X945Y195D02*
X952Y195D01*
X0Y194D02*
X7Y194D01*
X129Y194D02*
X136Y194D01*
X820Y194D02*
X827Y194D01*
X945Y194D02*
X952Y194D01*
X0Y193D02*
X7Y193D01*
X129Y193D02*
X136Y193D01*
X820Y193D02*
X827Y193D01*
X945Y193D02*
X952Y193D01*
X0Y192D02*
X7Y192D01*
X129Y192D02*
X136Y192D01*
X820Y192D02*
X827Y192D01*
X945Y192D02*
X952Y192D01*
X0Y191D02*
X7Y191D01*
X129Y191D02*
X136Y191D01*
X820Y191D02*
X827Y191D01*
X945Y191D02*
X952Y191D01*
X0Y190D02*
X7Y190D01*
X129Y190D02*
X136Y190D01*
X820Y190D02*
X827Y190D01*
X945Y190D02*
X952Y190D01*
X0Y189D02*
X7Y189D01*
X129Y189D02*
X136Y189D01*
X820Y189D02*
X827Y189D01*
X945Y189D02*
X952Y189D01*
X0Y188D02*
X7Y188D01*
X129Y188D02*
X136Y188D01*
X820Y188D02*
X827Y188D01*
X945Y188D02*
X952Y188D01*
X0Y187D02*
X7Y187D01*
X129Y187D02*
X827Y187D01*
X945Y187D02*
X952Y187D01*
X0Y186D02*
X7Y186D01*
X129Y186D02*
X827Y186D01*
X945Y186D02*
X952Y186D01*
X0Y185D02*
X7Y185D01*
X129Y185D02*
X827Y185D01*
X945Y185D02*
X952Y185D01*
X0Y184D02*
X7Y184D01*
X129Y184D02*
X827Y184D01*
X945Y184D02*
X952Y184D01*
X0Y183D02*
X7Y183D01*
X129Y183D02*
X827Y183D01*
X945Y183D02*
X952Y183D01*
X0Y182D02*
X7Y182D01*
X129Y182D02*
X827Y182D01*
X945Y182D02*
X952Y182D01*
X0Y181D02*
X7Y181D01*
X129Y181D02*
X827Y181D01*
X945Y181D02*
X952Y181D01*
X0Y180D02*
X7Y180D01*
X129Y180D02*
X827Y180D01*
X945Y180D02*
X952Y180D01*
X0Y179D02*
X7Y179D01*
X945Y179D02*
X952Y179D01*
X0Y178D02*
X7Y178D01*
X945Y178D02*
X952Y178D01*
X0Y177D02*
X7Y177D01*
X945Y177D02*
X952Y177D01*
X0Y176D02*
X7Y176D01*
X945Y176D02*
X952Y176D01*
X0Y175D02*
X7Y175D01*
X945Y175D02*
X952Y175D01*
X0Y174D02*
X7Y174D01*
X945Y174D02*
X952Y174D01*
X0Y173D02*
X7Y173D01*
X945Y173D02*
X952Y173D01*
X0Y172D02*
X7Y172D01*
X945Y172D02*
X952Y172D01*
X0Y171D02*
X7Y171D01*
X945Y171D02*
X952Y171D01*
X0Y170D02*
X7Y170D01*
X945Y170D02*
X952Y170D01*
X0Y169D02*
X7Y169D01*
X945Y169D02*
X952Y169D01*
X0Y168D02*
X7Y168D01*
X945Y168D02*
X952Y168D01*
X0Y167D02*
X7Y167D01*
X945Y167D02*
X952Y167D01*
X0Y166D02*
X7Y166D01*
X945Y166D02*
X952Y166D01*
X0Y165D02*
X7Y165D01*
X945Y165D02*
X952Y165D01*
X0Y164D02*
X7Y164D01*
X945Y164D02*
X952Y164D01*
X0Y163D02*
X7Y163D01*
X945Y163D02*
X952Y163D01*
X0Y162D02*
X7Y162D01*
X945Y162D02*
X952Y162D01*
X0Y161D02*
X7Y161D01*
X945Y161D02*
X952Y161D01*
X0Y160D02*
X7Y160D01*
X945Y160D02*
X952Y160D01*
X0Y159D02*
X7Y159D01*
X945Y159D02*
X952Y159D01*
X0Y158D02*
X7Y158D01*
X945Y158D02*
X952Y158D01*
X0Y157D02*
X7Y157D01*
X945Y157D02*
X952Y157D01*
X0Y156D02*
X7Y156D01*
X945Y156D02*
X952Y156D01*
X0Y155D02*
X7Y155D01*
X945Y155D02*
X952Y155D01*
X0Y154D02*
X7Y154D01*
X945Y154D02*
X952Y154D01*
X0Y153D02*
X7Y153D01*
X945Y153D02*
X952Y153D01*
X0Y152D02*
X7Y152D01*
X945Y152D02*
X952Y152D01*
X0Y151D02*
X7Y151D01*
X945Y151D02*
X952Y151D01*
X0Y150D02*
X7Y150D01*
X945Y150D02*
X952Y150D01*
X0Y149D02*
X7Y149D01*
X945Y149D02*
X952Y149D01*
X0Y148D02*
X7Y148D01*
X945Y148D02*
X952Y148D01*
X0Y147D02*
X7Y147D01*
X945Y147D02*
X952Y147D01*
X0Y146D02*
X7Y146D01*
X945Y146D02*
X952Y146D01*
X0Y145D02*
X7Y145D01*
X945Y145D02*
X952Y145D01*
X0Y144D02*
X7Y144D01*
X945Y144D02*
X952Y144D01*
X0Y143D02*
X7Y143D01*
X945Y143D02*
X952Y143D01*
X0Y142D02*
X7Y142D01*
X945Y142D02*
X952Y142D01*
X0Y141D02*
X7Y141D01*
X945Y141D02*
X952Y141D01*
X0Y140D02*
X7Y140D01*
X945Y140D02*
X952Y140D01*
X0Y139D02*
X7Y139D01*
X945Y139D02*
X952Y139D01*
X0Y138D02*
X7Y138D01*
X945Y138D02*
X952Y138D01*
X0Y137D02*
X7Y137D01*
X945Y137D02*
X952Y137D01*
X0Y136D02*
X7Y136D01*
X945Y136D02*
X952Y136D01*
X0Y135D02*
X7Y135D01*
X945Y135D02*
X952Y135D01*
X0Y134D02*
X7Y134D01*
X945Y134D02*
X952Y134D01*
X0Y133D02*
X7Y133D01*
X945Y133D02*
X952Y133D01*
X0Y132D02*
X7Y132D01*
X945Y132D02*
X952Y132D01*
X0Y131D02*
X7Y131D01*
X945Y131D02*
X952Y131D01*
X0Y130D02*
X7Y130D01*
X945Y130D02*
X952Y130D01*
X0Y129D02*
X7Y129D01*
X945Y129D02*
X952Y129D01*
X0Y128D02*
X7Y128D01*
X945Y128D02*
X952Y128D01*
X0Y127D02*
X7Y127D01*
X945Y127D02*
X952Y127D01*
X0Y126D02*
X7Y126D01*
X945Y126D02*
X952Y126D01*
X0Y125D02*
X7Y125D01*
X945Y125D02*
X952Y125D01*
X0Y124D02*
X7Y124D01*
X945Y124D02*
X952Y124D01*
X0Y123D02*
X7Y123D01*
X945Y123D02*
X952Y123D01*
X0Y122D02*
X7Y122D01*
X945Y122D02*
X952Y122D01*
X0Y121D02*
X7Y121D01*
X945Y121D02*
X952Y121D01*
X0Y120D02*
X7Y120D01*
X945Y120D02*
X952Y120D01*
X0Y119D02*
X7Y119D01*
X945Y119D02*
X952Y119D01*
X0Y118D02*
X7Y118D01*
X945Y118D02*
X952Y118D01*
X0Y117D02*
X7Y117D01*
X945Y117D02*
X952Y117D01*
X0Y116D02*
X7Y116D01*
X945Y116D02*
X952Y116D01*
X0Y115D02*
X7Y115D01*
X945Y115D02*
X952Y115D01*
X0Y114D02*
X7Y114D01*
X945Y114D02*
X952Y114D01*
X0Y113D02*
X7Y113D01*
X945Y113D02*
X952Y113D01*
X0Y112D02*
X7Y112D01*
X945Y112D02*
X952Y112D01*
X0Y111D02*
X7Y111D01*
X945Y111D02*
X952Y111D01*
X0Y110D02*
X7Y110D01*
X945Y110D02*
X952Y110D01*
X0Y109D02*
X7Y109D01*
X945Y109D02*
X952Y109D01*
X0Y108D02*
X7Y108D01*
X945Y108D02*
X952Y108D01*
X0Y107D02*
X7Y107D01*
X945Y107D02*
X952Y107D01*
X0Y106D02*
X7Y106D01*
X945Y106D02*
X952Y106D01*
X0Y105D02*
X7Y105D01*
X945Y105D02*
X952Y105D01*
X0Y104D02*
X7Y104D01*
X945Y104D02*
X952Y104D01*
X0Y103D02*
X7Y103D01*
X945Y103D02*
X952Y103D01*
X0Y102D02*
X7Y102D01*
X945Y102D02*
X952Y102D01*
X0Y101D02*
X7Y101D01*
X945Y101D02*
X952Y101D01*
X0Y100D02*
X7Y100D01*
X945Y100D02*
X952Y100D01*
X0Y99D02*
X7Y99D01*
X945Y99D02*
X952Y99D01*
X0Y98D02*
X7Y98D01*
X945Y98D02*
X952Y98D01*
X0Y97D02*
X7Y97D01*
X945Y97D02*
X952Y97D01*
X0Y96D02*
X7Y96D01*
X945Y96D02*
X952Y96D01*
X0Y95D02*
X7Y95D01*
X945Y95D02*
X952Y95D01*
X0Y94D02*
X7Y94D01*
X945Y94D02*
X952Y94D01*
X0Y93D02*
X7Y93D01*
X945Y93D02*
X952Y93D01*
X0Y92D02*
X7Y92D01*
X945Y92D02*
X952Y92D01*
X0Y91D02*
X7Y91D01*
X945Y91D02*
X952Y91D01*
X0Y90D02*
X7Y90D01*
X945Y90D02*
X952Y90D01*
X0Y89D02*
X7Y89D01*
X945Y89D02*
X952Y89D01*
X0Y88D02*
X7Y88D01*
X945Y88D02*
X952Y88D01*
X0Y87D02*
X7Y87D01*
X945Y87D02*
X952Y87D01*
X0Y86D02*
X7Y86D01*
X945Y86D02*
X952Y86D01*
X0Y85D02*
X7Y85D01*
X945Y85D02*
X952Y85D01*
X0Y84D02*
X7Y84D01*
X945Y84D02*
X952Y84D01*
X0Y83D02*
X7Y83D01*
X945Y83D02*
X952Y83D01*
X0Y82D02*
X7Y82D01*
X945Y82D02*
X952Y82D01*
X0Y81D02*
X7Y81D01*
X945Y81D02*
X952Y81D01*
X0Y80D02*
X7Y80D01*
X945Y80D02*
X952Y80D01*
X0Y79D02*
X7Y79D01*
X945Y79D02*
X952Y79D01*
X0Y78D02*
X7Y78D01*
X945Y78D02*
X952Y78D01*
X0Y77D02*
X7Y77D01*
X945Y77D02*
X952Y77D01*
X0Y76D02*
X7Y76D01*
X945Y76D02*
X952Y76D01*
X0Y75D02*
X7Y75D01*
X945Y75D02*
X952Y75D01*
X0Y74D02*
X7Y74D01*
X945Y74D02*
X952Y74D01*
X0Y73D02*
X7Y73D01*
X945Y73D02*
X952Y73D01*
X0Y72D02*
X7Y72D01*
X945Y72D02*
X952Y72D01*
X0Y71D02*
X7Y71D01*
X945Y71D02*
X952Y71D01*
X0Y70D02*
X7Y70D01*
X945Y70D02*
X952Y70D01*
X0Y69D02*
X7Y69D01*
X945Y69D02*
X952Y69D01*
X0Y68D02*
X7Y68D01*
X945Y68D02*
X952Y68D01*
X0Y67D02*
X7Y67D01*
X945Y67D02*
X952Y67D01*
X0Y66D02*
X7Y66D01*
X945Y66D02*
X952Y66D01*
X0Y65D02*
X7Y65D01*
X945Y65D02*
X952Y65D01*
X0Y64D02*
X7Y64D01*
X945Y64D02*
X952Y64D01*
X0Y63D02*
X7Y63D01*
X945Y63D02*
X952Y63D01*
X0Y62D02*
X7Y62D01*
X945Y62D02*
X952Y62D01*
X0Y61D02*
X7Y61D01*
X945Y61D02*
X952Y61D01*
X0Y60D02*
X7Y60D01*
X945Y60D02*
X952Y60D01*
X0Y59D02*
X7Y59D01*
X945Y59D02*
X952Y59D01*
X0Y58D02*
X7Y58D01*
X945Y58D02*
X952Y58D01*
X0Y57D02*
X7Y57D01*
X945Y57D02*
X952Y57D01*
X0Y56D02*
X7Y56D01*
X945Y56D02*
X952Y56D01*
X0Y55D02*
X7Y55D01*
X945Y55D02*
X952Y55D01*
X0Y54D02*
X7Y54D01*
X945Y54D02*
X952Y54D01*
X0Y53D02*
X7Y53D01*
X945Y53D02*
X952Y53D01*
X0Y52D02*
X7Y52D01*
X945Y52D02*
X952Y52D01*
X0Y51D02*
X7Y51D01*
X945Y51D02*
X952Y51D01*
X0Y50D02*
X7Y50D01*
X945Y50D02*
X952Y50D01*
X0Y49D02*
X7Y49D01*
X945Y49D02*
X952Y49D01*
X0Y48D02*
X7Y48D01*
X945Y48D02*
X952Y48D01*
X0Y47D02*
X7Y47D01*
X945Y47D02*
X952Y47D01*
X0Y46D02*
X7Y46D01*
X945Y46D02*
X952Y46D01*
X0Y45D02*
X7Y45D01*
X945Y45D02*
X952Y45D01*
X0Y44D02*
X7Y44D01*
X945Y44D02*
X952Y44D01*
X0Y43D02*
X7Y43D01*
X945Y43D02*
X952Y43D01*
X0Y42D02*
X7Y42D01*
X945Y42D02*
X952Y42D01*
X0Y41D02*
X7Y41D01*
X945Y41D02*
X952Y41D01*
X0Y40D02*
X7Y40D01*
X945Y40D02*
X952Y40D01*
X0Y39D02*
X7Y39D01*
X945Y39D02*
X952Y39D01*
X0Y38D02*
X7Y38D01*
X945Y38D02*
X952Y38D01*
X0Y37D02*
X7Y37D01*
X945Y37D02*
X952Y37D01*
X0Y36D02*
X7Y36D01*
X945Y36D02*
X952Y36D01*
X0Y35D02*
X7Y35D01*
X945Y35D02*
X952Y35D01*
X0Y34D02*
X7Y34D01*
X945Y34D02*
X952Y34D01*
X0Y33D02*
X7Y33D01*
X945Y33D02*
X952Y33D01*
X0Y32D02*
X7Y32D01*
X945Y32D02*
X952Y32D01*
X0Y31D02*
X7Y31D01*
X945Y31D02*
X952Y31D01*
X0Y30D02*
X7Y30D01*
X945Y30D02*
X952Y30D01*
X0Y29D02*
X7Y29D01*
X945Y29D02*
X952Y29D01*
X0Y28D02*
X7Y28D01*
X945Y28D02*
X952Y28D01*
X0Y27D02*
X7Y27D01*
X945Y27D02*
X952Y27D01*
X0Y26D02*
X7Y26D01*
X945Y26D02*
X952Y26D01*
X0Y25D02*
X7Y25D01*
X945Y25D02*
X952Y25D01*
X0Y24D02*
X7Y24D01*
X945Y24D02*
X952Y24D01*
X0Y23D02*
X7Y23D01*
X945Y23D02*
X952Y23D01*
X0Y22D02*
X7Y22D01*
X945Y22D02*
X952Y22D01*
X0Y21D02*
X7Y21D01*
X945Y21D02*
X952Y21D01*
X0Y20D02*
X7Y20D01*
X945Y20D02*
X952Y20D01*
X0Y19D02*
X7Y19D01*
X945Y19D02*
X952Y19D01*
X0Y18D02*
X7Y18D01*
X945Y18D02*
X952Y18D01*
X0Y17D02*
X7Y17D01*
X945Y17D02*
X952Y17D01*
X0Y16D02*
X7Y16D01*
X945Y16D02*
X952Y16D01*
X0Y15D02*
X7Y15D01*
X945Y15D02*
X952Y15D01*
X0Y14D02*
X7Y14D01*
X945Y14D02*
X952Y14D01*
X0Y13D02*
X7Y13D01*
X945Y13D02*
X952Y13D01*
X0Y12D02*
X7Y12D01*
X945Y12D02*
X952Y12D01*
X0Y11D02*
X7Y11D01*
X945Y11D02*
X952Y11D01*
X0Y10D02*
X7Y10D01*
X945Y10D02*
X952Y10D01*
X0Y9D02*
X952Y9D01*
X0Y8D02*
X952Y8D01*
X0Y7D02*
X952Y7D01*
X0Y6D02*
X952Y6D01*
X0Y5D02*
X952Y5D01*
X0Y4D02*
X952Y4D01*
X0Y3D02*
X952Y3D01*
X0Y2D02*
X952Y2D01*
D02*
G04 End of Silk1*
M02*