G04 MADE WITH FRITZING*
G04 WWW.FRITZING.ORG*
G04 DOUBLE SIDED*
G04 HOLES PLATED*
G04 CONTOUR ON CENTER OF CONTOUR VECTOR*
%ASAXBY*%
%FSLAX23Y23*%
%MOIN*%
%OFA0B0*%
%SFA1.0B1.0*%
%ADD10C,0.010000*%
%ADD11R,0.001000X0.001000*%
%LNSILK0*%
G90*
G70*
G54D10*
X429Y1079D02*
X429Y1879D01*
D02*
X429Y1879D02*
X529Y1879D01*
D02*
X529Y1879D02*
X529Y1079D01*
D02*
X529Y1079D02*
X429Y1079D01*
D02*
X176Y164D02*
X786Y164D01*
G54D11*
X0Y1983D02*
X952Y1983D01*
X0Y1982D02*
X952Y1982D01*
X0Y1981D02*
X952Y1981D01*
X0Y1980D02*
X952Y1980D01*
X0Y1979D02*
X952Y1979D01*
X0Y1978D02*
X952Y1978D01*
X0Y1977D02*
X952Y1977D01*
X0Y1976D02*
X952Y1976D01*
X0Y1975D02*
X7Y1975D01*
X330Y1975D02*
X349Y1975D01*
X366Y1975D02*
X372Y1975D01*
X394Y1975D02*
X400Y1975D01*
X945Y1975D02*
X952Y1975D01*
X0Y1974D02*
X7Y1974D01*
X330Y1974D02*
X349Y1974D01*
X366Y1974D02*
X372Y1974D01*
X394Y1974D02*
X400Y1974D01*
X945Y1974D02*
X952Y1974D01*
X0Y1973D02*
X7Y1973D01*
X330Y1973D02*
X348Y1973D01*
X366Y1973D02*
X372Y1973D01*
X394Y1973D02*
X400Y1973D01*
X945Y1973D02*
X952Y1973D01*
X0Y1972D02*
X7Y1972D01*
X330Y1972D02*
X336Y1972D01*
X366Y1972D02*
X372Y1972D01*
X394Y1972D02*
X400Y1972D01*
X945Y1972D02*
X952Y1972D01*
X0Y1971D02*
X7Y1971D01*
X330Y1971D02*
X336Y1971D01*
X366Y1971D02*
X372Y1971D01*
X394Y1971D02*
X400Y1971D01*
X945Y1971D02*
X952Y1971D01*
X0Y1970D02*
X7Y1970D01*
X330Y1970D02*
X336Y1970D01*
X366Y1970D02*
X372Y1970D01*
X394Y1970D02*
X400Y1970D01*
X945Y1970D02*
X952Y1970D01*
X0Y1969D02*
X7Y1969D01*
X330Y1969D02*
X336Y1969D01*
X366Y1969D02*
X372Y1969D01*
X394Y1969D02*
X400Y1969D01*
X945Y1969D02*
X952Y1969D01*
X0Y1968D02*
X7Y1968D01*
X330Y1968D02*
X336Y1968D01*
X366Y1968D02*
X372Y1968D01*
X394Y1968D02*
X400Y1968D01*
X945Y1968D02*
X952Y1968D01*
X0Y1967D02*
X7Y1967D01*
X330Y1967D02*
X336Y1967D01*
X366Y1967D02*
X372Y1967D01*
X394Y1967D02*
X400Y1967D01*
X945Y1967D02*
X952Y1967D01*
X0Y1966D02*
X7Y1966D01*
X330Y1966D02*
X336Y1966D01*
X366Y1966D02*
X372Y1966D01*
X394Y1966D02*
X400Y1966D01*
X945Y1966D02*
X952Y1966D01*
X0Y1965D02*
X7Y1965D01*
X330Y1965D02*
X336Y1965D01*
X366Y1965D02*
X372Y1965D01*
X394Y1965D02*
X400Y1965D01*
X945Y1965D02*
X952Y1965D01*
X0Y1964D02*
X7Y1964D01*
X330Y1964D02*
X336Y1964D01*
X366Y1964D02*
X372Y1964D01*
X394Y1964D02*
X400Y1964D01*
X945Y1964D02*
X952Y1964D01*
X0Y1963D02*
X7Y1963D01*
X330Y1963D02*
X336Y1963D01*
X366Y1963D02*
X372Y1963D01*
X394Y1963D02*
X400Y1963D01*
X945Y1963D02*
X952Y1963D01*
X0Y1962D02*
X7Y1962D01*
X330Y1962D02*
X336Y1962D01*
X366Y1962D02*
X372Y1962D01*
X394Y1962D02*
X400Y1962D01*
X945Y1962D02*
X952Y1962D01*
X0Y1961D02*
X7Y1961D01*
X330Y1961D02*
X336Y1961D01*
X366Y1961D02*
X372Y1961D01*
X394Y1961D02*
X400Y1961D01*
X945Y1961D02*
X952Y1961D01*
X0Y1960D02*
X7Y1960D01*
X330Y1960D02*
X336Y1960D01*
X366Y1960D02*
X372Y1960D01*
X394Y1960D02*
X400Y1960D01*
X945Y1960D02*
X952Y1960D01*
X0Y1959D02*
X7Y1959D01*
X330Y1959D02*
X336Y1959D01*
X366Y1959D02*
X372Y1959D01*
X394Y1959D02*
X400Y1959D01*
X945Y1959D02*
X952Y1959D01*
X0Y1958D02*
X7Y1958D01*
X330Y1958D02*
X336Y1958D01*
X366Y1958D02*
X372Y1958D01*
X394Y1958D02*
X400Y1958D01*
X945Y1958D02*
X952Y1958D01*
X0Y1957D02*
X7Y1957D01*
X330Y1957D02*
X336Y1957D01*
X366Y1957D02*
X372Y1957D01*
X394Y1957D02*
X400Y1957D01*
X945Y1957D02*
X952Y1957D01*
X0Y1956D02*
X7Y1956D01*
X330Y1956D02*
X336Y1956D01*
X366Y1956D02*
X372Y1956D01*
X394Y1956D02*
X400Y1956D01*
X945Y1956D02*
X952Y1956D01*
X0Y1955D02*
X7Y1955D01*
X330Y1955D02*
X336Y1955D01*
X366Y1955D02*
X372Y1955D01*
X394Y1955D02*
X400Y1955D01*
X945Y1955D02*
X952Y1955D01*
X0Y1954D02*
X7Y1954D01*
X330Y1954D02*
X336Y1954D01*
X366Y1954D02*
X372Y1954D01*
X394Y1954D02*
X400Y1954D01*
X945Y1954D02*
X952Y1954D01*
X0Y1953D02*
X7Y1953D01*
X330Y1953D02*
X336Y1953D01*
X366Y1953D02*
X372Y1953D01*
X394Y1953D02*
X400Y1953D01*
X945Y1953D02*
X952Y1953D01*
X0Y1952D02*
X7Y1952D01*
X330Y1952D02*
X336Y1952D01*
X366Y1952D02*
X372Y1952D01*
X394Y1952D02*
X400Y1952D01*
X945Y1952D02*
X952Y1952D01*
X0Y1951D02*
X7Y1951D01*
X330Y1951D02*
X336Y1951D01*
X366Y1951D02*
X372Y1951D01*
X394Y1951D02*
X400Y1951D01*
X945Y1951D02*
X952Y1951D01*
X0Y1950D02*
X7Y1950D01*
X330Y1950D02*
X336Y1950D01*
X366Y1950D02*
X372Y1950D01*
X394Y1950D02*
X400Y1950D01*
X945Y1950D02*
X952Y1950D01*
X0Y1949D02*
X7Y1949D01*
X317Y1949D02*
X321Y1949D01*
X330Y1949D02*
X336Y1949D01*
X366Y1949D02*
X372Y1949D01*
X394Y1949D02*
X400Y1949D01*
X945Y1949D02*
X952Y1949D01*
X0Y1948D02*
X7Y1948D01*
X316Y1948D02*
X321Y1948D01*
X330Y1948D02*
X336Y1948D01*
X366Y1948D02*
X372Y1948D01*
X394Y1948D02*
X400Y1948D01*
X945Y1948D02*
X952Y1948D01*
X0Y1947D02*
X7Y1947D01*
X316Y1947D02*
X322Y1947D01*
X330Y1947D02*
X336Y1947D01*
X366Y1947D02*
X372Y1947D01*
X394Y1947D02*
X400Y1947D01*
X945Y1947D02*
X952Y1947D01*
X0Y1946D02*
X7Y1946D01*
X316Y1946D02*
X322Y1946D01*
X330Y1946D02*
X336Y1946D01*
X366Y1946D02*
X372Y1946D01*
X394Y1946D02*
X400Y1946D01*
X945Y1946D02*
X952Y1946D01*
X0Y1945D02*
X7Y1945D01*
X316Y1945D02*
X322Y1945D01*
X330Y1945D02*
X336Y1945D01*
X366Y1945D02*
X372Y1945D01*
X394Y1945D02*
X400Y1945D01*
X945Y1945D02*
X952Y1945D01*
X0Y1944D02*
X7Y1944D01*
X316Y1944D02*
X322Y1944D01*
X330Y1944D02*
X336Y1944D01*
X366Y1944D02*
X372Y1944D01*
X394Y1944D02*
X400Y1944D01*
X945Y1944D02*
X952Y1944D01*
X0Y1943D02*
X7Y1943D01*
X316Y1943D02*
X322Y1943D01*
X330Y1943D02*
X336Y1943D01*
X366Y1943D02*
X372Y1943D01*
X394Y1943D02*
X400Y1943D01*
X945Y1943D02*
X952Y1943D01*
X0Y1942D02*
X7Y1942D01*
X316Y1942D02*
X322Y1942D01*
X330Y1942D02*
X336Y1942D01*
X366Y1942D02*
X372Y1942D01*
X394Y1942D02*
X400Y1942D01*
X945Y1942D02*
X952Y1942D01*
X0Y1941D02*
X7Y1941D01*
X316Y1941D02*
X322Y1941D01*
X330Y1941D02*
X336Y1941D01*
X366Y1941D02*
X372Y1941D01*
X394Y1941D02*
X400Y1941D01*
X945Y1941D02*
X952Y1941D01*
X0Y1940D02*
X7Y1940D01*
X316Y1940D02*
X322Y1940D01*
X330Y1940D02*
X336Y1940D01*
X366Y1940D02*
X372Y1940D01*
X394Y1940D02*
X400Y1940D01*
X945Y1940D02*
X952Y1940D01*
X0Y1939D02*
X7Y1939D01*
X316Y1939D02*
X322Y1939D01*
X330Y1939D02*
X336Y1939D01*
X366Y1939D02*
X372Y1939D01*
X394Y1939D02*
X400Y1939D01*
X945Y1939D02*
X952Y1939D01*
X0Y1938D02*
X7Y1938D01*
X316Y1938D02*
X322Y1938D01*
X330Y1938D02*
X336Y1938D01*
X366Y1938D02*
X372Y1938D01*
X394Y1938D02*
X400Y1938D01*
X945Y1938D02*
X952Y1938D01*
X0Y1937D02*
X7Y1937D01*
X316Y1937D02*
X322Y1937D01*
X330Y1937D02*
X336Y1937D01*
X366Y1937D02*
X372Y1937D01*
X394Y1937D02*
X400Y1937D01*
X945Y1937D02*
X952Y1937D01*
X0Y1936D02*
X7Y1936D01*
X316Y1936D02*
X322Y1936D01*
X330Y1936D02*
X336Y1936D01*
X366Y1936D02*
X372Y1936D01*
X394Y1936D02*
X400Y1936D01*
X945Y1936D02*
X952Y1936D01*
X0Y1935D02*
X7Y1935D01*
X316Y1935D02*
X322Y1935D01*
X330Y1935D02*
X336Y1935D01*
X366Y1935D02*
X372Y1935D01*
X393Y1935D02*
X400Y1935D01*
X945Y1935D02*
X952Y1935D01*
X0Y1934D02*
X7Y1934D01*
X316Y1934D02*
X322Y1934D01*
X330Y1934D02*
X336Y1934D01*
X366Y1934D02*
X373Y1934D01*
X393Y1934D02*
X399Y1934D01*
X945Y1934D02*
X952Y1934D01*
X0Y1933D02*
X7Y1933D01*
X316Y1933D02*
X322Y1933D01*
X330Y1933D02*
X336Y1933D01*
X366Y1933D02*
X373Y1933D01*
X392Y1933D02*
X399Y1933D01*
X945Y1933D02*
X952Y1933D01*
X0Y1932D02*
X7Y1932D01*
X316Y1932D02*
X347Y1932D01*
X367Y1932D02*
X399Y1932D01*
X945Y1932D02*
X952Y1932D01*
X0Y1931D02*
X7Y1931D01*
X316Y1931D02*
X348Y1931D01*
X367Y1931D02*
X398Y1931D01*
X945Y1931D02*
X952Y1931D01*
X0Y1930D02*
X7Y1930D01*
X316Y1930D02*
X349Y1930D01*
X368Y1930D02*
X398Y1930D01*
X945Y1930D02*
X952Y1930D01*
X0Y1929D02*
X7Y1929D01*
X316Y1929D02*
X349Y1929D01*
X369Y1929D02*
X397Y1929D01*
X945Y1929D02*
X952Y1929D01*
X0Y1928D02*
X7Y1928D01*
X316Y1928D02*
X349Y1928D01*
X369Y1928D02*
X396Y1928D01*
X945Y1928D02*
X952Y1928D01*
X0Y1927D02*
X7Y1927D01*
X316Y1927D02*
X349Y1927D01*
X371Y1927D02*
X395Y1927D01*
X945Y1927D02*
X952Y1927D01*
X0Y1926D02*
X7Y1926D01*
X317Y1926D02*
X348Y1926D01*
X373Y1926D02*
X393Y1926D01*
X945Y1926D02*
X952Y1926D01*
X0Y1925D02*
X7Y1925D01*
X945Y1925D02*
X952Y1925D01*
X0Y1924D02*
X7Y1924D01*
X945Y1924D02*
X952Y1924D01*
X0Y1923D02*
X7Y1923D01*
X945Y1923D02*
X952Y1923D01*
X0Y1922D02*
X7Y1922D01*
X945Y1922D02*
X952Y1922D01*
X0Y1921D02*
X7Y1921D01*
X945Y1921D02*
X952Y1921D01*
X0Y1920D02*
X7Y1920D01*
X945Y1920D02*
X952Y1920D01*
X0Y1919D02*
X7Y1919D01*
X945Y1919D02*
X952Y1919D01*
X0Y1918D02*
X7Y1918D01*
X945Y1918D02*
X952Y1918D01*
X0Y1917D02*
X7Y1917D01*
X945Y1917D02*
X952Y1917D01*
X0Y1916D02*
X7Y1916D01*
X945Y1916D02*
X952Y1916D01*
X0Y1915D02*
X7Y1915D01*
X945Y1915D02*
X952Y1915D01*
X0Y1914D02*
X7Y1914D01*
X945Y1914D02*
X952Y1914D01*
X0Y1913D02*
X7Y1913D01*
X945Y1913D02*
X952Y1913D01*
X0Y1912D02*
X7Y1912D01*
X945Y1912D02*
X952Y1912D01*
X0Y1911D02*
X7Y1911D01*
X945Y1911D02*
X952Y1911D01*
X0Y1910D02*
X7Y1910D01*
X945Y1910D02*
X952Y1910D01*
X0Y1909D02*
X7Y1909D01*
X945Y1909D02*
X952Y1909D01*
X0Y1908D02*
X7Y1908D01*
X945Y1908D02*
X952Y1908D01*
X0Y1907D02*
X7Y1907D01*
X945Y1907D02*
X952Y1907D01*
X0Y1906D02*
X7Y1906D01*
X945Y1906D02*
X952Y1906D01*
X0Y1905D02*
X7Y1905D01*
X945Y1905D02*
X952Y1905D01*
X0Y1904D02*
X7Y1904D01*
X945Y1904D02*
X952Y1904D01*
X0Y1903D02*
X7Y1903D01*
X945Y1903D02*
X952Y1903D01*
X0Y1902D02*
X7Y1902D01*
X945Y1902D02*
X952Y1902D01*
X0Y1901D02*
X7Y1901D01*
X945Y1901D02*
X952Y1901D01*
X0Y1900D02*
X7Y1900D01*
X945Y1900D02*
X952Y1900D01*
X0Y1899D02*
X7Y1899D01*
X945Y1899D02*
X952Y1899D01*
X0Y1898D02*
X7Y1898D01*
X945Y1898D02*
X952Y1898D01*
X0Y1897D02*
X7Y1897D01*
X945Y1897D02*
X952Y1897D01*
X0Y1896D02*
X7Y1896D01*
X945Y1896D02*
X952Y1896D01*
X0Y1895D02*
X7Y1895D01*
X945Y1895D02*
X952Y1895D01*
X0Y1894D02*
X7Y1894D01*
X945Y1894D02*
X952Y1894D01*
X0Y1893D02*
X7Y1893D01*
X945Y1893D02*
X952Y1893D01*
X0Y1892D02*
X7Y1892D01*
X945Y1892D02*
X952Y1892D01*
X0Y1891D02*
X7Y1891D01*
X945Y1891D02*
X952Y1891D01*
X0Y1890D02*
X7Y1890D01*
X945Y1890D02*
X952Y1890D01*
X0Y1889D02*
X7Y1889D01*
X945Y1889D02*
X952Y1889D01*
X0Y1888D02*
X7Y1888D01*
X945Y1888D02*
X952Y1888D01*
X0Y1887D02*
X7Y1887D01*
X945Y1887D02*
X952Y1887D01*
X0Y1886D02*
X7Y1886D01*
X945Y1886D02*
X952Y1886D01*
X0Y1885D02*
X7Y1885D01*
X945Y1885D02*
X952Y1885D01*
X0Y1884D02*
X7Y1884D01*
X945Y1884D02*
X952Y1884D01*
X0Y1883D02*
X7Y1883D01*
X945Y1883D02*
X952Y1883D01*
X0Y1882D02*
X7Y1882D01*
X945Y1882D02*
X952Y1882D01*
X0Y1881D02*
X7Y1881D01*
X945Y1881D02*
X952Y1881D01*
X0Y1880D02*
X7Y1880D01*
X945Y1880D02*
X952Y1880D01*
X0Y1879D02*
X7Y1879D01*
X945Y1879D02*
X952Y1879D01*
X0Y1878D02*
X7Y1878D01*
X945Y1878D02*
X952Y1878D01*
X0Y1877D02*
X7Y1877D01*
X945Y1877D02*
X952Y1877D01*
X0Y1876D02*
X7Y1876D01*
X945Y1876D02*
X952Y1876D01*
X0Y1875D02*
X7Y1875D01*
X945Y1875D02*
X952Y1875D01*
X0Y1874D02*
X7Y1874D01*
X945Y1874D02*
X952Y1874D01*
X0Y1873D02*
X7Y1873D01*
X945Y1873D02*
X952Y1873D01*
X0Y1872D02*
X7Y1872D01*
X945Y1872D02*
X952Y1872D01*
X0Y1871D02*
X7Y1871D01*
X945Y1871D02*
X952Y1871D01*
X0Y1870D02*
X7Y1870D01*
X945Y1870D02*
X952Y1870D01*
X0Y1869D02*
X7Y1869D01*
X945Y1869D02*
X952Y1869D01*
X0Y1868D02*
X7Y1868D01*
X945Y1868D02*
X952Y1868D01*
X0Y1867D02*
X7Y1867D01*
X945Y1867D02*
X952Y1867D01*
X0Y1866D02*
X7Y1866D01*
X945Y1866D02*
X952Y1866D01*
X0Y1865D02*
X7Y1865D01*
X945Y1865D02*
X952Y1865D01*
X0Y1864D02*
X7Y1864D01*
X945Y1864D02*
X952Y1864D01*
X0Y1863D02*
X7Y1863D01*
X945Y1863D02*
X952Y1863D01*
X0Y1862D02*
X7Y1862D01*
X945Y1862D02*
X952Y1862D01*
X0Y1861D02*
X7Y1861D01*
X945Y1861D02*
X952Y1861D01*
X0Y1860D02*
X7Y1860D01*
X945Y1860D02*
X952Y1860D01*
X0Y1859D02*
X7Y1859D01*
X945Y1859D02*
X952Y1859D01*
X0Y1858D02*
X7Y1858D01*
X945Y1858D02*
X952Y1858D01*
X0Y1857D02*
X7Y1857D01*
X945Y1857D02*
X952Y1857D01*
X0Y1856D02*
X7Y1856D01*
X945Y1856D02*
X952Y1856D01*
X0Y1855D02*
X7Y1855D01*
X945Y1855D02*
X952Y1855D01*
X0Y1854D02*
X7Y1854D01*
X945Y1854D02*
X952Y1854D01*
X0Y1853D02*
X7Y1853D01*
X945Y1853D02*
X952Y1853D01*
X0Y1852D02*
X7Y1852D01*
X945Y1852D02*
X952Y1852D01*
X0Y1851D02*
X7Y1851D01*
X945Y1851D02*
X952Y1851D01*
X0Y1850D02*
X7Y1850D01*
X945Y1850D02*
X952Y1850D01*
X0Y1849D02*
X7Y1849D01*
X945Y1849D02*
X952Y1849D01*
X0Y1848D02*
X7Y1848D01*
X945Y1848D02*
X952Y1848D01*
X0Y1847D02*
X7Y1847D01*
X945Y1847D02*
X952Y1847D01*
X0Y1846D02*
X7Y1846D01*
X945Y1846D02*
X952Y1846D01*
X0Y1845D02*
X7Y1845D01*
X945Y1845D02*
X952Y1845D01*
X0Y1844D02*
X7Y1844D01*
X945Y1844D02*
X952Y1844D01*
X0Y1843D02*
X7Y1843D01*
X945Y1843D02*
X952Y1843D01*
X0Y1842D02*
X7Y1842D01*
X945Y1842D02*
X952Y1842D01*
X0Y1841D02*
X7Y1841D01*
X945Y1841D02*
X952Y1841D01*
X0Y1840D02*
X7Y1840D01*
X945Y1840D02*
X952Y1840D01*
X0Y1839D02*
X7Y1839D01*
X945Y1839D02*
X952Y1839D01*
X0Y1838D02*
X7Y1838D01*
X945Y1838D02*
X952Y1838D01*
X0Y1837D02*
X7Y1837D01*
X945Y1837D02*
X952Y1837D01*
X0Y1836D02*
X7Y1836D01*
X945Y1836D02*
X952Y1836D01*
X0Y1835D02*
X7Y1835D01*
X945Y1835D02*
X952Y1835D01*
X0Y1834D02*
X7Y1834D01*
X945Y1834D02*
X952Y1834D01*
X0Y1833D02*
X7Y1833D01*
X945Y1833D02*
X952Y1833D01*
X0Y1832D02*
X7Y1832D01*
X945Y1832D02*
X952Y1832D01*
X0Y1831D02*
X7Y1831D01*
X945Y1831D02*
X952Y1831D01*
X0Y1830D02*
X7Y1830D01*
X945Y1830D02*
X952Y1830D01*
X0Y1829D02*
X7Y1829D01*
X945Y1829D02*
X952Y1829D01*
X0Y1828D02*
X7Y1828D01*
X945Y1828D02*
X952Y1828D01*
X0Y1827D02*
X7Y1827D01*
X945Y1827D02*
X952Y1827D01*
X0Y1826D02*
X7Y1826D01*
X945Y1826D02*
X952Y1826D01*
X0Y1825D02*
X7Y1825D01*
X945Y1825D02*
X952Y1825D01*
X0Y1824D02*
X7Y1824D01*
X945Y1824D02*
X952Y1824D01*
X0Y1823D02*
X7Y1823D01*
X945Y1823D02*
X952Y1823D01*
X0Y1822D02*
X7Y1822D01*
X945Y1822D02*
X952Y1822D01*
X0Y1821D02*
X7Y1821D01*
X945Y1821D02*
X952Y1821D01*
X0Y1820D02*
X7Y1820D01*
X945Y1820D02*
X952Y1820D01*
X0Y1819D02*
X7Y1819D01*
X945Y1819D02*
X952Y1819D01*
X0Y1818D02*
X7Y1818D01*
X945Y1818D02*
X952Y1818D01*
X0Y1817D02*
X7Y1817D01*
X945Y1817D02*
X952Y1817D01*
X0Y1816D02*
X7Y1816D01*
X945Y1816D02*
X952Y1816D01*
X0Y1815D02*
X7Y1815D01*
X945Y1815D02*
X952Y1815D01*
X0Y1814D02*
X7Y1814D01*
X945Y1814D02*
X952Y1814D01*
X0Y1813D02*
X7Y1813D01*
X945Y1813D02*
X952Y1813D01*
X0Y1812D02*
X7Y1812D01*
X945Y1812D02*
X952Y1812D01*
X0Y1811D02*
X7Y1811D01*
X945Y1811D02*
X952Y1811D01*
X0Y1810D02*
X7Y1810D01*
X945Y1810D02*
X952Y1810D01*
X0Y1809D02*
X7Y1809D01*
X945Y1809D02*
X952Y1809D01*
X0Y1808D02*
X7Y1808D01*
X945Y1808D02*
X952Y1808D01*
X0Y1807D02*
X7Y1807D01*
X945Y1807D02*
X952Y1807D01*
X0Y1806D02*
X7Y1806D01*
X945Y1806D02*
X952Y1806D01*
X0Y1805D02*
X7Y1805D01*
X945Y1805D02*
X952Y1805D01*
X0Y1804D02*
X7Y1804D01*
X945Y1804D02*
X952Y1804D01*
X0Y1803D02*
X7Y1803D01*
X945Y1803D02*
X952Y1803D01*
X0Y1802D02*
X7Y1802D01*
X945Y1802D02*
X952Y1802D01*
X0Y1801D02*
X7Y1801D01*
X945Y1801D02*
X952Y1801D01*
X0Y1800D02*
X7Y1800D01*
X945Y1800D02*
X952Y1800D01*
X0Y1799D02*
X7Y1799D01*
X945Y1799D02*
X952Y1799D01*
X0Y1798D02*
X7Y1798D01*
X945Y1798D02*
X952Y1798D01*
X0Y1797D02*
X7Y1797D01*
X945Y1797D02*
X952Y1797D01*
X0Y1796D02*
X7Y1796D01*
X945Y1796D02*
X952Y1796D01*
X0Y1795D02*
X7Y1795D01*
X945Y1795D02*
X952Y1795D01*
X0Y1794D02*
X7Y1794D01*
X945Y1794D02*
X952Y1794D01*
X0Y1793D02*
X7Y1793D01*
X945Y1793D02*
X952Y1793D01*
X0Y1792D02*
X7Y1792D01*
X945Y1792D02*
X952Y1792D01*
X0Y1791D02*
X7Y1791D01*
X945Y1791D02*
X952Y1791D01*
X0Y1790D02*
X7Y1790D01*
X945Y1790D02*
X952Y1790D01*
X0Y1789D02*
X7Y1789D01*
X945Y1789D02*
X952Y1789D01*
X0Y1788D02*
X7Y1788D01*
X945Y1788D02*
X952Y1788D01*
X0Y1787D02*
X7Y1787D01*
X945Y1787D02*
X952Y1787D01*
X0Y1786D02*
X7Y1786D01*
X945Y1786D02*
X952Y1786D01*
X0Y1785D02*
X7Y1785D01*
X945Y1785D02*
X952Y1785D01*
X0Y1784D02*
X7Y1784D01*
X945Y1784D02*
X952Y1784D01*
X0Y1783D02*
X7Y1783D01*
X945Y1783D02*
X952Y1783D01*
X0Y1782D02*
X7Y1782D01*
X945Y1782D02*
X952Y1782D01*
X0Y1781D02*
X7Y1781D01*
X945Y1781D02*
X952Y1781D01*
X0Y1780D02*
X7Y1780D01*
X945Y1780D02*
X952Y1780D01*
X0Y1779D02*
X7Y1779D01*
X945Y1779D02*
X952Y1779D01*
X0Y1778D02*
X7Y1778D01*
X945Y1778D02*
X952Y1778D01*
X0Y1777D02*
X7Y1777D01*
X945Y1777D02*
X952Y1777D01*
X0Y1776D02*
X7Y1776D01*
X945Y1776D02*
X952Y1776D01*
X0Y1775D02*
X7Y1775D01*
X945Y1775D02*
X952Y1775D01*
X0Y1774D02*
X7Y1774D01*
X945Y1774D02*
X952Y1774D01*
X0Y1773D02*
X7Y1773D01*
X945Y1773D02*
X952Y1773D01*
X0Y1772D02*
X7Y1772D01*
X945Y1772D02*
X952Y1772D01*
X0Y1771D02*
X7Y1771D01*
X945Y1771D02*
X952Y1771D01*
X0Y1770D02*
X7Y1770D01*
X945Y1770D02*
X952Y1770D01*
X0Y1769D02*
X7Y1769D01*
X945Y1769D02*
X952Y1769D01*
X0Y1768D02*
X7Y1768D01*
X945Y1768D02*
X952Y1768D01*
X0Y1767D02*
X7Y1767D01*
X945Y1767D02*
X952Y1767D01*
X0Y1766D02*
X7Y1766D01*
X945Y1766D02*
X952Y1766D01*
X0Y1765D02*
X7Y1765D01*
X945Y1765D02*
X952Y1765D01*
X0Y1764D02*
X7Y1764D01*
X945Y1764D02*
X952Y1764D01*
X0Y1763D02*
X7Y1763D01*
X945Y1763D02*
X952Y1763D01*
X0Y1762D02*
X7Y1762D01*
X945Y1762D02*
X952Y1762D01*
X0Y1761D02*
X7Y1761D01*
X945Y1761D02*
X952Y1761D01*
X0Y1760D02*
X7Y1760D01*
X945Y1760D02*
X952Y1760D01*
X0Y1759D02*
X7Y1759D01*
X945Y1759D02*
X952Y1759D01*
X0Y1758D02*
X7Y1758D01*
X945Y1758D02*
X952Y1758D01*
X0Y1757D02*
X7Y1757D01*
X945Y1757D02*
X952Y1757D01*
X0Y1756D02*
X7Y1756D01*
X945Y1756D02*
X952Y1756D01*
X0Y1755D02*
X7Y1755D01*
X945Y1755D02*
X952Y1755D01*
X0Y1754D02*
X7Y1754D01*
X945Y1754D02*
X952Y1754D01*
X0Y1753D02*
X7Y1753D01*
X945Y1753D02*
X952Y1753D01*
X0Y1752D02*
X7Y1752D01*
X945Y1752D02*
X952Y1752D01*
X0Y1751D02*
X7Y1751D01*
X945Y1751D02*
X952Y1751D01*
X0Y1750D02*
X7Y1750D01*
X945Y1750D02*
X952Y1750D01*
X0Y1749D02*
X7Y1749D01*
X945Y1749D02*
X952Y1749D01*
X0Y1748D02*
X7Y1748D01*
X945Y1748D02*
X952Y1748D01*
X0Y1747D02*
X7Y1747D01*
X945Y1747D02*
X952Y1747D01*
X0Y1746D02*
X7Y1746D01*
X945Y1746D02*
X952Y1746D01*
X0Y1745D02*
X7Y1745D01*
X945Y1745D02*
X952Y1745D01*
X0Y1744D02*
X7Y1744D01*
X945Y1744D02*
X952Y1744D01*
X0Y1743D02*
X7Y1743D01*
X945Y1743D02*
X952Y1743D01*
X0Y1742D02*
X7Y1742D01*
X945Y1742D02*
X952Y1742D01*
X0Y1741D02*
X7Y1741D01*
X945Y1741D02*
X952Y1741D01*
X0Y1740D02*
X7Y1740D01*
X945Y1740D02*
X952Y1740D01*
X0Y1739D02*
X7Y1739D01*
X945Y1739D02*
X952Y1739D01*
X0Y1738D02*
X7Y1738D01*
X945Y1738D02*
X952Y1738D01*
X0Y1737D02*
X7Y1737D01*
X945Y1737D02*
X952Y1737D01*
X0Y1736D02*
X7Y1736D01*
X945Y1736D02*
X952Y1736D01*
X0Y1735D02*
X7Y1735D01*
X945Y1735D02*
X952Y1735D01*
X0Y1734D02*
X7Y1734D01*
X945Y1734D02*
X952Y1734D01*
X0Y1733D02*
X7Y1733D01*
X945Y1733D02*
X952Y1733D01*
X0Y1732D02*
X7Y1732D01*
X945Y1732D02*
X952Y1732D01*
X0Y1731D02*
X7Y1731D01*
X945Y1731D02*
X952Y1731D01*
X0Y1730D02*
X7Y1730D01*
X945Y1730D02*
X952Y1730D01*
X0Y1729D02*
X7Y1729D01*
X945Y1729D02*
X952Y1729D01*
X0Y1728D02*
X7Y1728D01*
X945Y1728D02*
X952Y1728D01*
X0Y1727D02*
X7Y1727D01*
X945Y1727D02*
X952Y1727D01*
X0Y1726D02*
X7Y1726D01*
X945Y1726D02*
X952Y1726D01*
X0Y1725D02*
X7Y1725D01*
X945Y1725D02*
X952Y1725D01*
X0Y1724D02*
X7Y1724D01*
X945Y1724D02*
X952Y1724D01*
X0Y1723D02*
X7Y1723D01*
X945Y1723D02*
X952Y1723D01*
X0Y1722D02*
X7Y1722D01*
X945Y1722D02*
X952Y1722D01*
X0Y1721D02*
X7Y1721D01*
X945Y1721D02*
X952Y1721D01*
X0Y1720D02*
X7Y1720D01*
X945Y1720D02*
X952Y1720D01*
X0Y1719D02*
X7Y1719D01*
X945Y1719D02*
X952Y1719D01*
X0Y1718D02*
X7Y1718D01*
X945Y1718D02*
X952Y1718D01*
X0Y1717D02*
X7Y1717D01*
X945Y1717D02*
X952Y1717D01*
X0Y1716D02*
X7Y1716D01*
X945Y1716D02*
X952Y1716D01*
X0Y1715D02*
X7Y1715D01*
X945Y1715D02*
X952Y1715D01*
X0Y1714D02*
X7Y1714D01*
X945Y1714D02*
X952Y1714D01*
X0Y1713D02*
X7Y1713D01*
X945Y1713D02*
X952Y1713D01*
X0Y1712D02*
X7Y1712D01*
X945Y1712D02*
X952Y1712D01*
X0Y1711D02*
X7Y1711D01*
X945Y1711D02*
X952Y1711D01*
X0Y1710D02*
X7Y1710D01*
X945Y1710D02*
X952Y1710D01*
X0Y1709D02*
X7Y1709D01*
X945Y1709D02*
X952Y1709D01*
X0Y1708D02*
X7Y1708D01*
X945Y1708D02*
X952Y1708D01*
X0Y1707D02*
X7Y1707D01*
X945Y1707D02*
X952Y1707D01*
X0Y1706D02*
X7Y1706D01*
X945Y1706D02*
X952Y1706D01*
X0Y1705D02*
X7Y1705D01*
X945Y1705D02*
X952Y1705D01*
X0Y1704D02*
X7Y1704D01*
X945Y1704D02*
X952Y1704D01*
X0Y1703D02*
X7Y1703D01*
X945Y1703D02*
X952Y1703D01*
X0Y1702D02*
X7Y1702D01*
X945Y1702D02*
X952Y1702D01*
X0Y1701D02*
X7Y1701D01*
X945Y1701D02*
X952Y1701D01*
X0Y1700D02*
X7Y1700D01*
X945Y1700D02*
X952Y1700D01*
X0Y1699D02*
X7Y1699D01*
X945Y1699D02*
X952Y1699D01*
X0Y1698D02*
X7Y1698D01*
X945Y1698D02*
X952Y1698D01*
X0Y1697D02*
X7Y1697D01*
X945Y1697D02*
X952Y1697D01*
X0Y1696D02*
X7Y1696D01*
X945Y1696D02*
X952Y1696D01*
X0Y1695D02*
X7Y1695D01*
X945Y1695D02*
X952Y1695D01*
X0Y1694D02*
X7Y1694D01*
X945Y1694D02*
X952Y1694D01*
X0Y1693D02*
X7Y1693D01*
X945Y1693D02*
X952Y1693D01*
X0Y1692D02*
X7Y1692D01*
X945Y1692D02*
X952Y1692D01*
X0Y1691D02*
X7Y1691D01*
X945Y1691D02*
X952Y1691D01*
X0Y1690D02*
X7Y1690D01*
X945Y1690D02*
X952Y1690D01*
X0Y1689D02*
X7Y1689D01*
X945Y1689D02*
X952Y1689D01*
X0Y1688D02*
X7Y1688D01*
X945Y1688D02*
X952Y1688D01*
X0Y1687D02*
X7Y1687D01*
X945Y1687D02*
X952Y1687D01*
X0Y1686D02*
X7Y1686D01*
X945Y1686D02*
X952Y1686D01*
X0Y1685D02*
X7Y1685D01*
X945Y1685D02*
X952Y1685D01*
X0Y1684D02*
X7Y1684D01*
X945Y1684D02*
X952Y1684D01*
X0Y1683D02*
X7Y1683D01*
X945Y1683D02*
X952Y1683D01*
X0Y1682D02*
X7Y1682D01*
X945Y1682D02*
X952Y1682D01*
X0Y1681D02*
X7Y1681D01*
X945Y1681D02*
X952Y1681D01*
X0Y1680D02*
X7Y1680D01*
X945Y1680D02*
X952Y1680D01*
X0Y1679D02*
X7Y1679D01*
X945Y1679D02*
X952Y1679D01*
X0Y1678D02*
X7Y1678D01*
X945Y1678D02*
X952Y1678D01*
X0Y1677D02*
X7Y1677D01*
X945Y1677D02*
X952Y1677D01*
X0Y1676D02*
X7Y1676D01*
X945Y1676D02*
X952Y1676D01*
X0Y1675D02*
X7Y1675D01*
X945Y1675D02*
X952Y1675D01*
X0Y1674D02*
X7Y1674D01*
X945Y1674D02*
X952Y1674D01*
X0Y1673D02*
X7Y1673D01*
X945Y1673D02*
X952Y1673D01*
X0Y1672D02*
X7Y1672D01*
X945Y1672D02*
X952Y1672D01*
X0Y1671D02*
X7Y1671D01*
X945Y1671D02*
X952Y1671D01*
X0Y1670D02*
X7Y1670D01*
X945Y1670D02*
X952Y1670D01*
X0Y1669D02*
X7Y1669D01*
X945Y1669D02*
X952Y1669D01*
X0Y1668D02*
X7Y1668D01*
X945Y1668D02*
X952Y1668D01*
X0Y1667D02*
X7Y1667D01*
X945Y1667D02*
X952Y1667D01*
X0Y1666D02*
X7Y1666D01*
X945Y1666D02*
X952Y1666D01*
X0Y1665D02*
X7Y1665D01*
X945Y1665D02*
X952Y1665D01*
X0Y1664D02*
X7Y1664D01*
X945Y1664D02*
X952Y1664D01*
X0Y1663D02*
X7Y1663D01*
X945Y1663D02*
X952Y1663D01*
X0Y1662D02*
X7Y1662D01*
X945Y1662D02*
X952Y1662D01*
X0Y1661D02*
X7Y1661D01*
X945Y1661D02*
X952Y1661D01*
X0Y1660D02*
X7Y1660D01*
X945Y1660D02*
X952Y1660D01*
X0Y1659D02*
X7Y1659D01*
X945Y1659D02*
X952Y1659D01*
X0Y1658D02*
X7Y1658D01*
X945Y1658D02*
X952Y1658D01*
X0Y1657D02*
X7Y1657D01*
X945Y1657D02*
X952Y1657D01*
X0Y1656D02*
X7Y1656D01*
X945Y1656D02*
X952Y1656D01*
X0Y1655D02*
X7Y1655D01*
X945Y1655D02*
X952Y1655D01*
X0Y1654D02*
X7Y1654D01*
X945Y1654D02*
X952Y1654D01*
X0Y1653D02*
X7Y1653D01*
X945Y1653D02*
X952Y1653D01*
X0Y1652D02*
X7Y1652D01*
X945Y1652D02*
X952Y1652D01*
X0Y1651D02*
X7Y1651D01*
X945Y1651D02*
X952Y1651D01*
X0Y1650D02*
X7Y1650D01*
X945Y1650D02*
X952Y1650D01*
X0Y1649D02*
X7Y1649D01*
X945Y1649D02*
X952Y1649D01*
X0Y1648D02*
X7Y1648D01*
X945Y1648D02*
X952Y1648D01*
X0Y1647D02*
X7Y1647D01*
X945Y1647D02*
X952Y1647D01*
X0Y1646D02*
X7Y1646D01*
X945Y1646D02*
X952Y1646D01*
X0Y1645D02*
X7Y1645D01*
X945Y1645D02*
X952Y1645D01*
X0Y1644D02*
X7Y1644D01*
X945Y1644D02*
X952Y1644D01*
X0Y1643D02*
X7Y1643D01*
X945Y1643D02*
X952Y1643D01*
X0Y1642D02*
X7Y1642D01*
X945Y1642D02*
X952Y1642D01*
X0Y1641D02*
X7Y1641D01*
X945Y1641D02*
X952Y1641D01*
X0Y1640D02*
X7Y1640D01*
X945Y1640D02*
X952Y1640D01*
X0Y1639D02*
X7Y1639D01*
X945Y1639D02*
X952Y1639D01*
X0Y1638D02*
X7Y1638D01*
X945Y1638D02*
X952Y1638D01*
X0Y1637D02*
X7Y1637D01*
X945Y1637D02*
X952Y1637D01*
X0Y1636D02*
X7Y1636D01*
X945Y1636D02*
X952Y1636D01*
X0Y1635D02*
X7Y1635D01*
X945Y1635D02*
X952Y1635D01*
X0Y1634D02*
X7Y1634D01*
X945Y1634D02*
X952Y1634D01*
X0Y1633D02*
X7Y1633D01*
X945Y1633D02*
X952Y1633D01*
X0Y1632D02*
X7Y1632D01*
X945Y1632D02*
X952Y1632D01*
X0Y1631D02*
X7Y1631D01*
X945Y1631D02*
X952Y1631D01*
X0Y1630D02*
X7Y1630D01*
X945Y1630D02*
X952Y1630D01*
X0Y1629D02*
X7Y1629D01*
X945Y1629D02*
X952Y1629D01*
X0Y1628D02*
X7Y1628D01*
X945Y1628D02*
X952Y1628D01*
X0Y1627D02*
X7Y1627D01*
X945Y1627D02*
X952Y1627D01*
X0Y1626D02*
X7Y1626D01*
X945Y1626D02*
X952Y1626D01*
X0Y1625D02*
X7Y1625D01*
X945Y1625D02*
X952Y1625D01*
X0Y1624D02*
X7Y1624D01*
X945Y1624D02*
X952Y1624D01*
X0Y1623D02*
X7Y1623D01*
X945Y1623D02*
X952Y1623D01*
X0Y1622D02*
X7Y1622D01*
X945Y1622D02*
X952Y1622D01*
X0Y1621D02*
X7Y1621D01*
X945Y1621D02*
X952Y1621D01*
X0Y1620D02*
X7Y1620D01*
X945Y1620D02*
X952Y1620D01*
X0Y1619D02*
X7Y1619D01*
X945Y1619D02*
X952Y1619D01*
X0Y1618D02*
X7Y1618D01*
X945Y1618D02*
X952Y1618D01*
X0Y1617D02*
X7Y1617D01*
X945Y1617D02*
X952Y1617D01*
X0Y1616D02*
X7Y1616D01*
X945Y1616D02*
X952Y1616D01*
X0Y1615D02*
X7Y1615D01*
X945Y1615D02*
X952Y1615D01*
X0Y1614D02*
X7Y1614D01*
X945Y1614D02*
X952Y1614D01*
X0Y1613D02*
X7Y1613D01*
X945Y1613D02*
X952Y1613D01*
X0Y1612D02*
X7Y1612D01*
X945Y1612D02*
X952Y1612D01*
X0Y1611D02*
X7Y1611D01*
X945Y1611D02*
X952Y1611D01*
X0Y1610D02*
X7Y1610D01*
X945Y1610D02*
X952Y1610D01*
X0Y1609D02*
X7Y1609D01*
X945Y1609D02*
X952Y1609D01*
X0Y1608D02*
X7Y1608D01*
X945Y1608D02*
X952Y1608D01*
X0Y1607D02*
X7Y1607D01*
X945Y1607D02*
X952Y1607D01*
X0Y1606D02*
X7Y1606D01*
X945Y1606D02*
X952Y1606D01*
X0Y1605D02*
X7Y1605D01*
X945Y1605D02*
X952Y1605D01*
X0Y1604D02*
X7Y1604D01*
X945Y1604D02*
X952Y1604D01*
X0Y1603D02*
X7Y1603D01*
X945Y1603D02*
X952Y1603D01*
X0Y1602D02*
X7Y1602D01*
X945Y1602D02*
X952Y1602D01*
X0Y1601D02*
X7Y1601D01*
X945Y1601D02*
X952Y1601D01*
X0Y1600D02*
X7Y1600D01*
X945Y1600D02*
X952Y1600D01*
X0Y1599D02*
X7Y1599D01*
X945Y1599D02*
X952Y1599D01*
X0Y1598D02*
X7Y1598D01*
X945Y1598D02*
X952Y1598D01*
X0Y1597D02*
X7Y1597D01*
X945Y1597D02*
X952Y1597D01*
X0Y1596D02*
X7Y1596D01*
X945Y1596D02*
X952Y1596D01*
X0Y1595D02*
X7Y1595D01*
X945Y1595D02*
X952Y1595D01*
X0Y1594D02*
X7Y1594D01*
X945Y1594D02*
X952Y1594D01*
X0Y1593D02*
X7Y1593D01*
X945Y1593D02*
X952Y1593D01*
X0Y1592D02*
X7Y1592D01*
X945Y1592D02*
X952Y1592D01*
X0Y1591D02*
X7Y1591D01*
X945Y1591D02*
X952Y1591D01*
X0Y1590D02*
X7Y1590D01*
X945Y1590D02*
X952Y1590D01*
X0Y1589D02*
X7Y1589D01*
X945Y1589D02*
X952Y1589D01*
X0Y1588D02*
X7Y1588D01*
X945Y1588D02*
X952Y1588D01*
X0Y1587D02*
X7Y1587D01*
X945Y1587D02*
X952Y1587D01*
X0Y1586D02*
X7Y1586D01*
X945Y1586D02*
X952Y1586D01*
X0Y1585D02*
X7Y1585D01*
X945Y1585D02*
X952Y1585D01*
X0Y1584D02*
X7Y1584D01*
X945Y1584D02*
X952Y1584D01*
X0Y1583D02*
X7Y1583D01*
X945Y1583D02*
X952Y1583D01*
X0Y1582D02*
X7Y1582D01*
X945Y1582D02*
X952Y1582D01*
X0Y1581D02*
X7Y1581D01*
X945Y1581D02*
X952Y1581D01*
X0Y1580D02*
X7Y1580D01*
X945Y1580D02*
X952Y1580D01*
X0Y1579D02*
X7Y1579D01*
X945Y1579D02*
X952Y1579D01*
X0Y1578D02*
X7Y1578D01*
X945Y1578D02*
X952Y1578D01*
X0Y1577D02*
X7Y1577D01*
X945Y1577D02*
X952Y1577D01*
X0Y1576D02*
X7Y1576D01*
X945Y1576D02*
X952Y1576D01*
X0Y1575D02*
X7Y1575D01*
X945Y1575D02*
X952Y1575D01*
X0Y1574D02*
X7Y1574D01*
X945Y1574D02*
X952Y1574D01*
X0Y1573D02*
X7Y1573D01*
X945Y1573D02*
X952Y1573D01*
X0Y1572D02*
X7Y1572D01*
X945Y1572D02*
X952Y1572D01*
X0Y1571D02*
X7Y1571D01*
X945Y1571D02*
X952Y1571D01*
X0Y1570D02*
X7Y1570D01*
X945Y1570D02*
X952Y1570D01*
X0Y1569D02*
X7Y1569D01*
X945Y1569D02*
X952Y1569D01*
X0Y1568D02*
X7Y1568D01*
X945Y1568D02*
X952Y1568D01*
X0Y1567D02*
X7Y1567D01*
X945Y1567D02*
X952Y1567D01*
X0Y1566D02*
X7Y1566D01*
X945Y1566D02*
X952Y1566D01*
X0Y1565D02*
X7Y1565D01*
X945Y1565D02*
X952Y1565D01*
X0Y1564D02*
X7Y1564D01*
X945Y1564D02*
X952Y1564D01*
X0Y1563D02*
X7Y1563D01*
X945Y1563D02*
X952Y1563D01*
X0Y1562D02*
X7Y1562D01*
X945Y1562D02*
X952Y1562D01*
X0Y1561D02*
X7Y1561D01*
X945Y1561D02*
X952Y1561D01*
X0Y1560D02*
X7Y1560D01*
X945Y1560D02*
X952Y1560D01*
X0Y1559D02*
X7Y1559D01*
X945Y1559D02*
X952Y1559D01*
X0Y1558D02*
X7Y1558D01*
X945Y1558D02*
X952Y1558D01*
X0Y1557D02*
X7Y1557D01*
X945Y1557D02*
X952Y1557D01*
X0Y1556D02*
X7Y1556D01*
X945Y1556D02*
X952Y1556D01*
X0Y1555D02*
X7Y1555D01*
X945Y1555D02*
X952Y1555D01*
X0Y1554D02*
X7Y1554D01*
X945Y1554D02*
X952Y1554D01*
X0Y1553D02*
X7Y1553D01*
X945Y1553D02*
X952Y1553D01*
X0Y1552D02*
X7Y1552D01*
X945Y1552D02*
X952Y1552D01*
X0Y1551D02*
X7Y1551D01*
X945Y1551D02*
X952Y1551D01*
X0Y1550D02*
X7Y1550D01*
X945Y1550D02*
X952Y1550D01*
X0Y1549D02*
X7Y1549D01*
X945Y1549D02*
X952Y1549D01*
X0Y1548D02*
X7Y1548D01*
X945Y1548D02*
X952Y1548D01*
X0Y1547D02*
X7Y1547D01*
X945Y1547D02*
X952Y1547D01*
X0Y1546D02*
X7Y1546D01*
X945Y1546D02*
X952Y1546D01*
X0Y1545D02*
X7Y1545D01*
X945Y1545D02*
X952Y1545D01*
X0Y1544D02*
X7Y1544D01*
X945Y1544D02*
X952Y1544D01*
X0Y1543D02*
X7Y1543D01*
X945Y1543D02*
X952Y1543D01*
X0Y1542D02*
X7Y1542D01*
X945Y1542D02*
X952Y1542D01*
X0Y1541D02*
X7Y1541D01*
X945Y1541D02*
X952Y1541D01*
X0Y1540D02*
X7Y1540D01*
X945Y1540D02*
X952Y1540D01*
X0Y1539D02*
X7Y1539D01*
X945Y1539D02*
X952Y1539D01*
X0Y1538D02*
X7Y1538D01*
X945Y1538D02*
X952Y1538D01*
X0Y1537D02*
X7Y1537D01*
X945Y1537D02*
X952Y1537D01*
X0Y1536D02*
X7Y1536D01*
X945Y1536D02*
X952Y1536D01*
X0Y1535D02*
X7Y1535D01*
X945Y1535D02*
X952Y1535D01*
X0Y1534D02*
X7Y1534D01*
X945Y1534D02*
X952Y1534D01*
X0Y1533D02*
X7Y1533D01*
X945Y1533D02*
X952Y1533D01*
X0Y1532D02*
X7Y1532D01*
X945Y1532D02*
X952Y1532D01*
X0Y1531D02*
X7Y1531D01*
X945Y1531D02*
X952Y1531D01*
X0Y1530D02*
X7Y1530D01*
X945Y1530D02*
X952Y1530D01*
X0Y1529D02*
X7Y1529D01*
X945Y1529D02*
X952Y1529D01*
X0Y1528D02*
X7Y1528D01*
X945Y1528D02*
X952Y1528D01*
X0Y1527D02*
X7Y1527D01*
X945Y1527D02*
X952Y1527D01*
X0Y1526D02*
X7Y1526D01*
X612Y1526D02*
X631Y1526D01*
X945Y1526D02*
X952Y1526D01*
X0Y1525D02*
X7Y1525D01*
X611Y1525D02*
X633Y1525D01*
X945Y1525D02*
X952Y1525D01*
X0Y1524D02*
X7Y1524D01*
X610Y1524D02*
X633Y1524D01*
X945Y1524D02*
X952Y1524D01*
X0Y1523D02*
X7Y1523D01*
X610Y1523D02*
X633Y1523D01*
X945Y1523D02*
X952Y1523D01*
X0Y1522D02*
X7Y1522D01*
X610Y1522D02*
X633Y1522D01*
X945Y1522D02*
X952Y1522D01*
X0Y1521D02*
X7Y1521D01*
X610Y1521D02*
X633Y1521D01*
X945Y1521D02*
X952Y1521D01*
X0Y1520D02*
X7Y1520D01*
X610Y1520D02*
X632Y1520D01*
X945Y1520D02*
X952Y1520D01*
X0Y1519D02*
X7Y1519D01*
X610Y1519D02*
X616Y1519D01*
X945Y1519D02*
X952Y1519D01*
X0Y1518D02*
X7Y1518D01*
X610Y1518D02*
X616Y1518D01*
X945Y1518D02*
X952Y1518D01*
X0Y1517D02*
X7Y1517D01*
X610Y1517D02*
X616Y1517D01*
X945Y1517D02*
X952Y1517D01*
X0Y1516D02*
X7Y1516D01*
X610Y1516D02*
X616Y1516D01*
X945Y1516D02*
X952Y1516D01*
X0Y1515D02*
X7Y1515D01*
X610Y1515D02*
X616Y1515D01*
X945Y1515D02*
X952Y1515D01*
X0Y1514D02*
X7Y1514D01*
X610Y1514D02*
X616Y1514D01*
X945Y1514D02*
X952Y1514D01*
X0Y1513D02*
X7Y1513D01*
X610Y1513D02*
X616Y1513D01*
X945Y1513D02*
X952Y1513D01*
X0Y1512D02*
X7Y1512D01*
X610Y1512D02*
X663Y1512D01*
X945Y1512D02*
X952Y1512D01*
X0Y1511D02*
X7Y1511D01*
X610Y1511D02*
X663Y1511D01*
X945Y1511D02*
X952Y1511D01*
X0Y1510D02*
X7Y1510D01*
X610Y1510D02*
X663Y1510D01*
X945Y1510D02*
X952Y1510D01*
X0Y1509D02*
X7Y1509D01*
X610Y1509D02*
X663Y1509D01*
X945Y1509D02*
X952Y1509D01*
X0Y1508D02*
X7Y1508D01*
X610Y1508D02*
X663Y1508D01*
X945Y1508D02*
X952Y1508D01*
X0Y1507D02*
X7Y1507D01*
X610Y1507D02*
X663Y1507D01*
X945Y1507D02*
X952Y1507D01*
X0Y1506D02*
X7Y1506D01*
X610Y1506D02*
X663Y1506D01*
X945Y1506D02*
X952Y1506D01*
X0Y1505D02*
X7Y1505D01*
X610Y1505D02*
X616Y1505D01*
X657Y1505D02*
X663Y1505D01*
X945Y1505D02*
X952Y1505D01*
X0Y1504D02*
X7Y1504D01*
X610Y1504D02*
X616Y1504D01*
X657Y1504D02*
X663Y1504D01*
X945Y1504D02*
X952Y1504D01*
X0Y1503D02*
X7Y1503D01*
X610Y1503D02*
X616Y1503D01*
X657Y1503D02*
X663Y1503D01*
X945Y1503D02*
X952Y1503D01*
X0Y1502D02*
X7Y1502D01*
X610Y1502D02*
X616Y1502D01*
X657Y1502D02*
X663Y1502D01*
X945Y1502D02*
X952Y1502D01*
X0Y1501D02*
X7Y1501D01*
X610Y1501D02*
X616Y1501D01*
X657Y1501D02*
X663Y1501D01*
X945Y1501D02*
X952Y1501D01*
X0Y1500D02*
X7Y1500D01*
X610Y1500D02*
X616Y1500D01*
X657Y1500D02*
X663Y1500D01*
X945Y1500D02*
X952Y1500D01*
X0Y1499D02*
X7Y1499D01*
X610Y1499D02*
X616Y1499D01*
X657Y1499D02*
X663Y1499D01*
X945Y1499D02*
X952Y1499D01*
X0Y1498D02*
X7Y1498D01*
X610Y1498D02*
X616Y1498D01*
X657Y1498D02*
X663Y1498D01*
X945Y1498D02*
X952Y1498D01*
X0Y1497D02*
X7Y1497D01*
X610Y1497D02*
X616Y1497D01*
X657Y1497D02*
X663Y1497D01*
X945Y1497D02*
X952Y1497D01*
X0Y1496D02*
X7Y1496D01*
X610Y1496D02*
X616Y1496D01*
X657Y1496D02*
X663Y1496D01*
X945Y1496D02*
X952Y1496D01*
X0Y1495D02*
X7Y1495D01*
X610Y1495D02*
X616Y1495D01*
X657Y1495D02*
X663Y1495D01*
X945Y1495D02*
X952Y1495D01*
X0Y1494D02*
X7Y1494D01*
X610Y1494D02*
X616Y1494D01*
X657Y1494D02*
X663Y1494D01*
X945Y1494D02*
X952Y1494D01*
X0Y1493D02*
X7Y1493D01*
X611Y1493D02*
X615Y1493D01*
X658Y1493D02*
X662Y1493D01*
X945Y1493D02*
X952Y1493D01*
X0Y1492D02*
X7Y1492D01*
X612Y1492D02*
X614Y1492D01*
X659Y1492D02*
X661Y1492D01*
X945Y1492D02*
X952Y1492D01*
X0Y1491D02*
X7Y1491D01*
X945Y1491D02*
X952Y1491D01*
X0Y1490D02*
X7Y1490D01*
X945Y1490D02*
X952Y1490D01*
X0Y1489D02*
X7Y1489D01*
X945Y1489D02*
X952Y1489D01*
X0Y1488D02*
X7Y1488D01*
X945Y1488D02*
X952Y1488D01*
X0Y1487D02*
X7Y1487D01*
X945Y1487D02*
X952Y1487D01*
X0Y1486D02*
X7Y1486D01*
X945Y1486D02*
X952Y1486D01*
X0Y1485D02*
X7Y1485D01*
X945Y1485D02*
X952Y1485D01*
X0Y1484D02*
X7Y1484D01*
X945Y1484D02*
X952Y1484D01*
X0Y1483D02*
X7Y1483D01*
X945Y1483D02*
X952Y1483D01*
X0Y1482D02*
X7Y1482D01*
X945Y1482D02*
X952Y1482D01*
X0Y1481D02*
X7Y1481D01*
X945Y1481D02*
X952Y1481D01*
X0Y1480D02*
X7Y1480D01*
X945Y1480D02*
X952Y1480D01*
X0Y1479D02*
X7Y1479D01*
X945Y1479D02*
X952Y1479D01*
X0Y1478D02*
X7Y1478D01*
X945Y1478D02*
X952Y1478D01*
X0Y1477D02*
X7Y1477D01*
X945Y1477D02*
X952Y1477D01*
X0Y1476D02*
X7Y1476D01*
X945Y1476D02*
X952Y1476D01*
X0Y1475D02*
X7Y1475D01*
X611Y1475D02*
X615Y1475D01*
X645Y1475D02*
X657Y1475D01*
X945Y1475D02*
X952Y1475D01*
X0Y1474D02*
X7Y1474D01*
X610Y1474D02*
X617Y1474D01*
X644Y1474D02*
X658Y1474D01*
X945Y1474D02*
X952Y1474D01*
X0Y1473D02*
X7Y1473D01*
X610Y1473D02*
X618Y1473D01*
X643Y1473D02*
X660Y1473D01*
X945Y1473D02*
X952Y1473D01*
X0Y1472D02*
X7Y1472D01*
X610Y1472D02*
X620Y1472D01*
X642Y1472D02*
X661Y1472D01*
X945Y1472D02*
X952Y1472D01*
X0Y1471D02*
X7Y1471D01*
X610Y1471D02*
X622Y1471D01*
X641Y1471D02*
X661Y1471D01*
X945Y1471D02*
X952Y1471D01*
X0Y1470D02*
X7Y1470D01*
X611Y1470D02*
X623Y1470D01*
X640Y1470D02*
X662Y1470D01*
X945Y1470D02*
X952Y1470D01*
X0Y1469D02*
X7Y1469D01*
X612Y1469D02*
X625Y1469D01*
X640Y1469D02*
X662Y1469D01*
X945Y1469D02*
X952Y1469D01*
X0Y1468D02*
X7Y1468D01*
X614Y1468D02*
X627Y1468D01*
X640Y1468D02*
X647Y1468D01*
X656Y1468D02*
X663Y1468D01*
X945Y1468D02*
X952Y1468D01*
X0Y1467D02*
X7Y1467D01*
X616Y1467D02*
X629Y1467D01*
X639Y1467D02*
X646Y1467D01*
X656Y1467D02*
X663Y1467D01*
X945Y1467D02*
X952Y1467D01*
X0Y1466D02*
X7Y1466D01*
X617Y1466D02*
X630Y1466D01*
X639Y1466D02*
X645Y1466D01*
X657Y1466D02*
X663Y1466D01*
X945Y1466D02*
X952Y1466D01*
X0Y1465D02*
X7Y1465D01*
X619Y1465D02*
X632Y1465D01*
X639Y1465D02*
X645Y1465D01*
X657Y1465D02*
X663Y1465D01*
X945Y1465D02*
X952Y1465D01*
X0Y1464D02*
X7Y1464D01*
X621Y1464D02*
X634Y1464D01*
X639Y1464D02*
X645Y1464D01*
X657Y1464D02*
X663Y1464D01*
X945Y1464D02*
X952Y1464D01*
X0Y1463D02*
X7Y1463D01*
X622Y1463D02*
X635Y1463D01*
X639Y1463D02*
X645Y1463D01*
X657Y1463D02*
X663Y1463D01*
X945Y1463D02*
X952Y1463D01*
X0Y1462D02*
X7Y1462D01*
X624Y1462D02*
X637Y1462D01*
X639Y1462D02*
X645Y1462D01*
X657Y1462D02*
X663Y1462D01*
X945Y1462D02*
X952Y1462D01*
X0Y1461D02*
X7Y1461D01*
X626Y1461D02*
X645Y1461D01*
X657Y1461D02*
X663Y1461D01*
X945Y1461D02*
X952Y1461D01*
X0Y1460D02*
X7Y1460D01*
X628Y1460D02*
X645Y1460D01*
X657Y1460D02*
X663Y1460D01*
X945Y1460D02*
X952Y1460D01*
X0Y1459D02*
X7Y1459D01*
X629Y1459D02*
X645Y1459D01*
X657Y1459D02*
X663Y1459D01*
X945Y1459D02*
X952Y1459D01*
X0Y1458D02*
X7Y1458D01*
X631Y1458D02*
X645Y1458D01*
X657Y1458D02*
X663Y1458D01*
X945Y1458D02*
X952Y1458D01*
X0Y1457D02*
X7Y1457D01*
X633Y1457D02*
X645Y1457D01*
X657Y1457D02*
X663Y1457D01*
X945Y1457D02*
X952Y1457D01*
X0Y1456D02*
X7Y1456D01*
X634Y1456D02*
X645Y1456D01*
X657Y1456D02*
X663Y1456D01*
X945Y1456D02*
X952Y1456D01*
X0Y1455D02*
X7Y1455D01*
X636Y1455D02*
X645Y1455D01*
X657Y1455D02*
X663Y1455D01*
X945Y1455D02*
X952Y1455D01*
X0Y1454D02*
X7Y1454D01*
X638Y1454D02*
X645Y1454D01*
X657Y1454D02*
X663Y1454D01*
X945Y1454D02*
X952Y1454D01*
X0Y1453D02*
X7Y1453D01*
X639Y1453D02*
X645Y1453D01*
X657Y1453D02*
X663Y1453D01*
X945Y1453D02*
X952Y1453D01*
X0Y1452D02*
X7Y1452D01*
X639Y1452D02*
X645Y1452D01*
X657Y1452D02*
X663Y1452D01*
X945Y1452D02*
X952Y1452D01*
X0Y1451D02*
X7Y1451D01*
X639Y1451D02*
X645Y1451D01*
X657Y1451D02*
X663Y1451D01*
X945Y1451D02*
X952Y1451D01*
X0Y1450D02*
X7Y1450D01*
X639Y1450D02*
X645Y1450D01*
X657Y1450D02*
X663Y1450D01*
X945Y1450D02*
X952Y1450D01*
X0Y1449D02*
X7Y1449D01*
X639Y1449D02*
X645Y1449D01*
X657Y1449D02*
X663Y1449D01*
X945Y1449D02*
X952Y1449D01*
X0Y1448D02*
X7Y1448D01*
X612Y1448D02*
X663Y1448D01*
X945Y1448D02*
X952Y1448D01*
X0Y1447D02*
X7Y1447D01*
X611Y1447D02*
X663Y1447D01*
X945Y1447D02*
X952Y1447D01*
X0Y1446D02*
X7Y1446D01*
X610Y1446D02*
X663Y1446D01*
X945Y1446D02*
X952Y1446D01*
X0Y1445D02*
X7Y1445D01*
X610Y1445D02*
X663Y1445D01*
X945Y1445D02*
X952Y1445D01*
X0Y1444D02*
X7Y1444D01*
X610Y1444D02*
X663Y1444D01*
X945Y1444D02*
X952Y1444D01*
X0Y1443D02*
X7Y1443D01*
X610Y1443D02*
X663Y1443D01*
X945Y1443D02*
X952Y1443D01*
X0Y1442D02*
X7Y1442D01*
X611Y1442D02*
X663Y1442D01*
X945Y1442D02*
X952Y1442D01*
X0Y1441D02*
X7Y1441D01*
X945Y1441D02*
X952Y1441D01*
X0Y1440D02*
X7Y1440D01*
X945Y1440D02*
X952Y1440D01*
X0Y1439D02*
X7Y1439D01*
X945Y1439D02*
X952Y1439D01*
X0Y1438D02*
X7Y1438D01*
X945Y1438D02*
X952Y1438D01*
X0Y1437D02*
X7Y1437D01*
X945Y1437D02*
X952Y1437D01*
X0Y1436D02*
X7Y1436D01*
X945Y1436D02*
X952Y1436D01*
X0Y1435D02*
X7Y1435D01*
X945Y1435D02*
X952Y1435D01*
X0Y1434D02*
X7Y1434D01*
X945Y1434D02*
X952Y1434D01*
X0Y1433D02*
X7Y1433D01*
X945Y1433D02*
X952Y1433D01*
X0Y1432D02*
X7Y1432D01*
X945Y1432D02*
X952Y1432D01*
X0Y1431D02*
X7Y1431D01*
X945Y1431D02*
X952Y1431D01*
X0Y1430D02*
X7Y1430D01*
X945Y1430D02*
X952Y1430D01*
X0Y1429D02*
X7Y1429D01*
X945Y1429D02*
X952Y1429D01*
X0Y1428D02*
X7Y1428D01*
X945Y1428D02*
X952Y1428D01*
X0Y1427D02*
X7Y1427D01*
X945Y1427D02*
X952Y1427D01*
X0Y1426D02*
X7Y1426D01*
X945Y1426D02*
X952Y1426D01*
X0Y1425D02*
X7Y1425D01*
X945Y1425D02*
X952Y1425D01*
X0Y1424D02*
X7Y1424D01*
X945Y1424D02*
X952Y1424D01*
X0Y1423D02*
X7Y1423D01*
X945Y1423D02*
X952Y1423D01*
X0Y1422D02*
X7Y1422D01*
X945Y1422D02*
X952Y1422D01*
X0Y1421D02*
X7Y1421D01*
X945Y1421D02*
X952Y1421D01*
X0Y1420D02*
X7Y1420D01*
X945Y1420D02*
X952Y1420D01*
X0Y1419D02*
X7Y1419D01*
X945Y1419D02*
X952Y1419D01*
X0Y1418D02*
X7Y1418D01*
X945Y1418D02*
X952Y1418D01*
X0Y1417D02*
X7Y1417D01*
X945Y1417D02*
X952Y1417D01*
X0Y1416D02*
X7Y1416D01*
X945Y1416D02*
X952Y1416D01*
X0Y1415D02*
X7Y1415D01*
X945Y1415D02*
X952Y1415D01*
X0Y1414D02*
X7Y1414D01*
X945Y1414D02*
X952Y1414D01*
X0Y1413D02*
X7Y1413D01*
X945Y1413D02*
X952Y1413D01*
X0Y1412D02*
X7Y1412D01*
X945Y1412D02*
X952Y1412D01*
X0Y1411D02*
X7Y1411D01*
X945Y1411D02*
X952Y1411D01*
X0Y1410D02*
X7Y1410D01*
X945Y1410D02*
X952Y1410D01*
X0Y1409D02*
X7Y1409D01*
X945Y1409D02*
X952Y1409D01*
X0Y1408D02*
X7Y1408D01*
X945Y1408D02*
X952Y1408D01*
X0Y1407D02*
X7Y1407D01*
X945Y1407D02*
X952Y1407D01*
X0Y1406D02*
X7Y1406D01*
X945Y1406D02*
X952Y1406D01*
X0Y1405D02*
X7Y1405D01*
X601Y1405D02*
X674Y1405D01*
X945Y1405D02*
X952Y1405D01*
X0Y1404D02*
X7Y1404D01*
X601Y1404D02*
X674Y1404D01*
X945Y1404D02*
X952Y1404D01*
X0Y1403D02*
X7Y1403D01*
X601Y1403D02*
X674Y1403D01*
X945Y1403D02*
X952Y1403D01*
X0Y1402D02*
X7Y1402D01*
X601Y1402D02*
X603Y1402D01*
X673Y1402D02*
X674Y1402D01*
X945Y1402D02*
X952Y1402D01*
X0Y1401D02*
X7Y1401D01*
X601Y1401D02*
X603Y1401D01*
X673Y1401D02*
X674Y1401D01*
X945Y1401D02*
X952Y1401D01*
X0Y1400D02*
X7Y1400D01*
X601Y1400D02*
X603Y1400D01*
X673Y1400D02*
X674Y1400D01*
X945Y1400D02*
X952Y1400D01*
X0Y1399D02*
X7Y1399D01*
X601Y1399D02*
X603Y1399D01*
X673Y1399D02*
X674Y1399D01*
X945Y1399D02*
X952Y1399D01*
X0Y1398D02*
X7Y1398D01*
X601Y1398D02*
X603Y1398D01*
X673Y1398D02*
X674Y1398D01*
X945Y1398D02*
X952Y1398D01*
X0Y1397D02*
X7Y1397D01*
X601Y1397D02*
X603Y1397D01*
X673Y1397D02*
X674Y1397D01*
X945Y1397D02*
X952Y1397D01*
X0Y1396D02*
X7Y1396D01*
X601Y1396D02*
X603Y1396D01*
X673Y1396D02*
X674Y1396D01*
X945Y1396D02*
X952Y1396D01*
X0Y1395D02*
X7Y1395D01*
X601Y1395D02*
X603Y1395D01*
X673Y1395D02*
X674Y1395D01*
X945Y1395D02*
X952Y1395D01*
X0Y1394D02*
X7Y1394D01*
X601Y1394D02*
X603Y1394D01*
X673Y1394D02*
X674Y1394D01*
X945Y1394D02*
X952Y1394D01*
X0Y1393D02*
X7Y1393D01*
X601Y1393D02*
X603Y1393D01*
X673Y1393D02*
X674Y1393D01*
X945Y1393D02*
X952Y1393D01*
X0Y1392D02*
X7Y1392D01*
X601Y1392D02*
X603Y1392D01*
X673Y1392D02*
X674Y1392D01*
X945Y1392D02*
X952Y1392D01*
X0Y1391D02*
X7Y1391D01*
X601Y1391D02*
X603Y1391D01*
X673Y1391D02*
X674Y1391D01*
X945Y1391D02*
X952Y1391D01*
X0Y1390D02*
X7Y1390D01*
X601Y1390D02*
X603Y1390D01*
X673Y1390D02*
X674Y1390D01*
X945Y1390D02*
X952Y1390D01*
X0Y1389D02*
X7Y1389D01*
X601Y1389D02*
X603Y1389D01*
X673Y1389D02*
X674Y1389D01*
X945Y1389D02*
X952Y1389D01*
X0Y1388D02*
X7Y1388D01*
X601Y1388D02*
X603Y1388D01*
X673Y1388D02*
X674Y1388D01*
X945Y1388D02*
X952Y1388D01*
X0Y1387D02*
X7Y1387D01*
X601Y1387D02*
X603Y1387D01*
X673Y1387D02*
X674Y1387D01*
X945Y1387D02*
X952Y1387D01*
X0Y1386D02*
X7Y1386D01*
X601Y1386D02*
X603Y1386D01*
X673Y1386D02*
X674Y1386D01*
X945Y1386D02*
X952Y1386D01*
X0Y1385D02*
X7Y1385D01*
X601Y1385D02*
X603Y1385D01*
X673Y1385D02*
X674Y1385D01*
X945Y1385D02*
X952Y1385D01*
X0Y1384D02*
X7Y1384D01*
X601Y1384D02*
X603Y1384D01*
X673Y1384D02*
X674Y1384D01*
X945Y1384D02*
X952Y1384D01*
X0Y1383D02*
X7Y1383D01*
X601Y1383D02*
X603Y1383D01*
X673Y1383D02*
X674Y1383D01*
X945Y1383D02*
X952Y1383D01*
X0Y1382D02*
X7Y1382D01*
X601Y1382D02*
X603Y1382D01*
X673Y1382D02*
X674Y1382D01*
X945Y1382D02*
X952Y1382D01*
X0Y1381D02*
X7Y1381D01*
X601Y1381D02*
X603Y1381D01*
X673Y1381D02*
X674Y1381D01*
X945Y1381D02*
X952Y1381D01*
X0Y1380D02*
X7Y1380D01*
X601Y1380D02*
X603Y1380D01*
X673Y1380D02*
X674Y1380D01*
X945Y1380D02*
X952Y1380D01*
X0Y1379D02*
X7Y1379D01*
X601Y1379D02*
X603Y1379D01*
X673Y1379D02*
X674Y1379D01*
X945Y1379D02*
X952Y1379D01*
X0Y1378D02*
X7Y1378D01*
X601Y1378D02*
X603Y1378D01*
X673Y1378D02*
X674Y1378D01*
X945Y1378D02*
X952Y1378D01*
X0Y1377D02*
X7Y1377D01*
X601Y1377D02*
X603Y1377D01*
X673Y1377D02*
X674Y1377D01*
X945Y1377D02*
X952Y1377D01*
X0Y1376D02*
X7Y1376D01*
X601Y1376D02*
X603Y1376D01*
X673Y1376D02*
X674Y1376D01*
X945Y1376D02*
X952Y1376D01*
X0Y1375D02*
X7Y1375D01*
X601Y1375D02*
X603Y1375D01*
X673Y1375D02*
X674Y1375D01*
X945Y1375D02*
X952Y1375D01*
X0Y1374D02*
X7Y1374D01*
X601Y1374D02*
X603Y1374D01*
X673Y1374D02*
X674Y1374D01*
X945Y1374D02*
X952Y1374D01*
X0Y1373D02*
X7Y1373D01*
X601Y1373D02*
X603Y1373D01*
X673Y1373D02*
X674Y1373D01*
X945Y1373D02*
X952Y1373D01*
X0Y1372D02*
X7Y1372D01*
X601Y1372D02*
X603Y1372D01*
X673Y1372D02*
X674Y1372D01*
X945Y1372D02*
X952Y1372D01*
X0Y1371D02*
X7Y1371D01*
X601Y1371D02*
X603Y1371D01*
X673Y1371D02*
X674Y1371D01*
X945Y1371D02*
X952Y1371D01*
X0Y1370D02*
X7Y1370D01*
X601Y1370D02*
X603Y1370D01*
X673Y1370D02*
X674Y1370D01*
X945Y1370D02*
X952Y1370D01*
X0Y1369D02*
X7Y1369D01*
X601Y1369D02*
X603Y1369D01*
X673Y1369D02*
X674Y1369D01*
X945Y1369D02*
X952Y1369D01*
X0Y1368D02*
X7Y1368D01*
X601Y1368D02*
X603Y1368D01*
X673Y1368D02*
X674Y1368D01*
X945Y1368D02*
X952Y1368D01*
X0Y1367D02*
X7Y1367D01*
X601Y1367D02*
X603Y1367D01*
X673Y1367D02*
X674Y1367D01*
X945Y1367D02*
X952Y1367D01*
X0Y1366D02*
X7Y1366D01*
X601Y1366D02*
X603Y1366D01*
X673Y1366D02*
X674Y1366D01*
X945Y1366D02*
X952Y1366D01*
X0Y1365D02*
X7Y1365D01*
X601Y1365D02*
X603Y1365D01*
X673Y1365D02*
X674Y1365D01*
X945Y1365D02*
X952Y1365D01*
X0Y1364D02*
X7Y1364D01*
X601Y1364D02*
X603Y1364D01*
X673Y1364D02*
X674Y1364D01*
X945Y1364D02*
X952Y1364D01*
X0Y1363D02*
X7Y1363D01*
X601Y1363D02*
X603Y1363D01*
X673Y1363D02*
X674Y1363D01*
X945Y1363D02*
X952Y1363D01*
X0Y1362D02*
X7Y1362D01*
X601Y1362D02*
X603Y1362D01*
X673Y1362D02*
X674Y1362D01*
X945Y1362D02*
X952Y1362D01*
X0Y1361D02*
X7Y1361D01*
X601Y1361D02*
X603Y1361D01*
X673Y1361D02*
X674Y1361D01*
X945Y1361D02*
X952Y1361D01*
X0Y1360D02*
X7Y1360D01*
X601Y1360D02*
X603Y1360D01*
X673Y1360D02*
X674Y1360D01*
X945Y1360D02*
X952Y1360D01*
X0Y1359D02*
X7Y1359D01*
X601Y1359D02*
X603Y1359D01*
X673Y1359D02*
X674Y1359D01*
X945Y1359D02*
X952Y1359D01*
X0Y1358D02*
X7Y1358D01*
X601Y1358D02*
X603Y1358D01*
X673Y1358D02*
X674Y1358D01*
X945Y1358D02*
X952Y1358D01*
X0Y1357D02*
X7Y1357D01*
X601Y1357D02*
X603Y1357D01*
X673Y1357D02*
X674Y1357D01*
X945Y1357D02*
X952Y1357D01*
X0Y1356D02*
X7Y1356D01*
X601Y1356D02*
X603Y1356D01*
X673Y1356D02*
X674Y1356D01*
X945Y1356D02*
X952Y1356D01*
X0Y1355D02*
X7Y1355D01*
X601Y1355D02*
X603Y1355D01*
X673Y1355D02*
X674Y1355D01*
X945Y1355D02*
X952Y1355D01*
X0Y1354D02*
X7Y1354D01*
X601Y1354D02*
X603Y1354D01*
X673Y1354D02*
X674Y1354D01*
X945Y1354D02*
X952Y1354D01*
X0Y1353D02*
X7Y1353D01*
X601Y1353D02*
X603Y1353D01*
X673Y1353D02*
X674Y1353D01*
X945Y1353D02*
X952Y1353D01*
X0Y1352D02*
X7Y1352D01*
X601Y1352D02*
X603Y1352D01*
X673Y1352D02*
X674Y1352D01*
X945Y1352D02*
X952Y1352D01*
X0Y1351D02*
X7Y1351D01*
X601Y1351D02*
X603Y1351D01*
X673Y1351D02*
X674Y1351D01*
X945Y1351D02*
X952Y1351D01*
X0Y1350D02*
X7Y1350D01*
X601Y1350D02*
X603Y1350D01*
X673Y1350D02*
X674Y1350D01*
X945Y1350D02*
X952Y1350D01*
X0Y1349D02*
X7Y1349D01*
X326Y1349D02*
X346Y1349D01*
X601Y1349D02*
X603Y1349D01*
X673Y1349D02*
X674Y1349D01*
X945Y1349D02*
X952Y1349D01*
X0Y1348D02*
X7Y1348D01*
X325Y1348D02*
X347Y1348D01*
X601Y1348D02*
X603Y1348D01*
X673Y1348D02*
X674Y1348D01*
X945Y1348D02*
X952Y1348D01*
X0Y1347D02*
X7Y1347D01*
X324Y1347D02*
X348Y1347D01*
X601Y1347D02*
X603Y1347D01*
X673Y1347D02*
X674Y1347D01*
X945Y1347D02*
X952Y1347D01*
X0Y1346D02*
X7Y1346D01*
X324Y1346D02*
X348Y1346D01*
X601Y1346D02*
X603Y1346D01*
X673Y1346D02*
X674Y1346D01*
X945Y1346D02*
X952Y1346D01*
X0Y1345D02*
X7Y1345D01*
X324Y1345D02*
X348Y1345D01*
X601Y1345D02*
X603Y1345D01*
X673Y1345D02*
X674Y1345D01*
X945Y1345D02*
X952Y1345D01*
X0Y1344D02*
X7Y1344D01*
X324Y1344D02*
X348Y1344D01*
X601Y1344D02*
X603Y1344D01*
X673Y1344D02*
X674Y1344D01*
X945Y1344D02*
X952Y1344D01*
X0Y1343D02*
X7Y1343D01*
X324Y1343D02*
X348Y1343D01*
X601Y1343D02*
X603Y1343D01*
X673Y1343D02*
X674Y1343D01*
X945Y1343D02*
X952Y1343D01*
X0Y1342D02*
X7Y1342D01*
X324Y1342D02*
X330Y1342D01*
X342Y1342D02*
X348Y1342D01*
X601Y1342D02*
X603Y1342D01*
X673Y1342D02*
X674Y1342D01*
X945Y1342D02*
X952Y1342D01*
X0Y1341D02*
X7Y1341D01*
X324Y1341D02*
X330Y1341D01*
X342Y1341D02*
X348Y1341D01*
X601Y1341D02*
X603Y1341D01*
X673Y1341D02*
X674Y1341D01*
X945Y1341D02*
X952Y1341D01*
X0Y1340D02*
X7Y1340D01*
X324Y1340D02*
X330Y1340D01*
X342Y1340D02*
X348Y1340D01*
X601Y1340D02*
X603Y1340D01*
X673Y1340D02*
X674Y1340D01*
X945Y1340D02*
X952Y1340D01*
X0Y1339D02*
X7Y1339D01*
X324Y1339D02*
X330Y1339D01*
X342Y1339D02*
X348Y1339D01*
X601Y1339D02*
X603Y1339D01*
X673Y1339D02*
X674Y1339D01*
X945Y1339D02*
X952Y1339D01*
X0Y1338D02*
X7Y1338D01*
X324Y1338D02*
X330Y1338D01*
X342Y1338D02*
X348Y1338D01*
X601Y1338D02*
X603Y1338D01*
X673Y1338D02*
X674Y1338D01*
X945Y1338D02*
X952Y1338D01*
X0Y1337D02*
X7Y1337D01*
X324Y1337D02*
X330Y1337D01*
X342Y1337D02*
X348Y1337D01*
X601Y1337D02*
X604Y1337D01*
X672Y1337D02*
X674Y1337D01*
X945Y1337D02*
X952Y1337D01*
X0Y1336D02*
X7Y1336D01*
X324Y1336D02*
X330Y1336D01*
X342Y1336D02*
X348Y1336D01*
X601Y1336D02*
X604Y1336D01*
X672Y1336D02*
X674Y1336D01*
X945Y1336D02*
X952Y1336D01*
X0Y1335D02*
X7Y1335D01*
X324Y1335D02*
X330Y1335D01*
X342Y1335D02*
X348Y1335D01*
X601Y1335D02*
X604Y1335D01*
X672Y1335D02*
X674Y1335D01*
X945Y1335D02*
X952Y1335D01*
X0Y1334D02*
X7Y1334D01*
X324Y1334D02*
X330Y1334D01*
X342Y1334D02*
X348Y1334D01*
X601Y1334D02*
X604Y1334D01*
X672Y1334D02*
X674Y1334D01*
X945Y1334D02*
X952Y1334D01*
X0Y1333D02*
X7Y1333D01*
X324Y1333D02*
X330Y1333D01*
X342Y1333D02*
X348Y1333D01*
X601Y1333D02*
X604Y1333D01*
X672Y1333D02*
X674Y1333D01*
X945Y1333D02*
X952Y1333D01*
X0Y1332D02*
X7Y1332D01*
X324Y1332D02*
X330Y1332D01*
X342Y1332D02*
X348Y1332D01*
X601Y1332D02*
X604Y1332D01*
X672Y1332D02*
X674Y1332D01*
X945Y1332D02*
X952Y1332D01*
X0Y1331D02*
X7Y1331D01*
X324Y1331D02*
X330Y1331D01*
X342Y1331D02*
X348Y1331D01*
X601Y1331D02*
X604Y1331D01*
X672Y1331D02*
X674Y1331D01*
X945Y1331D02*
X952Y1331D01*
X0Y1330D02*
X7Y1330D01*
X324Y1330D02*
X330Y1330D01*
X342Y1330D02*
X348Y1330D01*
X601Y1330D02*
X604Y1330D01*
X672Y1330D02*
X674Y1330D01*
X945Y1330D02*
X952Y1330D01*
X0Y1329D02*
X7Y1329D01*
X324Y1329D02*
X330Y1329D01*
X342Y1329D02*
X348Y1329D01*
X601Y1329D02*
X604Y1329D01*
X672Y1329D02*
X674Y1329D01*
X945Y1329D02*
X952Y1329D01*
X0Y1328D02*
X7Y1328D01*
X324Y1328D02*
X330Y1328D01*
X342Y1328D02*
X348Y1328D01*
X601Y1328D02*
X604Y1328D01*
X672Y1328D02*
X674Y1328D01*
X945Y1328D02*
X952Y1328D01*
X0Y1327D02*
X7Y1327D01*
X324Y1327D02*
X330Y1327D01*
X342Y1327D02*
X348Y1327D01*
X601Y1327D02*
X604Y1327D01*
X672Y1327D02*
X674Y1327D01*
X945Y1327D02*
X952Y1327D01*
X0Y1326D02*
X7Y1326D01*
X324Y1326D02*
X330Y1326D01*
X342Y1326D02*
X348Y1326D01*
X601Y1326D02*
X604Y1326D01*
X672Y1326D02*
X674Y1326D01*
X945Y1326D02*
X952Y1326D01*
X0Y1325D02*
X7Y1325D01*
X324Y1325D02*
X330Y1325D01*
X342Y1325D02*
X348Y1325D01*
X373Y1325D02*
X375Y1325D01*
X601Y1325D02*
X604Y1325D01*
X672Y1325D02*
X674Y1325D01*
X945Y1325D02*
X952Y1325D01*
X0Y1324D02*
X7Y1324D01*
X324Y1324D02*
X330Y1324D01*
X342Y1324D02*
X348Y1324D01*
X372Y1324D02*
X376Y1324D01*
X601Y1324D02*
X604Y1324D01*
X672Y1324D02*
X674Y1324D01*
X945Y1324D02*
X952Y1324D01*
X0Y1323D02*
X7Y1323D01*
X324Y1323D02*
X330Y1323D01*
X342Y1323D02*
X348Y1323D01*
X371Y1323D02*
X377Y1323D01*
X601Y1323D02*
X604Y1323D01*
X672Y1323D02*
X674Y1323D01*
X945Y1323D02*
X952Y1323D01*
X0Y1322D02*
X7Y1322D01*
X324Y1322D02*
X330Y1322D01*
X341Y1322D02*
X348Y1322D01*
X371Y1322D02*
X377Y1322D01*
X601Y1322D02*
X604Y1322D01*
X672Y1322D02*
X674Y1322D01*
X945Y1322D02*
X952Y1322D01*
X0Y1321D02*
X7Y1321D01*
X324Y1321D02*
X377Y1321D01*
X601Y1321D02*
X603Y1321D01*
X673Y1321D02*
X674Y1321D01*
X945Y1321D02*
X952Y1321D01*
X0Y1320D02*
X7Y1320D01*
X324Y1320D02*
X377Y1320D01*
X601Y1320D02*
X603Y1320D01*
X673Y1320D02*
X674Y1320D01*
X945Y1320D02*
X952Y1320D01*
X0Y1319D02*
X7Y1319D01*
X324Y1319D02*
X377Y1319D01*
X601Y1319D02*
X603Y1319D01*
X673Y1319D02*
X674Y1319D01*
X945Y1319D02*
X952Y1319D01*
X0Y1318D02*
X7Y1318D01*
X324Y1318D02*
X377Y1318D01*
X601Y1318D02*
X603Y1318D01*
X673Y1318D02*
X674Y1318D01*
X945Y1318D02*
X952Y1318D01*
X0Y1317D02*
X7Y1317D01*
X324Y1317D02*
X377Y1317D01*
X601Y1317D02*
X603Y1317D01*
X673Y1317D02*
X674Y1317D01*
X945Y1317D02*
X952Y1317D01*
X0Y1316D02*
X7Y1316D01*
X325Y1316D02*
X376Y1316D01*
X601Y1316D02*
X603Y1316D01*
X673Y1316D02*
X674Y1316D01*
X945Y1316D02*
X952Y1316D01*
X0Y1315D02*
X7Y1315D01*
X327Y1315D02*
X374Y1315D01*
X601Y1315D02*
X603Y1315D01*
X673Y1315D02*
X674Y1315D01*
X945Y1315D02*
X952Y1315D01*
X0Y1314D02*
X7Y1314D01*
X601Y1314D02*
X603Y1314D01*
X673Y1314D02*
X674Y1314D01*
X945Y1314D02*
X952Y1314D01*
X0Y1313D02*
X7Y1313D01*
X601Y1313D02*
X603Y1313D01*
X673Y1313D02*
X674Y1313D01*
X945Y1313D02*
X952Y1313D01*
X0Y1312D02*
X7Y1312D01*
X601Y1312D02*
X603Y1312D01*
X673Y1312D02*
X674Y1312D01*
X945Y1312D02*
X952Y1312D01*
X0Y1311D02*
X7Y1311D01*
X601Y1311D02*
X603Y1311D01*
X673Y1311D02*
X674Y1311D01*
X945Y1311D02*
X952Y1311D01*
X0Y1310D02*
X7Y1310D01*
X601Y1310D02*
X603Y1310D01*
X673Y1310D02*
X674Y1310D01*
X945Y1310D02*
X952Y1310D01*
X0Y1309D02*
X7Y1309D01*
X601Y1309D02*
X603Y1309D01*
X673Y1309D02*
X674Y1309D01*
X945Y1309D02*
X952Y1309D01*
X0Y1308D02*
X7Y1308D01*
X601Y1308D02*
X603Y1308D01*
X673Y1308D02*
X674Y1308D01*
X945Y1308D02*
X952Y1308D01*
X0Y1307D02*
X7Y1307D01*
X601Y1307D02*
X603Y1307D01*
X673Y1307D02*
X674Y1307D01*
X945Y1307D02*
X952Y1307D01*
X0Y1306D02*
X7Y1306D01*
X601Y1306D02*
X603Y1306D01*
X673Y1306D02*
X674Y1306D01*
X945Y1306D02*
X952Y1306D01*
X0Y1305D02*
X7Y1305D01*
X601Y1305D02*
X603Y1305D01*
X673Y1305D02*
X674Y1305D01*
X945Y1305D02*
X952Y1305D01*
X0Y1304D02*
X7Y1304D01*
X601Y1304D02*
X603Y1304D01*
X673Y1304D02*
X674Y1304D01*
X945Y1304D02*
X952Y1304D01*
X0Y1303D02*
X7Y1303D01*
X601Y1303D02*
X603Y1303D01*
X673Y1303D02*
X674Y1303D01*
X945Y1303D02*
X952Y1303D01*
X0Y1302D02*
X7Y1302D01*
X601Y1302D02*
X603Y1302D01*
X673Y1302D02*
X674Y1302D01*
X945Y1302D02*
X952Y1302D01*
X0Y1301D02*
X7Y1301D01*
X601Y1301D02*
X603Y1301D01*
X673Y1301D02*
X674Y1301D01*
X945Y1301D02*
X952Y1301D01*
X0Y1300D02*
X7Y1300D01*
X601Y1300D02*
X603Y1300D01*
X673Y1300D02*
X674Y1300D01*
X945Y1300D02*
X952Y1300D01*
X0Y1299D02*
X7Y1299D01*
X348Y1299D02*
X353Y1299D01*
X601Y1299D02*
X603Y1299D01*
X673Y1299D02*
X674Y1299D01*
X945Y1299D02*
X952Y1299D01*
X0Y1298D02*
X7Y1298D01*
X345Y1298D02*
X356Y1298D01*
X601Y1298D02*
X603Y1298D01*
X673Y1298D02*
X674Y1298D01*
X945Y1298D02*
X952Y1298D01*
X0Y1297D02*
X7Y1297D01*
X343Y1297D02*
X358Y1297D01*
X601Y1297D02*
X603Y1297D01*
X673Y1297D02*
X674Y1297D01*
X945Y1297D02*
X952Y1297D01*
X0Y1296D02*
X7Y1296D01*
X341Y1296D02*
X360Y1296D01*
X601Y1296D02*
X603Y1296D01*
X673Y1296D02*
X674Y1296D01*
X945Y1296D02*
X952Y1296D01*
X0Y1295D02*
X7Y1295D01*
X339Y1295D02*
X362Y1295D01*
X601Y1295D02*
X603Y1295D01*
X673Y1295D02*
X674Y1295D01*
X945Y1295D02*
X952Y1295D01*
X0Y1294D02*
X7Y1294D01*
X337Y1294D02*
X364Y1294D01*
X601Y1294D02*
X603Y1294D01*
X673Y1294D02*
X674Y1294D01*
X945Y1294D02*
X952Y1294D01*
X0Y1293D02*
X7Y1293D01*
X335Y1293D02*
X366Y1293D01*
X601Y1293D02*
X603Y1293D01*
X673Y1293D02*
X674Y1293D01*
X945Y1293D02*
X952Y1293D01*
X0Y1292D02*
X7Y1292D01*
X333Y1292D02*
X348Y1292D01*
X353Y1292D02*
X368Y1292D01*
X601Y1292D02*
X603Y1292D01*
X673Y1292D02*
X674Y1292D01*
X945Y1292D02*
X952Y1292D01*
X0Y1291D02*
X7Y1291D01*
X331Y1291D02*
X345Y1291D01*
X356Y1291D02*
X370Y1291D01*
X601Y1291D02*
X603Y1291D01*
X673Y1291D02*
X674Y1291D01*
X945Y1291D02*
X952Y1291D01*
X0Y1290D02*
X7Y1290D01*
X329Y1290D02*
X343Y1290D01*
X358Y1290D02*
X372Y1290D01*
X601Y1290D02*
X603Y1290D01*
X673Y1290D02*
X674Y1290D01*
X945Y1290D02*
X952Y1290D01*
X0Y1289D02*
X7Y1289D01*
X327Y1289D02*
X341Y1289D01*
X360Y1289D02*
X374Y1289D01*
X601Y1289D02*
X603Y1289D01*
X673Y1289D02*
X674Y1289D01*
X945Y1289D02*
X952Y1289D01*
X0Y1288D02*
X7Y1288D01*
X327Y1288D02*
X339Y1288D01*
X362Y1288D02*
X374Y1288D01*
X601Y1288D02*
X603Y1288D01*
X673Y1288D02*
X674Y1288D01*
X945Y1288D02*
X952Y1288D01*
X0Y1287D02*
X7Y1287D01*
X326Y1287D02*
X337Y1287D01*
X364Y1287D02*
X375Y1287D01*
X601Y1287D02*
X603Y1287D01*
X673Y1287D02*
X674Y1287D01*
X945Y1287D02*
X952Y1287D01*
X0Y1286D02*
X7Y1286D01*
X325Y1286D02*
X335Y1286D01*
X366Y1286D02*
X376Y1286D01*
X601Y1286D02*
X603Y1286D01*
X673Y1286D02*
X674Y1286D01*
X945Y1286D02*
X952Y1286D01*
X0Y1285D02*
X7Y1285D01*
X325Y1285D02*
X334Y1285D01*
X368Y1285D02*
X376Y1285D01*
X601Y1285D02*
X603Y1285D01*
X673Y1285D02*
X674Y1285D01*
X945Y1285D02*
X952Y1285D01*
X0Y1284D02*
X7Y1284D01*
X324Y1284D02*
X332Y1284D01*
X370Y1284D02*
X377Y1284D01*
X601Y1284D02*
X603Y1284D01*
X673Y1284D02*
X674Y1284D01*
X945Y1284D02*
X952Y1284D01*
X0Y1283D02*
X7Y1283D01*
X324Y1283D02*
X331Y1283D01*
X371Y1283D02*
X377Y1283D01*
X601Y1283D02*
X603Y1283D01*
X673Y1283D02*
X674Y1283D01*
X945Y1283D02*
X952Y1283D01*
X0Y1282D02*
X7Y1282D01*
X324Y1282D02*
X330Y1282D01*
X371Y1282D02*
X377Y1282D01*
X601Y1282D02*
X603Y1282D01*
X673Y1282D02*
X674Y1282D01*
X945Y1282D02*
X952Y1282D01*
X0Y1281D02*
X7Y1281D01*
X324Y1281D02*
X330Y1281D01*
X371Y1281D02*
X377Y1281D01*
X601Y1281D02*
X603Y1281D01*
X673Y1281D02*
X674Y1281D01*
X945Y1281D02*
X952Y1281D01*
X0Y1280D02*
X7Y1280D01*
X324Y1280D02*
X330Y1280D01*
X371Y1280D02*
X377Y1280D01*
X601Y1280D02*
X603Y1280D01*
X673Y1280D02*
X674Y1280D01*
X945Y1280D02*
X952Y1280D01*
X0Y1279D02*
X7Y1279D01*
X324Y1279D02*
X330Y1279D01*
X371Y1279D02*
X377Y1279D01*
X601Y1279D02*
X603Y1279D01*
X673Y1279D02*
X674Y1279D01*
X945Y1279D02*
X952Y1279D01*
X0Y1278D02*
X7Y1278D01*
X324Y1278D02*
X377Y1278D01*
X601Y1278D02*
X603Y1278D01*
X673Y1278D02*
X674Y1278D01*
X945Y1278D02*
X952Y1278D01*
X0Y1277D02*
X7Y1277D01*
X324Y1277D02*
X377Y1277D01*
X601Y1277D02*
X603Y1277D01*
X673Y1277D02*
X674Y1277D01*
X945Y1277D02*
X952Y1277D01*
X0Y1276D02*
X7Y1276D01*
X324Y1276D02*
X377Y1276D01*
X601Y1276D02*
X603Y1276D01*
X673Y1276D02*
X674Y1276D01*
X945Y1276D02*
X952Y1276D01*
X0Y1275D02*
X7Y1275D01*
X324Y1275D02*
X377Y1275D01*
X601Y1275D02*
X603Y1275D01*
X673Y1275D02*
X674Y1275D01*
X945Y1275D02*
X952Y1275D01*
X0Y1274D02*
X7Y1274D01*
X324Y1274D02*
X377Y1274D01*
X601Y1274D02*
X603Y1274D01*
X673Y1274D02*
X674Y1274D01*
X945Y1274D02*
X952Y1274D01*
X0Y1273D02*
X7Y1273D01*
X324Y1273D02*
X377Y1273D01*
X601Y1273D02*
X603Y1273D01*
X673Y1273D02*
X674Y1273D01*
X945Y1273D02*
X952Y1273D01*
X0Y1272D02*
X7Y1272D01*
X324Y1272D02*
X377Y1272D01*
X601Y1272D02*
X603Y1272D01*
X673Y1272D02*
X674Y1272D01*
X945Y1272D02*
X952Y1272D01*
X0Y1271D02*
X7Y1271D01*
X324Y1271D02*
X330Y1271D01*
X371Y1271D02*
X377Y1271D01*
X601Y1271D02*
X603Y1271D01*
X673Y1271D02*
X674Y1271D01*
X945Y1271D02*
X952Y1271D01*
X0Y1270D02*
X7Y1270D01*
X324Y1270D02*
X330Y1270D01*
X371Y1270D02*
X377Y1270D01*
X601Y1270D02*
X603Y1270D01*
X673Y1270D02*
X674Y1270D01*
X945Y1270D02*
X952Y1270D01*
X0Y1269D02*
X7Y1269D01*
X324Y1269D02*
X330Y1269D01*
X371Y1269D02*
X377Y1269D01*
X601Y1269D02*
X603Y1269D01*
X673Y1269D02*
X674Y1269D01*
X945Y1269D02*
X952Y1269D01*
X0Y1268D02*
X7Y1268D01*
X324Y1268D02*
X330Y1268D01*
X371Y1268D02*
X377Y1268D01*
X601Y1268D02*
X603Y1268D01*
X673Y1268D02*
X674Y1268D01*
X945Y1268D02*
X952Y1268D01*
X0Y1267D02*
X7Y1267D01*
X324Y1267D02*
X330Y1267D01*
X371Y1267D02*
X377Y1267D01*
X601Y1267D02*
X603Y1267D01*
X673Y1267D02*
X674Y1267D01*
X945Y1267D02*
X952Y1267D01*
X0Y1266D02*
X7Y1266D01*
X325Y1266D02*
X329Y1266D01*
X372Y1266D02*
X376Y1266D01*
X601Y1266D02*
X603Y1266D01*
X673Y1266D02*
X674Y1266D01*
X945Y1266D02*
X952Y1266D01*
X0Y1265D02*
X7Y1265D01*
X326Y1265D02*
X328Y1265D01*
X374Y1265D02*
X375Y1265D01*
X601Y1265D02*
X603Y1265D01*
X673Y1265D02*
X674Y1265D01*
X945Y1265D02*
X952Y1265D01*
X0Y1264D02*
X7Y1264D01*
X601Y1264D02*
X603Y1264D01*
X673Y1264D02*
X674Y1264D01*
X945Y1264D02*
X952Y1264D01*
X0Y1263D02*
X7Y1263D01*
X601Y1263D02*
X603Y1263D01*
X673Y1263D02*
X674Y1263D01*
X945Y1263D02*
X952Y1263D01*
X0Y1262D02*
X7Y1262D01*
X601Y1262D02*
X603Y1262D01*
X673Y1262D02*
X674Y1262D01*
X945Y1262D02*
X952Y1262D01*
X0Y1261D02*
X7Y1261D01*
X601Y1261D02*
X603Y1261D01*
X673Y1261D02*
X674Y1261D01*
X945Y1261D02*
X952Y1261D01*
X0Y1260D02*
X7Y1260D01*
X601Y1260D02*
X603Y1260D01*
X673Y1260D02*
X674Y1260D01*
X945Y1260D02*
X952Y1260D01*
X0Y1259D02*
X7Y1259D01*
X601Y1259D02*
X603Y1259D01*
X673Y1259D02*
X674Y1259D01*
X945Y1259D02*
X952Y1259D01*
X0Y1258D02*
X7Y1258D01*
X601Y1258D02*
X603Y1258D01*
X673Y1258D02*
X674Y1258D01*
X945Y1258D02*
X952Y1258D01*
X0Y1257D02*
X7Y1257D01*
X601Y1257D02*
X603Y1257D01*
X672Y1257D02*
X674Y1257D01*
X945Y1257D02*
X952Y1257D01*
X0Y1256D02*
X7Y1256D01*
X601Y1256D02*
X674Y1256D01*
X945Y1256D02*
X952Y1256D01*
X0Y1255D02*
X7Y1255D01*
X601Y1255D02*
X674Y1255D01*
X945Y1255D02*
X952Y1255D01*
X0Y1254D02*
X7Y1254D01*
X601Y1254D02*
X674Y1254D01*
X945Y1254D02*
X952Y1254D01*
X0Y1253D02*
X7Y1253D01*
X945Y1253D02*
X952Y1253D01*
X0Y1252D02*
X7Y1252D01*
X945Y1252D02*
X952Y1252D01*
X0Y1251D02*
X7Y1251D01*
X945Y1251D02*
X952Y1251D01*
X0Y1250D02*
X7Y1250D01*
X945Y1250D02*
X952Y1250D01*
X0Y1249D02*
X7Y1249D01*
X327Y1249D02*
X327Y1249D01*
X374Y1249D02*
X375Y1249D01*
X945Y1249D02*
X952Y1249D01*
X0Y1248D02*
X7Y1248D01*
X325Y1248D02*
X329Y1248D01*
X372Y1248D02*
X376Y1248D01*
X945Y1248D02*
X952Y1248D01*
X0Y1247D02*
X7Y1247D01*
X324Y1247D02*
X330Y1247D01*
X371Y1247D02*
X377Y1247D01*
X945Y1247D02*
X952Y1247D01*
X0Y1246D02*
X7Y1246D01*
X324Y1246D02*
X330Y1246D01*
X371Y1246D02*
X377Y1246D01*
X945Y1246D02*
X952Y1246D01*
X0Y1245D02*
X7Y1245D01*
X324Y1245D02*
X330Y1245D01*
X371Y1245D02*
X377Y1245D01*
X945Y1245D02*
X952Y1245D01*
X0Y1244D02*
X7Y1244D01*
X324Y1244D02*
X330Y1244D01*
X371Y1244D02*
X377Y1244D01*
X945Y1244D02*
X952Y1244D01*
X0Y1243D02*
X7Y1243D01*
X324Y1243D02*
X330Y1243D01*
X371Y1243D02*
X377Y1243D01*
X945Y1243D02*
X952Y1243D01*
X0Y1242D02*
X7Y1242D01*
X324Y1242D02*
X330Y1242D01*
X371Y1242D02*
X377Y1242D01*
X945Y1242D02*
X952Y1242D01*
X0Y1241D02*
X7Y1241D01*
X324Y1241D02*
X330Y1241D01*
X371Y1241D02*
X377Y1241D01*
X945Y1241D02*
X952Y1241D01*
X0Y1240D02*
X7Y1240D01*
X324Y1240D02*
X330Y1240D01*
X371Y1240D02*
X377Y1240D01*
X945Y1240D02*
X952Y1240D01*
X0Y1239D02*
X7Y1239D01*
X324Y1239D02*
X330Y1239D01*
X371Y1239D02*
X377Y1239D01*
X945Y1239D02*
X952Y1239D01*
X0Y1238D02*
X7Y1238D01*
X324Y1238D02*
X330Y1238D01*
X371Y1238D02*
X377Y1238D01*
X945Y1238D02*
X952Y1238D01*
X0Y1237D02*
X7Y1237D01*
X324Y1237D02*
X330Y1237D01*
X371Y1237D02*
X377Y1237D01*
X945Y1237D02*
X952Y1237D01*
X0Y1236D02*
X7Y1236D01*
X324Y1236D02*
X330Y1236D01*
X371Y1236D02*
X377Y1236D01*
X945Y1236D02*
X952Y1236D01*
X0Y1235D02*
X7Y1235D01*
X324Y1235D02*
X330Y1235D01*
X350Y1235D02*
X352Y1235D01*
X371Y1235D02*
X377Y1235D01*
X945Y1235D02*
X952Y1235D01*
X0Y1234D02*
X7Y1234D01*
X324Y1234D02*
X330Y1234D01*
X348Y1234D02*
X353Y1234D01*
X371Y1234D02*
X377Y1234D01*
X945Y1234D02*
X952Y1234D01*
X0Y1233D02*
X7Y1233D01*
X324Y1233D02*
X330Y1233D01*
X348Y1233D02*
X353Y1233D01*
X371Y1233D02*
X377Y1233D01*
X945Y1233D02*
X952Y1233D01*
X0Y1232D02*
X7Y1232D01*
X324Y1232D02*
X330Y1232D01*
X348Y1232D02*
X354Y1232D01*
X371Y1232D02*
X377Y1232D01*
X945Y1232D02*
X952Y1232D01*
X0Y1231D02*
X7Y1231D01*
X324Y1231D02*
X330Y1231D01*
X348Y1231D02*
X354Y1231D01*
X371Y1231D02*
X377Y1231D01*
X945Y1231D02*
X952Y1231D01*
X0Y1230D02*
X7Y1230D01*
X324Y1230D02*
X330Y1230D01*
X348Y1230D02*
X354Y1230D01*
X371Y1230D02*
X377Y1230D01*
X945Y1230D02*
X952Y1230D01*
X0Y1229D02*
X7Y1229D01*
X324Y1229D02*
X330Y1229D01*
X348Y1229D02*
X354Y1229D01*
X371Y1229D02*
X377Y1229D01*
X945Y1229D02*
X952Y1229D01*
X0Y1228D02*
X7Y1228D01*
X324Y1228D02*
X330Y1228D01*
X348Y1228D02*
X354Y1228D01*
X371Y1228D02*
X377Y1228D01*
X945Y1228D02*
X952Y1228D01*
X0Y1227D02*
X7Y1227D01*
X324Y1227D02*
X330Y1227D01*
X348Y1227D02*
X354Y1227D01*
X371Y1227D02*
X377Y1227D01*
X945Y1227D02*
X952Y1227D01*
X0Y1226D02*
X7Y1226D01*
X324Y1226D02*
X330Y1226D01*
X348Y1226D02*
X354Y1226D01*
X371Y1226D02*
X377Y1226D01*
X945Y1226D02*
X952Y1226D01*
X0Y1225D02*
X7Y1225D01*
X324Y1225D02*
X330Y1225D01*
X348Y1225D02*
X354Y1225D01*
X371Y1225D02*
X377Y1225D01*
X945Y1225D02*
X952Y1225D01*
X0Y1224D02*
X7Y1224D01*
X324Y1224D02*
X330Y1224D01*
X348Y1224D02*
X354Y1224D01*
X371Y1224D02*
X377Y1224D01*
X945Y1224D02*
X952Y1224D01*
X0Y1223D02*
X7Y1223D01*
X324Y1223D02*
X330Y1223D01*
X348Y1223D02*
X354Y1223D01*
X371Y1223D02*
X377Y1223D01*
X945Y1223D02*
X952Y1223D01*
X0Y1222D02*
X7Y1222D01*
X324Y1222D02*
X330Y1222D01*
X348Y1222D02*
X354Y1222D01*
X371Y1222D02*
X377Y1222D01*
X945Y1222D02*
X952Y1222D01*
X0Y1221D02*
X7Y1221D01*
X324Y1221D02*
X377Y1221D01*
X945Y1221D02*
X952Y1221D01*
X0Y1220D02*
X7Y1220D01*
X324Y1220D02*
X377Y1220D01*
X945Y1220D02*
X952Y1220D01*
X0Y1219D02*
X7Y1219D01*
X324Y1219D02*
X377Y1219D01*
X945Y1219D02*
X952Y1219D01*
X0Y1218D02*
X7Y1218D01*
X324Y1218D02*
X377Y1218D01*
X945Y1218D02*
X952Y1218D01*
X0Y1217D02*
X7Y1217D01*
X324Y1217D02*
X377Y1217D01*
X945Y1217D02*
X952Y1217D01*
X0Y1216D02*
X7Y1216D01*
X324Y1216D02*
X377Y1216D01*
X945Y1216D02*
X952Y1216D01*
X0Y1215D02*
X7Y1215D01*
X324Y1215D02*
X377Y1215D01*
X945Y1215D02*
X952Y1215D01*
X0Y1214D02*
X7Y1214D01*
X945Y1214D02*
X952Y1214D01*
X0Y1213D02*
X7Y1213D01*
X945Y1213D02*
X952Y1213D01*
X0Y1212D02*
X7Y1212D01*
X945Y1212D02*
X952Y1212D01*
X0Y1211D02*
X7Y1211D01*
X945Y1211D02*
X952Y1211D01*
X0Y1210D02*
X7Y1210D01*
X945Y1210D02*
X952Y1210D01*
X0Y1209D02*
X7Y1209D01*
X945Y1209D02*
X952Y1209D01*
X0Y1208D02*
X7Y1208D01*
X945Y1208D02*
X952Y1208D01*
X0Y1207D02*
X7Y1207D01*
X945Y1207D02*
X952Y1207D01*
X0Y1206D02*
X7Y1206D01*
X945Y1206D02*
X952Y1206D01*
X0Y1205D02*
X7Y1205D01*
X945Y1205D02*
X952Y1205D01*
X0Y1204D02*
X7Y1204D01*
X945Y1204D02*
X952Y1204D01*
X0Y1203D02*
X7Y1203D01*
X945Y1203D02*
X952Y1203D01*
X0Y1202D02*
X7Y1202D01*
X945Y1202D02*
X952Y1202D01*
X0Y1201D02*
X7Y1201D01*
X945Y1201D02*
X952Y1201D01*
X0Y1200D02*
X7Y1200D01*
X945Y1200D02*
X952Y1200D01*
X0Y1199D02*
X7Y1199D01*
X945Y1199D02*
X952Y1199D01*
X0Y1198D02*
X7Y1198D01*
X325Y1198D02*
X329Y1198D01*
X945Y1198D02*
X952Y1198D01*
X0Y1197D02*
X7Y1197D01*
X324Y1197D02*
X330Y1197D01*
X945Y1197D02*
X952Y1197D01*
X0Y1196D02*
X7Y1196D01*
X324Y1196D02*
X330Y1196D01*
X945Y1196D02*
X952Y1196D01*
X0Y1195D02*
X7Y1195D01*
X324Y1195D02*
X330Y1195D01*
X945Y1195D02*
X952Y1195D01*
X0Y1194D02*
X7Y1194D01*
X324Y1194D02*
X330Y1194D01*
X945Y1194D02*
X952Y1194D01*
X0Y1193D02*
X7Y1193D01*
X324Y1193D02*
X330Y1193D01*
X945Y1193D02*
X952Y1193D01*
X0Y1192D02*
X7Y1192D01*
X324Y1192D02*
X330Y1192D01*
X945Y1192D02*
X952Y1192D01*
X0Y1191D02*
X7Y1191D01*
X324Y1191D02*
X330Y1191D01*
X945Y1191D02*
X952Y1191D01*
X0Y1190D02*
X7Y1190D01*
X324Y1190D02*
X330Y1190D01*
X945Y1190D02*
X952Y1190D01*
X0Y1189D02*
X7Y1189D01*
X324Y1189D02*
X330Y1189D01*
X945Y1189D02*
X952Y1189D01*
X0Y1188D02*
X7Y1188D01*
X324Y1188D02*
X330Y1188D01*
X945Y1188D02*
X952Y1188D01*
X0Y1187D02*
X7Y1187D01*
X324Y1187D02*
X330Y1187D01*
X945Y1187D02*
X952Y1187D01*
X0Y1186D02*
X7Y1186D01*
X324Y1186D02*
X330Y1186D01*
X945Y1186D02*
X952Y1186D01*
X0Y1185D02*
X7Y1185D01*
X324Y1185D02*
X330Y1185D01*
X945Y1185D02*
X952Y1185D01*
X0Y1184D02*
X7Y1184D01*
X324Y1184D02*
X330Y1184D01*
X945Y1184D02*
X952Y1184D01*
X0Y1183D02*
X7Y1183D01*
X324Y1183D02*
X330Y1183D01*
X945Y1183D02*
X952Y1183D01*
X0Y1182D02*
X7Y1182D01*
X324Y1182D02*
X330Y1182D01*
X945Y1182D02*
X952Y1182D01*
X0Y1181D02*
X7Y1181D01*
X324Y1181D02*
X330Y1181D01*
X945Y1181D02*
X952Y1181D01*
X0Y1180D02*
X7Y1180D01*
X324Y1180D02*
X330Y1180D01*
X945Y1180D02*
X952Y1180D01*
X0Y1179D02*
X7Y1179D01*
X324Y1179D02*
X330Y1179D01*
X945Y1179D02*
X952Y1179D01*
X0Y1178D02*
X7Y1178D01*
X324Y1178D02*
X330Y1178D01*
X945Y1178D02*
X952Y1178D01*
X0Y1177D02*
X7Y1177D01*
X324Y1177D02*
X330Y1177D01*
X945Y1177D02*
X952Y1177D01*
X0Y1176D02*
X7Y1176D01*
X324Y1176D02*
X330Y1176D01*
X945Y1176D02*
X952Y1176D01*
X0Y1175D02*
X7Y1175D01*
X324Y1175D02*
X330Y1175D01*
X945Y1175D02*
X952Y1175D01*
X0Y1174D02*
X7Y1174D01*
X324Y1174D02*
X330Y1174D01*
X945Y1174D02*
X952Y1174D01*
X0Y1173D02*
X7Y1173D01*
X324Y1173D02*
X330Y1173D01*
X945Y1173D02*
X952Y1173D01*
X0Y1172D02*
X7Y1172D01*
X324Y1172D02*
X330Y1172D01*
X945Y1172D02*
X952Y1172D01*
X0Y1171D02*
X7Y1171D01*
X324Y1171D02*
X375Y1171D01*
X945Y1171D02*
X952Y1171D01*
X0Y1170D02*
X7Y1170D01*
X324Y1170D02*
X376Y1170D01*
X945Y1170D02*
X952Y1170D01*
X0Y1169D02*
X7Y1169D01*
X324Y1169D02*
X377Y1169D01*
X945Y1169D02*
X952Y1169D01*
X0Y1168D02*
X7Y1168D01*
X324Y1168D02*
X377Y1168D01*
X945Y1168D02*
X952Y1168D01*
X0Y1167D02*
X7Y1167D01*
X324Y1167D02*
X377Y1167D01*
X945Y1167D02*
X952Y1167D01*
X0Y1166D02*
X7Y1166D01*
X324Y1166D02*
X377Y1166D01*
X945Y1166D02*
X952Y1166D01*
X0Y1165D02*
X7Y1165D01*
X324Y1165D02*
X376Y1165D01*
X945Y1165D02*
X952Y1165D01*
X0Y1164D02*
X7Y1164D01*
X945Y1164D02*
X952Y1164D01*
X0Y1163D02*
X7Y1163D01*
X945Y1163D02*
X952Y1163D01*
X0Y1162D02*
X7Y1162D01*
X945Y1162D02*
X952Y1162D01*
X0Y1161D02*
X7Y1161D01*
X945Y1161D02*
X952Y1161D01*
X0Y1160D02*
X7Y1160D01*
X945Y1160D02*
X952Y1160D01*
X0Y1159D02*
X7Y1159D01*
X945Y1159D02*
X952Y1159D01*
X0Y1158D02*
X7Y1158D01*
X945Y1158D02*
X952Y1158D01*
X0Y1157D02*
X7Y1157D01*
X945Y1157D02*
X952Y1157D01*
X0Y1156D02*
X7Y1156D01*
X945Y1156D02*
X952Y1156D01*
X0Y1155D02*
X7Y1155D01*
X945Y1155D02*
X952Y1155D01*
X0Y1154D02*
X7Y1154D01*
X945Y1154D02*
X952Y1154D01*
X0Y1153D02*
X7Y1153D01*
X945Y1153D02*
X952Y1153D01*
X0Y1152D02*
X7Y1152D01*
X945Y1152D02*
X952Y1152D01*
X0Y1151D02*
X7Y1151D01*
X945Y1151D02*
X952Y1151D01*
X0Y1150D02*
X7Y1150D01*
X945Y1150D02*
X952Y1150D01*
X0Y1149D02*
X7Y1149D01*
X945Y1149D02*
X952Y1149D01*
X0Y1148D02*
X7Y1148D01*
X945Y1148D02*
X952Y1148D01*
X0Y1147D02*
X7Y1147D01*
X945Y1147D02*
X952Y1147D01*
X0Y1146D02*
X7Y1146D01*
X945Y1146D02*
X952Y1146D01*
X0Y1145D02*
X7Y1145D01*
X945Y1145D02*
X952Y1145D01*
X0Y1144D02*
X7Y1144D01*
X945Y1144D02*
X952Y1144D01*
X0Y1143D02*
X7Y1143D01*
X945Y1143D02*
X952Y1143D01*
X0Y1142D02*
X7Y1142D01*
X318Y1142D02*
X392Y1142D01*
X945Y1142D02*
X952Y1142D01*
X0Y1141D02*
X7Y1141D01*
X318Y1141D02*
X392Y1141D01*
X945Y1141D02*
X952Y1141D01*
X0Y1140D02*
X7Y1140D01*
X318Y1140D02*
X392Y1140D01*
X945Y1140D02*
X952Y1140D01*
X0Y1139D02*
X7Y1139D01*
X318Y1139D02*
X320Y1139D01*
X390Y1139D02*
X392Y1139D01*
X945Y1139D02*
X952Y1139D01*
X0Y1138D02*
X7Y1138D01*
X318Y1138D02*
X320Y1138D01*
X390Y1138D02*
X392Y1138D01*
X945Y1138D02*
X952Y1138D01*
X0Y1137D02*
X7Y1137D01*
X318Y1137D02*
X320Y1137D01*
X390Y1137D02*
X392Y1137D01*
X945Y1137D02*
X952Y1137D01*
X0Y1136D02*
X7Y1136D01*
X318Y1136D02*
X320Y1136D01*
X390Y1136D02*
X392Y1136D01*
X945Y1136D02*
X952Y1136D01*
X0Y1135D02*
X7Y1135D01*
X318Y1135D02*
X320Y1135D01*
X390Y1135D02*
X392Y1135D01*
X945Y1135D02*
X952Y1135D01*
X0Y1134D02*
X7Y1134D01*
X318Y1134D02*
X320Y1134D01*
X390Y1134D02*
X392Y1134D01*
X945Y1134D02*
X952Y1134D01*
X0Y1133D02*
X7Y1133D01*
X318Y1133D02*
X320Y1133D01*
X390Y1133D02*
X392Y1133D01*
X945Y1133D02*
X952Y1133D01*
X0Y1132D02*
X7Y1132D01*
X318Y1132D02*
X320Y1132D01*
X390Y1132D02*
X392Y1132D01*
X945Y1132D02*
X952Y1132D01*
X0Y1131D02*
X7Y1131D01*
X318Y1131D02*
X320Y1131D01*
X390Y1131D02*
X392Y1131D01*
X945Y1131D02*
X952Y1131D01*
X0Y1130D02*
X7Y1130D01*
X318Y1130D02*
X320Y1130D01*
X390Y1130D02*
X392Y1130D01*
X945Y1130D02*
X952Y1130D01*
X0Y1129D02*
X7Y1129D01*
X318Y1129D02*
X320Y1129D01*
X390Y1129D02*
X392Y1129D01*
X945Y1129D02*
X952Y1129D01*
X0Y1128D02*
X7Y1128D01*
X318Y1128D02*
X320Y1128D01*
X390Y1128D02*
X392Y1128D01*
X945Y1128D02*
X952Y1128D01*
X0Y1127D02*
X7Y1127D01*
X318Y1127D02*
X320Y1127D01*
X390Y1127D02*
X392Y1127D01*
X945Y1127D02*
X952Y1127D01*
X0Y1126D02*
X7Y1126D01*
X318Y1126D02*
X320Y1126D01*
X390Y1126D02*
X392Y1126D01*
X945Y1126D02*
X952Y1126D01*
X0Y1125D02*
X7Y1125D01*
X318Y1125D02*
X320Y1125D01*
X390Y1125D02*
X392Y1125D01*
X945Y1125D02*
X952Y1125D01*
X0Y1124D02*
X7Y1124D01*
X318Y1124D02*
X320Y1124D01*
X390Y1124D02*
X392Y1124D01*
X945Y1124D02*
X952Y1124D01*
X0Y1123D02*
X7Y1123D01*
X318Y1123D02*
X320Y1123D01*
X390Y1123D02*
X392Y1123D01*
X945Y1123D02*
X952Y1123D01*
X0Y1122D02*
X7Y1122D01*
X318Y1122D02*
X320Y1122D01*
X390Y1122D02*
X392Y1122D01*
X945Y1122D02*
X952Y1122D01*
X0Y1121D02*
X7Y1121D01*
X318Y1121D02*
X320Y1121D01*
X390Y1121D02*
X392Y1121D01*
X945Y1121D02*
X952Y1121D01*
X0Y1120D02*
X7Y1120D01*
X318Y1120D02*
X320Y1120D01*
X390Y1120D02*
X392Y1120D01*
X945Y1120D02*
X952Y1120D01*
X0Y1119D02*
X7Y1119D01*
X318Y1119D02*
X320Y1119D01*
X390Y1119D02*
X392Y1119D01*
X945Y1119D02*
X952Y1119D01*
X0Y1118D02*
X7Y1118D01*
X318Y1118D02*
X320Y1118D01*
X390Y1118D02*
X392Y1118D01*
X945Y1118D02*
X952Y1118D01*
X0Y1117D02*
X7Y1117D01*
X318Y1117D02*
X320Y1117D01*
X390Y1117D02*
X392Y1117D01*
X945Y1117D02*
X952Y1117D01*
X0Y1116D02*
X7Y1116D01*
X318Y1116D02*
X320Y1116D01*
X390Y1116D02*
X392Y1116D01*
X430Y1116D02*
X430Y1116D01*
X945Y1116D02*
X952Y1116D01*
X0Y1115D02*
X7Y1115D01*
X318Y1115D02*
X320Y1115D01*
X390Y1115D02*
X392Y1115D01*
X429Y1115D02*
X431Y1115D01*
X945Y1115D02*
X952Y1115D01*
X0Y1114D02*
X7Y1114D01*
X318Y1114D02*
X320Y1114D01*
X390Y1114D02*
X392Y1114D01*
X428Y1114D02*
X432Y1114D01*
X945Y1114D02*
X952Y1114D01*
X0Y1113D02*
X7Y1113D01*
X318Y1113D02*
X320Y1113D01*
X390Y1113D02*
X392Y1113D01*
X427Y1113D02*
X433Y1113D01*
X945Y1113D02*
X952Y1113D01*
X0Y1112D02*
X7Y1112D01*
X318Y1112D02*
X320Y1112D01*
X390Y1112D02*
X392Y1112D01*
X428Y1112D02*
X433Y1112D01*
X945Y1112D02*
X952Y1112D01*
X0Y1111D02*
X7Y1111D01*
X318Y1111D02*
X320Y1111D01*
X390Y1111D02*
X392Y1111D01*
X429Y1111D02*
X433Y1111D01*
X945Y1111D02*
X952Y1111D01*
X0Y1110D02*
X7Y1110D01*
X318Y1110D02*
X320Y1110D01*
X390Y1110D02*
X392Y1110D01*
X430Y1110D02*
X433Y1110D01*
X945Y1110D02*
X952Y1110D01*
X0Y1109D02*
X7Y1109D01*
X318Y1109D02*
X320Y1109D01*
X390Y1109D02*
X392Y1109D01*
X431Y1109D02*
X433Y1109D01*
X945Y1109D02*
X952Y1109D01*
X0Y1108D02*
X7Y1108D01*
X318Y1108D02*
X320Y1108D01*
X390Y1108D02*
X392Y1108D01*
X432Y1108D02*
X433Y1108D01*
X945Y1108D02*
X952Y1108D01*
X0Y1107D02*
X7Y1107D01*
X318Y1107D02*
X320Y1107D01*
X390Y1107D02*
X392Y1107D01*
X433Y1107D02*
X433Y1107D01*
X945Y1107D02*
X952Y1107D01*
X0Y1106D02*
X7Y1106D01*
X318Y1106D02*
X320Y1106D01*
X390Y1106D02*
X392Y1106D01*
X945Y1106D02*
X952Y1106D01*
X0Y1105D02*
X7Y1105D01*
X318Y1105D02*
X320Y1105D01*
X390Y1105D02*
X392Y1105D01*
X945Y1105D02*
X952Y1105D01*
X0Y1104D02*
X7Y1104D01*
X318Y1104D02*
X320Y1104D01*
X390Y1104D02*
X392Y1104D01*
X945Y1104D02*
X952Y1104D01*
X0Y1103D02*
X7Y1103D01*
X318Y1103D02*
X320Y1103D01*
X390Y1103D02*
X392Y1103D01*
X945Y1103D02*
X952Y1103D01*
X0Y1102D02*
X7Y1102D01*
X318Y1102D02*
X320Y1102D01*
X390Y1102D02*
X392Y1102D01*
X945Y1102D02*
X952Y1102D01*
X0Y1101D02*
X7Y1101D01*
X318Y1101D02*
X320Y1101D01*
X390Y1101D02*
X392Y1101D01*
X945Y1101D02*
X952Y1101D01*
X0Y1100D02*
X7Y1100D01*
X318Y1100D02*
X320Y1100D01*
X390Y1100D02*
X392Y1100D01*
X945Y1100D02*
X952Y1100D01*
X0Y1099D02*
X7Y1099D01*
X318Y1099D02*
X320Y1099D01*
X390Y1099D02*
X392Y1099D01*
X945Y1099D02*
X952Y1099D01*
X0Y1098D02*
X7Y1098D01*
X318Y1098D02*
X320Y1098D01*
X390Y1098D02*
X392Y1098D01*
X945Y1098D02*
X952Y1098D01*
X0Y1097D02*
X7Y1097D01*
X318Y1097D02*
X320Y1097D01*
X390Y1097D02*
X392Y1097D01*
X945Y1097D02*
X952Y1097D01*
X0Y1096D02*
X7Y1096D01*
X318Y1096D02*
X320Y1096D01*
X390Y1096D02*
X392Y1096D01*
X945Y1096D02*
X952Y1096D01*
X0Y1095D02*
X7Y1095D01*
X318Y1095D02*
X320Y1095D01*
X390Y1095D02*
X392Y1095D01*
X945Y1095D02*
X952Y1095D01*
X0Y1094D02*
X7Y1094D01*
X318Y1094D02*
X320Y1094D01*
X390Y1094D02*
X392Y1094D01*
X945Y1094D02*
X952Y1094D01*
X0Y1093D02*
X7Y1093D01*
X318Y1093D02*
X320Y1093D01*
X390Y1093D02*
X392Y1093D01*
X945Y1093D02*
X952Y1093D01*
X0Y1092D02*
X7Y1092D01*
X318Y1092D02*
X320Y1092D01*
X390Y1092D02*
X392Y1092D01*
X945Y1092D02*
X952Y1092D01*
X0Y1091D02*
X7Y1091D01*
X318Y1091D02*
X320Y1091D01*
X390Y1091D02*
X392Y1091D01*
X945Y1091D02*
X952Y1091D01*
X0Y1090D02*
X7Y1090D01*
X318Y1090D02*
X320Y1090D01*
X390Y1090D02*
X392Y1090D01*
X945Y1090D02*
X952Y1090D01*
X0Y1089D02*
X7Y1089D01*
X318Y1089D02*
X320Y1089D01*
X390Y1089D02*
X392Y1089D01*
X945Y1089D02*
X952Y1089D01*
X0Y1088D02*
X7Y1088D01*
X318Y1088D02*
X320Y1088D01*
X390Y1088D02*
X392Y1088D01*
X945Y1088D02*
X952Y1088D01*
X0Y1087D02*
X7Y1087D01*
X318Y1087D02*
X320Y1087D01*
X390Y1087D02*
X392Y1087D01*
X945Y1087D02*
X952Y1087D01*
X0Y1086D02*
X7Y1086D01*
X318Y1086D02*
X320Y1086D01*
X390Y1086D02*
X392Y1086D01*
X945Y1086D02*
X952Y1086D01*
X0Y1085D02*
X7Y1085D01*
X318Y1085D02*
X320Y1085D01*
X390Y1085D02*
X392Y1085D01*
X455Y1085D02*
X461Y1085D01*
X945Y1085D02*
X952Y1085D01*
X0Y1084D02*
X7Y1084D01*
X318Y1084D02*
X320Y1084D01*
X390Y1084D02*
X392Y1084D01*
X456Y1084D02*
X462Y1084D01*
X945Y1084D02*
X952Y1084D01*
X0Y1083D02*
X7Y1083D01*
X318Y1083D02*
X320Y1083D01*
X390Y1083D02*
X392Y1083D01*
X457Y1083D02*
X463Y1083D01*
X945Y1083D02*
X952Y1083D01*
X0Y1082D02*
X7Y1082D01*
X318Y1082D02*
X320Y1082D01*
X390Y1082D02*
X392Y1082D01*
X458Y1082D02*
X464Y1082D01*
X945Y1082D02*
X952Y1082D01*
X0Y1081D02*
X7Y1081D01*
X318Y1081D02*
X320Y1081D01*
X390Y1081D02*
X392Y1081D01*
X459Y1081D02*
X464Y1081D01*
X945Y1081D02*
X952Y1081D01*
X0Y1080D02*
X7Y1080D01*
X318Y1080D02*
X320Y1080D01*
X390Y1080D02*
X392Y1080D01*
X460Y1080D02*
X463Y1080D01*
X945Y1080D02*
X952Y1080D01*
X0Y1079D02*
X7Y1079D01*
X318Y1079D02*
X320Y1079D01*
X390Y1079D02*
X392Y1079D01*
X461Y1079D02*
X462Y1079D01*
X945Y1079D02*
X952Y1079D01*
X0Y1078D02*
X7Y1078D01*
X318Y1078D02*
X320Y1078D01*
X390Y1078D02*
X392Y1078D01*
X945Y1078D02*
X952Y1078D01*
X0Y1077D02*
X7Y1077D01*
X318Y1077D02*
X320Y1077D01*
X390Y1077D02*
X392Y1077D01*
X945Y1077D02*
X952Y1077D01*
X0Y1076D02*
X7Y1076D01*
X318Y1076D02*
X320Y1076D01*
X390Y1076D02*
X392Y1076D01*
X945Y1076D02*
X952Y1076D01*
X0Y1075D02*
X7Y1075D01*
X318Y1075D02*
X320Y1075D01*
X390Y1075D02*
X392Y1075D01*
X945Y1075D02*
X952Y1075D01*
X0Y1074D02*
X7Y1074D01*
X318Y1074D02*
X321Y1074D01*
X389Y1074D02*
X392Y1074D01*
X945Y1074D02*
X952Y1074D01*
X0Y1073D02*
X7Y1073D01*
X318Y1073D02*
X321Y1073D01*
X389Y1073D02*
X392Y1073D01*
X945Y1073D02*
X952Y1073D01*
X0Y1072D02*
X7Y1072D01*
X318Y1072D02*
X321Y1072D01*
X389Y1072D02*
X392Y1072D01*
X945Y1072D02*
X952Y1072D01*
X0Y1071D02*
X7Y1071D01*
X318Y1071D02*
X321Y1071D01*
X389Y1071D02*
X392Y1071D01*
X945Y1071D02*
X952Y1071D01*
X0Y1070D02*
X7Y1070D01*
X318Y1070D02*
X321Y1070D01*
X389Y1070D02*
X392Y1070D01*
X945Y1070D02*
X952Y1070D01*
X0Y1069D02*
X7Y1069D01*
X318Y1069D02*
X321Y1069D01*
X389Y1069D02*
X392Y1069D01*
X945Y1069D02*
X952Y1069D01*
X0Y1068D02*
X7Y1068D01*
X318Y1068D02*
X321Y1068D01*
X389Y1068D02*
X392Y1068D01*
X945Y1068D02*
X952Y1068D01*
X0Y1067D02*
X7Y1067D01*
X318Y1067D02*
X321Y1067D01*
X389Y1067D02*
X392Y1067D01*
X945Y1067D02*
X952Y1067D01*
X0Y1066D02*
X7Y1066D01*
X318Y1066D02*
X321Y1066D01*
X389Y1066D02*
X392Y1066D01*
X945Y1066D02*
X952Y1066D01*
X0Y1065D02*
X7Y1065D01*
X318Y1065D02*
X321Y1065D01*
X389Y1065D02*
X392Y1065D01*
X945Y1065D02*
X952Y1065D01*
X0Y1064D02*
X7Y1064D01*
X318Y1064D02*
X321Y1064D01*
X389Y1064D02*
X392Y1064D01*
X945Y1064D02*
X952Y1064D01*
X0Y1063D02*
X7Y1063D01*
X318Y1063D02*
X321Y1063D01*
X389Y1063D02*
X392Y1063D01*
X945Y1063D02*
X952Y1063D01*
X0Y1062D02*
X7Y1062D01*
X318Y1062D02*
X321Y1062D01*
X389Y1062D02*
X392Y1062D01*
X945Y1062D02*
X952Y1062D01*
X0Y1061D02*
X7Y1061D01*
X318Y1061D02*
X321Y1061D01*
X326Y1061D02*
X384Y1061D01*
X389Y1061D02*
X392Y1061D01*
X945Y1061D02*
X952Y1061D01*
X0Y1060D02*
X7Y1060D01*
X318Y1060D02*
X321Y1060D01*
X326Y1060D02*
X384Y1060D01*
X389Y1060D02*
X392Y1060D01*
X945Y1060D02*
X952Y1060D01*
X0Y1059D02*
X7Y1059D01*
X318Y1059D02*
X321Y1059D01*
X326Y1059D02*
X384Y1059D01*
X389Y1059D02*
X392Y1059D01*
X945Y1059D02*
X952Y1059D01*
X0Y1058D02*
X7Y1058D01*
X318Y1058D02*
X320Y1058D01*
X390Y1058D02*
X392Y1058D01*
X945Y1058D02*
X952Y1058D01*
X0Y1057D02*
X7Y1057D01*
X318Y1057D02*
X320Y1057D01*
X390Y1057D02*
X392Y1057D01*
X945Y1057D02*
X952Y1057D01*
X0Y1056D02*
X7Y1056D01*
X318Y1056D02*
X320Y1056D01*
X390Y1056D02*
X392Y1056D01*
X945Y1056D02*
X952Y1056D01*
X0Y1055D02*
X7Y1055D01*
X318Y1055D02*
X320Y1055D01*
X390Y1055D02*
X392Y1055D01*
X945Y1055D02*
X952Y1055D01*
X0Y1054D02*
X7Y1054D01*
X318Y1054D02*
X320Y1054D01*
X390Y1054D02*
X392Y1054D01*
X945Y1054D02*
X952Y1054D01*
X0Y1053D02*
X7Y1053D01*
X318Y1053D02*
X320Y1053D01*
X390Y1053D02*
X392Y1053D01*
X945Y1053D02*
X952Y1053D01*
X0Y1052D02*
X7Y1052D01*
X318Y1052D02*
X320Y1052D01*
X390Y1052D02*
X392Y1052D01*
X945Y1052D02*
X952Y1052D01*
X0Y1051D02*
X7Y1051D01*
X318Y1051D02*
X320Y1051D01*
X390Y1051D02*
X392Y1051D01*
X945Y1051D02*
X952Y1051D01*
X0Y1050D02*
X7Y1050D01*
X318Y1050D02*
X320Y1050D01*
X390Y1050D02*
X392Y1050D01*
X945Y1050D02*
X952Y1050D01*
X0Y1049D02*
X7Y1049D01*
X318Y1049D02*
X320Y1049D01*
X390Y1049D02*
X392Y1049D01*
X945Y1049D02*
X952Y1049D01*
X0Y1048D02*
X7Y1048D01*
X318Y1048D02*
X320Y1048D01*
X390Y1048D02*
X392Y1048D01*
X945Y1048D02*
X952Y1048D01*
X0Y1047D02*
X7Y1047D01*
X318Y1047D02*
X320Y1047D01*
X390Y1047D02*
X392Y1047D01*
X945Y1047D02*
X952Y1047D01*
X0Y1046D02*
X7Y1046D01*
X318Y1046D02*
X320Y1046D01*
X390Y1046D02*
X392Y1046D01*
X945Y1046D02*
X952Y1046D01*
X0Y1045D02*
X7Y1045D01*
X318Y1045D02*
X320Y1045D01*
X390Y1045D02*
X392Y1045D01*
X945Y1045D02*
X952Y1045D01*
X0Y1044D02*
X7Y1044D01*
X318Y1044D02*
X320Y1044D01*
X390Y1044D02*
X392Y1044D01*
X945Y1044D02*
X952Y1044D01*
X0Y1043D02*
X7Y1043D01*
X318Y1043D02*
X320Y1043D01*
X390Y1043D02*
X392Y1043D01*
X945Y1043D02*
X952Y1043D01*
X0Y1042D02*
X7Y1042D01*
X318Y1042D02*
X320Y1042D01*
X390Y1042D02*
X392Y1042D01*
X945Y1042D02*
X952Y1042D01*
X0Y1041D02*
X7Y1041D01*
X318Y1041D02*
X320Y1041D01*
X390Y1041D02*
X392Y1041D01*
X945Y1041D02*
X952Y1041D01*
X0Y1040D02*
X7Y1040D01*
X318Y1040D02*
X320Y1040D01*
X390Y1040D02*
X392Y1040D01*
X945Y1040D02*
X952Y1040D01*
X0Y1039D02*
X7Y1039D01*
X318Y1039D02*
X320Y1039D01*
X390Y1039D02*
X392Y1039D01*
X945Y1039D02*
X952Y1039D01*
X0Y1038D02*
X7Y1038D01*
X318Y1038D02*
X320Y1038D01*
X390Y1038D02*
X392Y1038D01*
X945Y1038D02*
X952Y1038D01*
X0Y1037D02*
X7Y1037D01*
X318Y1037D02*
X320Y1037D01*
X390Y1037D02*
X392Y1037D01*
X945Y1037D02*
X952Y1037D01*
X0Y1036D02*
X7Y1036D01*
X318Y1036D02*
X320Y1036D01*
X390Y1036D02*
X392Y1036D01*
X945Y1036D02*
X952Y1036D01*
X0Y1035D02*
X7Y1035D01*
X318Y1035D02*
X320Y1035D01*
X390Y1035D02*
X392Y1035D01*
X945Y1035D02*
X952Y1035D01*
X0Y1034D02*
X7Y1034D01*
X318Y1034D02*
X320Y1034D01*
X390Y1034D02*
X392Y1034D01*
X945Y1034D02*
X952Y1034D01*
X0Y1033D02*
X7Y1033D01*
X318Y1033D02*
X320Y1033D01*
X390Y1033D02*
X392Y1033D01*
X945Y1033D02*
X952Y1033D01*
X0Y1032D02*
X7Y1032D01*
X318Y1032D02*
X320Y1032D01*
X390Y1032D02*
X392Y1032D01*
X945Y1032D02*
X952Y1032D01*
X0Y1031D02*
X7Y1031D01*
X318Y1031D02*
X320Y1031D01*
X390Y1031D02*
X392Y1031D01*
X945Y1031D02*
X952Y1031D01*
X0Y1030D02*
X7Y1030D01*
X318Y1030D02*
X320Y1030D01*
X390Y1030D02*
X392Y1030D01*
X945Y1030D02*
X952Y1030D01*
X0Y1029D02*
X7Y1029D01*
X318Y1029D02*
X320Y1029D01*
X390Y1029D02*
X392Y1029D01*
X945Y1029D02*
X952Y1029D01*
X0Y1028D02*
X7Y1028D01*
X318Y1028D02*
X320Y1028D01*
X390Y1028D02*
X392Y1028D01*
X945Y1028D02*
X952Y1028D01*
X0Y1027D02*
X7Y1027D01*
X318Y1027D02*
X320Y1027D01*
X390Y1027D02*
X392Y1027D01*
X945Y1027D02*
X952Y1027D01*
X0Y1026D02*
X7Y1026D01*
X318Y1026D02*
X320Y1026D01*
X390Y1026D02*
X392Y1026D01*
X945Y1026D02*
X952Y1026D01*
X0Y1025D02*
X7Y1025D01*
X318Y1025D02*
X320Y1025D01*
X390Y1025D02*
X392Y1025D01*
X945Y1025D02*
X952Y1025D01*
X0Y1024D02*
X7Y1024D01*
X318Y1024D02*
X320Y1024D01*
X390Y1024D02*
X392Y1024D01*
X945Y1024D02*
X952Y1024D01*
X0Y1023D02*
X7Y1023D01*
X318Y1023D02*
X320Y1023D01*
X390Y1023D02*
X392Y1023D01*
X945Y1023D02*
X952Y1023D01*
X0Y1022D02*
X7Y1022D01*
X318Y1022D02*
X320Y1022D01*
X390Y1022D02*
X392Y1022D01*
X945Y1022D02*
X952Y1022D01*
X0Y1021D02*
X7Y1021D01*
X318Y1021D02*
X320Y1021D01*
X390Y1021D02*
X392Y1021D01*
X945Y1021D02*
X952Y1021D01*
X0Y1020D02*
X7Y1020D01*
X318Y1020D02*
X320Y1020D01*
X390Y1020D02*
X392Y1020D01*
X945Y1020D02*
X952Y1020D01*
X0Y1019D02*
X7Y1019D01*
X318Y1019D02*
X320Y1019D01*
X390Y1019D02*
X392Y1019D01*
X945Y1019D02*
X952Y1019D01*
X0Y1018D02*
X7Y1018D01*
X318Y1018D02*
X320Y1018D01*
X390Y1018D02*
X392Y1018D01*
X945Y1018D02*
X952Y1018D01*
X0Y1017D02*
X7Y1017D01*
X318Y1017D02*
X320Y1017D01*
X390Y1017D02*
X392Y1017D01*
X945Y1017D02*
X952Y1017D01*
X0Y1016D02*
X7Y1016D01*
X318Y1016D02*
X320Y1016D01*
X390Y1016D02*
X392Y1016D01*
X945Y1016D02*
X952Y1016D01*
X0Y1015D02*
X7Y1015D01*
X318Y1015D02*
X320Y1015D01*
X390Y1015D02*
X392Y1015D01*
X945Y1015D02*
X952Y1015D01*
X0Y1014D02*
X7Y1014D01*
X318Y1014D02*
X320Y1014D01*
X390Y1014D02*
X392Y1014D01*
X945Y1014D02*
X952Y1014D01*
X0Y1013D02*
X7Y1013D01*
X318Y1013D02*
X320Y1013D01*
X390Y1013D02*
X392Y1013D01*
X945Y1013D02*
X952Y1013D01*
X0Y1012D02*
X7Y1012D01*
X318Y1012D02*
X320Y1012D01*
X390Y1012D02*
X392Y1012D01*
X945Y1012D02*
X952Y1012D01*
X0Y1011D02*
X7Y1011D01*
X318Y1011D02*
X320Y1011D01*
X390Y1011D02*
X392Y1011D01*
X945Y1011D02*
X952Y1011D01*
X0Y1010D02*
X7Y1010D01*
X318Y1010D02*
X320Y1010D01*
X390Y1010D02*
X392Y1010D01*
X945Y1010D02*
X952Y1010D01*
X0Y1009D02*
X7Y1009D01*
X318Y1009D02*
X320Y1009D01*
X390Y1009D02*
X392Y1009D01*
X945Y1009D02*
X952Y1009D01*
X0Y1008D02*
X7Y1008D01*
X318Y1008D02*
X320Y1008D01*
X390Y1008D02*
X392Y1008D01*
X945Y1008D02*
X952Y1008D01*
X0Y1007D02*
X7Y1007D01*
X318Y1007D02*
X320Y1007D01*
X390Y1007D02*
X392Y1007D01*
X945Y1007D02*
X952Y1007D01*
X0Y1006D02*
X7Y1006D01*
X318Y1006D02*
X320Y1006D01*
X390Y1006D02*
X392Y1006D01*
X945Y1006D02*
X952Y1006D01*
X0Y1005D02*
X7Y1005D01*
X318Y1005D02*
X320Y1005D01*
X390Y1005D02*
X392Y1005D01*
X945Y1005D02*
X952Y1005D01*
X0Y1004D02*
X7Y1004D01*
X318Y1004D02*
X320Y1004D01*
X390Y1004D02*
X392Y1004D01*
X945Y1004D02*
X952Y1004D01*
X0Y1003D02*
X7Y1003D01*
X318Y1003D02*
X320Y1003D01*
X390Y1003D02*
X392Y1003D01*
X945Y1003D02*
X952Y1003D01*
X0Y1002D02*
X7Y1002D01*
X318Y1002D02*
X320Y1002D01*
X390Y1002D02*
X392Y1002D01*
X945Y1002D02*
X952Y1002D01*
X0Y1001D02*
X7Y1001D01*
X318Y1001D02*
X320Y1001D01*
X390Y1001D02*
X392Y1001D01*
X945Y1001D02*
X952Y1001D01*
X0Y1000D02*
X7Y1000D01*
X318Y1000D02*
X320Y1000D01*
X390Y1000D02*
X392Y1000D01*
X945Y1000D02*
X952Y1000D01*
X0Y999D02*
X7Y999D01*
X318Y999D02*
X320Y999D01*
X390Y999D02*
X392Y999D01*
X945Y999D02*
X952Y999D01*
X0Y998D02*
X7Y998D01*
X318Y998D02*
X320Y998D01*
X390Y998D02*
X392Y998D01*
X945Y998D02*
X952Y998D01*
X0Y997D02*
X7Y997D01*
X318Y997D02*
X320Y997D01*
X390Y997D02*
X392Y997D01*
X945Y997D02*
X952Y997D01*
X0Y996D02*
X7Y996D01*
X318Y996D02*
X320Y996D01*
X390Y996D02*
X392Y996D01*
X945Y996D02*
X952Y996D01*
X0Y995D02*
X7Y995D01*
X318Y995D02*
X320Y995D01*
X390Y995D02*
X392Y995D01*
X945Y995D02*
X952Y995D01*
X0Y994D02*
X7Y994D01*
X318Y994D02*
X321Y994D01*
X390Y994D02*
X392Y994D01*
X945Y994D02*
X952Y994D01*
X0Y993D02*
X7Y993D01*
X318Y993D02*
X392Y993D01*
X945Y993D02*
X952Y993D01*
X0Y992D02*
X7Y992D01*
X318Y992D02*
X392Y992D01*
X945Y992D02*
X952Y992D01*
X0Y991D02*
X7Y991D01*
X319Y991D02*
X392Y991D01*
X945Y991D02*
X952Y991D01*
X0Y990D02*
X7Y990D01*
X945Y990D02*
X952Y990D01*
X0Y989D02*
X7Y989D01*
X945Y989D02*
X952Y989D01*
X0Y988D02*
X7Y988D01*
X945Y988D02*
X952Y988D01*
X0Y987D02*
X7Y987D01*
X945Y987D02*
X952Y987D01*
X0Y986D02*
X7Y986D01*
X945Y986D02*
X952Y986D01*
X0Y985D02*
X7Y985D01*
X945Y985D02*
X952Y985D01*
X0Y984D02*
X7Y984D01*
X945Y984D02*
X952Y984D01*
X0Y983D02*
X7Y983D01*
X945Y983D02*
X952Y983D01*
X0Y982D02*
X7Y982D01*
X945Y982D02*
X952Y982D01*
X0Y981D02*
X7Y981D01*
X945Y981D02*
X952Y981D01*
X0Y980D02*
X7Y980D01*
X945Y980D02*
X952Y980D01*
X0Y979D02*
X7Y979D01*
X945Y979D02*
X952Y979D01*
X0Y978D02*
X7Y978D01*
X945Y978D02*
X952Y978D01*
X0Y977D02*
X7Y977D01*
X945Y977D02*
X952Y977D01*
X0Y976D02*
X7Y976D01*
X945Y976D02*
X952Y976D01*
X0Y975D02*
X7Y975D01*
X945Y975D02*
X952Y975D01*
X0Y974D02*
X7Y974D01*
X945Y974D02*
X952Y974D01*
X0Y973D02*
X7Y973D01*
X945Y973D02*
X952Y973D01*
X0Y972D02*
X7Y972D01*
X945Y972D02*
X952Y972D01*
X0Y971D02*
X7Y971D01*
X945Y971D02*
X952Y971D01*
X0Y970D02*
X7Y970D01*
X945Y970D02*
X952Y970D01*
X0Y969D02*
X7Y969D01*
X945Y969D02*
X952Y969D01*
X0Y968D02*
X7Y968D01*
X945Y968D02*
X952Y968D01*
X0Y967D02*
X7Y967D01*
X945Y967D02*
X952Y967D01*
X0Y966D02*
X7Y966D01*
X945Y966D02*
X952Y966D01*
X0Y965D02*
X7Y965D01*
X945Y965D02*
X952Y965D01*
X0Y964D02*
X7Y964D01*
X945Y964D02*
X952Y964D01*
X0Y963D02*
X7Y963D01*
X945Y963D02*
X952Y963D01*
X0Y962D02*
X7Y962D01*
X945Y962D02*
X952Y962D01*
X0Y961D02*
X7Y961D01*
X945Y961D02*
X952Y961D01*
X0Y960D02*
X7Y960D01*
X945Y960D02*
X952Y960D01*
X0Y959D02*
X7Y959D01*
X945Y959D02*
X952Y959D01*
X0Y958D02*
X7Y958D01*
X945Y958D02*
X952Y958D01*
X0Y957D02*
X7Y957D01*
X945Y957D02*
X952Y957D01*
X0Y956D02*
X7Y956D01*
X945Y956D02*
X952Y956D01*
X0Y955D02*
X7Y955D01*
X945Y955D02*
X952Y955D01*
X0Y954D02*
X7Y954D01*
X945Y954D02*
X952Y954D01*
X0Y953D02*
X7Y953D01*
X945Y953D02*
X952Y953D01*
X0Y952D02*
X7Y952D01*
X945Y952D02*
X952Y952D01*
X0Y951D02*
X7Y951D01*
X945Y951D02*
X952Y951D01*
X0Y950D02*
X7Y950D01*
X945Y950D02*
X952Y950D01*
X0Y949D02*
X7Y949D01*
X945Y949D02*
X952Y949D01*
X0Y948D02*
X7Y948D01*
X945Y948D02*
X952Y948D01*
X0Y947D02*
X7Y947D01*
X945Y947D02*
X952Y947D01*
X0Y946D02*
X7Y946D01*
X945Y946D02*
X952Y946D01*
X0Y945D02*
X7Y945D01*
X945Y945D02*
X952Y945D01*
X0Y944D02*
X7Y944D01*
X945Y944D02*
X952Y944D01*
X0Y943D02*
X7Y943D01*
X945Y943D02*
X952Y943D01*
X0Y942D02*
X7Y942D01*
X945Y942D02*
X952Y942D01*
X0Y941D02*
X7Y941D01*
X945Y941D02*
X952Y941D01*
X0Y940D02*
X7Y940D01*
X945Y940D02*
X952Y940D01*
X0Y939D02*
X7Y939D01*
X945Y939D02*
X952Y939D01*
X0Y938D02*
X7Y938D01*
X945Y938D02*
X952Y938D01*
X0Y937D02*
X7Y937D01*
X945Y937D02*
X952Y937D01*
X0Y936D02*
X7Y936D01*
X945Y936D02*
X952Y936D01*
X0Y935D02*
X7Y935D01*
X945Y935D02*
X952Y935D01*
X0Y934D02*
X7Y934D01*
X945Y934D02*
X952Y934D01*
X0Y933D02*
X7Y933D01*
X945Y933D02*
X952Y933D01*
X0Y932D02*
X7Y932D01*
X945Y932D02*
X952Y932D01*
X0Y931D02*
X7Y931D01*
X945Y931D02*
X952Y931D01*
X0Y930D02*
X7Y930D01*
X945Y930D02*
X952Y930D01*
X0Y929D02*
X7Y929D01*
X945Y929D02*
X952Y929D01*
X0Y928D02*
X7Y928D01*
X945Y928D02*
X952Y928D01*
X0Y927D02*
X7Y927D01*
X945Y927D02*
X952Y927D01*
X0Y926D02*
X7Y926D01*
X945Y926D02*
X952Y926D01*
X0Y925D02*
X7Y925D01*
X945Y925D02*
X952Y925D01*
X0Y924D02*
X7Y924D01*
X945Y924D02*
X952Y924D01*
X0Y923D02*
X7Y923D01*
X945Y923D02*
X952Y923D01*
X0Y922D02*
X7Y922D01*
X945Y922D02*
X952Y922D01*
X0Y921D02*
X7Y921D01*
X945Y921D02*
X952Y921D01*
X0Y920D02*
X7Y920D01*
X945Y920D02*
X952Y920D01*
X0Y919D02*
X7Y919D01*
X945Y919D02*
X952Y919D01*
X0Y918D02*
X7Y918D01*
X945Y918D02*
X952Y918D01*
X0Y917D02*
X7Y917D01*
X945Y917D02*
X952Y917D01*
X0Y916D02*
X7Y916D01*
X945Y916D02*
X952Y916D01*
X0Y915D02*
X7Y915D01*
X945Y915D02*
X952Y915D01*
X0Y914D02*
X7Y914D01*
X945Y914D02*
X952Y914D01*
X0Y913D02*
X7Y913D01*
X945Y913D02*
X952Y913D01*
X0Y912D02*
X7Y912D01*
X945Y912D02*
X952Y912D01*
X0Y911D02*
X7Y911D01*
X945Y911D02*
X952Y911D01*
X0Y910D02*
X7Y910D01*
X945Y910D02*
X952Y910D01*
X0Y909D02*
X7Y909D01*
X945Y909D02*
X952Y909D01*
X0Y908D02*
X7Y908D01*
X945Y908D02*
X952Y908D01*
X0Y907D02*
X7Y907D01*
X945Y907D02*
X952Y907D01*
X0Y906D02*
X7Y906D01*
X945Y906D02*
X952Y906D01*
X0Y905D02*
X7Y905D01*
X945Y905D02*
X952Y905D01*
X0Y904D02*
X7Y904D01*
X945Y904D02*
X952Y904D01*
X0Y903D02*
X7Y903D01*
X945Y903D02*
X952Y903D01*
X0Y902D02*
X7Y902D01*
X945Y902D02*
X952Y902D01*
X0Y901D02*
X7Y901D01*
X945Y901D02*
X952Y901D01*
X0Y900D02*
X7Y900D01*
X945Y900D02*
X952Y900D01*
X0Y899D02*
X7Y899D01*
X945Y899D02*
X952Y899D01*
X0Y898D02*
X7Y898D01*
X945Y898D02*
X952Y898D01*
X0Y897D02*
X7Y897D01*
X945Y897D02*
X952Y897D01*
X0Y896D02*
X7Y896D01*
X945Y896D02*
X952Y896D01*
X0Y895D02*
X7Y895D01*
X945Y895D02*
X952Y895D01*
X0Y894D02*
X7Y894D01*
X945Y894D02*
X952Y894D01*
X0Y893D02*
X7Y893D01*
X945Y893D02*
X952Y893D01*
X0Y892D02*
X7Y892D01*
X945Y892D02*
X952Y892D01*
X0Y891D02*
X7Y891D01*
X945Y891D02*
X952Y891D01*
X0Y890D02*
X7Y890D01*
X945Y890D02*
X952Y890D01*
X0Y889D02*
X7Y889D01*
X945Y889D02*
X952Y889D01*
X0Y888D02*
X7Y888D01*
X945Y888D02*
X952Y888D01*
X0Y887D02*
X7Y887D01*
X945Y887D02*
X952Y887D01*
X0Y886D02*
X7Y886D01*
X945Y886D02*
X952Y886D01*
X0Y885D02*
X7Y885D01*
X945Y885D02*
X952Y885D01*
X0Y884D02*
X7Y884D01*
X945Y884D02*
X952Y884D01*
X0Y883D02*
X7Y883D01*
X945Y883D02*
X952Y883D01*
X0Y882D02*
X7Y882D01*
X945Y882D02*
X952Y882D01*
X0Y881D02*
X7Y881D01*
X945Y881D02*
X952Y881D01*
X0Y880D02*
X7Y880D01*
X945Y880D02*
X952Y880D01*
X0Y879D02*
X7Y879D01*
X945Y879D02*
X952Y879D01*
X0Y878D02*
X7Y878D01*
X945Y878D02*
X952Y878D01*
X0Y877D02*
X7Y877D01*
X945Y877D02*
X952Y877D01*
X0Y876D02*
X7Y876D01*
X945Y876D02*
X952Y876D01*
X0Y875D02*
X7Y875D01*
X945Y875D02*
X952Y875D01*
X0Y874D02*
X7Y874D01*
X945Y874D02*
X952Y874D01*
X0Y873D02*
X7Y873D01*
X945Y873D02*
X952Y873D01*
X0Y872D02*
X7Y872D01*
X945Y872D02*
X952Y872D01*
X0Y871D02*
X7Y871D01*
X945Y871D02*
X952Y871D01*
X0Y870D02*
X7Y870D01*
X945Y870D02*
X952Y870D01*
X0Y869D02*
X7Y869D01*
X945Y869D02*
X952Y869D01*
X0Y868D02*
X7Y868D01*
X945Y868D02*
X952Y868D01*
X0Y867D02*
X7Y867D01*
X945Y867D02*
X952Y867D01*
X0Y866D02*
X7Y866D01*
X945Y866D02*
X952Y866D01*
X0Y865D02*
X7Y865D01*
X945Y865D02*
X952Y865D01*
X0Y864D02*
X7Y864D01*
X945Y864D02*
X952Y864D01*
X0Y863D02*
X7Y863D01*
X945Y863D02*
X952Y863D01*
X0Y862D02*
X7Y862D01*
X945Y862D02*
X952Y862D01*
X0Y861D02*
X7Y861D01*
X945Y861D02*
X952Y861D01*
X0Y860D02*
X7Y860D01*
X945Y860D02*
X952Y860D01*
X0Y859D02*
X7Y859D01*
X945Y859D02*
X952Y859D01*
X0Y858D02*
X7Y858D01*
X945Y858D02*
X952Y858D01*
X0Y857D02*
X7Y857D01*
X945Y857D02*
X952Y857D01*
X0Y856D02*
X7Y856D01*
X945Y856D02*
X952Y856D01*
X0Y855D02*
X7Y855D01*
X945Y855D02*
X952Y855D01*
X0Y854D02*
X7Y854D01*
X945Y854D02*
X952Y854D01*
X0Y853D02*
X7Y853D01*
X945Y853D02*
X952Y853D01*
X0Y852D02*
X7Y852D01*
X945Y852D02*
X952Y852D01*
X0Y851D02*
X7Y851D01*
X945Y851D02*
X952Y851D01*
X0Y850D02*
X7Y850D01*
X945Y850D02*
X952Y850D01*
X0Y849D02*
X7Y849D01*
X945Y849D02*
X952Y849D01*
X0Y848D02*
X7Y848D01*
X945Y848D02*
X952Y848D01*
X0Y847D02*
X7Y847D01*
X945Y847D02*
X952Y847D01*
X0Y846D02*
X7Y846D01*
X945Y846D02*
X952Y846D01*
X0Y845D02*
X7Y845D01*
X945Y845D02*
X952Y845D01*
X0Y844D02*
X7Y844D01*
X945Y844D02*
X952Y844D01*
X0Y843D02*
X7Y843D01*
X945Y843D02*
X952Y843D01*
X0Y842D02*
X7Y842D01*
X945Y842D02*
X952Y842D01*
X0Y841D02*
X7Y841D01*
X945Y841D02*
X952Y841D01*
X0Y840D02*
X7Y840D01*
X945Y840D02*
X952Y840D01*
X0Y839D02*
X7Y839D01*
X945Y839D02*
X952Y839D01*
X0Y838D02*
X7Y838D01*
X945Y838D02*
X952Y838D01*
X0Y837D02*
X7Y837D01*
X945Y837D02*
X952Y837D01*
X0Y836D02*
X7Y836D01*
X945Y836D02*
X952Y836D01*
X0Y835D02*
X7Y835D01*
X945Y835D02*
X952Y835D01*
X0Y834D02*
X7Y834D01*
X945Y834D02*
X952Y834D01*
X0Y833D02*
X7Y833D01*
X945Y833D02*
X952Y833D01*
X0Y832D02*
X7Y832D01*
X945Y832D02*
X952Y832D01*
X0Y831D02*
X7Y831D01*
X945Y831D02*
X952Y831D01*
X0Y830D02*
X7Y830D01*
X945Y830D02*
X952Y830D01*
X0Y829D02*
X7Y829D01*
X945Y829D02*
X952Y829D01*
X0Y828D02*
X7Y828D01*
X945Y828D02*
X952Y828D01*
X0Y827D02*
X7Y827D01*
X945Y827D02*
X952Y827D01*
X0Y826D02*
X7Y826D01*
X945Y826D02*
X952Y826D01*
X0Y825D02*
X7Y825D01*
X945Y825D02*
X952Y825D01*
X0Y824D02*
X7Y824D01*
X945Y824D02*
X952Y824D01*
X0Y823D02*
X7Y823D01*
X945Y823D02*
X952Y823D01*
X0Y822D02*
X7Y822D01*
X945Y822D02*
X952Y822D01*
X0Y821D02*
X7Y821D01*
X945Y821D02*
X952Y821D01*
X0Y820D02*
X7Y820D01*
X945Y820D02*
X952Y820D01*
X0Y819D02*
X7Y819D01*
X945Y819D02*
X952Y819D01*
X0Y818D02*
X7Y818D01*
X945Y818D02*
X952Y818D01*
X0Y817D02*
X7Y817D01*
X945Y817D02*
X952Y817D01*
X0Y816D02*
X7Y816D01*
X945Y816D02*
X952Y816D01*
X0Y815D02*
X7Y815D01*
X945Y815D02*
X952Y815D01*
X0Y814D02*
X7Y814D01*
X945Y814D02*
X952Y814D01*
X0Y813D02*
X7Y813D01*
X945Y813D02*
X952Y813D01*
X0Y812D02*
X7Y812D01*
X945Y812D02*
X952Y812D01*
X0Y811D02*
X7Y811D01*
X945Y811D02*
X952Y811D01*
X0Y810D02*
X7Y810D01*
X945Y810D02*
X952Y810D01*
X0Y809D02*
X7Y809D01*
X945Y809D02*
X952Y809D01*
X0Y808D02*
X7Y808D01*
X945Y808D02*
X952Y808D01*
X0Y807D02*
X7Y807D01*
X945Y807D02*
X952Y807D01*
X0Y806D02*
X7Y806D01*
X945Y806D02*
X952Y806D01*
X0Y805D02*
X7Y805D01*
X945Y805D02*
X952Y805D01*
X0Y804D02*
X7Y804D01*
X945Y804D02*
X952Y804D01*
X0Y803D02*
X7Y803D01*
X945Y803D02*
X952Y803D01*
X0Y802D02*
X7Y802D01*
X945Y802D02*
X952Y802D01*
X0Y801D02*
X7Y801D01*
X945Y801D02*
X952Y801D01*
X0Y800D02*
X7Y800D01*
X945Y800D02*
X952Y800D01*
X0Y799D02*
X7Y799D01*
X945Y799D02*
X952Y799D01*
X0Y798D02*
X7Y798D01*
X945Y798D02*
X952Y798D01*
X0Y797D02*
X7Y797D01*
X945Y797D02*
X952Y797D01*
X0Y796D02*
X7Y796D01*
X945Y796D02*
X952Y796D01*
X0Y795D02*
X7Y795D01*
X945Y795D02*
X952Y795D01*
X0Y794D02*
X7Y794D01*
X945Y794D02*
X952Y794D01*
X0Y793D02*
X7Y793D01*
X945Y793D02*
X952Y793D01*
X0Y792D02*
X7Y792D01*
X945Y792D02*
X952Y792D01*
X0Y791D02*
X7Y791D01*
X945Y791D02*
X952Y791D01*
X0Y790D02*
X7Y790D01*
X945Y790D02*
X952Y790D01*
X0Y789D02*
X7Y789D01*
X945Y789D02*
X952Y789D01*
X0Y788D02*
X7Y788D01*
X945Y788D02*
X952Y788D01*
X0Y787D02*
X7Y787D01*
X945Y787D02*
X952Y787D01*
X0Y786D02*
X7Y786D01*
X945Y786D02*
X952Y786D01*
X0Y785D02*
X7Y785D01*
X945Y785D02*
X952Y785D01*
X0Y784D02*
X7Y784D01*
X945Y784D02*
X952Y784D01*
X0Y783D02*
X7Y783D01*
X945Y783D02*
X952Y783D01*
X0Y782D02*
X7Y782D01*
X945Y782D02*
X952Y782D01*
X0Y781D02*
X7Y781D01*
X945Y781D02*
X952Y781D01*
X0Y780D02*
X7Y780D01*
X945Y780D02*
X952Y780D01*
X0Y779D02*
X7Y779D01*
X945Y779D02*
X952Y779D01*
X0Y778D02*
X7Y778D01*
X945Y778D02*
X952Y778D01*
X0Y777D02*
X7Y777D01*
X945Y777D02*
X952Y777D01*
X0Y776D02*
X7Y776D01*
X945Y776D02*
X952Y776D01*
X0Y775D02*
X7Y775D01*
X945Y775D02*
X952Y775D01*
X0Y774D02*
X7Y774D01*
X945Y774D02*
X952Y774D01*
X0Y773D02*
X7Y773D01*
X945Y773D02*
X952Y773D01*
X0Y772D02*
X7Y772D01*
X945Y772D02*
X952Y772D01*
X0Y771D02*
X7Y771D01*
X945Y771D02*
X952Y771D01*
X0Y770D02*
X7Y770D01*
X945Y770D02*
X952Y770D01*
X0Y769D02*
X7Y769D01*
X945Y769D02*
X952Y769D01*
X0Y768D02*
X7Y768D01*
X945Y768D02*
X952Y768D01*
X0Y767D02*
X7Y767D01*
X945Y767D02*
X952Y767D01*
X0Y766D02*
X7Y766D01*
X945Y766D02*
X952Y766D01*
X0Y765D02*
X7Y765D01*
X945Y765D02*
X952Y765D01*
X0Y764D02*
X7Y764D01*
X945Y764D02*
X952Y764D01*
X0Y763D02*
X7Y763D01*
X945Y763D02*
X952Y763D01*
X0Y762D02*
X7Y762D01*
X945Y762D02*
X952Y762D01*
X0Y761D02*
X7Y761D01*
X945Y761D02*
X952Y761D01*
X0Y760D02*
X7Y760D01*
X945Y760D02*
X952Y760D01*
X0Y759D02*
X7Y759D01*
X945Y759D02*
X952Y759D01*
X0Y758D02*
X7Y758D01*
X945Y758D02*
X952Y758D01*
X0Y757D02*
X7Y757D01*
X945Y757D02*
X952Y757D01*
X0Y756D02*
X7Y756D01*
X945Y756D02*
X952Y756D01*
X0Y755D02*
X7Y755D01*
X945Y755D02*
X952Y755D01*
X0Y754D02*
X7Y754D01*
X945Y754D02*
X952Y754D01*
X0Y753D02*
X7Y753D01*
X945Y753D02*
X952Y753D01*
X0Y752D02*
X7Y752D01*
X945Y752D02*
X952Y752D01*
X0Y751D02*
X7Y751D01*
X945Y751D02*
X952Y751D01*
X0Y750D02*
X7Y750D01*
X945Y750D02*
X952Y750D01*
X0Y749D02*
X7Y749D01*
X945Y749D02*
X952Y749D01*
X0Y748D02*
X7Y748D01*
X945Y748D02*
X952Y748D01*
X0Y747D02*
X7Y747D01*
X945Y747D02*
X952Y747D01*
X0Y746D02*
X7Y746D01*
X945Y746D02*
X952Y746D01*
X0Y745D02*
X7Y745D01*
X945Y745D02*
X952Y745D01*
X0Y744D02*
X7Y744D01*
X945Y744D02*
X952Y744D01*
X0Y743D02*
X7Y743D01*
X945Y743D02*
X952Y743D01*
X0Y742D02*
X7Y742D01*
X945Y742D02*
X952Y742D01*
X0Y741D02*
X7Y741D01*
X945Y741D02*
X952Y741D01*
X0Y740D02*
X7Y740D01*
X945Y740D02*
X952Y740D01*
X0Y739D02*
X7Y739D01*
X945Y739D02*
X952Y739D01*
X0Y738D02*
X7Y738D01*
X945Y738D02*
X952Y738D01*
X0Y737D02*
X7Y737D01*
X945Y737D02*
X952Y737D01*
X0Y736D02*
X7Y736D01*
X945Y736D02*
X952Y736D01*
X0Y735D02*
X7Y735D01*
X945Y735D02*
X952Y735D01*
X0Y734D02*
X7Y734D01*
X945Y734D02*
X952Y734D01*
X0Y733D02*
X7Y733D01*
X945Y733D02*
X952Y733D01*
X0Y732D02*
X7Y732D01*
X945Y732D02*
X952Y732D01*
X0Y731D02*
X7Y731D01*
X945Y731D02*
X952Y731D01*
X0Y730D02*
X7Y730D01*
X945Y730D02*
X952Y730D01*
X0Y729D02*
X7Y729D01*
X945Y729D02*
X952Y729D01*
X0Y728D02*
X7Y728D01*
X945Y728D02*
X952Y728D01*
X0Y727D02*
X7Y727D01*
X945Y727D02*
X952Y727D01*
X0Y726D02*
X7Y726D01*
X945Y726D02*
X952Y726D01*
X0Y725D02*
X7Y725D01*
X945Y725D02*
X952Y725D01*
X0Y724D02*
X7Y724D01*
X945Y724D02*
X952Y724D01*
X0Y723D02*
X7Y723D01*
X945Y723D02*
X952Y723D01*
X0Y722D02*
X7Y722D01*
X945Y722D02*
X952Y722D01*
X0Y721D02*
X7Y721D01*
X945Y721D02*
X952Y721D01*
X0Y720D02*
X7Y720D01*
X945Y720D02*
X952Y720D01*
X0Y719D02*
X7Y719D01*
X945Y719D02*
X952Y719D01*
X0Y718D02*
X7Y718D01*
X945Y718D02*
X952Y718D01*
X0Y717D02*
X7Y717D01*
X945Y717D02*
X952Y717D01*
X0Y716D02*
X7Y716D01*
X945Y716D02*
X952Y716D01*
X0Y715D02*
X7Y715D01*
X945Y715D02*
X952Y715D01*
X0Y714D02*
X7Y714D01*
X945Y714D02*
X952Y714D01*
X0Y713D02*
X7Y713D01*
X945Y713D02*
X952Y713D01*
X0Y712D02*
X7Y712D01*
X945Y712D02*
X952Y712D01*
X0Y711D02*
X7Y711D01*
X945Y711D02*
X952Y711D01*
X0Y710D02*
X7Y710D01*
X945Y710D02*
X952Y710D01*
X0Y709D02*
X7Y709D01*
X945Y709D02*
X952Y709D01*
X0Y708D02*
X7Y708D01*
X945Y708D02*
X952Y708D01*
X0Y707D02*
X7Y707D01*
X945Y707D02*
X952Y707D01*
X0Y706D02*
X7Y706D01*
X945Y706D02*
X952Y706D01*
X0Y705D02*
X7Y705D01*
X945Y705D02*
X952Y705D01*
X0Y704D02*
X7Y704D01*
X945Y704D02*
X952Y704D01*
X0Y703D02*
X7Y703D01*
X945Y703D02*
X952Y703D01*
X0Y702D02*
X7Y702D01*
X945Y702D02*
X952Y702D01*
X0Y701D02*
X7Y701D01*
X945Y701D02*
X952Y701D01*
X0Y700D02*
X7Y700D01*
X945Y700D02*
X952Y700D01*
X0Y699D02*
X7Y699D01*
X945Y699D02*
X952Y699D01*
X0Y698D02*
X7Y698D01*
X945Y698D02*
X952Y698D01*
X0Y697D02*
X7Y697D01*
X945Y697D02*
X952Y697D01*
X0Y696D02*
X7Y696D01*
X945Y696D02*
X952Y696D01*
X0Y695D02*
X7Y695D01*
X945Y695D02*
X952Y695D01*
X0Y694D02*
X7Y694D01*
X945Y694D02*
X952Y694D01*
X0Y693D02*
X7Y693D01*
X945Y693D02*
X952Y693D01*
X0Y692D02*
X7Y692D01*
X945Y692D02*
X952Y692D01*
X0Y691D02*
X7Y691D01*
X945Y691D02*
X952Y691D01*
X0Y690D02*
X7Y690D01*
X945Y690D02*
X952Y690D01*
X0Y689D02*
X7Y689D01*
X945Y689D02*
X952Y689D01*
X0Y688D02*
X7Y688D01*
X945Y688D02*
X952Y688D01*
X0Y687D02*
X7Y687D01*
X945Y687D02*
X952Y687D01*
X0Y686D02*
X7Y686D01*
X945Y686D02*
X952Y686D01*
X0Y685D02*
X7Y685D01*
X945Y685D02*
X952Y685D01*
X0Y684D02*
X7Y684D01*
X945Y684D02*
X952Y684D01*
X0Y683D02*
X7Y683D01*
X945Y683D02*
X952Y683D01*
X0Y682D02*
X7Y682D01*
X945Y682D02*
X952Y682D01*
X0Y681D02*
X7Y681D01*
X945Y681D02*
X952Y681D01*
X0Y680D02*
X7Y680D01*
X945Y680D02*
X952Y680D01*
X0Y679D02*
X7Y679D01*
X945Y679D02*
X952Y679D01*
X0Y678D02*
X7Y678D01*
X945Y678D02*
X952Y678D01*
X0Y677D02*
X7Y677D01*
X945Y677D02*
X952Y677D01*
X0Y676D02*
X7Y676D01*
X945Y676D02*
X952Y676D01*
X0Y675D02*
X7Y675D01*
X945Y675D02*
X952Y675D01*
X0Y674D02*
X7Y674D01*
X945Y674D02*
X952Y674D01*
X0Y673D02*
X7Y673D01*
X945Y673D02*
X952Y673D01*
X0Y672D02*
X7Y672D01*
X945Y672D02*
X952Y672D01*
X0Y671D02*
X7Y671D01*
X945Y671D02*
X952Y671D01*
X0Y670D02*
X7Y670D01*
X945Y670D02*
X952Y670D01*
X0Y669D02*
X7Y669D01*
X945Y669D02*
X952Y669D01*
X0Y668D02*
X7Y668D01*
X945Y668D02*
X952Y668D01*
X0Y667D02*
X7Y667D01*
X945Y667D02*
X952Y667D01*
X0Y666D02*
X7Y666D01*
X945Y666D02*
X952Y666D01*
X0Y665D02*
X7Y665D01*
X945Y665D02*
X952Y665D01*
X0Y664D02*
X7Y664D01*
X945Y664D02*
X952Y664D01*
X0Y663D02*
X7Y663D01*
X945Y663D02*
X952Y663D01*
X0Y662D02*
X7Y662D01*
X945Y662D02*
X952Y662D01*
X0Y661D02*
X7Y661D01*
X945Y661D02*
X952Y661D01*
X0Y660D02*
X7Y660D01*
X945Y660D02*
X952Y660D01*
X0Y659D02*
X7Y659D01*
X945Y659D02*
X952Y659D01*
X0Y658D02*
X7Y658D01*
X945Y658D02*
X952Y658D01*
X0Y657D02*
X7Y657D01*
X945Y657D02*
X952Y657D01*
X0Y656D02*
X7Y656D01*
X945Y656D02*
X952Y656D01*
X0Y655D02*
X7Y655D01*
X945Y655D02*
X952Y655D01*
X0Y654D02*
X7Y654D01*
X945Y654D02*
X952Y654D01*
X0Y653D02*
X7Y653D01*
X945Y653D02*
X952Y653D01*
X0Y652D02*
X7Y652D01*
X945Y652D02*
X952Y652D01*
X0Y651D02*
X7Y651D01*
X945Y651D02*
X952Y651D01*
X0Y650D02*
X7Y650D01*
X945Y650D02*
X952Y650D01*
X0Y649D02*
X7Y649D01*
X945Y649D02*
X952Y649D01*
X0Y648D02*
X7Y648D01*
X945Y648D02*
X952Y648D01*
X0Y647D02*
X7Y647D01*
X945Y647D02*
X952Y647D01*
X0Y646D02*
X7Y646D01*
X945Y646D02*
X952Y646D01*
X0Y645D02*
X7Y645D01*
X945Y645D02*
X952Y645D01*
X0Y644D02*
X7Y644D01*
X945Y644D02*
X952Y644D01*
X0Y643D02*
X7Y643D01*
X945Y643D02*
X952Y643D01*
X0Y642D02*
X7Y642D01*
X945Y642D02*
X952Y642D01*
X0Y641D02*
X7Y641D01*
X945Y641D02*
X952Y641D01*
X0Y640D02*
X7Y640D01*
X945Y640D02*
X952Y640D01*
X0Y639D02*
X7Y639D01*
X945Y639D02*
X952Y639D01*
X0Y638D02*
X7Y638D01*
X945Y638D02*
X952Y638D01*
X0Y637D02*
X7Y637D01*
X945Y637D02*
X952Y637D01*
X0Y636D02*
X7Y636D01*
X945Y636D02*
X952Y636D01*
X0Y635D02*
X7Y635D01*
X945Y635D02*
X952Y635D01*
X0Y634D02*
X7Y634D01*
X945Y634D02*
X952Y634D01*
X0Y633D02*
X7Y633D01*
X945Y633D02*
X952Y633D01*
X0Y632D02*
X7Y632D01*
X945Y632D02*
X952Y632D01*
X0Y631D02*
X7Y631D01*
X945Y631D02*
X952Y631D01*
X0Y630D02*
X7Y630D01*
X945Y630D02*
X952Y630D01*
X0Y629D02*
X7Y629D01*
X945Y629D02*
X952Y629D01*
X0Y628D02*
X7Y628D01*
X945Y628D02*
X952Y628D01*
X0Y627D02*
X7Y627D01*
X945Y627D02*
X952Y627D01*
X0Y626D02*
X7Y626D01*
X945Y626D02*
X952Y626D01*
X0Y625D02*
X7Y625D01*
X945Y625D02*
X952Y625D01*
X0Y624D02*
X7Y624D01*
X945Y624D02*
X952Y624D01*
X0Y623D02*
X7Y623D01*
X945Y623D02*
X952Y623D01*
X0Y622D02*
X7Y622D01*
X945Y622D02*
X952Y622D01*
X0Y621D02*
X7Y621D01*
X945Y621D02*
X952Y621D01*
X0Y620D02*
X7Y620D01*
X945Y620D02*
X952Y620D01*
X0Y619D02*
X7Y619D01*
X945Y619D02*
X952Y619D01*
X0Y618D02*
X7Y618D01*
X945Y618D02*
X952Y618D01*
X0Y617D02*
X7Y617D01*
X945Y617D02*
X952Y617D01*
X0Y616D02*
X7Y616D01*
X945Y616D02*
X952Y616D01*
X0Y615D02*
X7Y615D01*
X945Y615D02*
X952Y615D01*
X0Y614D02*
X7Y614D01*
X945Y614D02*
X952Y614D01*
X0Y613D02*
X7Y613D01*
X945Y613D02*
X952Y613D01*
X0Y612D02*
X7Y612D01*
X945Y612D02*
X952Y612D01*
X0Y611D02*
X7Y611D01*
X945Y611D02*
X952Y611D01*
X0Y610D02*
X7Y610D01*
X945Y610D02*
X952Y610D01*
X0Y609D02*
X7Y609D01*
X945Y609D02*
X952Y609D01*
X0Y608D02*
X7Y608D01*
X945Y608D02*
X952Y608D01*
X0Y607D02*
X7Y607D01*
X945Y607D02*
X952Y607D01*
X0Y606D02*
X7Y606D01*
X945Y606D02*
X952Y606D01*
X0Y605D02*
X7Y605D01*
X945Y605D02*
X952Y605D01*
X0Y604D02*
X7Y604D01*
X945Y604D02*
X952Y604D01*
X0Y603D02*
X7Y603D01*
X945Y603D02*
X952Y603D01*
X0Y602D02*
X7Y602D01*
X945Y602D02*
X952Y602D01*
X0Y601D02*
X7Y601D01*
X945Y601D02*
X952Y601D01*
X0Y600D02*
X7Y600D01*
X945Y600D02*
X952Y600D01*
X0Y599D02*
X7Y599D01*
X945Y599D02*
X952Y599D01*
X0Y598D02*
X7Y598D01*
X945Y598D02*
X952Y598D01*
X0Y597D02*
X7Y597D01*
X945Y597D02*
X952Y597D01*
X0Y596D02*
X7Y596D01*
X945Y596D02*
X952Y596D01*
X0Y595D02*
X7Y595D01*
X945Y595D02*
X952Y595D01*
X0Y594D02*
X7Y594D01*
X945Y594D02*
X952Y594D01*
X0Y593D02*
X7Y593D01*
X945Y593D02*
X952Y593D01*
X0Y592D02*
X7Y592D01*
X945Y592D02*
X952Y592D01*
X0Y591D02*
X7Y591D01*
X945Y591D02*
X952Y591D01*
X0Y590D02*
X7Y590D01*
X945Y590D02*
X952Y590D01*
X0Y589D02*
X7Y589D01*
X945Y589D02*
X952Y589D01*
X0Y588D02*
X7Y588D01*
X945Y588D02*
X952Y588D01*
X0Y587D02*
X7Y587D01*
X945Y587D02*
X952Y587D01*
X0Y586D02*
X7Y586D01*
X945Y586D02*
X952Y586D01*
X0Y585D02*
X7Y585D01*
X945Y585D02*
X952Y585D01*
X0Y584D02*
X7Y584D01*
X945Y584D02*
X952Y584D01*
X0Y583D02*
X7Y583D01*
X945Y583D02*
X952Y583D01*
X0Y582D02*
X7Y582D01*
X945Y582D02*
X952Y582D01*
X0Y581D02*
X7Y581D01*
X945Y581D02*
X952Y581D01*
X0Y580D02*
X7Y580D01*
X945Y580D02*
X952Y580D01*
X0Y579D02*
X7Y579D01*
X945Y579D02*
X952Y579D01*
X0Y578D02*
X7Y578D01*
X945Y578D02*
X952Y578D01*
X0Y577D02*
X7Y577D01*
X945Y577D02*
X952Y577D01*
X0Y576D02*
X7Y576D01*
X945Y576D02*
X952Y576D01*
X0Y575D02*
X7Y575D01*
X945Y575D02*
X952Y575D01*
X0Y574D02*
X7Y574D01*
X945Y574D02*
X952Y574D01*
X0Y573D02*
X7Y573D01*
X945Y573D02*
X952Y573D01*
X0Y572D02*
X7Y572D01*
X945Y572D02*
X952Y572D01*
X0Y571D02*
X7Y571D01*
X945Y571D02*
X952Y571D01*
X0Y570D02*
X7Y570D01*
X945Y570D02*
X952Y570D01*
X0Y569D02*
X7Y569D01*
X945Y569D02*
X952Y569D01*
X0Y568D02*
X7Y568D01*
X945Y568D02*
X952Y568D01*
X0Y567D02*
X7Y567D01*
X945Y567D02*
X952Y567D01*
X0Y566D02*
X7Y566D01*
X945Y566D02*
X952Y566D01*
X0Y565D02*
X7Y565D01*
X945Y565D02*
X952Y565D01*
X0Y564D02*
X7Y564D01*
X945Y564D02*
X952Y564D01*
X0Y563D02*
X7Y563D01*
X945Y563D02*
X952Y563D01*
X0Y562D02*
X7Y562D01*
X945Y562D02*
X952Y562D01*
X0Y561D02*
X7Y561D01*
X945Y561D02*
X952Y561D01*
X0Y560D02*
X7Y560D01*
X945Y560D02*
X952Y560D01*
X0Y559D02*
X7Y559D01*
X945Y559D02*
X952Y559D01*
X0Y558D02*
X7Y558D01*
X945Y558D02*
X952Y558D01*
X0Y557D02*
X7Y557D01*
X945Y557D02*
X952Y557D01*
X0Y556D02*
X7Y556D01*
X945Y556D02*
X952Y556D01*
X0Y555D02*
X7Y555D01*
X945Y555D02*
X952Y555D01*
X0Y554D02*
X7Y554D01*
X945Y554D02*
X952Y554D01*
X0Y553D02*
X7Y553D01*
X375Y553D02*
X396Y553D01*
X945Y553D02*
X952Y553D01*
X0Y552D02*
X7Y552D01*
X374Y552D02*
X396Y552D01*
X945Y552D02*
X952Y552D01*
X0Y551D02*
X7Y551D01*
X373Y551D02*
X396Y551D01*
X945Y551D02*
X952Y551D01*
X0Y550D02*
X7Y550D01*
X372Y550D02*
X396Y550D01*
X945Y550D02*
X952Y550D01*
X0Y549D02*
X7Y549D01*
X371Y549D02*
X396Y549D01*
X945Y549D02*
X952Y549D01*
X0Y548D02*
X7Y548D01*
X370Y548D02*
X396Y548D01*
X945Y548D02*
X952Y548D01*
X0Y547D02*
X7Y547D01*
X369Y547D02*
X396Y547D01*
X945Y547D02*
X952Y547D01*
X0Y546D02*
X7Y546D01*
X368Y546D02*
X377Y546D01*
X390Y546D02*
X396Y546D01*
X945Y546D02*
X952Y546D01*
X0Y545D02*
X7Y545D01*
X368Y545D02*
X376Y545D01*
X390Y545D02*
X396Y545D01*
X945Y545D02*
X952Y545D01*
X0Y544D02*
X7Y544D01*
X367Y544D02*
X375Y544D01*
X390Y544D02*
X396Y544D01*
X945Y544D02*
X952Y544D01*
X0Y543D02*
X7Y543D01*
X366Y543D02*
X374Y543D01*
X390Y543D02*
X396Y543D01*
X945Y543D02*
X952Y543D01*
X0Y542D02*
X7Y542D01*
X365Y542D02*
X373Y542D01*
X390Y542D02*
X396Y542D01*
X945Y542D02*
X952Y542D01*
X0Y541D02*
X7Y541D01*
X364Y541D02*
X372Y541D01*
X390Y541D02*
X396Y541D01*
X945Y541D02*
X952Y541D01*
X0Y540D02*
X7Y540D01*
X363Y540D02*
X371Y540D01*
X390Y540D02*
X396Y540D01*
X945Y540D02*
X952Y540D01*
X0Y539D02*
X7Y539D01*
X345Y539D02*
X371Y539D01*
X390Y539D02*
X396Y539D01*
X945Y539D02*
X952Y539D01*
X0Y538D02*
X7Y538D01*
X344Y538D02*
X370Y538D01*
X390Y538D02*
X396Y538D01*
X945Y538D02*
X952Y538D01*
X0Y537D02*
X7Y537D01*
X343Y537D02*
X369Y537D01*
X390Y537D02*
X396Y537D01*
X945Y537D02*
X952Y537D01*
X0Y536D02*
X7Y536D01*
X343Y536D02*
X368Y536D01*
X390Y536D02*
X396Y536D01*
X945Y536D02*
X952Y536D01*
X0Y535D02*
X7Y535D01*
X343Y535D02*
X367Y535D01*
X390Y535D02*
X396Y535D01*
X945Y535D02*
X952Y535D01*
X0Y534D02*
X7Y534D01*
X344Y534D02*
X366Y534D01*
X390Y534D02*
X396Y534D01*
X945Y534D02*
X952Y534D01*
X0Y533D02*
X7Y533D01*
X345Y533D02*
X365Y533D01*
X390Y533D02*
X396Y533D01*
X945Y533D02*
X952Y533D01*
X0Y532D02*
X7Y532D01*
X390Y532D02*
X396Y532D01*
X945Y532D02*
X952Y532D01*
X0Y531D02*
X7Y531D01*
X390Y531D02*
X396Y531D01*
X945Y531D02*
X952Y531D01*
X0Y530D02*
X7Y530D01*
X390Y530D02*
X396Y530D01*
X945Y530D02*
X952Y530D01*
X0Y529D02*
X7Y529D01*
X390Y529D02*
X396Y529D01*
X945Y529D02*
X952Y529D01*
X0Y528D02*
X7Y528D01*
X390Y528D02*
X396Y528D01*
X945Y528D02*
X952Y528D01*
X0Y527D02*
X7Y527D01*
X390Y527D02*
X396Y527D01*
X945Y527D02*
X952Y527D01*
X0Y526D02*
X7Y526D01*
X390Y526D02*
X396Y526D01*
X945Y526D02*
X952Y526D01*
X0Y525D02*
X7Y525D01*
X389Y525D02*
X396Y525D01*
X945Y525D02*
X952Y525D01*
X0Y524D02*
X7Y524D01*
X388Y524D02*
X396Y524D01*
X945Y524D02*
X952Y524D01*
X0Y523D02*
X7Y523D01*
X388Y523D02*
X396Y523D01*
X945Y523D02*
X952Y523D01*
X0Y522D02*
X7Y522D01*
X387Y522D02*
X396Y522D01*
X945Y522D02*
X952Y522D01*
X0Y521D02*
X7Y521D01*
X388Y521D02*
X396Y521D01*
X945Y521D02*
X952Y521D01*
X0Y520D02*
X7Y520D01*
X388Y520D02*
X396Y520D01*
X945Y520D02*
X952Y520D01*
X0Y519D02*
X7Y519D01*
X389Y519D02*
X394Y519D01*
X945Y519D02*
X952Y519D01*
X0Y518D02*
X7Y518D01*
X945Y518D02*
X952Y518D01*
X0Y517D02*
X7Y517D01*
X945Y517D02*
X952Y517D01*
X0Y516D02*
X7Y516D01*
X945Y516D02*
X952Y516D01*
X0Y515D02*
X7Y515D01*
X945Y515D02*
X952Y515D01*
X0Y514D02*
X7Y514D01*
X945Y514D02*
X952Y514D01*
X0Y513D02*
X7Y513D01*
X945Y513D02*
X952Y513D01*
X0Y512D02*
X7Y512D01*
X945Y512D02*
X952Y512D01*
X0Y511D02*
X7Y511D01*
X945Y511D02*
X952Y511D01*
X0Y510D02*
X7Y510D01*
X945Y510D02*
X952Y510D01*
X0Y509D02*
X7Y509D01*
X945Y509D02*
X952Y509D01*
X0Y508D02*
X7Y508D01*
X945Y508D02*
X952Y508D01*
X0Y507D02*
X7Y507D01*
X945Y507D02*
X952Y507D01*
X0Y506D02*
X7Y506D01*
X945Y506D02*
X952Y506D01*
X0Y505D02*
X7Y505D01*
X945Y505D02*
X952Y505D01*
X0Y504D02*
X7Y504D01*
X945Y504D02*
X952Y504D01*
X0Y503D02*
X7Y503D01*
X370Y503D02*
X370Y503D01*
X945Y503D02*
X952Y503D01*
X0Y502D02*
X7Y502D01*
X365Y502D02*
X374Y502D01*
X945Y502D02*
X952Y502D01*
X0Y501D02*
X7Y501D01*
X362Y501D02*
X377Y501D01*
X945Y501D02*
X952Y501D01*
X0Y500D02*
X7Y500D01*
X360Y500D02*
X379Y500D01*
X945Y500D02*
X952Y500D01*
X0Y499D02*
X7Y499D01*
X358Y499D02*
X381Y499D01*
X945Y499D02*
X952Y499D01*
X0Y498D02*
X7Y498D01*
X356Y498D02*
X383Y498D01*
X945Y498D02*
X952Y498D01*
X0Y497D02*
X7Y497D01*
X354Y497D02*
X385Y497D01*
X945Y497D02*
X952Y497D01*
X0Y496D02*
X7Y496D01*
X352Y496D02*
X387Y496D01*
X945Y496D02*
X952Y496D01*
X0Y495D02*
X7Y495D01*
X350Y495D02*
X365Y495D01*
X374Y495D02*
X389Y495D01*
X945Y495D02*
X952Y495D01*
X0Y494D02*
X7Y494D01*
X348Y494D02*
X363Y494D01*
X376Y494D02*
X391Y494D01*
X945Y494D02*
X952Y494D01*
X0Y493D02*
X7Y493D01*
X347Y493D02*
X361Y493D01*
X378Y493D02*
X392Y493D01*
X945Y493D02*
X952Y493D01*
X0Y492D02*
X7Y492D01*
X346Y492D02*
X359Y492D01*
X380Y492D02*
X393Y492D01*
X945Y492D02*
X952Y492D01*
X0Y491D02*
X7Y491D01*
X345Y491D02*
X357Y491D01*
X382Y491D02*
X394Y491D01*
X945Y491D02*
X952Y491D01*
X0Y490D02*
X7Y490D01*
X345Y490D02*
X355Y490D01*
X384Y490D02*
X395Y490D01*
X945Y490D02*
X952Y490D01*
X0Y489D02*
X7Y489D01*
X344Y489D02*
X353Y489D01*
X386Y489D02*
X395Y489D01*
X945Y489D02*
X952Y489D01*
X0Y488D02*
X7Y488D01*
X344Y488D02*
X351Y488D01*
X388Y488D02*
X396Y488D01*
X945Y488D02*
X952Y488D01*
X0Y487D02*
X7Y487D01*
X343Y487D02*
X350Y487D01*
X390Y487D02*
X396Y487D01*
X945Y487D02*
X952Y487D01*
X0Y486D02*
X7Y486D01*
X343Y486D02*
X349Y486D01*
X390Y486D02*
X396Y486D01*
X945Y486D02*
X952Y486D01*
X0Y485D02*
X7Y485D01*
X343Y485D02*
X349Y485D01*
X390Y485D02*
X396Y485D01*
X945Y485D02*
X952Y485D01*
X0Y484D02*
X7Y484D01*
X343Y484D02*
X349Y484D01*
X390Y484D02*
X396Y484D01*
X945Y484D02*
X952Y484D01*
X0Y483D02*
X7Y483D01*
X343Y483D02*
X349Y483D01*
X390Y483D02*
X396Y483D01*
X945Y483D02*
X952Y483D01*
X0Y482D02*
X7Y482D01*
X343Y482D02*
X396Y482D01*
X945Y482D02*
X952Y482D01*
X0Y481D02*
X7Y481D01*
X343Y481D02*
X396Y481D01*
X945Y481D02*
X952Y481D01*
X0Y480D02*
X7Y480D01*
X343Y480D02*
X396Y480D01*
X945Y480D02*
X952Y480D01*
X0Y479D02*
X7Y479D01*
X343Y479D02*
X396Y479D01*
X945Y479D02*
X952Y479D01*
X0Y478D02*
X7Y478D01*
X343Y478D02*
X396Y478D01*
X945Y478D02*
X952Y478D01*
X0Y477D02*
X7Y477D01*
X343Y477D02*
X396Y477D01*
X945Y477D02*
X952Y477D01*
X0Y476D02*
X7Y476D01*
X343Y476D02*
X396Y476D01*
X945Y476D02*
X952Y476D01*
X0Y475D02*
X7Y475D01*
X343Y475D02*
X349Y475D01*
X390Y475D02*
X396Y475D01*
X945Y475D02*
X952Y475D01*
X0Y474D02*
X7Y474D01*
X343Y474D02*
X349Y474D01*
X390Y474D02*
X396Y474D01*
X945Y474D02*
X952Y474D01*
X0Y473D02*
X7Y473D01*
X343Y473D02*
X349Y473D01*
X390Y473D02*
X396Y473D01*
X945Y473D02*
X952Y473D01*
X0Y472D02*
X7Y472D01*
X343Y472D02*
X349Y472D01*
X390Y472D02*
X396Y472D01*
X945Y472D02*
X952Y472D01*
X0Y471D02*
X7Y471D01*
X343Y471D02*
X349Y471D01*
X390Y471D02*
X396Y471D01*
X945Y471D02*
X952Y471D01*
X0Y470D02*
X7Y470D01*
X344Y470D02*
X349Y470D01*
X391Y470D02*
X396Y470D01*
X945Y470D02*
X952Y470D01*
X0Y469D02*
X7Y469D01*
X345Y469D02*
X347Y469D01*
X392Y469D02*
X395Y469D01*
X945Y469D02*
X952Y469D01*
X0Y468D02*
X7Y468D01*
X945Y468D02*
X952Y468D01*
X0Y467D02*
X7Y467D01*
X945Y467D02*
X952Y467D01*
X0Y466D02*
X7Y466D01*
X451Y466D02*
X455Y466D01*
X477Y466D02*
X500Y466D01*
X945Y466D02*
X952Y466D01*
X0Y465D02*
X7Y465D01*
X451Y465D02*
X456Y465D01*
X476Y465D02*
X501Y465D01*
X945Y465D02*
X952Y465D01*
X0Y464D02*
X7Y464D01*
X450Y464D02*
X456Y464D01*
X475Y464D02*
X502Y464D01*
X945Y464D02*
X952Y464D01*
X0Y463D02*
X7Y463D01*
X450Y463D02*
X456Y463D01*
X475Y463D02*
X503Y463D01*
X945Y463D02*
X952Y463D01*
X0Y462D02*
X7Y462D01*
X450Y462D02*
X456Y462D01*
X474Y462D02*
X503Y462D01*
X945Y462D02*
X952Y462D01*
X0Y461D02*
X7Y461D01*
X450Y461D02*
X456Y461D01*
X474Y461D02*
X503Y461D01*
X945Y461D02*
X952Y461D01*
X0Y460D02*
X7Y460D01*
X450Y460D02*
X456Y460D01*
X474Y460D02*
X503Y460D01*
X945Y460D02*
X952Y460D01*
X0Y459D02*
X7Y459D01*
X450Y459D02*
X456Y459D01*
X474Y459D02*
X480Y459D01*
X497Y459D02*
X503Y459D01*
X945Y459D02*
X952Y459D01*
X0Y458D02*
X7Y458D01*
X450Y458D02*
X456Y458D01*
X474Y458D02*
X480Y458D01*
X497Y458D02*
X503Y458D01*
X945Y458D02*
X952Y458D01*
X0Y457D02*
X7Y457D01*
X450Y457D02*
X456Y457D01*
X474Y457D02*
X480Y457D01*
X497Y457D02*
X503Y457D01*
X945Y457D02*
X952Y457D01*
X0Y456D02*
X7Y456D01*
X281Y456D02*
X288Y456D01*
X311Y456D02*
X314Y456D01*
X450Y456D02*
X456Y456D01*
X474Y456D02*
X480Y456D01*
X497Y456D02*
X503Y456D01*
X945Y456D02*
X952Y456D01*
X0Y455D02*
X7Y455D01*
X280Y455D02*
X289Y455D01*
X310Y455D02*
X315Y455D01*
X450Y455D02*
X456Y455D01*
X474Y455D02*
X480Y455D01*
X497Y455D02*
X503Y455D01*
X945Y455D02*
X952Y455D01*
X0Y454D02*
X7Y454D01*
X280Y454D02*
X289Y454D01*
X309Y454D02*
X315Y454D01*
X450Y454D02*
X456Y454D01*
X474Y454D02*
X480Y454D01*
X497Y454D02*
X503Y454D01*
X945Y454D02*
X952Y454D01*
X0Y453D02*
X7Y453D01*
X280Y453D02*
X289Y453D01*
X309Y453D02*
X315Y453D01*
X450Y453D02*
X456Y453D01*
X474Y453D02*
X480Y453D01*
X497Y453D02*
X503Y453D01*
X945Y453D02*
X952Y453D01*
X0Y452D02*
X7Y452D01*
X280Y452D02*
X289Y452D01*
X309Y452D02*
X315Y452D01*
X345Y452D02*
X348Y452D01*
X392Y452D02*
X395Y452D01*
X450Y452D02*
X456Y452D01*
X474Y452D02*
X480Y452D01*
X497Y452D02*
X503Y452D01*
X945Y452D02*
X952Y452D01*
X0Y451D02*
X7Y451D01*
X281Y451D02*
X289Y451D01*
X309Y451D02*
X315Y451D01*
X344Y451D02*
X349Y451D01*
X391Y451D02*
X396Y451D01*
X450Y451D02*
X456Y451D01*
X474Y451D02*
X480Y451D01*
X497Y451D02*
X503Y451D01*
X945Y451D02*
X952Y451D01*
X0Y450D02*
X7Y450D01*
X283Y450D02*
X289Y450D01*
X309Y450D02*
X315Y450D01*
X343Y450D02*
X349Y450D01*
X390Y450D02*
X396Y450D01*
X450Y450D02*
X456Y450D01*
X474Y450D02*
X480Y450D01*
X497Y450D02*
X503Y450D01*
X945Y450D02*
X952Y450D01*
X0Y449D02*
X7Y449D01*
X283Y449D02*
X289Y449D01*
X309Y449D02*
X315Y449D01*
X343Y449D02*
X349Y449D01*
X390Y449D02*
X396Y449D01*
X450Y449D02*
X456Y449D01*
X474Y449D02*
X480Y449D01*
X497Y449D02*
X503Y449D01*
X945Y449D02*
X952Y449D01*
X0Y448D02*
X7Y448D01*
X283Y448D02*
X289Y448D01*
X309Y448D02*
X315Y448D01*
X343Y448D02*
X349Y448D01*
X390Y448D02*
X396Y448D01*
X450Y448D02*
X456Y448D01*
X474Y448D02*
X480Y448D01*
X497Y448D02*
X503Y448D01*
X945Y448D02*
X952Y448D01*
X0Y447D02*
X7Y447D01*
X283Y447D02*
X289Y447D01*
X309Y447D02*
X315Y447D01*
X343Y447D02*
X349Y447D01*
X390Y447D02*
X396Y447D01*
X450Y447D02*
X456Y447D01*
X474Y447D02*
X480Y447D01*
X497Y447D02*
X503Y447D01*
X945Y447D02*
X952Y447D01*
X0Y446D02*
X7Y446D01*
X283Y446D02*
X289Y446D01*
X309Y446D02*
X315Y446D01*
X343Y446D02*
X349Y446D01*
X390Y446D02*
X396Y446D01*
X450Y446D02*
X456Y446D01*
X474Y446D02*
X480Y446D01*
X497Y446D02*
X503Y446D01*
X945Y446D02*
X952Y446D01*
X0Y445D02*
X7Y445D01*
X283Y445D02*
X289Y445D01*
X309Y445D02*
X315Y445D01*
X343Y445D02*
X349Y445D01*
X390Y445D02*
X396Y445D01*
X450Y445D02*
X456Y445D01*
X474Y445D02*
X480Y445D01*
X497Y445D02*
X503Y445D01*
X945Y445D02*
X952Y445D01*
X0Y444D02*
X7Y444D01*
X283Y444D02*
X289Y444D01*
X309Y444D02*
X315Y444D01*
X343Y444D02*
X349Y444D01*
X390Y444D02*
X396Y444D01*
X450Y444D02*
X456Y444D01*
X474Y444D02*
X480Y444D01*
X497Y444D02*
X503Y444D01*
X945Y444D02*
X952Y444D01*
X0Y443D02*
X7Y443D01*
X283Y443D02*
X289Y443D01*
X309Y443D02*
X315Y443D01*
X343Y443D02*
X349Y443D01*
X390Y443D02*
X396Y443D01*
X450Y443D02*
X456Y443D01*
X474Y443D02*
X480Y443D01*
X497Y443D02*
X503Y443D01*
X945Y443D02*
X952Y443D01*
X0Y442D02*
X7Y442D01*
X283Y442D02*
X289Y442D01*
X309Y442D02*
X315Y442D01*
X343Y442D02*
X349Y442D01*
X390Y442D02*
X396Y442D01*
X450Y442D02*
X456Y442D01*
X474Y442D02*
X480Y442D01*
X497Y442D02*
X503Y442D01*
X945Y442D02*
X952Y442D01*
X0Y441D02*
X7Y441D01*
X283Y441D02*
X289Y441D01*
X309Y441D02*
X315Y441D01*
X343Y441D02*
X349Y441D01*
X390Y441D02*
X396Y441D01*
X450Y441D02*
X456Y441D01*
X474Y441D02*
X480Y441D01*
X497Y441D02*
X503Y441D01*
X945Y441D02*
X952Y441D01*
X0Y440D02*
X7Y440D01*
X283Y440D02*
X289Y440D01*
X309Y440D02*
X315Y440D01*
X343Y440D02*
X349Y440D01*
X390Y440D02*
X396Y440D01*
X450Y440D02*
X456Y440D01*
X474Y440D02*
X480Y440D01*
X497Y440D02*
X503Y440D01*
X945Y440D02*
X952Y440D01*
X0Y439D02*
X7Y439D01*
X283Y439D02*
X289Y439D01*
X309Y439D02*
X315Y439D01*
X343Y439D02*
X349Y439D01*
X390Y439D02*
X396Y439D01*
X450Y439D02*
X480Y439D01*
X497Y439D02*
X503Y439D01*
X945Y439D02*
X952Y439D01*
X0Y438D02*
X7Y438D01*
X283Y438D02*
X289Y438D01*
X309Y438D02*
X315Y438D01*
X343Y438D02*
X349Y438D01*
X368Y438D02*
X372Y438D01*
X390Y438D02*
X396Y438D01*
X450Y438D02*
X480Y438D01*
X497Y438D02*
X503Y438D01*
X945Y438D02*
X952Y438D01*
X0Y437D02*
X7Y437D01*
X283Y437D02*
X289Y437D01*
X309Y437D02*
X315Y437D01*
X343Y437D02*
X349Y437D01*
X367Y437D02*
X372Y437D01*
X390Y437D02*
X396Y437D01*
X450Y437D02*
X479Y437D01*
X497Y437D02*
X503Y437D01*
X945Y437D02*
X952Y437D01*
X0Y436D02*
X7Y436D01*
X283Y436D02*
X289Y436D01*
X309Y436D02*
X315Y436D01*
X343Y436D02*
X349Y436D01*
X367Y436D02*
X373Y436D01*
X390Y436D02*
X396Y436D01*
X450Y436D02*
X479Y436D01*
X497Y436D02*
X503Y436D01*
X945Y436D02*
X952Y436D01*
X0Y435D02*
X7Y435D01*
X283Y435D02*
X289Y435D01*
X309Y435D02*
X315Y435D01*
X343Y435D02*
X349Y435D01*
X367Y435D02*
X373Y435D01*
X390Y435D02*
X396Y435D01*
X450Y435D02*
X478Y435D01*
X497Y435D02*
X503Y435D01*
X945Y435D02*
X952Y435D01*
X0Y434D02*
X7Y434D01*
X283Y434D02*
X289Y434D01*
X309Y434D02*
X315Y434D01*
X343Y434D02*
X349Y434D01*
X367Y434D02*
X373Y434D01*
X390Y434D02*
X396Y434D01*
X450Y434D02*
X477Y434D01*
X498Y434D02*
X503Y434D01*
X945Y434D02*
X952Y434D01*
X0Y433D02*
X7Y433D01*
X283Y433D02*
X289Y433D01*
X309Y433D02*
X315Y433D01*
X343Y433D02*
X349Y433D01*
X367Y433D02*
X373Y433D01*
X390Y433D02*
X396Y433D01*
X450Y433D02*
X476Y433D01*
X499Y433D02*
X502Y433D01*
X945Y433D02*
X952Y433D01*
X0Y432D02*
X7Y432D01*
X283Y432D02*
X289Y432D01*
X309Y432D02*
X315Y432D01*
X343Y432D02*
X349Y432D01*
X367Y432D02*
X373Y432D01*
X390Y432D02*
X396Y432D01*
X945Y432D02*
X952Y432D01*
X0Y431D02*
X7Y431D01*
X283Y431D02*
X289Y431D01*
X309Y431D02*
X315Y431D01*
X343Y431D02*
X349Y431D01*
X367Y431D02*
X373Y431D01*
X390Y431D02*
X396Y431D01*
X945Y431D02*
X952Y431D01*
X0Y430D02*
X7Y430D01*
X283Y430D02*
X289Y430D01*
X309Y430D02*
X315Y430D01*
X343Y430D02*
X349Y430D01*
X367Y430D02*
X373Y430D01*
X390Y430D02*
X396Y430D01*
X945Y430D02*
X952Y430D01*
X0Y429D02*
X7Y429D01*
X283Y429D02*
X289Y429D01*
X309Y429D02*
X315Y429D01*
X343Y429D02*
X349Y429D01*
X367Y429D02*
X373Y429D01*
X390Y429D02*
X396Y429D01*
X945Y429D02*
X952Y429D01*
X0Y428D02*
X7Y428D01*
X283Y428D02*
X289Y428D01*
X309Y428D02*
X315Y428D01*
X343Y428D02*
X349Y428D01*
X367Y428D02*
X373Y428D01*
X390Y428D02*
X396Y428D01*
X945Y428D02*
X952Y428D01*
X0Y427D02*
X7Y427D01*
X258Y427D02*
X289Y427D01*
X309Y427D02*
X315Y427D01*
X332Y427D02*
X334Y427D01*
X343Y427D02*
X349Y427D01*
X367Y427D02*
X373Y427D01*
X390Y427D02*
X396Y427D01*
X945Y427D02*
X952Y427D01*
X0Y426D02*
X7Y426D01*
X256Y426D02*
X289Y426D01*
X309Y426D02*
X315Y426D01*
X331Y426D02*
X335Y426D01*
X343Y426D02*
X349Y426D01*
X367Y426D02*
X373Y426D01*
X390Y426D02*
X396Y426D01*
X945Y426D02*
X952Y426D01*
X0Y425D02*
X7Y425D01*
X256Y425D02*
X289Y425D01*
X309Y425D02*
X315Y425D01*
X330Y425D02*
X336Y425D01*
X343Y425D02*
X396Y425D01*
X945Y425D02*
X952Y425D01*
X0Y424D02*
X7Y424D01*
X256Y424D02*
X289Y424D01*
X309Y424D02*
X315Y424D01*
X330Y424D02*
X336Y424D01*
X343Y424D02*
X396Y424D01*
X945Y424D02*
X952Y424D01*
X0Y423D02*
X7Y423D01*
X256Y423D02*
X289Y423D01*
X309Y423D02*
X315Y423D01*
X330Y423D02*
X336Y423D01*
X343Y423D02*
X396Y423D01*
X945Y423D02*
X952Y423D01*
X0Y422D02*
X7Y422D01*
X256Y422D02*
X289Y422D01*
X309Y422D02*
X315Y422D01*
X330Y422D02*
X336Y422D01*
X343Y422D02*
X396Y422D01*
X945Y422D02*
X952Y422D01*
X0Y421D02*
X7Y421D01*
X256Y421D02*
X289Y421D01*
X309Y421D02*
X315Y421D01*
X330Y421D02*
X336Y421D01*
X343Y421D02*
X396Y421D01*
X945Y421D02*
X952Y421D01*
X0Y420D02*
X7Y420D01*
X256Y420D02*
X262Y420D01*
X283Y420D02*
X289Y420D01*
X309Y420D02*
X315Y420D01*
X330Y420D02*
X336Y420D01*
X343Y420D02*
X396Y420D01*
X945Y420D02*
X952Y420D01*
X0Y419D02*
X7Y419D01*
X256Y419D02*
X262Y419D01*
X283Y419D02*
X289Y419D01*
X309Y419D02*
X315Y419D01*
X330Y419D02*
X336Y419D01*
X343Y419D02*
X396Y419D01*
X945Y419D02*
X952Y419D01*
X0Y418D02*
X7Y418D01*
X256Y418D02*
X262Y418D01*
X283Y418D02*
X289Y418D01*
X309Y418D02*
X315Y418D01*
X330Y418D02*
X336Y418D01*
X945Y418D02*
X952Y418D01*
X0Y417D02*
X7Y417D01*
X256Y417D02*
X262Y417D01*
X283Y417D02*
X289Y417D01*
X309Y417D02*
X315Y417D01*
X330Y417D02*
X336Y417D01*
X945Y417D02*
X952Y417D01*
X0Y416D02*
X7Y416D01*
X256Y416D02*
X262Y416D01*
X283Y416D02*
X289Y416D01*
X309Y416D02*
X315Y416D01*
X330Y416D02*
X336Y416D01*
X452Y416D02*
X455Y416D01*
X486Y416D02*
X497Y416D01*
X945Y416D02*
X952Y416D01*
X0Y415D02*
X7Y415D01*
X256Y415D02*
X262Y415D01*
X283Y415D02*
X289Y415D01*
X309Y415D02*
X315Y415D01*
X330Y415D02*
X336Y415D01*
X451Y415D02*
X457Y415D01*
X485Y415D02*
X498Y415D01*
X945Y415D02*
X952Y415D01*
X0Y414D02*
X7Y414D01*
X256Y414D02*
X262Y414D01*
X283Y414D02*
X289Y414D01*
X309Y414D02*
X315Y414D01*
X330Y414D02*
X336Y414D01*
X450Y414D02*
X458Y414D01*
X483Y414D02*
X500Y414D01*
X945Y414D02*
X952Y414D01*
X0Y413D02*
X7Y413D01*
X256Y413D02*
X262Y413D01*
X283Y413D02*
X289Y413D01*
X309Y413D02*
X315Y413D01*
X330Y413D02*
X336Y413D01*
X450Y413D02*
X460Y413D01*
X482Y413D02*
X501Y413D01*
X945Y413D02*
X952Y413D01*
X0Y412D02*
X7Y412D01*
X256Y412D02*
X262Y412D01*
X283Y412D02*
X289Y412D01*
X309Y412D02*
X316Y412D01*
X330Y412D02*
X336Y412D01*
X450Y412D02*
X462Y412D01*
X481Y412D02*
X502Y412D01*
X945Y412D02*
X952Y412D01*
X0Y411D02*
X7Y411D01*
X256Y411D02*
X262Y411D01*
X283Y411D02*
X289Y411D01*
X310Y411D02*
X316Y411D01*
X329Y411D02*
X336Y411D01*
X451Y411D02*
X463Y411D01*
X481Y411D02*
X502Y411D01*
X945Y411D02*
X952Y411D01*
X0Y410D02*
X7Y410D01*
X256Y410D02*
X262Y410D01*
X283Y410D02*
X289Y410D01*
X310Y410D02*
X318Y410D01*
X328Y410D02*
X336Y410D01*
X452Y410D02*
X465Y410D01*
X480Y410D02*
X503Y410D01*
X945Y410D02*
X952Y410D01*
X0Y409D02*
X7Y409D01*
X256Y409D02*
X289Y409D01*
X310Y409D02*
X335Y409D01*
X454Y409D02*
X467Y409D01*
X480Y409D02*
X487Y409D01*
X496Y409D02*
X503Y409D01*
X945Y409D02*
X952Y409D01*
X0Y408D02*
X7Y408D01*
X256Y408D02*
X289Y408D01*
X311Y408D02*
X335Y408D01*
X456Y408D02*
X469Y408D01*
X480Y408D02*
X486Y408D01*
X497Y408D02*
X503Y408D01*
X945Y408D02*
X952Y408D01*
X0Y407D02*
X7Y407D01*
X256Y407D02*
X289Y407D01*
X312Y407D02*
X334Y407D01*
X457Y407D02*
X470Y407D01*
X480Y407D02*
X486Y407D01*
X497Y407D02*
X503Y407D01*
X945Y407D02*
X952Y407D01*
X0Y406D02*
X7Y406D01*
X256Y406D02*
X289Y406D01*
X312Y406D02*
X333Y406D01*
X459Y406D02*
X472Y406D01*
X480Y406D02*
X486Y406D01*
X497Y406D02*
X503Y406D01*
X945Y406D02*
X952Y406D01*
X0Y405D02*
X7Y405D01*
X256Y405D02*
X289Y405D01*
X314Y405D02*
X332Y405D01*
X461Y405D02*
X474Y405D01*
X480Y405D02*
X486Y405D01*
X497Y405D02*
X503Y405D01*
X945Y405D02*
X952Y405D01*
X0Y404D02*
X7Y404D01*
X257Y404D02*
X288Y404D01*
X315Y404D02*
X330Y404D01*
X462Y404D02*
X475Y404D01*
X480Y404D02*
X486Y404D01*
X497Y404D02*
X503Y404D01*
X945Y404D02*
X952Y404D01*
X0Y403D02*
X7Y403D01*
X258Y403D02*
X287Y403D01*
X318Y403D02*
X328Y403D01*
X464Y403D02*
X477Y403D01*
X480Y403D02*
X486Y403D01*
X497Y403D02*
X503Y403D01*
X945Y403D02*
X952Y403D01*
X0Y402D02*
X7Y402D01*
X345Y402D02*
X348Y402D01*
X466Y402D02*
X486Y402D01*
X497Y402D02*
X503Y402D01*
X945Y402D02*
X952Y402D01*
X0Y401D02*
X7Y401D01*
X344Y401D02*
X349Y401D01*
X468Y401D02*
X486Y401D01*
X497Y401D02*
X503Y401D01*
X945Y401D02*
X952Y401D01*
X0Y400D02*
X7Y400D01*
X343Y400D02*
X349Y400D01*
X469Y400D02*
X486Y400D01*
X497Y400D02*
X503Y400D01*
X945Y400D02*
X952Y400D01*
X0Y399D02*
X7Y399D01*
X343Y399D02*
X349Y399D01*
X471Y399D02*
X486Y399D01*
X497Y399D02*
X503Y399D01*
X945Y399D02*
X952Y399D01*
X0Y398D02*
X7Y398D01*
X343Y398D02*
X349Y398D01*
X473Y398D02*
X486Y398D01*
X497Y398D02*
X503Y398D01*
X945Y398D02*
X952Y398D01*
X0Y397D02*
X7Y397D01*
X343Y397D02*
X349Y397D01*
X474Y397D02*
X486Y397D01*
X497Y397D02*
X503Y397D01*
X945Y397D02*
X952Y397D01*
X0Y396D02*
X7Y396D01*
X343Y396D02*
X349Y396D01*
X476Y396D02*
X486Y396D01*
X497Y396D02*
X503Y396D01*
X945Y396D02*
X952Y396D01*
X0Y395D02*
X7Y395D01*
X343Y395D02*
X349Y395D01*
X478Y395D02*
X486Y395D01*
X497Y395D02*
X503Y395D01*
X945Y395D02*
X952Y395D01*
X0Y394D02*
X7Y394D01*
X343Y394D02*
X349Y394D01*
X479Y394D02*
X486Y394D01*
X497Y394D02*
X503Y394D01*
X945Y394D02*
X952Y394D01*
X0Y393D02*
X7Y393D01*
X343Y393D02*
X349Y393D01*
X480Y393D02*
X486Y393D01*
X497Y393D02*
X503Y393D01*
X945Y393D02*
X952Y393D01*
X0Y392D02*
X7Y392D01*
X343Y392D02*
X349Y392D01*
X480Y392D02*
X486Y392D01*
X497Y392D02*
X503Y392D01*
X945Y392D02*
X952Y392D01*
X0Y391D02*
X7Y391D01*
X343Y391D02*
X349Y391D01*
X480Y391D02*
X486Y391D01*
X497Y391D02*
X503Y391D01*
X945Y391D02*
X952Y391D01*
X0Y390D02*
X7Y390D01*
X343Y390D02*
X349Y390D01*
X480Y390D02*
X486Y390D01*
X497Y390D02*
X503Y390D01*
X945Y390D02*
X952Y390D01*
X0Y389D02*
X7Y389D01*
X343Y389D02*
X349Y389D01*
X453Y389D02*
X503Y389D01*
X945Y389D02*
X952Y389D01*
X0Y388D02*
X7Y388D01*
X343Y388D02*
X349Y388D01*
X451Y388D02*
X503Y388D01*
X945Y388D02*
X952Y388D01*
X0Y387D02*
X7Y387D01*
X343Y387D02*
X349Y387D01*
X451Y387D02*
X503Y387D01*
X945Y387D02*
X952Y387D01*
X0Y386D02*
X7Y386D01*
X343Y386D02*
X349Y386D01*
X450Y386D02*
X503Y386D01*
X945Y386D02*
X952Y386D01*
X0Y385D02*
X7Y385D01*
X343Y385D02*
X349Y385D01*
X450Y385D02*
X503Y385D01*
X945Y385D02*
X952Y385D01*
X0Y384D02*
X7Y384D01*
X343Y384D02*
X349Y384D01*
X451Y384D02*
X503Y384D01*
X945Y384D02*
X952Y384D01*
X0Y383D02*
X7Y383D01*
X343Y383D02*
X349Y383D01*
X451Y383D02*
X503Y383D01*
X945Y383D02*
X952Y383D01*
X0Y382D02*
X7Y382D01*
X343Y382D02*
X349Y382D01*
X945Y382D02*
X952Y382D01*
X0Y381D02*
X7Y381D01*
X343Y381D02*
X349Y381D01*
X945Y381D02*
X952Y381D01*
X0Y380D02*
X7Y380D01*
X343Y380D02*
X349Y380D01*
X945Y380D02*
X952Y380D01*
X0Y379D02*
X7Y379D01*
X343Y379D02*
X349Y379D01*
X945Y379D02*
X952Y379D01*
X0Y378D02*
X7Y378D01*
X343Y378D02*
X349Y378D01*
X945Y378D02*
X952Y378D01*
X0Y377D02*
X7Y377D01*
X343Y377D02*
X349Y377D01*
X945Y377D02*
X952Y377D01*
X0Y376D02*
X7Y376D01*
X343Y376D02*
X349Y376D01*
X945Y376D02*
X952Y376D01*
X0Y375D02*
X7Y375D01*
X343Y375D02*
X393Y375D01*
X945Y375D02*
X952Y375D01*
X0Y374D02*
X7Y374D01*
X343Y374D02*
X395Y374D01*
X945Y374D02*
X952Y374D01*
X0Y373D02*
X7Y373D01*
X343Y373D02*
X396Y373D01*
X945Y373D02*
X952Y373D01*
X0Y372D02*
X7Y372D01*
X343Y372D02*
X396Y372D01*
X945Y372D02*
X952Y372D01*
X0Y371D02*
X7Y371D01*
X343Y371D02*
X396Y371D01*
X945Y371D02*
X952Y371D01*
X0Y370D02*
X7Y370D01*
X343Y370D02*
X396Y370D01*
X945Y370D02*
X952Y370D01*
X0Y369D02*
X7Y369D01*
X343Y369D02*
X395Y369D01*
X945Y369D02*
X952Y369D01*
X0Y368D02*
X7Y368D01*
X945Y368D02*
X952Y368D01*
X0Y367D02*
X7Y367D01*
X945Y367D02*
X952Y367D01*
X0Y366D02*
X7Y366D01*
X945Y366D02*
X952Y366D01*
X0Y365D02*
X7Y365D01*
X945Y365D02*
X952Y365D01*
X0Y364D02*
X7Y364D01*
X945Y364D02*
X952Y364D01*
X0Y363D02*
X7Y363D01*
X945Y363D02*
X952Y363D01*
X0Y362D02*
X7Y362D01*
X945Y362D02*
X952Y362D01*
X0Y361D02*
X7Y361D01*
X945Y361D02*
X952Y361D01*
X0Y360D02*
X7Y360D01*
X945Y360D02*
X952Y360D01*
X0Y359D02*
X7Y359D01*
X945Y359D02*
X952Y359D01*
X0Y358D02*
X7Y358D01*
X945Y358D02*
X952Y358D01*
X0Y357D02*
X7Y357D01*
X945Y357D02*
X952Y357D01*
X0Y356D02*
X7Y356D01*
X945Y356D02*
X952Y356D01*
X0Y355D02*
X7Y355D01*
X945Y355D02*
X952Y355D01*
X0Y354D02*
X7Y354D01*
X945Y354D02*
X952Y354D01*
X0Y353D02*
X7Y353D01*
X945Y353D02*
X952Y353D01*
X0Y352D02*
X7Y352D01*
X945Y352D02*
X952Y352D01*
X0Y351D02*
X7Y351D01*
X945Y351D02*
X952Y351D01*
X0Y350D02*
X7Y350D01*
X945Y350D02*
X952Y350D01*
X0Y349D02*
X7Y349D01*
X945Y349D02*
X952Y349D01*
X0Y348D02*
X7Y348D01*
X945Y348D02*
X952Y348D01*
X0Y347D02*
X7Y347D01*
X945Y347D02*
X952Y347D01*
X0Y346D02*
X7Y346D01*
X341Y346D02*
X415Y346D01*
X441Y346D02*
X515Y346D01*
X945Y346D02*
X952Y346D01*
X0Y345D02*
X7Y345D01*
X341Y345D02*
X415Y345D01*
X441Y345D02*
X515Y345D01*
X945Y345D02*
X952Y345D01*
X0Y344D02*
X7Y344D01*
X341Y344D02*
X415Y344D01*
X441Y344D02*
X515Y344D01*
X945Y344D02*
X952Y344D01*
X0Y343D02*
X7Y343D01*
X341Y343D02*
X343Y343D01*
X413Y343D02*
X415Y343D01*
X441Y343D02*
X443Y343D01*
X513Y343D02*
X515Y343D01*
X945Y343D02*
X952Y343D01*
X0Y342D02*
X7Y342D01*
X341Y342D02*
X343Y342D01*
X413Y342D02*
X415Y342D01*
X441Y342D02*
X443Y342D01*
X513Y342D02*
X515Y342D01*
X945Y342D02*
X952Y342D01*
X0Y341D02*
X7Y341D01*
X341Y341D02*
X343Y341D01*
X413Y341D02*
X415Y341D01*
X441Y341D02*
X443Y341D01*
X513Y341D02*
X515Y341D01*
X945Y341D02*
X952Y341D01*
X0Y340D02*
X7Y340D01*
X341Y340D02*
X343Y340D01*
X413Y340D02*
X415Y340D01*
X441Y340D02*
X443Y340D01*
X513Y340D02*
X515Y340D01*
X945Y340D02*
X952Y340D01*
X0Y339D02*
X7Y339D01*
X341Y339D02*
X343Y339D01*
X413Y339D02*
X415Y339D01*
X441Y339D02*
X443Y339D01*
X513Y339D02*
X515Y339D01*
X945Y339D02*
X952Y339D01*
X0Y338D02*
X7Y338D01*
X341Y338D02*
X343Y338D01*
X413Y338D02*
X415Y338D01*
X441Y338D02*
X443Y338D01*
X513Y338D02*
X515Y338D01*
X945Y338D02*
X952Y338D01*
X0Y337D02*
X7Y337D01*
X341Y337D02*
X343Y337D01*
X413Y337D02*
X415Y337D01*
X441Y337D02*
X443Y337D01*
X513Y337D02*
X515Y337D01*
X945Y337D02*
X952Y337D01*
X0Y336D02*
X7Y336D01*
X341Y336D02*
X343Y336D01*
X413Y336D02*
X415Y336D01*
X441Y336D02*
X443Y336D01*
X513Y336D02*
X515Y336D01*
X945Y336D02*
X952Y336D01*
X0Y335D02*
X7Y335D01*
X341Y335D02*
X343Y335D01*
X413Y335D02*
X415Y335D01*
X441Y335D02*
X443Y335D01*
X513Y335D02*
X515Y335D01*
X945Y335D02*
X952Y335D01*
X0Y334D02*
X7Y334D01*
X341Y334D02*
X343Y334D01*
X413Y334D02*
X415Y334D01*
X441Y334D02*
X443Y334D01*
X513Y334D02*
X515Y334D01*
X945Y334D02*
X952Y334D01*
X0Y333D02*
X7Y333D01*
X341Y333D02*
X343Y333D01*
X413Y333D02*
X415Y333D01*
X441Y333D02*
X443Y333D01*
X513Y333D02*
X515Y333D01*
X945Y333D02*
X952Y333D01*
X0Y332D02*
X7Y332D01*
X341Y332D02*
X343Y332D01*
X413Y332D02*
X415Y332D01*
X441Y332D02*
X443Y332D01*
X513Y332D02*
X515Y332D01*
X945Y332D02*
X952Y332D01*
X0Y331D02*
X7Y331D01*
X341Y331D02*
X343Y331D01*
X413Y331D02*
X415Y331D01*
X441Y331D02*
X443Y331D01*
X513Y331D02*
X515Y331D01*
X945Y331D02*
X952Y331D01*
X0Y330D02*
X7Y330D01*
X341Y330D02*
X343Y330D01*
X413Y330D02*
X415Y330D01*
X441Y330D02*
X443Y330D01*
X513Y330D02*
X515Y330D01*
X945Y330D02*
X952Y330D01*
X0Y329D02*
X7Y329D01*
X341Y329D02*
X343Y329D01*
X413Y329D02*
X415Y329D01*
X441Y329D02*
X443Y329D01*
X513Y329D02*
X515Y329D01*
X945Y329D02*
X952Y329D01*
X0Y328D02*
X7Y328D01*
X341Y328D02*
X343Y328D01*
X413Y328D02*
X415Y328D01*
X441Y328D02*
X443Y328D01*
X513Y328D02*
X515Y328D01*
X945Y328D02*
X952Y328D01*
X0Y327D02*
X7Y327D01*
X341Y327D02*
X343Y327D01*
X413Y327D02*
X415Y327D01*
X441Y327D02*
X443Y327D01*
X513Y327D02*
X515Y327D01*
X945Y327D02*
X952Y327D01*
X0Y326D02*
X7Y326D01*
X341Y326D02*
X343Y326D01*
X413Y326D02*
X415Y326D01*
X441Y326D02*
X443Y326D01*
X513Y326D02*
X515Y326D01*
X945Y326D02*
X952Y326D01*
X0Y325D02*
X7Y325D01*
X341Y325D02*
X343Y325D01*
X413Y325D02*
X415Y325D01*
X441Y325D02*
X443Y325D01*
X513Y325D02*
X515Y325D01*
X945Y325D02*
X952Y325D01*
X0Y324D02*
X7Y324D01*
X341Y324D02*
X343Y324D01*
X413Y324D02*
X415Y324D01*
X441Y324D02*
X443Y324D01*
X513Y324D02*
X515Y324D01*
X945Y324D02*
X952Y324D01*
X0Y323D02*
X7Y323D01*
X341Y323D02*
X343Y323D01*
X413Y323D02*
X415Y323D01*
X441Y323D02*
X443Y323D01*
X513Y323D02*
X515Y323D01*
X945Y323D02*
X952Y323D01*
X0Y322D02*
X7Y322D01*
X341Y322D02*
X343Y322D01*
X413Y322D02*
X415Y322D01*
X441Y322D02*
X443Y322D01*
X513Y322D02*
X515Y322D01*
X945Y322D02*
X952Y322D01*
X0Y321D02*
X7Y321D01*
X341Y321D02*
X343Y321D01*
X413Y321D02*
X415Y321D01*
X441Y321D02*
X443Y321D01*
X513Y321D02*
X515Y321D01*
X945Y321D02*
X952Y321D01*
X0Y320D02*
X7Y320D01*
X341Y320D02*
X343Y320D01*
X413Y320D02*
X415Y320D01*
X441Y320D02*
X443Y320D01*
X513Y320D02*
X515Y320D01*
X945Y320D02*
X952Y320D01*
X0Y319D02*
X7Y319D01*
X341Y319D02*
X343Y319D01*
X413Y319D02*
X415Y319D01*
X441Y319D02*
X443Y319D01*
X513Y319D02*
X515Y319D01*
X945Y319D02*
X952Y319D01*
X0Y318D02*
X7Y318D01*
X341Y318D02*
X343Y318D01*
X413Y318D02*
X415Y318D01*
X441Y318D02*
X443Y318D01*
X513Y318D02*
X515Y318D01*
X945Y318D02*
X952Y318D01*
X0Y317D02*
X7Y317D01*
X341Y317D02*
X343Y317D01*
X413Y317D02*
X415Y317D01*
X441Y317D02*
X443Y317D01*
X513Y317D02*
X515Y317D01*
X945Y317D02*
X952Y317D01*
X0Y316D02*
X7Y316D01*
X341Y316D02*
X343Y316D01*
X413Y316D02*
X415Y316D01*
X441Y316D02*
X443Y316D01*
X513Y316D02*
X515Y316D01*
X945Y316D02*
X952Y316D01*
X0Y315D02*
X7Y315D01*
X341Y315D02*
X343Y315D01*
X413Y315D02*
X415Y315D01*
X441Y315D02*
X443Y315D01*
X513Y315D02*
X515Y315D01*
X945Y315D02*
X952Y315D01*
X0Y314D02*
X7Y314D01*
X341Y314D02*
X343Y314D01*
X413Y314D02*
X415Y314D01*
X441Y314D02*
X443Y314D01*
X513Y314D02*
X515Y314D01*
X945Y314D02*
X952Y314D01*
X0Y313D02*
X7Y313D01*
X341Y313D02*
X343Y313D01*
X413Y313D02*
X415Y313D01*
X441Y313D02*
X443Y313D01*
X513Y313D02*
X515Y313D01*
X945Y313D02*
X952Y313D01*
X0Y312D02*
X7Y312D01*
X341Y312D02*
X343Y312D01*
X413Y312D02*
X415Y312D01*
X441Y312D02*
X443Y312D01*
X513Y312D02*
X515Y312D01*
X945Y312D02*
X952Y312D01*
X0Y311D02*
X7Y311D01*
X341Y311D02*
X343Y311D01*
X413Y311D02*
X415Y311D01*
X441Y311D02*
X443Y311D01*
X513Y311D02*
X515Y311D01*
X945Y311D02*
X952Y311D01*
X0Y310D02*
X7Y310D01*
X341Y310D02*
X343Y310D01*
X413Y310D02*
X415Y310D01*
X441Y310D02*
X443Y310D01*
X513Y310D02*
X515Y310D01*
X945Y310D02*
X952Y310D01*
X0Y309D02*
X7Y309D01*
X341Y309D02*
X343Y309D01*
X413Y309D02*
X415Y309D01*
X441Y309D02*
X443Y309D01*
X513Y309D02*
X515Y309D01*
X945Y309D02*
X952Y309D01*
X0Y308D02*
X7Y308D01*
X341Y308D02*
X343Y308D01*
X413Y308D02*
X415Y308D01*
X441Y308D02*
X443Y308D01*
X513Y308D02*
X515Y308D01*
X945Y308D02*
X952Y308D01*
X0Y307D02*
X7Y307D01*
X341Y307D02*
X343Y307D01*
X413Y307D02*
X415Y307D01*
X441Y307D02*
X443Y307D01*
X513Y307D02*
X515Y307D01*
X945Y307D02*
X952Y307D01*
X0Y306D02*
X7Y306D01*
X341Y306D02*
X343Y306D01*
X413Y306D02*
X415Y306D01*
X441Y306D02*
X443Y306D01*
X513Y306D02*
X515Y306D01*
X945Y306D02*
X952Y306D01*
X0Y305D02*
X7Y305D01*
X341Y305D02*
X343Y305D01*
X413Y305D02*
X415Y305D01*
X441Y305D02*
X443Y305D01*
X513Y305D02*
X515Y305D01*
X945Y305D02*
X952Y305D01*
X0Y304D02*
X7Y304D01*
X341Y304D02*
X343Y304D01*
X413Y304D02*
X415Y304D01*
X441Y304D02*
X443Y304D01*
X513Y304D02*
X515Y304D01*
X945Y304D02*
X952Y304D01*
X0Y303D02*
X7Y303D01*
X341Y303D02*
X343Y303D01*
X413Y303D02*
X415Y303D01*
X441Y303D02*
X443Y303D01*
X513Y303D02*
X515Y303D01*
X945Y303D02*
X952Y303D01*
X0Y302D02*
X7Y302D01*
X341Y302D02*
X343Y302D01*
X413Y302D02*
X415Y302D01*
X441Y302D02*
X443Y302D01*
X513Y302D02*
X515Y302D01*
X945Y302D02*
X952Y302D01*
X0Y301D02*
X7Y301D01*
X341Y301D02*
X343Y301D01*
X413Y301D02*
X415Y301D01*
X441Y301D02*
X443Y301D01*
X513Y301D02*
X515Y301D01*
X945Y301D02*
X952Y301D01*
X0Y300D02*
X7Y300D01*
X341Y300D02*
X343Y300D01*
X413Y300D02*
X415Y300D01*
X441Y300D02*
X443Y300D01*
X513Y300D02*
X515Y300D01*
X945Y300D02*
X952Y300D01*
X0Y299D02*
X7Y299D01*
X341Y299D02*
X343Y299D01*
X413Y299D02*
X415Y299D01*
X441Y299D02*
X443Y299D01*
X513Y299D02*
X515Y299D01*
X945Y299D02*
X952Y299D01*
X0Y298D02*
X7Y298D01*
X341Y298D02*
X343Y298D01*
X413Y298D02*
X415Y298D01*
X441Y298D02*
X443Y298D01*
X513Y298D02*
X515Y298D01*
X945Y298D02*
X952Y298D01*
X0Y297D02*
X7Y297D01*
X341Y297D02*
X343Y297D01*
X413Y297D02*
X415Y297D01*
X441Y297D02*
X443Y297D01*
X513Y297D02*
X515Y297D01*
X945Y297D02*
X952Y297D01*
X0Y296D02*
X7Y296D01*
X341Y296D02*
X343Y296D01*
X413Y296D02*
X415Y296D01*
X441Y296D02*
X443Y296D01*
X513Y296D02*
X515Y296D01*
X945Y296D02*
X952Y296D01*
X0Y295D02*
X7Y295D01*
X341Y295D02*
X343Y295D01*
X413Y295D02*
X415Y295D01*
X441Y295D02*
X443Y295D01*
X513Y295D02*
X515Y295D01*
X945Y295D02*
X952Y295D01*
X0Y294D02*
X7Y294D01*
X341Y294D02*
X343Y294D01*
X413Y294D02*
X415Y294D01*
X441Y294D02*
X443Y294D01*
X513Y294D02*
X515Y294D01*
X945Y294D02*
X952Y294D01*
X0Y293D02*
X7Y293D01*
X341Y293D02*
X343Y293D01*
X413Y293D02*
X415Y293D01*
X441Y293D02*
X443Y293D01*
X513Y293D02*
X515Y293D01*
X945Y293D02*
X952Y293D01*
X0Y292D02*
X7Y292D01*
X341Y292D02*
X343Y292D01*
X413Y292D02*
X415Y292D01*
X441Y292D02*
X443Y292D01*
X513Y292D02*
X515Y292D01*
X945Y292D02*
X952Y292D01*
X0Y291D02*
X7Y291D01*
X341Y291D02*
X343Y291D01*
X413Y291D02*
X415Y291D01*
X441Y291D02*
X443Y291D01*
X513Y291D02*
X515Y291D01*
X945Y291D02*
X952Y291D01*
X0Y290D02*
X7Y290D01*
X341Y290D02*
X343Y290D01*
X413Y290D02*
X415Y290D01*
X441Y290D02*
X443Y290D01*
X513Y290D02*
X515Y290D01*
X945Y290D02*
X952Y290D01*
X0Y289D02*
X7Y289D01*
X341Y289D02*
X343Y289D01*
X413Y289D02*
X415Y289D01*
X441Y289D02*
X443Y289D01*
X513Y289D02*
X515Y289D01*
X945Y289D02*
X952Y289D01*
X0Y288D02*
X7Y288D01*
X341Y288D02*
X343Y288D01*
X413Y288D02*
X415Y288D01*
X441Y288D02*
X443Y288D01*
X513Y288D02*
X515Y288D01*
X945Y288D02*
X952Y288D01*
X0Y287D02*
X7Y287D01*
X341Y287D02*
X343Y287D01*
X413Y287D02*
X415Y287D01*
X441Y287D02*
X443Y287D01*
X513Y287D02*
X515Y287D01*
X945Y287D02*
X952Y287D01*
X0Y286D02*
X7Y286D01*
X341Y286D02*
X343Y286D01*
X413Y286D02*
X415Y286D01*
X441Y286D02*
X443Y286D01*
X513Y286D02*
X515Y286D01*
X945Y286D02*
X952Y286D01*
X0Y285D02*
X7Y285D01*
X341Y285D02*
X343Y285D01*
X413Y285D02*
X415Y285D01*
X441Y285D02*
X443Y285D01*
X513Y285D02*
X515Y285D01*
X945Y285D02*
X952Y285D01*
X0Y284D02*
X7Y284D01*
X341Y284D02*
X343Y284D01*
X413Y284D02*
X415Y284D01*
X441Y284D02*
X443Y284D01*
X513Y284D02*
X515Y284D01*
X945Y284D02*
X952Y284D01*
X0Y283D02*
X7Y283D01*
X341Y283D02*
X343Y283D01*
X413Y283D02*
X415Y283D01*
X441Y283D02*
X443Y283D01*
X513Y283D02*
X515Y283D01*
X945Y283D02*
X952Y283D01*
X0Y282D02*
X7Y282D01*
X341Y282D02*
X343Y282D01*
X413Y282D02*
X415Y282D01*
X441Y282D02*
X443Y282D01*
X513Y282D02*
X515Y282D01*
X945Y282D02*
X952Y282D01*
X0Y281D02*
X7Y281D01*
X341Y281D02*
X343Y281D01*
X413Y281D02*
X415Y281D01*
X441Y281D02*
X443Y281D01*
X513Y281D02*
X515Y281D01*
X945Y281D02*
X952Y281D01*
X0Y280D02*
X7Y280D01*
X341Y280D02*
X343Y280D01*
X413Y280D02*
X415Y280D01*
X441Y280D02*
X443Y280D01*
X513Y280D02*
X515Y280D01*
X945Y280D02*
X952Y280D01*
X0Y279D02*
X7Y279D01*
X341Y279D02*
X343Y279D01*
X413Y279D02*
X415Y279D01*
X441Y279D02*
X443Y279D01*
X513Y279D02*
X515Y279D01*
X945Y279D02*
X952Y279D01*
X0Y278D02*
X7Y278D01*
X341Y278D02*
X344Y278D01*
X412Y278D02*
X415Y278D01*
X441Y278D02*
X444Y278D01*
X512Y278D02*
X515Y278D01*
X945Y278D02*
X952Y278D01*
X0Y277D02*
X7Y277D01*
X341Y277D02*
X344Y277D01*
X412Y277D02*
X415Y277D01*
X441Y277D02*
X444Y277D01*
X512Y277D02*
X515Y277D01*
X945Y277D02*
X952Y277D01*
X0Y276D02*
X7Y276D01*
X341Y276D02*
X344Y276D01*
X412Y276D02*
X415Y276D01*
X441Y276D02*
X444Y276D01*
X512Y276D02*
X515Y276D01*
X945Y276D02*
X952Y276D01*
X0Y275D02*
X7Y275D01*
X341Y275D02*
X344Y275D01*
X412Y275D02*
X415Y275D01*
X441Y275D02*
X444Y275D01*
X512Y275D02*
X515Y275D01*
X945Y275D02*
X952Y275D01*
X0Y274D02*
X7Y274D01*
X341Y274D02*
X344Y274D01*
X412Y274D02*
X415Y274D01*
X441Y274D02*
X444Y274D01*
X512Y274D02*
X515Y274D01*
X945Y274D02*
X952Y274D01*
X0Y273D02*
X7Y273D01*
X341Y273D02*
X344Y273D01*
X412Y273D02*
X415Y273D01*
X441Y273D02*
X444Y273D01*
X512Y273D02*
X515Y273D01*
X945Y273D02*
X952Y273D01*
X0Y272D02*
X7Y272D01*
X341Y272D02*
X344Y272D01*
X412Y272D02*
X415Y272D01*
X441Y272D02*
X444Y272D01*
X512Y272D02*
X515Y272D01*
X945Y272D02*
X952Y272D01*
X0Y271D02*
X7Y271D01*
X341Y271D02*
X344Y271D01*
X412Y271D02*
X415Y271D01*
X441Y271D02*
X444Y271D01*
X512Y271D02*
X515Y271D01*
X945Y271D02*
X952Y271D01*
X0Y270D02*
X7Y270D01*
X341Y270D02*
X344Y270D01*
X412Y270D02*
X415Y270D01*
X441Y270D02*
X444Y270D01*
X512Y270D02*
X515Y270D01*
X945Y270D02*
X952Y270D01*
X0Y269D02*
X7Y269D01*
X341Y269D02*
X344Y269D01*
X412Y269D02*
X415Y269D01*
X441Y269D02*
X444Y269D01*
X512Y269D02*
X515Y269D01*
X945Y269D02*
X952Y269D01*
X0Y268D02*
X7Y268D01*
X341Y268D02*
X344Y268D01*
X412Y268D02*
X415Y268D01*
X441Y268D02*
X444Y268D01*
X512Y268D02*
X515Y268D01*
X945Y268D02*
X952Y268D01*
X0Y267D02*
X7Y267D01*
X341Y267D02*
X344Y267D01*
X412Y267D02*
X415Y267D01*
X441Y267D02*
X444Y267D01*
X512Y267D02*
X515Y267D01*
X945Y267D02*
X952Y267D01*
X0Y266D02*
X7Y266D01*
X341Y266D02*
X344Y266D01*
X412Y266D02*
X415Y266D01*
X441Y266D02*
X444Y266D01*
X512Y266D02*
X515Y266D01*
X945Y266D02*
X952Y266D01*
X0Y265D02*
X7Y265D01*
X341Y265D02*
X344Y265D01*
X349Y265D02*
X407Y265D01*
X412Y265D02*
X415Y265D01*
X441Y265D02*
X444Y265D01*
X512Y265D02*
X515Y265D01*
X945Y265D02*
X952Y265D01*
X0Y264D02*
X7Y264D01*
X341Y264D02*
X344Y264D01*
X349Y264D02*
X407Y264D01*
X412Y264D02*
X415Y264D01*
X441Y264D02*
X444Y264D01*
X512Y264D02*
X515Y264D01*
X945Y264D02*
X952Y264D01*
X0Y263D02*
X7Y263D01*
X341Y263D02*
X344Y263D01*
X349Y263D02*
X407Y263D01*
X412Y263D02*
X415Y263D01*
X441Y263D02*
X444Y263D01*
X512Y263D02*
X515Y263D01*
X945Y263D02*
X952Y263D01*
X0Y262D02*
X7Y262D01*
X341Y262D02*
X343Y262D01*
X413Y262D02*
X415Y262D01*
X441Y262D02*
X443Y262D01*
X513Y262D02*
X515Y262D01*
X945Y262D02*
X952Y262D01*
X0Y261D02*
X7Y261D01*
X341Y261D02*
X343Y261D01*
X413Y261D02*
X415Y261D01*
X441Y261D02*
X443Y261D01*
X513Y261D02*
X515Y261D01*
X945Y261D02*
X952Y261D01*
X0Y260D02*
X7Y260D01*
X341Y260D02*
X343Y260D01*
X413Y260D02*
X415Y260D01*
X441Y260D02*
X443Y260D01*
X513Y260D02*
X515Y260D01*
X945Y260D02*
X952Y260D01*
X0Y259D02*
X7Y259D01*
X341Y259D02*
X343Y259D01*
X413Y259D02*
X415Y259D01*
X441Y259D02*
X443Y259D01*
X513Y259D02*
X515Y259D01*
X945Y259D02*
X952Y259D01*
X0Y258D02*
X7Y258D01*
X341Y258D02*
X343Y258D01*
X413Y258D02*
X415Y258D01*
X441Y258D02*
X443Y258D01*
X513Y258D02*
X515Y258D01*
X945Y258D02*
X952Y258D01*
X0Y257D02*
X7Y257D01*
X341Y257D02*
X343Y257D01*
X413Y257D02*
X415Y257D01*
X441Y257D02*
X443Y257D01*
X513Y257D02*
X515Y257D01*
X945Y257D02*
X952Y257D01*
X0Y256D02*
X7Y256D01*
X341Y256D02*
X343Y256D01*
X413Y256D02*
X415Y256D01*
X441Y256D02*
X443Y256D01*
X513Y256D02*
X515Y256D01*
X945Y256D02*
X952Y256D01*
X0Y255D02*
X7Y255D01*
X341Y255D02*
X343Y255D01*
X413Y255D02*
X415Y255D01*
X441Y255D02*
X443Y255D01*
X513Y255D02*
X515Y255D01*
X945Y255D02*
X952Y255D01*
X0Y254D02*
X7Y254D01*
X341Y254D02*
X343Y254D01*
X413Y254D02*
X415Y254D01*
X441Y254D02*
X443Y254D01*
X513Y254D02*
X515Y254D01*
X945Y254D02*
X952Y254D01*
X0Y253D02*
X7Y253D01*
X341Y253D02*
X343Y253D01*
X413Y253D02*
X415Y253D01*
X441Y253D02*
X443Y253D01*
X513Y253D02*
X515Y253D01*
X945Y253D02*
X952Y253D01*
X0Y252D02*
X7Y252D01*
X341Y252D02*
X343Y252D01*
X413Y252D02*
X415Y252D01*
X441Y252D02*
X443Y252D01*
X513Y252D02*
X515Y252D01*
X945Y252D02*
X952Y252D01*
X0Y251D02*
X7Y251D01*
X341Y251D02*
X343Y251D01*
X413Y251D02*
X415Y251D01*
X441Y251D02*
X443Y251D01*
X513Y251D02*
X515Y251D01*
X945Y251D02*
X952Y251D01*
X0Y250D02*
X7Y250D01*
X341Y250D02*
X343Y250D01*
X413Y250D02*
X415Y250D01*
X441Y250D02*
X443Y250D01*
X513Y250D02*
X515Y250D01*
X945Y250D02*
X952Y250D01*
X0Y249D02*
X7Y249D01*
X341Y249D02*
X343Y249D01*
X413Y249D02*
X415Y249D01*
X441Y249D02*
X443Y249D01*
X513Y249D02*
X515Y249D01*
X945Y249D02*
X952Y249D01*
X0Y248D02*
X7Y248D01*
X341Y248D02*
X343Y248D01*
X413Y248D02*
X415Y248D01*
X441Y248D02*
X443Y248D01*
X513Y248D02*
X515Y248D01*
X945Y248D02*
X952Y248D01*
X0Y247D02*
X7Y247D01*
X341Y247D02*
X343Y247D01*
X413Y247D02*
X415Y247D01*
X441Y247D02*
X443Y247D01*
X513Y247D02*
X515Y247D01*
X945Y247D02*
X952Y247D01*
X0Y246D02*
X7Y246D01*
X341Y246D02*
X343Y246D01*
X413Y246D02*
X415Y246D01*
X441Y246D02*
X443Y246D01*
X513Y246D02*
X515Y246D01*
X945Y246D02*
X952Y246D01*
X0Y245D02*
X7Y245D01*
X341Y245D02*
X343Y245D01*
X413Y245D02*
X415Y245D01*
X441Y245D02*
X443Y245D01*
X513Y245D02*
X515Y245D01*
X945Y245D02*
X952Y245D01*
X0Y244D02*
X7Y244D01*
X341Y244D02*
X343Y244D01*
X413Y244D02*
X415Y244D01*
X441Y244D02*
X443Y244D01*
X513Y244D02*
X515Y244D01*
X945Y244D02*
X952Y244D01*
X0Y243D02*
X7Y243D01*
X341Y243D02*
X343Y243D01*
X413Y243D02*
X415Y243D01*
X441Y243D02*
X443Y243D01*
X513Y243D02*
X515Y243D01*
X945Y243D02*
X952Y243D01*
X0Y242D02*
X7Y242D01*
X341Y242D02*
X343Y242D01*
X413Y242D02*
X415Y242D01*
X441Y242D02*
X443Y242D01*
X513Y242D02*
X515Y242D01*
X945Y242D02*
X952Y242D01*
X0Y241D02*
X7Y241D01*
X341Y241D02*
X343Y241D01*
X413Y241D02*
X415Y241D01*
X441Y241D02*
X443Y241D01*
X513Y241D02*
X515Y241D01*
X945Y241D02*
X952Y241D01*
X0Y240D02*
X7Y240D01*
X341Y240D02*
X343Y240D01*
X413Y240D02*
X415Y240D01*
X441Y240D02*
X443Y240D01*
X513Y240D02*
X515Y240D01*
X945Y240D02*
X952Y240D01*
X0Y239D02*
X7Y239D01*
X341Y239D02*
X343Y239D01*
X413Y239D02*
X415Y239D01*
X441Y239D02*
X443Y239D01*
X513Y239D02*
X515Y239D01*
X945Y239D02*
X952Y239D01*
X0Y238D02*
X7Y238D01*
X341Y238D02*
X343Y238D01*
X413Y238D02*
X415Y238D01*
X441Y238D02*
X443Y238D01*
X513Y238D02*
X515Y238D01*
X945Y238D02*
X952Y238D01*
X0Y237D02*
X7Y237D01*
X341Y237D02*
X343Y237D01*
X413Y237D02*
X415Y237D01*
X441Y237D02*
X443Y237D01*
X513Y237D02*
X515Y237D01*
X945Y237D02*
X952Y237D01*
X0Y236D02*
X7Y236D01*
X341Y236D02*
X343Y236D01*
X413Y236D02*
X415Y236D01*
X441Y236D02*
X443Y236D01*
X513Y236D02*
X515Y236D01*
X945Y236D02*
X952Y236D01*
X0Y235D02*
X7Y235D01*
X341Y235D02*
X343Y235D01*
X413Y235D02*
X415Y235D01*
X441Y235D02*
X443Y235D01*
X513Y235D02*
X515Y235D01*
X945Y235D02*
X952Y235D01*
X0Y234D02*
X7Y234D01*
X341Y234D02*
X343Y234D01*
X413Y234D02*
X415Y234D01*
X441Y234D02*
X443Y234D01*
X513Y234D02*
X515Y234D01*
X945Y234D02*
X952Y234D01*
X0Y233D02*
X7Y233D01*
X341Y233D02*
X343Y233D01*
X413Y233D02*
X415Y233D01*
X441Y233D02*
X443Y233D01*
X513Y233D02*
X515Y233D01*
X945Y233D02*
X952Y233D01*
X0Y232D02*
X7Y232D01*
X341Y232D02*
X343Y232D01*
X413Y232D02*
X415Y232D01*
X441Y232D02*
X443Y232D01*
X513Y232D02*
X515Y232D01*
X945Y232D02*
X952Y232D01*
X0Y231D02*
X7Y231D01*
X341Y231D02*
X343Y231D01*
X413Y231D02*
X415Y231D01*
X441Y231D02*
X443Y231D01*
X513Y231D02*
X515Y231D01*
X945Y231D02*
X952Y231D01*
X0Y230D02*
X7Y230D01*
X341Y230D02*
X343Y230D01*
X413Y230D02*
X415Y230D01*
X441Y230D02*
X443Y230D01*
X513Y230D02*
X515Y230D01*
X945Y230D02*
X952Y230D01*
X0Y229D02*
X7Y229D01*
X341Y229D02*
X343Y229D01*
X413Y229D02*
X415Y229D01*
X441Y229D02*
X443Y229D01*
X513Y229D02*
X515Y229D01*
X945Y229D02*
X952Y229D01*
X0Y228D02*
X7Y228D01*
X341Y228D02*
X343Y228D01*
X413Y228D02*
X415Y228D01*
X441Y228D02*
X443Y228D01*
X513Y228D02*
X515Y228D01*
X945Y228D02*
X952Y228D01*
X0Y227D02*
X7Y227D01*
X341Y227D02*
X343Y227D01*
X413Y227D02*
X415Y227D01*
X441Y227D02*
X443Y227D01*
X513Y227D02*
X515Y227D01*
X945Y227D02*
X952Y227D01*
X0Y226D02*
X7Y226D01*
X341Y226D02*
X343Y226D01*
X413Y226D02*
X415Y226D01*
X441Y226D02*
X443Y226D01*
X513Y226D02*
X515Y226D01*
X945Y226D02*
X952Y226D01*
X0Y225D02*
X7Y225D01*
X341Y225D02*
X343Y225D01*
X413Y225D02*
X415Y225D01*
X441Y225D02*
X443Y225D01*
X513Y225D02*
X515Y225D01*
X945Y225D02*
X952Y225D01*
X0Y224D02*
X7Y224D01*
X341Y224D02*
X343Y224D01*
X413Y224D02*
X415Y224D01*
X441Y224D02*
X443Y224D01*
X513Y224D02*
X515Y224D01*
X945Y224D02*
X952Y224D01*
X0Y223D02*
X7Y223D01*
X341Y223D02*
X343Y223D01*
X413Y223D02*
X415Y223D01*
X441Y223D02*
X443Y223D01*
X513Y223D02*
X515Y223D01*
X945Y223D02*
X952Y223D01*
X0Y222D02*
X7Y222D01*
X341Y222D02*
X343Y222D01*
X413Y222D02*
X415Y222D01*
X441Y222D02*
X443Y222D01*
X513Y222D02*
X515Y222D01*
X945Y222D02*
X952Y222D01*
X0Y221D02*
X7Y221D01*
X341Y221D02*
X343Y221D01*
X413Y221D02*
X415Y221D01*
X441Y221D02*
X443Y221D01*
X513Y221D02*
X515Y221D01*
X945Y221D02*
X952Y221D01*
X0Y220D02*
X7Y220D01*
X341Y220D02*
X343Y220D01*
X413Y220D02*
X415Y220D01*
X441Y220D02*
X443Y220D01*
X513Y220D02*
X515Y220D01*
X945Y220D02*
X952Y220D01*
X0Y219D02*
X7Y219D01*
X341Y219D02*
X343Y219D01*
X413Y219D02*
X415Y219D01*
X441Y219D02*
X443Y219D01*
X513Y219D02*
X515Y219D01*
X945Y219D02*
X952Y219D01*
X0Y218D02*
X7Y218D01*
X341Y218D02*
X343Y218D01*
X413Y218D02*
X415Y218D01*
X441Y218D02*
X443Y218D01*
X513Y218D02*
X515Y218D01*
X945Y218D02*
X952Y218D01*
X0Y217D02*
X7Y217D01*
X341Y217D02*
X343Y217D01*
X413Y217D02*
X415Y217D01*
X441Y217D02*
X443Y217D01*
X513Y217D02*
X515Y217D01*
X945Y217D02*
X952Y217D01*
X0Y216D02*
X7Y216D01*
X341Y216D02*
X343Y216D01*
X413Y216D02*
X415Y216D01*
X441Y216D02*
X443Y216D01*
X513Y216D02*
X515Y216D01*
X945Y216D02*
X952Y216D01*
X0Y215D02*
X7Y215D01*
X341Y215D02*
X343Y215D01*
X413Y215D02*
X415Y215D01*
X441Y215D02*
X443Y215D01*
X513Y215D02*
X515Y215D01*
X945Y215D02*
X952Y215D01*
X0Y214D02*
X7Y214D01*
X341Y214D02*
X343Y214D01*
X413Y214D02*
X415Y214D01*
X441Y214D02*
X443Y214D01*
X513Y214D02*
X515Y214D01*
X945Y214D02*
X952Y214D01*
X0Y213D02*
X7Y213D01*
X341Y213D02*
X343Y213D01*
X413Y213D02*
X415Y213D01*
X441Y213D02*
X443Y213D01*
X513Y213D02*
X515Y213D01*
X945Y213D02*
X952Y213D01*
X0Y212D02*
X7Y212D01*
X341Y212D02*
X343Y212D01*
X413Y212D02*
X415Y212D01*
X441Y212D02*
X443Y212D01*
X513Y212D02*
X515Y212D01*
X945Y212D02*
X952Y212D01*
X0Y211D02*
X7Y211D01*
X341Y211D02*
X343Y211D01*
X413Y211D02*
X415Y211D01*
X441Y211D02*
X443Y211D01*
X513Y211D02*
X515Y211D01*
X945Y211D02*
X952Y211D01*
X0Y210D02*
X7Y210D01*
X341Y210D02*
X343Y210D01*
X413Y210D02*
X415Y210D01*
X441Y210D02*
X443Y210D01*
X513Y210D02*
X515Y210D01*
X945Y210D02*
X952Y210D01*
X0Y209D02*
X7Y209D01*
X341Y209D02*
X343Y209D01*
X413Y209D02*
X415Y209D01*
X441Y209D02*
X443Y209D01*
X513Y209D02*
X515Y209D01*
X945Y209D02*
X952Y209D01*
X0Y208D02*
X7Y208D01*
X341Y208D02*
X343Y208D01*
X413Y208D02*
X415Y208D01*
X441Y208D02*
X443Y208D01*
X513Y208D02*
X515Y208D01*
X945Y208D02*
X952Y208D01*
X0Y207D02*
X7Y207D01*
X341Y207D02*
X343Y207D01*
X413Y207D02*
X415Y207D01*
X441Y207D02*
X443Y207D01*
X513Y207D02*
X515Y207D01*
X945Y207D02*
X952Y207D01*
X0Y206D02*
X7Y206D01*
X341Y206D02*
X343Y206D01*
X413Y206D02*
X415Y206D01*
X441Y206D02*
X443Y206D01*
X513Y206D02*
X515Y206D01*
X945Y206D02*
X952Y206D01*
X0Y205D02*
X7Y205D01*
X341Y205D02*
X343Y205D01*
X413Y205D02*
X415Y205D01*
X441Y205D02*
X443Y205D01*
X513Y205D02*
X515Y205D01*
X945Y205D02*
X952Y205D01*
X0Y204D02*
X7Y204D01*
X341Y204D02*
X343Y204D01*
X413Y204D02*
X415Y204D01*
X441Y204D02*
X443Y204D01*
X513Y204D02*
X515Y204D01*
X945Y204D02*
X952Y204D01*
X0Y203D02*
X7Y203D01*
X341Y203D02*
X343Y203D01*
X413Y203D02*
X415Y203D01*
X441Y203D02*
X443Y203D01*
X513Y203D02*
X515Y203D01*
X945Y203D02*
X952Y203D01*
X0Y202D02*
X7Y202D01*
X90Y202D02*
X95Y202D01*
X121Y202D02*
X137Y202D01*
X163Y202D02*
X166Y202D01*
X235Y202D02*
X238Y202D01*
X262Y202D02*
X284Y202D01*
X298Y202D02*
X300Y202D01*
X315Y202D02*
X321Y202D01*
X341Y202D02*
X343Y202D01*
X413Y202D02*
X415Y202D01*
X423Y202D02*
X429Y202D01*
X441Y202D02*
X443Y202D01*
X513Y202D02*
X515Y202D01*
X517Y202D02*
X533Y202D01*
X550Y202D02*
X553Y202D01*
X567Y202D02*
X573Y202D01*
X586Y202D02*
X600Y202D01*
X661Y202D02*
X679Y202D01*
X694Y202D02*
X708Y202D01*
X730Y202D02*
X733Y202D01*
X750Y202D02*
X753Y202D01*
X805Y202D02*
X823Y202D01*
X847Y202D02*
X861Y202D01*
X874Y202D02*
X897Y202D01*
X945Y202D02*
X952Y202D01*
X0Y201D02*
X7Y201D01*
X89Y201D02*
X97Y201D01*
X119Y201D02*
X138Y201D01*
X163Y201D02*
X167Y201D01*
X235Y201D02*
X239Y201D01*
X261Y201D02*
X285Y201D01*
X297Y201D02*
X301Y201D01*
X314Y201D02*
X321Y201D01*
X341Y201D02*
X343Y201D01*
X413Y201D02*
X415Y201D01*
X422Y201D02*
X429Y201D01*
X441Y201D02*
X443Y201D01*
X513Y201D02*
X535Y201D01*
X549Y201D02*
X553Y201D01*
X567Y201D02*
X573Y201D01*
X585Y201D02*
X601Y201D01*
X660Y201D02*
X680Y201D01*
X694Y201D02*
X709Y201D01*
X730Y201D02*
X733Y201D01*
X749Y201D02*
X753Y201D01*
X804Y201D02*
X824Y201D01*
X846Y201D02*
X861Y201D01*
X874Y201D02*
X897Y201D01*
X945Y201D02*
X952Y201D01*
X0Y200D02*
X7Y200D01*
X88Y200D02*
X97Y200D01*
X118Y200D02*
X139Y200D01*
X163Y200D02*
X167Y200D01*
X234Y200D02*
X239Y200D01*
X261Y200D02*
X285Y200D01*
X297Y200D02*
X301Y200D01*
X314Y200D02*
X321Y200D01*
X341Y200D02*
X343Y200D01*
X413Y200D02*
X415Y200D01*
X422Y200D02*
X429Y200D01*
X441Y200D02*
X443Y200D01*
X513Y200D02*
X535Y200D01*
X549Y200D02*
X553Y200D01*
X566Y200D02*
X573Y200D01*
X585Y200D02*
X602Y200D01*
X659Y200D02*
X680Y200D01*
X694Y200D02*
X710Y200D01*
X730Y200D02*
X734Y200D01*
X749Y200D02*
X753Y200D01*
X803Y200D02*
X825Y200D01*
X845Y200D02*
X861Y200D01*
X874Y200D02*
X897Y200D01*
X945Y200D02*
X952Y200D01*
X0Y199D02*
X7Y199D01*
X87Y199D02*
X98Y199D01*
X118Y199D02*
X140Y199D01*
X163Y199D02*
X167Y199D01*
X234Y199D02*
X240Y199D01*
X261Y199D02*
X284Y199D01*
X297Y199D02*
X301Y199D01*
X313Y199D02*
X321Y199D01*
X341Y199D02*
X343Y199D01*
X413Y199D02*
X415Y199D01*
X422Y199D02*
X429Y199D01*
X441Y199D02*
X443Y199D01*
X513Y199D02*
X536Y199D01*
X549Y199D02*
X553Y199D01*
X566Y199D02*
X573Y199D01*
X586Y199D02*
X603Y199D01*
X658Y199D02*
X681Y199D01*
X694Y199D02*
X711Y199D01*
X730Y199D02*
X734Y199D01*
X749Y199D02*
X753Y199D01*
X802Y199D02*
X825Y199D01*
X844Y199D02*
X861Y199D01*
X874Y199D02*
X897Y199D01*
X945Y199D02*
X952Y199D01*
X0Y198D02*
X7Y198D01*
X87Y198D02*
X99Y198D01*
X117Y198D02*
X140Y198D01*
X163Y198D02*
X167Y198D01*
X234Y198D02*
X240Y198D01*
X263Y198D02*
X283Y198D01*
X297Y198D02*
X301Y198D01*
X313Y198D02*
X321Y198D01*
X341Y198D02*
X343Y198D01*
X413Y198D02*
X415Y198D01*
X421Y198D02*
X429Y198D01*
X441Y198D02*
X443Y198D01*
X513Y198D02*
X537Y198D01*
X549Y198D02*
X553Y198D01*
X565Y198D02*
X573Y198D01*
X587Y198D02*
X603Y198D01*
X658Y198D02*
X681Y198D01*
X696Y198D02*
X711Y198D01*
X730Y198D02*
X734Y198D01*
X749Y198D02*
X753Y198D01*
X802Y198D02*
X825Y198D01*
X844Y198D02*
X859Y198D01*
X874Y198D02*
X896Y198D01*
X945Y198D02*
X952Y198D01*
X0Y197D02*
X7Y197D01*
X86Y197D02*
X91Y197D01*
X94Y197D02*
X99Y197D01*
X117Y197D02*
X121Y197D01*
X136Y197D02*
X140Y197D01*
X163Y197D02*
X167Y197D01*
X233Y197D02*
X240Y197D01*
X271Y197D02*
X275Y197D01*
X297Y197D02*
X301Y197D01*
X313Y197D02*
X321Y197D01*
X341Y197D02*
X415Y197D01*
X421Y197D02*
X429Y197D01*
X441Y197D02*
X518Y197D01*
X532Y197D02*
X537Y197D01*
X549Y197D02*
X553Y197D01*
X565Y197D02*
X573Y197D01*
X590Y197D02*
X594Y197D01*
X599Y197D02*
X604Y197D01*
X658Y197D02*
X662Y197D01*
X677Y197D02*
X681Y197D01*
X698Y197D02*
X702Y197D01*
X707Y197D02*
X712Y197D01*
X730Y197D02*
X735Y197D01*
X748Y197D02*
X752Y197D01*
X802Y197D02*
X806Y197D01*
X821Y197D02*
X825Y197D01*
X843Y197D02*
X848Y197D01*
X874Y197D02*
X878Y197D01*
X945Y197D02*
X952Y197D01*
X0Y196D02*
X7Y196D01*
X86Y196D02*
X90Y196D01*
X95Y196D02*
X100Y196D01*
X117Y196D02*
X121Y196D01*
X136Y196D02*
X141Y196D01*
X163Y196D02*
X167Y196D01*
X233Y196D02*
X241Y196D01*
X271Y196D02*
X275Y196D01*
X297Y196D02*
X301Y196D01*
X312Y196D02*
X321Y196D01*
X341Y196D02*
X415Y196D01*
X420Y196D02*
X429Y196D01*
X441Y196D02*
X517Y196D01*
X533Y196D02*
X537Y196D01*
X549Y196D02*
X553Y196D01*
X564Y196D02*
X573Y196D01*
X590Y196D02*
X594Y196D01*
X600Y196D02*
X604Y196D01*
X658Y196D02*
X661Y196D01*
X676Y196D02*
X681Y196D01*
X698Y196D02*
X702Y196D01*
X708Y196D02*
X712Y196D01*
X731Y196D02*
X735Y196D01*
X748Y196D02*
X752Y196D01*
X802Y196D02*
X806Y196D01*
X820Y196D02*
X825Y196D01*
X843Y196D02*
X847Y196D01*
X874Y196D02*
X878Y196D01*
X945Y196D02*
X952Y196D01*
X0Y195D02*
X7Y195D01*
X85Y195D02*
X90Y195D01*
X96Y195D02*
X100Y195D01*
X117Y195D02*
X121Y195D01*
X137Y195D02*
X141Y195D01*
X163Y195D02*
X167Y195D01*
X232Y195D02*
X241Y195D01*
X271Y195D02*
X275Y195D01*
X297Y195D02*
X301Y195D01*
X312Y195D02*
X321Y195D01*
X341Y195D02*
X415Y195D01*
X420Y195D02*
X429Y195D01*
X441Y195D02*
X517Y195D01*
X533Y195D02*
X537Y195D01*
X549Y195D02*
X553Y195D01*
X564Y195D02*
X573Y195D01*
X590Y195D02*
X594Y195D01*
X600Y195D02*
X605Y195D01*
X658Y195D02*
X661Y195D01*
X676Y195D02*
X681Y195D01*
X698Y195D02*
X702Y195D01*
X708Y195D02*
X713Y195D01*
X731Y195D02*
X735Y195D01*
X748Y195D02*
X752Y195D01*
X802Y195D02*
X805Y195D01*
X820Y195D02*
X825Y195D01*
X842Y195D02*
X847Y195D01*
X874Y195D02*
X878Y195D01*
X945Y195D02*
X952Y195D01*
X0Y194D02*
X7Y194D01*
X85Y194D02*
X89Y194D01*
X96Y194D02*
X101Y194D01*
X117Y194D02*
X121Y194D01*
X137Y194D02*
X141Y194D01*
X163Y194D02*
X167Y194D01*
X232Y194D02*
X242Y194D01*
X271Y194D02*
X275Y194D01*
X297Y194D02*
X301Y194D01*
X311Y194D02*
X321Y194D01*
X369Y194D02*
X373Y194D01*
X389Y194D02*
X393Y194D01*
X405Y194D02*
X409Y194D01*
X419Y194D02*
X429Y194D01*
X446Y194D02*
X450Y194D01*
X456Y194D02*
X461Y194D01*
X513Y194D02*
X517Y194D01*
X533Y194D02*
X537Y194D01*
X549Y194D02*
X553Y194D01*
X564Y194D02*
X573Y194D01*
X590Y194D02*
X594Y194D01*
X601Y194D02*
X605Y194D01*
X659Y194D02*
X660Y194D01*
X675Y194D02*
X680Y194D01*
X698Y194D02*
X702Y194D01*
X709Y194D02*
X713Y194D01*
X731Y194D02*
X752Y194D01*
X803Y194D02*
X804Y194D01*
X819Y194D02*
X824Y194D01*
X842Y194D02*
X846Y194D01*
X874Y194D02*
X878Y194D01*
X945Y194D02*
X952Y194D01*
X0Y193D02*
X7Y193D01*
X84Y193D02*
X89Y193D01*
X97Y193D02*
X101Y193D01*
X117Y193D02*
X121Y193D01*
X137Y193D02*
X141Y193D01*
X163Y193D02*
X167Y193D01*
X232Y193D02*
X242Y193D01*
X271Y193D02*
X275Y193D01*
X297Y193D02*
X301Y193D01*
X311Y193D02*
X321Y193D01*
X369Y193D02*
X373Y193D01*
X389Y193D02*
X393Y193D01*
X405Y193D02*
X409Y193D01*
X419Y193D02*
X429Y193D01*
X446Y193D02*
X450Y193D01*
X457Y193D02*
X462Y193D01*
X513Y193D02*
X517Y193D01*
X533Y193D02*
X537Y193D01*
X549Y193D02*
X553Y193D01*
X563Y193D02*
X573Y193D01*
X590Y193D02*
X594Y193D01*
X601Y193D02*
X606Y193D01*
X674Y193D02*
X679Y193D01*
X698Y193D02*
X702Y193D01*
X709Y193D02*
X714Y193D01*
X732Y193D02*
X751Y193D01*
X818Y193D02*
X824Y193D01*
X841Y193D02*
X846Y193D01*
X874Y193D02*
X878Y193D01*
X945Y193D02*
X952Y193D01*
X0Y192D02*
X7Y192D01*
X84Y192D02*
X88Y192D01*
X97Y192D02*
X102Y192D01*
X117Y192D02*
X121Y192D01*
X137Y192D02*
X141Y192D01*
X163Y192D02*
X167Y192D01*
X231Y192D02*
X236Y192D01*
X238Y192D02*
X242Y192D01*
X271Y192D02*
X275Y192D01*
X297Y192D02*
X301Y192D01*
X310Y192D02*
X315Y192D01*
X317Y192D02*
X321Y192D01*
X369Y192D02*
X373Y192D01*
X389Y192D02*
X393Y192D01*
X405Y192D02*
X409Y192D01*
X418Y192D02*
X423Y192D01*
X425Y192D02*
X429Y192D01*
X446Y192D02*
X450Y192D01*
X457Y192D02*
X462Y192D01*
X513Y192D02*
X517Y192D01*
X533Y192D02*
X537Y192D01*
X549Y192D02*
X553Y192D01*
X563Y192D02*
X567Y192D01*
X569Y192D02*
X573Y192D01*
X590Y192D02*
X594Y192D01*
X602Y192D02*
X606Y192D01*
X673Y192D02*
X679Y192D01*
X698Y192D02*
X702Y192D01*
X710Y192D02*
X714Y192D01*
X732Y192D02*
X751Y192D01*
X817Y192D02*
X823Y192D01*
X841Y192D02*
X845Y192D01*
X874Y192D02*
X878Y192D01*
X945Y192D02*
X952Y192D01*
X0Y191D02*
X7Y191D01*
X83Y191D02*
X88Y191D01*
X98Y191D02*
X102Y191D01*
X117Y191D02*
X121Y191D01*
X137Y191D02*
X141Y191D01*
X163Y191D02*
X167Y191D01*
X231Y191D02*
X235Y191D01*
X238Y191D02*
X243Y191D01*
X271Y191D02*
X275Y191D01*
X297Y191D02*
X301Y191D01*
X310Y191D02*
X314Y191D01*
X317Y191D02*
X321Y191D01*
X369Y191D02*
X373Y191D01*
X389Y191D02*
X393Y191D01*
X405Y191D02*
X409Y191D01*
X418Y191D02*
X423Y191D01*
X425Y191D02*
X429Y191D01*
X446Y191D02*
X450Y191D01*
X458Y191D02*
X463Y191D01*
X513Y191D02*
X517Y191D01*
X533Y191D02*
X537Y191D01*
X549Y191D02*
X553Y191D01*
X562Y191D02*
X567Y191D01*
X569Y191D02*
X573Y191D01*
X590Y191D02*
X594Y191D01*
X602Y191D02*
X607Y191D01*
X672Y191D02*
X678Y191D01*
X698Y191D02*
X702Y191D01*
X710Y191D02*
X715Y191D01*
X732Y191D02*
X751Y191D01*
X817Y191D02*
X822Y191D01*
X840Y191D02*
X845Y191D01*
X874Y191D02*
X878Y191D01*
X945Y191D02*
X952Y191D01*
X0Y190D02*
X7Y190D01*
X83Y190D02*
X87Y190D01*
X98Y190D02*
X103Y190D01*
X117Y190D02*
X121Y190D01*
X137Y190D02*
X141Y190D01*
X163Y190D02*
X167Y190D01*
X230Y190D02*
X235Y190D01*
X239Y190D02*
X243Y190D01*
X271Y190D02*
X275Y190D01*
X297Y190D02*
X301Y190D01*
X309Y190D02*
X314Y190D01*
X317Y190D02*
X321Y190D01*
X369Y190D02*
X373Y190D01*
X383Y190D02*
X393Y190D01*
X405Y190D02*
X409Y190D01*
X418Y190D02*
X422Y190D01*
X425Y190D02*
X429Y190D01*
X446Y190D02*
X450Y190D01*
X458Y190D02*
X463Y190D01*
X513Y190D02*
X517Y190D01*
X527Y190D02*
X537Y190D01*
X549Y190D02*
X553Y190D01*
X562Y190D02*
X566Y190D01*
X569Y190D02*
X573Y190D01*
X590Y190D02*
X594Y190D01*
X603Y190D02*
X607Y190D01*
X672Y190D02*
X677Y190D01*
X698Y190D02*
X702Y190D01*
X711Y190D02*
X715Y190D01*
X732Y190D02*
X750Y190D01*
X816Y190D02*
X821Y190D01*
X840Y190D02*
X844Y190D01*
X874Y190D02*
X878Y190D01*
X945Y190D02*
X952Y190D01*
X0Y189D02*
X7Y189D01*
X82Y189D02*
X87Y189D01*
X98Y189D02*
X103Y189D01*
X117Y189D02*
X121Y189D01*
X137Y189D02*
X141Y189D01*
X163Y189D02*
X167Y189D01*
X230Y189D02*
X235Y189D01*
X239Y189D02*
X243Y189D01*
X271Y189D02*
X275Y189D01*
X297Y189D02*
X301Y189D01*
X309Y189D02*
X314Y189D01*
X317Y189D02*
X321Y189D01*
X369Y189D02*
X373Y189D01*
X382Y189D02*
X393Y189D01*
X405Y189D02*
X409Y189D01*
X417Y189D02*
X422Y189D01*
X425Y189D02*
X429Y189D01*
X446Y189D02*
X450Y189D01*
X459Y189D02*
X464Y189D01*
X513Y189D02*
X517Y189D01*
X526Y189D02*
X537Y189D01*
X549Y189D02*
X553Y189D01*
X561Y189D02*
X566Y189D01*
X569Y189D02*
X573Y189D01*
X590Y189D02*
X594Y189D01*
X603Y189D02*
X608Y189D01*
X671Y189D02*
X676Y189D01*
X698Y189D02*
X702Y189D01*
X711Y189D02*
X716Y189D01*
X733Y189D02*
X737Y189D01*
X746Y189D02*
X750Y189D01*
X815Y189D02*
X821Y189D01*
X839Y189D02*
X844Y189D01*
X874Y189D02*
X878Y189D01*
X945Y189D02*
X952Y189D01*
X0Y188D02*
X7Y188D01*
X82Y188D02*
X86Y188D01*
X99Y188D02*
X104Y188D01*
X117Y188D02*
X121Y188D01*
X137Y188D02*
X141Y188D01*
X163Y188D02*
X167Y188D01*
X230Y188D02*
X234Y188D01*
X239Y188D02*
X244Y188D01*
X271Y188D02*
X275Y188D01*
X297Y188D02*
X301Y188D01*
X309Y188D02*
X313Y188D01*
X317Y188D02*
X321Y188D01*
X369Y188D02*
X373Y188D01*
X382Y188D02*
X393Y188D01*
X405Y188D02*
X409Y188D01*
X417Y188D02*
X421Y188D01*
X425Y188D02*
X429Y188D01*
X446Y188D02*
X450Y188D01*
X459Y188D02*
X464Y188D01*
X513Y188D02*
X517Y188D01*
X526Y188D02*
X537Y188D01*
X549Y188D02*
X553Y188D01*
X561Y188D02*
X565Y188D01*
X569Y188D02*
X573Y188D01*
X590Y188D02*
X594Y188D01*
X604Y188D02*
X608Y188D01*
X670Y188D02*
X676Y188D01*
X698Y188D02*
X702Y188D01*
X712Y188D02*
X716Y188D01*
X733Y188D02*
X737Y188D01*
X746Y188D02*
X750Y188D01*
X814Y188D02*
X820Y188D01*
X839Y188D02*
X843Y188D01*
X874Y188D02*
X878Y188D01*
X945Y188D02*
X952Y188D01*
X0Y187D02*
X7Y187D01*
X81Y187D02*
X86Y187D01*
X99Y187D02*
X104Y187D01*
X117Y187D02*
X121Y187D01*
X137Y187D02*
X141Y187D01*
X163Y187D02*
X167Y187D01*
X229Y187D02*
X234Y187D01*
X240Y187D02*
X244Y187D01*
X271Y187D02*
X275Y187D01*
X297Y187D02*
X301Y187D01*
X308Y187D02*
X313Y187D01*
X317Y187D02*
X321Y187D01*
X369Y187D02*
X373Y187D01*
X382Y187D02*
X393Y187D01*
X405Y187D02*
X409Y187D01*
X416Y187D02*
X421Y187D01*
X425Y187D02*
X429Y187D01*
X446Y187D02*
X450Y187D01*
X460Y187D02*
X464Y187D01*
X513Y187D02*
X517Y187D01*
X526Y187D02*
X537Y187D01*
X549Y187D02*
X553Y187D01*
X560Y187D02*
X565Y187D01*
X569Y187D02*
X573Y187D01*
X590Y187D02*
X594Y187D01*
X604Y187D02*
X609Y187D01*
X669Y187D02*
X675Y187D01*
X698Y187D02*
X702Y187D01*
X712Y187D02*
X717Y187D01*
X733Y187D02*
X738Y187D01*
X745Y187D02*
X750Y187D01*
X813Y187D02*
X819Y187D01*
X838Y187D02*
X843Y187D01*
X874Y187D02*
X878Y187D01*
X945Y187D02*
X952Y187D01*
X0Y186D02*
X7Y186D01*
X81Y186D02*
X85Y186D01*
X100Y186D02*
X104Y186D01*
X117Y186D02*
X121Y186D01*
X137Y186D02*
X141Y186D01*
X163Y186D02*
X167Y186D01*
X229Y186D02*
X233Y186D01*
X240Y186D02*
X245Y186D01*
X271Y186D02*
X275Y186D01*
X297Y186D02*
X301Y186D01*
X308Y186D02*
X312Y186D01*
X317Y186D02*
X321Y186D01*
X369Y186D02*
X373Y186D01*
X382Y186D02*
X393Y186D01*
X405Y186D02*
X409Y186D01*
X416Y186D02*
X420Y186D01*
X425Y186D02*
X429Y186D01*
X446Y186D02*
X450Y186D01*
X460Y186D02*
X465Y186D01*
X513Y186D02*
X517Y186D01*
X526Y186D02*
X537Y186D01*
X549Y186D02*
X553Y186D01*
X560Y186D02*
X565Y186D01*
X569Y186D02*
X573Y186D01*
X590Y186D02*
X594Y186D01*
X605Y186D02*
X609Y186D01*
X669Y186D02*
X674Y186D01*
X698Y186D02*
X702Y186D01*
X713Y186D02*
X717Y186D01*
X734Y186D02*
X738Y186D01*
X745Y186D02*
X749Y186D01*
X813Y186D02*
X818Y186D01*
X838Y186D02*
X842Y186D01*
X874Y186D02*
X878Y186D01*
X945Y186D02*
X952Y186D01*
X0Y185D02*
X7Y185D01*
X81Y185D02*
X85Y185D01*
X100Y185D02*
X104Y185D01*
X117Y185D02*
X121Y185D01*
X137Y185D02*
X141Y185D01*
X163Y185D02*
X167Y185D01*
X229Y185D02*
X233Y185D01*
X241Y185D02*
X245Y185D01*
X271Y185D02*
X275Y185D01*
X297Y185D02*
X301Y185D01*
X307Y185D02*
X312Y185D01*
X317Y185D02*
X321Y185D01*
X369Y185D02*
X373Y185D01*
X405Y185D02*
X409Y185D01*
X415Y185D02*
X420Y185D01*
X425Y185D02*
X429Y185D01*
X446Y185D02*
X450Y185D01*
X461Y185D02*
X465Y185D01*
X513Y185D02*
X517Y185D01*
X549Y185D02*
X553Y185D01*
X560Y185D02*
X564Y185D01*
X569Y185D02*
X573Y185D01*
X590Y185D02*
X594Y185D01*
X605Y185D02*
X609Y185D01*
X668Y185D02*
X673Y185D01*
X698Y185D02*
X702Y185D01*
X713Y185D02*
X717Y185D01*
X734Y185D02*
X738Y185D01*
X745Y185D02*
X749Y185D01*
X812Y185D02*
X817Y185D01*
X838Y185D02*
X842Y185D01*
X874Y185D02*
X878Y185D01*
X945Y185D02*
X952Y185D01*
X0Y184D02*
X7Y184D01*
X81Y184D02*
X85Y184D01*
X100Y184D02*
X104Y184D01*
X117Y184D02*
X121Y184D01*
X137Y184D02*
X141Y184D01*
X163Y184D02*
X167Y184D01*
X228Y184D02*
X233Y184D01*
X241Y184D02*
X245Y184D01*
X271Y184D02*
X275Y184D01*
X297Y184D02*
X301Y184D01*
X307Y184D02*
X311Y184D01*
X317Y184D02*
X321Y184D01*
X369Y184D02*
X373Y184D01*
X405Y184D02*
X409Y184D01*
X415Y184D02*
X420Y184D01*
X425Y184D02*
X429Y184D01*
X446Y184D02*
X450Y184D01*
X461Y184D02*
X465Y184D01*
X513Y184D02*
X517Y184D01*
X549Y184D02*
X553Y184D01*
X559Y184D02*
X564Y184D01*
X569Y184D02*
X573Y184D01*
X590Y184D02*
X594Y184D01*
X605Y184D02*
X609Y184D01*
X667Y184D02*
X672Y184D01*
X698Y184D02*
X702Y184D01*
X713Y184D02*
X717Y184D01*
X734Y184D02*
X738Y184D01*
X744Y184D02*
X749Y184D01*
X811Y184D02*
X817Y184D01*
X838Y184D02*
X842Y184D01*
X874Y184D02*
X878Y184D01*
X945Y184D02*
X952Y184D01*
X0Y183D02*
X7Y183D01*
X81Y183D02*
X85Y183D01*
X100Y183D02*
X104Y183D01*
X117Y183D02*
X121Y183D01*
X137Y183D02*
X141Y183D01*
X163Y183D02*
X167Y183D01*
X228Y183D02*
X232Y183D01*
X241Y183D02*
X246Y183D01*
X271Y183D02*
X275Y183D01*
X297Y183D02*
X301Y183D01*
X306Y183D02*
X311Y183D01*
X317Y183D02*
X321Y183D01*
X369Y183D02*
X373Y183D01*
X405Y183D02*
X409Y183D01*
X415Y183D02*
X419Y183D01*
X425Y183D02*
X429Y183D01*
X446Y183D02*
X450Y183D01*
X461Y183D02*
X465Y183D01*
X513Y183D02*
X517Y183D01*
X549Y183D02*
X553Y183D01*
X559Y183D02*
X563Y183D01*
X569Y183D02*
X573Y183D01*
X590Y183D02*
X594Y183D01*
X605Y183D02*
X609Y183D01*
X666Y183D02*
X672Y183D01*
X698Y183D02*
X702Y183D01*
X713Y183D02*
X717Y183D01*
X735Y183D02*
X739Y183D01*
X744Y183D02*
X748Y183D01*
X810Y183D02*
X816Y183D01*
X838Y183D02*
X842Y183D01*
X874Y183D02*
X878Y183D01*
X945Y183D02*
X952Y183D01*
X0Y182D02*
X7Y182D01*
X81Y182D02*
X85Y182D01*
X100Y182D02*
X104Y182D01*
X117Y182D02*
X121Y182D01*
X137Y182D02*
X141Y182D01*
X163Y182D02*
X167Y182D01*
X227Y182D02*
X232Y182D01*
X242Y182D02*
X246Y182D01*
X271Y182D02*
X275Y182D01*
X297Y182D02*
X301Y182D01*
X306Y182D02*
X310Y182D01*
X317Y182D02*
X321Y182D01*
X369Y182D02*
X373Y182D01*
X405Y182D02*
X409Y182D01*
X414Y182D02*
X419Y182D01*
X425Y182D02*
X429Y182D01*
X446Y182D02*
X450Y182D01*
X461Y182D02*
X465Y182D01*
X513Y182D02*
X517Y182D01*
X549Y182D02*
X553Y182D01*
X558Y182D02*
X563Y182D01*
X569Y182D02*
X573Y182D01*
X590Y182D02*
X594Y182D01*
X605Y182D02*
X609Y182D01*
X665Y182D02*
X671Y182D01*
X698Y182D02*
X702Y182D01*
X713Y182D02*
X717Y182D01*
X735Y182D02*
X739Y182D01*
X744Y182D02*
X748Y182D01*
X810Y182D02*
X815Y182D01*
X838Y182D02*
X842Y182D01*
X874Y182D02*
X878Y182D01*
X945Y182D02*
X952Y182D01*
X0Y181D02*
X7Y181D01*
X81Y181D02*
X85Y181D01*
X100Y181D02*
X104Y181D01*
X117Y181D02*
X121Y181D01*
X137Y181D02*
X141Y181D01*
X163Y181D02*
X167Y181D01*
X227Y181D02*
X231Y181D01*
X242Y181D02*
X247Y181D01*
X271Y181D02*
X275Y181D01*
X297Y181D02*
X301Y181D01*
X306Y181D02*
X310Y181D01*
X317Y181D02*
X321Y181D01*
X369Y181D02*
X373Y181D01*
X405Y181D02*
X409Y181D01*
X414Y181D02*
X418Y181D01*
X425Y181D02*
X429Y181D01*
X446Y181D02*
X450Y181D01*
X460Y181D02*
X465Y181D01*
X513Y181D02*
X517Y181D01*
X549Y181D02*
X553Y181D01*
X558Y181D02*
X562Y181D01*
X569Y181D02*
X573Y181D01*
X590Y181D02*
X594Y181D01*
X605Y181D02*
X609Y181D01*
X665Y181D02*
X670Y181D01*
X698Y181D02*
X702Y181D01*
X713Y181D02*
X717Y181D01*
X735Y181D02*
X739Y181D01*
X744Y181D02*
X748Y181D01*
X809Y181D02*
X814Y181D01*
X838Y181D02*
X842Y181D01*
X874Y181D02*
X878Y181D01*
X945Y181D02*
X952Y181D01*
X0Y180D02*
X7Y180D01*
X81Y180D02*
X86Y180D01*
X99Y180D02*
X104Y180D01*
X117Y180D02*
X121Y180D01*
X137Y180D02*
X141Y180D01*
X163Y180D02*
X167Y180D01*
X227Y180D02*
X231Y180D01*
X243Y180D02*
X247Y180D01*
X271Y180D02*
X275Y180D01*
X297Y180D02*
X301Y180D01*
X305Y180D02*
X310Y180D01*
X317Y180D02*
X321Y180D01*
X369Y180D02*
X374Y180D01*
X405Y180D02*
X409Y180D01*
X413Y180D02*
X418Y180D01*
X425Y180D02*
X429Y180D01*
X446Y180D02*
X450Y180D01*
X460Y180D02*
X464Y180D01*
X513Y180D02*
X518Y180D01*
X549Y180D02*
X553Y180D01*
X557Y180D02*
X562Y180D01*
X569Y180D02*
X573Y180D01*
X590Y180D02*
X594Y180D01*
X604Y180D02*
X609Y180D01*
X664Y180D02*
X669Y180D01*
X698Y180D02*
X702Y180D01*
X712Y180D02*
X717Y180D01*
X735Y180D02*
X740Y180D01*
X743Y180D02*
X747Y180D01*
X808Y180D02*
X814Y180D01*
X838Y180D02*
X843Y180D01*
X874Y180D02*
X878Y180D01*
X945Y180D02*
X952Y180D01*
X0Y179D02*
X7Y179D01*
X82Y179D02*
X86Y179D01*
X99Y179D02*
X104Y179D01*
X117Y179D02*
X121Y179D01*
X137Y179D02*
X141Y179D01*
X163Y179D02*
X167Y179D01*
X226Y179D02*
X231Y179D01*
X243Y179D02*
X247Y179D01*
X271Y179D02*
X275Y179D01*
X297Y179D02*
X301Y179D01*
X305Y179D02*
X309Y179D01*
X317Y179D02*
X321Y179D01*
X370Y179D02*
X374Y179D01*
X405Y179D02*
X409Y179D01*
X413Y179D02*
X417Y179D01*
X425Y179D02*
X429Y179D01*
X446Y179D02*
X450Y179D01*
X459Y179D02*
X464Y179D01*
X514Y179D02*
X518Y179D01*
X549Y179D02*
X553Y179D01*
X557Y179D02*
X562Y179D01*
X569Y179D02*
X573Y179D01*
X590Y179D02*
X594Y179D01*
X604Y179D02*
X608Y179D01*
X663Y179D02*
X669Y179D01*
X698Y179D02*
X702Y179D01*
X712Y179D02*
X716Y179D01*
X736Y179D02*
X740Y179D01*
X743Y179D02*
X747Y179D01*
X807Y179D02*
X813Y179D01*
X839Y179D02*
X843Y179D01*
X874Y179D02*
X878Y179D01*
X945Y179D02*
X952Y179D01*
X0Y178D02*
X7Y178D01*
X82Y178D02*
X87Y178D01*
X98Y178D02*
X103Y178D01*
X117Y178D02*
X121Y178D01*
X137Y178D02*
X141Y178D01*
X163Y178D02*
X167Y178D01*
X226Y178D02*
X230Y178D01*
X243Y178D02*
X248Y178D01*
X271Y178D02*
X275Y178D01*
X297Y178D02*
X301Y178D01*
X304Y178D02*
X309Y178D01*
X317Y178D02*
X321Y178D01*
X370Y178D02*
X375Y178D01*
X405Y178D02*
X409Y178D01*
X412Y178D02*
X417Y178D01*
X425Y178D02*
X429Y178D01*
X446Y178D02*
X450Y178D01*
X459Y178D02*
X464Y178D01*
X514Y178D02*
X519Y178D01*
X549Y178D02*
X553Y178D01*
X557Y178D02*
X561Y178D01*
X569Y178D02*
X573Y178D01*
X590Y178D02*
X594Y178D01*
X603Y178D02*
X608Y178D01*
X662Y178D02*
X668Y178D01*
X698Y178D02*
X702Y178D01*
X711Y178D02*
X716Y178D01*
X736Y178D02*
X740Y178D01*
X743Y178D02*
X747Y178D01*
X806Y178D02*
X812Y178D01*
X839Y178D02*
X844Y178D01*
X874Y178D02*
X878Y178D01*
X945Y178D02*
X952Y178D01*
X0Y177D02*
X7Y177D01*
X83Y177D02*
X87Y177D01*
X98Y177D02*
X103Y177D01*
X117Y177D02*
X121Y177D01*
X137Y177D02*
X141Y177D01*
X163Y177D02*
X167Y177D01*
X225Y177D02*
X230Y177D01*
X244Y177D02*
X248Y177D01*
X271Y177D02*
X275Y177D01*
X297Y177D02*
X301Y177D01*
X304Y177D02*
X308Y177D01*
X317Y177D02*
X321Y177D01*
X370Y177D02*
X376Y177D01*
X405Y177D02*
X409Y177D01*
X412Y177D02*
X416Y177D01*
X425Y177D02*
X429Y177D01*
X446Y177D02*
X450Y177D01*
X458Y177D02*
X463Y177D01*
X515Y177D02*
X520Y177D01*
X549Y177D02*
X553Y177D01*
X556Y177D02*
X561Y177D01*
X569Y177D02*
X573Y177D01*
X590Y177D02*
X594Y177D01*
X603Y177D02*
X607Y177D01*
X662Y177D02*
X667Y177D01*
X698Y177D02*
X702Y177D01*
X711Y177D02*
X715Y177D01*
X736Y177D02*
X747Y177D01*
X806Y177D02*
X811Y177D01*
X840Y177D02*
X844Y177D01*
X874Y177D02*
X878Y177D01*
X945Y177D02*
X952Y177D01*
X0Y176D02*
X7Y176D01*
X83Y176D02*
X88Y176D01*
X97Y176D02*
X102Y176D01*
X117Y176D02*
X121Y176D01*
X137Y176D02*
X141Y176D01*
X163Y176D02*
X167Y176D01*
X225Y176D02*
X229Y176D01*
X244Y176D02*
X249Y176D01*
X271Y176D02*
X275Y176D01*
X297Y176D02*
X301Y176D01*
X303Y176D02*
X308Y176D01*
X317Y176D02*
X321Y176D01*
X371Y176D02*
X376Y176D01*
X405Y176D02*
X409Y176D01*
X411Y176D02*
X416Y176D01*
X425Y176D02*
X429Y176D01*
X446Y176D02*
X450Y176D01*
X458Y176D02*
X463Y176D01*
X515Y176D02*
X521Y176D01*
X549Y176D02*
X553Y176D01*
X556Y176D02*
X560Y176D01*
X569Y176D02*
X573Y176D01*
X590Y176D02*
X594Y176D01*
X602Y176D02*
X607Y176D01*
X661Y176D02*
X666Y176D01*
X698Y176D02*
X702Y176D01*
X710Y176D02*
X715Y176D01*
X737Y176D02*
X746Y176D01*
X805Y176D02*
X810Y176D01*
X840Y176D02*
X845Y176D01*
X874Y176D02*
X878Y176D01*
X945Y176D02*
X952Y176D01*
X0Y175D02*
X7Y175D01*
X84Y175D02*
X88Y175D01*
X97Y175D02*
X102Y175D01*
X117Y175D02*
X121Y175D01*
X137Y175D02*
X141Y175D01*
X163Y175D02*
X167Y175D01*
X225Y175D02*
X229Y175D01*
X245Y175D02*
X249Y175D01*
X271Y175D02*
X275Y175D01*
X297Y175D02*
X301Y175D01*
X303Y175D02*
X307Y175D01*
X317Y175D02*
X321Y175D01*
X372Y175D02*
X377Y175D01*
X405Y175D02*
X409Y175D01*
X411Y175D02*
X416Y175D01*
X425Y175D02*
X429Y175D01*
X446Y175D02*
X450Y175D01*
X457Y175D02*
X462Y175D01*
X516Y175D02*
X521Y175D01*
X549Y175D02*
X553Y175D01*
X555Y175D02*
X560Y175D01*
X569Y175D02*
X573Y175D01*
X590Y175D02*
X594Y175D01*
X602Y175D02*
X606Y175D01*
X660Y175D02*
X665Y175D01*
X698Y175D02*
X702Y175D01*
X710Y175D02*
X714Y175D01*
X737Y175D02*
X746Y175D01*
X804Y175D02*
X810Y175D01*
X841Y175D02*
X845Y175D01*
X874Y175D02*
X878Y175D01*
X945Y175D02*
X952Y175D01*
X0Y174D02*
X7Y174D01*
X84Y174D02*
X89Y174D01*
X96Y174D02*
X101Y174D01*
X117Y174D02*
X121Y174D01*
X137Y174D02*
X141Y174D01*
X163Y174D02*
X167Y174D01*
X225Y174D02*
X229Y174D01*
X245Y174D02*
X249Y174D01*
X271Y174D02*
X275Y174D01*
X297Y174D02*
X307Y174D01*
X317Y174D02*
X321Y174D01*
X373Y174D02*
X378Y174D01*
X405Y174D02*
X415Y174D01*
X425Y174D02*
X429Y174D01*
X446Y174D02*
X450Y174D01*
X457Y174D02*
X462Y174D01*
X517Y174D02*
X522Y174D01*
X549Y174D02*
X559Y174D01*
X569Y174D02*
X573Y174D01*
X590Y174D02*
X594Y174D01*
X601Y174D02*
X606Y174D01*
X659Y174D02*
X665Y174D01*
X698Y174D02*
X702Y174D01*
X709Y174D02*
X714Y174D01*
X737Y174D02*
X746Y174D01*
X803Y174D02*
X809Y174D01*
X841Y174D02*
X846Y174D01*
X874Y174D02*
X878Y174D01*
X945Y174D02*
X952Y174D01*
X0Y173D02*
X7Y173D01*
X85Y173D02*
X89Y173D01*
X96Y173D02*
X101Y173D01*
X117Y173D02*
X121Y173D01*
X137Y173D02*
X141Y173D01*
X154Y173D02*
X155Y173D01*
X163Y173D02*
X167Y173D01*
X174Y173D02*
X175Y173D01*
X225Y173D02*
X229Y173D01*
X245Y173D02*
X249Y173D01*
X271Y173D02*
X275Y173D01*
X297Y173D02*
X307Y173D01*
X317Y173D02*
X321Y173D01*
X373Y173D02*
X379Y173D01*
X405Y173D02*
X415Y173D01*
X425Y173D02*
X429Y173D01*
X446Y173D02*
X450Y173D01*
X456Y173D02*
X461Y173D01*
X517Y173D02*
X523Y173D01*
X549Y173D02*
X559Y173D01*
X569Y173D02*
X573Y173D01*
X590Y173D02*
X594Y173D01*
X601Y173D02*
X605Y173D01*
X658Y173D02*
X664Y173D01*
X679Y173D02*
X680Y173D01*
X698Y173D02*
X702Y173D01*
X709Y173D02*
X713Y173D01*
X737Y173D02*
X745Y173D01*
X803Y173D02*
X808Y173D01*
X823Y173D02*
X824Y173D01*
X842Y173D02*
X846Y173D01*
X874Y173D02*
X878Y173D01*
X945Y173D02*
X952Y173D01*
X0Y172D02*
X7Y172D01*
X85Y172D02*
X90Y172D01*
X95Y172D02*
X100Y172D01*
X117Y172D02*
X121Y172D01*
X137Y172D02*
X141Y172D01*
X153Y172D02*
X156Y172D01*
X163Y172D02*
X167Y172D01*
X173Y172D02*
X176Y172D01*
X225Y172D02*
X229Y172D01*
X245Y172D02*
X249Y172D01*
X271Y172D02*
X275Y172D01*
X297Y172D02*
X306Y172D01*
X317Y172D02*
X321Y172D01*
X374Y172D02*
X379Y172D01*
X405Y172D02*
X414Y172D01*
X425Y172D02*
X429Y172D01*
X446Y172D02*
X450Y172D01*
X456Y172D02*
X461Y172D01*
X518Y172D02*
X524Y172D01*
X549Y172D02*
X558Y172D01*
X569Y172D02*
X573Y172D01*
X590Y172D02*
X594Y172D01*
X600Y172D02*
X605Y172D01*
X658Y172D02*
X663Y172D01*
X678Y172D02*
X681Y172D01*
X698Y172D02*
X702Y172D01*
X708Y172D02*
X713Y172D01*
X738Y172D02*
X745Y172D01*
X802Y172D02*
X807Y172D01*
X822Y172D02*
X825Y172D01*
X842Y172D02*
X847Y172D01*
X874Y172D02*
X878Y172D01*
X945Y172D02*
X952Y172D01*
X0Y171D02*
X7Y171D01*
X86Y171D02*
X90Y171D01*
X95Y171D02*
X100Y171D01*
X117Y171D02*
X121Y171D01*
X137Y171D02*
X141Y171D01*
X153Y171D02*
X157Y171D01*
X163Y171D02*
X167Y171D01*
X173Y171D02*
X177Y171D01*
X225Y171D02*
X229Y171D01*
X245Y171D02*
X249Y171D01*
X271Y171D02*
X275Y171D01*
X297Y171D02*
X306Y171D01*
X317Y171D02*
X321Y171D01*
X375Y171D02*
X380Y171D01*
X405Y171D02*
X414Y171D01*
X425Y171D02*
X429Y171D01*
X446Y171D02*
X450Y171D01*
X455Y171D02*
X460Y171D01*
X519Y171D02*
X524Y171D01*
X549Y171D02*
X558Y171D01*
X569Y171D02*
X573Y171D01*
X590Y171D02*
X594Y171D01*
X600Y171D02*
X604Y171D01*
X658Y171D02*
X662Y171D01*
X677Y171D02*
X681Y171D01*
X698Y171D02*
X702Y171D01*
X708Y171D02*
X712Y171D01*
X738Y171D02*
X745Y171D01*
X802Y171D02*
X807Y171D01*
X821Y171D02*
X825Y171D01*
X843Y171D02*
X847Y171D01*
X874Y171D02*
X878Y171D01*
X945Y171D02*
X952Y171D01*
X0Y170D02*
X7Y170D01*
X86Y170D02*
X91Y170D01*
X94Y170D02*
X99Y170D01*
X117Y170D02*
X121Y170D01*
X137Y170D02*
X141Y170D01*
X153Y170D02*
X157Y170D01*
X163Y170D02*
X167Y170D01*
X173Y170D02*
X177Y170D01*
X225Y170D02*
X229Y170D01*
X245Y170D02*
X249Y170D01*
X271Y170D02*
X275Y170D01*
X297Y170D02*
X305Y170D01*
X317Y170D02*
X321Y170D01*
X376Y170D02*
X381Y170D01*
X405Y170D02*
X413Y170D01*
X425Y170D02*
X429Y170D01*
X446Y170D02*
X450Y170D01*
X455Y170D02*
X460Y170D01*
X520Y170D02*
X525Y170D01*
X549Y170D02*
X558Y170D01*
X569Y170D02*
X573Y170D01*
X590Y170D02*
X594Y170D01*
X599Y170D02*
X604Y170D01*
X658Y170D02*
X662Y170D01*
X677Y170D02*
X681Y170D01*
X698Y170D02*
X702Y170D01*
X707Y170D02*
X712Y170D01*
X738Y170D02*
X745Y170D01*
X802Y170D02*
X806Y170D01*
X821Y170D02*
X825Y170D01*
X843Y170D02*
X848Y170D01*
X874Y170D02*
X878Y170D01*
X945Y170D02*
X952Y170D01*
X0Y169D02*
X7Y169D01*
X87Y169D02*
X99Y169D01*
X117Y169D02*
X121Y169D01*
X137Y169D02*
X141Y169D01*
X153Y169D02*
X177Y169D01*
X225Y169D02*
X229Y169D01*
X245Y169D02*
X249Y169D01*
X263Y169D02*
X283Y169D01*
X297Y169D02*
X305Y169D01*
X317Y169D02*
X321Y169D01*
X376Y169D02*
X391Y169D01*
X405Y169D02*
X413Y169D01*
X425Y169D02*
X429Y169D01*
X443Y169D02*
X459Y169D01*
X521Y169D02*
X535Y169D01*
X549Y169D02*
X557Y169D01*
X569Y169D02*
X573Y169D01*
X587Y169D02*
X603Y169D01*
X658Y169D02*
X681Y169D01*
X696Y169D02*
X711Y169D01*
X739Y169D02*
X744Y169D01*
X802Y169D02*
X825Y169D01*
X844Y169D02*
X859Y169D01*
X874Y169D02*
X878Y169D01*
X945Y169D02*
X952Y169D01*
X0Y168D02*
X7Y168D01*
X87Y168D02*
X98Y168D01*
X117Y168D02*
X121Y168D01*
X137Y168D02*
X141Y168D01*
X153Y168D02*
X177Y168D01*
X225Y168D02*
X229Y168D01*
X245Y168D02*
X249Y168D01*
X261Y168D02*
X284Y168D01*
X297Y168D02*
X304Y168D01*
X317Y168D02*
X321Y168D01*
X377Y168D02*
X392Y168D01*
X405Y168D02*
X412Y168D01*
X425Y168D02*
X429Y168D01*
X442Y168D02*
X458Y168D01*
X521Y168D02*
X537Y168D01*
X549Y168D02*
X557Y168D01*
X569Y168D02*
X573Y168D01*
X586Y168D02*
X603Y168D01*
X658Y168D02*
X681Y168D01*
X694Y168D02*
X711Y168D01*
X739Y168D02*
X744Y168D01*
X802Y168D02*
X825Y168D01*
X844Y168D02*
X861Y168D01*
X874Y168D02*
X878Y168D01*
X945Y168D02*
X952Y168D01*
X0Y167D02*
X7Y167D01*
X88Y167D02*
X97Y167D01*
X117Y167D02*
X121Y167D01*
X137Y167D02*
X141Y167D01*
X153Y167D02*
X177Y167D01*
X225Y167D02*
X229Y167D01*
X245Y167D02*
X249Y167D01*
X261Y167D02*
X285Y167D01*
X297Y167D02*
X304Y167D01*
X317Y167D02*
X321Y167D01*
X378Y167D02*
X393Y167D01*
X405Y167D02*
X412Y167D01*
X425Y167D02*
X429Y167D01*
X441Y167D02*
X458Y167D01*
X522Y167D02*
X537Y167D01*
X549Y167D02*
X556Y167D01*
X569Y167D02*
X573Y167D01*
X585Y167D02*
X602Y167D01*
X658Y167D02*
X680Y167D01*
X694Y167D02*
X710Y167D01*
X739Y167D02*
X744Y167D01*
X802Y167D02*
X824Y167D01*
X845Y167D02*
X861Y167D01*
X874Y167D02*
X878Y167D01*
X945Y167D02*
X952Y167D01*
X0Y166D02*
X7Y166D01*
X89Y166D02*
X97Y166D01*
X117Y166D02*
X121Y166D01*
X137Y166D02*
X140Y166D01*
X153Y166D02*
X177Y166D01*
X225Y166D02*
X229Y166D01*
X245Y166D02*
X249Y166D01*
X261Y166D02*
X285Y166D01*
X297Y166D02*
X303Y166D01*
X317Y166D02*
X321Y166D01*
X379Y166D02*
X393Y166D01*
X405Y166D02*
X412Y166D01*
X425Y166D02*
X429Y166D01*
X441Y166D02*
X457Y166D01*
X523Y166D02*
X537Y166D01*
X549Y166D02*
X556Y166D01*
X569Y166D02*
X573Y166D01*
X585Y166D02*
X601Y166D01*
X659Y166D02*
X679Y166D01*
X694Y166D02*
X709Y166D01*
X740Y166D02*
X743Y166D01*
X803Y166D02*
X823Y166D01*
X846Y166D02*
X861Y166D01*
X874Y166D02*
X878Y166D01*
X945Y166D02*
X952Y166D01*
X0Y165D02*
X7Y165D01*
X90Y165D02*
X95Y165D01*
X117Y165D02*
X120Y165D01*
X137Y165D02*
X140Y165D01*
X153Y165D02*
X180Y165D01*
X226Y165D02*
X228Y165D01*
X245Y165D02*
X248Y165D01*
X262Y165D02*
X284Y165D01*
X297Y165D02*
X303Y165D01*
X317Y165D02*
X320Y165D01*
X380Y165D02*
X392Y165D01*
X405Y165D02*
X411Y165D01*
X426Y165D02*
X428Y165D01*
X442Y165D02*
X455Y165D01*
X524Y165D02*
X536Y165D01*
X549Y165D02*
X555Y165D01*
X570Y165D02*
X572Y165D01*
X586Y165D02*
X600Y165D01*
X660Y165D02*
X678Y165D01*
X694Y165D02*
X708Y165D01*
X740Y165D02*
X743Y165D01*
X782Y165D02*
X790Y165D01*
X804Y165D02*
X822Y165D01*
X847Y165D02*
X861Y165D01*
X874Y165D02*
X877Y165D01*
X945Y165D02*
X952Y165D01*
X0Y164D02*
X7Y164D01*
X171Y164D02*
X180Y164D01*
X781Y164D02*
X790Y164D01*
X945Y164D02*
X952Y164D01*
X0Y163D02*
X7Y163D01*
X171Y163D02*
X180Y163D01*
X781Y163D02*
X790Y163D01*
X945Y163D02*
X952Y163D01*
X0Y162D02*
X7Y162D01*
X171Y162D02*
X180Y162D01*
X781Y162D02*
X790Y162D01*
X945Y162D02*
X952Y162D01*
X0Y161D02*
X7Y161D01*
X171Y161D02*
X180Y161D01*
X781Y161D02*
X790Y161D01*
X945Y161D02*
X952Y161D01*
X0Y160D02*
X7Y160D01*
X171Y160D02*
X180Y160D01*
X781Y160D02*
X790Y160D01*
X945Y160D02*
X952Y160D01*
X0Y159D02*
X7Y159D01*
X171Y159D02*
X180Y159D01*
X781Y159D02*
X790Y159D01*
X945Y159D02*
X952Y159D01*
X0Y158D02*
X7Y158D01*
X171Y158D02*
X180Y158D01*
X781Y158D02*
X790Y158D01*
X945Y158D02*
X952Y158D01*
X0Y157D02*
X7Y157D01*
X171Y157D02*
X180Y157D01*
X781Y157D02*
X790Y157D01*
X945Y157D02*
X952Y157D01*
X0Y156D02*
X7Y156D01*
X171Y156D02*
X180Y156D01*
X781Y156D02*
X790Y156D01*
X945Y156D02*
X952Y156D01*
X0Y155D02*
X7Y155D01*
X171Y155D02*
X180Y155D01*
X781Y155D02*
X790Y155D01*
X945Y155D02*
X952Y155D01*
X0Y154D02*
X7Y154D01*
X171Y154D02*
X180Y154D01*
X781Y154D02*
X790Y154D01*
X945Y154D02*
X952Y154D01*
X0Y153D02*
X7Y153D01*
X171Y153D02*
X180Y153D01*
X781Y153D02*
X790Y153D01*
X945Y153D02*
X952Y153D01*
X0Y152D02*
X7Y152D01*
X171Y152D02*
X180Y152D01*
X781Y152D02*
X790Y152D01*
X945Y152D02*
X952Y152D01*
X0Y151D02*
X7Y151D01*
X171Y151D02*
X180Y151D01*
X781Y151D02*
X790Y151D01*
X945Y151D02*
X952Y151D01*
X0Y150D02*
X7Y150D01*
X171Y150D02*
X180Y150D01*
X781Y150D02*
X790Y150D01*
X945Y150D02*
X952Y150D01*
X0Y149D02*
X7Y149D01*
X171Y149D02*
X180Y149D01*
X781Y149D02*
X790Y149D01*
X945Y149D02*
X952Y149D01*
X0Y148D02*
X7Y148D01*
X171Y148D02*
X180Y148D01*
X781Y148D02*
X790Y148D01*
X945Y148D02*
X952Y148D01*
X0Y147D02*
X7Y147D01*
X171Y147D02*
X180Y147D01*
X781Y147D02*
X790Y147D01*
X945Y147D02*
X952Y147D01*
X0Y146D02*
X7Y146D01*
X171Y146D02*
X180Y146D01*
X781Y146D02*
X790Y146D01*
X945Y146D02*
X952Y146D01*
X0Y145D02*
X7Y145D01*
X171Y145D02*
X180Y145D01*
X781Y145D02*
X790Y145D01*
X945Y145D02*
X952Y145D01*
X0Y144D02*
X7Y144D01*
X171Y144D02*
X180Y144D01*
X781Y144D02*
X790Y144D01*
X945Y144D02*
X952Y144D01*
X0Y143D02*
X7Y143D01*
X171Y143D02*
X180Y143D01*
X781Y143D02*
X790Y143D01*
X945Y143D02*
X952Y143D01*
X0Y142D02*
X7Y142D01*
X171Y142D02*
X180Y142D01*
X781Y142D02*
X790Y142D01*
X945Y142D02*
X952Y142D01*
X0Y141D02*
X7Y141D01*
X171Y141D02*
X180Y141D01*
X781Y141D02*
X790Y141D01*
X945Y141D02*
X952Y141D01*
X0Y140D02*
X7Y140D01*
X171Y140D02*
X180Y140D01*
X781Y140D02*
X790Y140D01*
X945Y140D02*
X952Y140D01*
X0Y139D02*
X7Y139D01*
X171Y139D02*
X180Y139D01*
X781Y139D02*
X790Y139D01*
X945Y139D02*
X952Y139D01*
X0Y138D02*
X7Y138D01*
X171Y138D02*
X180Y138D01*
X781Y138D02*
X790Y138D01*
X945Y138D02*
X952Y138D01*
X0Y137D02*
X7Y137D01*
X171Y137D02*
X180Y137D01*
X781Y137D02*
X790Y137D01*
X945Y137D02*
X952Y137D01*
X0Y136D02*
X7Y136D01*
X171Y136D02*
X180Y136D01*
X781Y136D02*
X790Y136D01*
X945Y136D02*
X952Y136D01*
X0Y135D02*
X7Y135D01*
X171Y135D02*
X180Y135D01*
X781Y135D02*
X790Y135D01*
X945Y135D02*
X952Y135D01*
X0Y134D02*
X7Y134D01*
X171Y134D02*
X180Y134D01*
X781Y134D02*
X790Y134D01*
X945Y134D02*
X952Y134D01*
X0Y133D02*
X7Y133D01*
X171Y133D02*
X180Y133D01*
X781Y133D02*
X790Y133D01*
X945Y133D02*
X952Y133D01*
X0Y132D02*
X7Y132D01*
X171Y132D02*
X180Y132D01*
X781Y132D02*
X790Y132D01*
X945Y132D02*
X952Y132D01*
X0Y131D02*
X7Y131D01*
X171Y131D02*
X180Y131D01*
X781Y131D02*
X790Y131D01*
X945Y131D02*
X952Y131D01*
X0Y130D02*
X7Y130D01*
X171Y130D02*
X180Y130D01*
X781Y130D02*
X790Y130D01*
X945Y130D02*
X952Y130D01*
X0Y129D02*
X7Y129D01*
X171Y129D02*
X180Y129D01*
X781Y129D02*
X790Y129D01*
X945Y129D02*
X952Y129D01*
X0Y128D02*
X7Y128D01*
X171Y128D02*
X180Y128D01*
X781Y128D02*
X790Y128D01*
X945Y128D02*
X952Y128D01*
X0Y127D02*
X7Y127D01*
X171Y127D02*
X180Y127D01*
X781Y127D02*
X790Y127D01*
X945Y127D02*
X952Y127D01*
X0Y126D02*
X7Y126D01*
X171Y126D02*
X180Y126D01*
X781Y126D02*
X790Y126D01*
X945Y126D02*
X952Y126D01*
X0Y125D02*
X7Y125D01*
X171Y125D02*
X180Y125D01*
X781Y125D02*
X790Y125D01*
X945Y125D02*
X952Y125D01*
X0Y124D02*
X7Y124D01*
X171Y124D02*
X180Y124D01*
X781Y124D02*
X790Y124D01*
X945Y124D02*
X952Y124D01*
X0Y123D02*
X7Y123D01*
X171Y123D02*
X180Y123D01*
X781Y123D02*
X790Y123D01*
X945Y123D02*
X952Y123D01*
X0Y122D02*
X7Y122D01*
X171Y122D02*
X180Y122D01*
X781Y122D02*
X790Y122D01*
X945Y122D02*
X952Y122D01*
X0Y121D02*
X7Y121D01*
X171Y121D02*
X180Y121D01*
X781Y121D02*
X790Y121D01*
X945Y121D02*
X952Y121D01*
X0Y120D02*
X7Y120D01*
X171Y120D02*
X180Y120D01*
X781Y120D02*
X790Y120D01*
X945Y120D02*
X952Y120D01*
X0Y119D02*
X7Y119D01*
X171Y119D02*
X180Y119D01*
X781Y119D02*
X790Y119D01*
X945Y119D02*
X952Y119D01*
X0Y118D02*
X7Y118D01*
X171Y118D02*
X180Y118D01*
X781Y118D02*
X790Y118D01*
X945Y118D02*
X952Y118D01*
X0Y117D02*
X7Y117D01*
X171Y117D02*
X180Y117D01*
X781Y117D02*
X790Y117D01*
X945Y117D02*
X952Y117D01*
X0Y116D02*
X7Y116D01*
X171Y116D02*
X180Y116D01*
X781Y116D02*
X790Y116D01*
X945Y116D02*
X952Y116D01*
X0Y115D02*
X7Y115D01*
X171Y115D02*
X180Y115D01*
X781Y115D02*
X790Y115D01*
X945Y115D02*
X952Y115D01*
X0Y114D02*
X7Y114D01*
X171Y114D02*
X180Y114D01*
X781Y114D02*
X790Y114D01*
X945Y114D02*
X952Y114D01*
X0Y113D02*
X7Y113D01*
X171Y113D02*
X180Y113D01*
X781Y113D02*
X790Y113D01*
X945Y113D02*
X952Y113D01*
X0Y112D02*
X7Y112D01*
X171Y112D02*
X180Y112D01*
X781Y112D02*
X790Y112D01*
X945Y112D02*
X952Y112D01*
X0Y111D02*
X7Y111D01*
X171Y111D02*
X180Y111D01*
X781Y111D02*
X790Y111D01*
X945Y111D02*
X952Y111D01*
X0Y110D02*
X7Y110D01*
X171Y110D02*
X180Y110D01*
X781Y110D02*
X790Y110D01*
X945Y110D02*
X952Y110D01*
X0Y109D02*
X7Y109D01*
X171Y109D02*
X180Y109D01*
X781Y109D02*
X790Y109D01*
X945Y109D02*
X952Y109D01*
X0Y108D02*
X7Y108D01*
X171Y108D02*
X180Y108D01*
X781Y108D02*
X790Y108D01*
X945Y108D02*
X952Y108D01*
X0Y107D02*
X7Y107D01*
X171Y107D02*
X180Y107D01*
X781Y107D02*
X790Y107D01*
X945Y107D02*
X952Y107D01*
X0Y106D02*
X7Y106D01*
X171Y106D02*
X180Y106D01*
X781Y106D02*
X790Y106D01*
X945Y106D02*
X952Y106D01*
X0Y105D02*
X7Y105D01*
X171Y105D02*
X180Y105D01*
X781Y105D02*
X790Y105D01*
X945Y105D02*
X952Y105D01*
X0Y104D02*
X7Y104D01*
X171Y104D02*
X180Y104D01*
X781Y104D02*
X790Y104D01*
X945Y104D02*
X952Y104D01*
X0Y103D02*
X7Y103D01*
X171Y103D02*
X180Y103D01*
X781Y103D02*
X790Y103D01*
X945Y103D02*
X952Y103D01*
X0Y102D02*
X7Y102D01*
X171Y102D02*
X180Y102D01*
X781Y102D02*
X790Y102D01*
X945Y102D02*
X952Y102D01*
X0Y101D02*
X7Y101D01*
X171Y101D02*
X180Y101D01*
X781Y101D02*
X790Y101D01*
X945Y101D02*
X952Y101D01*
X0Y100D02*
X7Y100D01*
X171Y100D02*
X180Y100D01*
X781Y100D02*
X790Y100D01*
X945Y100D02*
X952Y100D01*
X0Y99D02*
X7Y99D01*
X171Y99D02*
X180Y99D01*
X781Y99D02*
X790Y99D01*
X945Y99D02*
X952Y99D01*
X0Y98D02*
X7Y98D01*
X171Y98D02*
X180Y98D01*
X781Y98D02*
X790Y98D01*
X945Y98D02*
X952Y98D01*
X0Y97D02*
X7Y97D01*
X171Y97D02*
X180Y97D01*
X781Y97D02*
X790Y97D01*
X945Y97D02*
X952Y97D01*
X0Y96D02*
X7Y96D01*
X171Y96D02*
X180Y96D01*
X781Y96D02*
X790Y96D01*
X945Y96D02*
X952Y96D01*
X0Y95D02*
X7Y95D01*
X171Y95D02*
X180Y95D01*
X781Y95D02*
X790Y95D01*
X945Y95D02*
X952Y95D01*
X0Y94D02*
X7Y94D01*
X171Y94D02*
X180Y94D01*
X781Y94D02*
X790Y94D01*
X945Y94D02*
X952Y94D01*
X0Y93D02*
X7Y93D01*
X171Y93D02*
X180Y93D01*
X781Y93D02*
X790Y93D01*
X945Y93D02*
X952Y93D01*
X0Y92D02*
X7Y92D01*
X171Y92D02*
X180Y92D01*
X781Y92D02*
X790Y92D01*
X945Y92D02*
X952Y92D01*
X0Y91D02*
X7Y91D01*
X171Y91D02*
X180Y91D01*
X781Y91D02*
X790Y91D01*
X945Y91D02*
X952Y91D01*
X0Y90D02*
X7Y90D01*
X171Y90D02*
X180Y90D01*
X781Y90D02*
X790Y90D01*
X945Y90D02*
X952Y90D01*
X0Y89D02*
X7Y89D01*
X171Y89D02*
X180Y89D01*
X781Y89D02*
X790Y89D01*
X945Y89D02*
X952Y89D01*
X0Y88D02*
X7Y88D01*
X171Y88D02*
X180Y88D01*
X781Y88D02*
X790Y88D01*
X945Y88D02*
X952Y88D01*
X0Y87D02*
X7Y87D01*
X171Y87D02*
X180Y87D01*
X781Y87D02*
X790Y87D01*
X945Y87D02*
X952Y87D01*
X0Y86D02*
X7Y86D01*
X171Y86D02*
X180Y86D01*
X781Y86D02*
X790Y86D01*
X945Y86D02*
X952Y86D01*
X0Y85D02*
X7Y85D01*
X171Y85D02*
X180Y85D01*
X781Y85D02*
X790Y85D01*
X945Y85D02*
X952Y85D01*
X0Y84D02*
X7Y84D01*
X171Y84D02*
X180Y84D01*
X781Y84D02*
X790Y84D01*
X945Y84D02*
X952Y84D01*
X0Y83D02*
X7Y83D01*
X171Y83D02*
X180Y83D01*
X781Y83D02*
X790Y83D01*
X945Y83D02*
X952Y83D01*
X0Y82D02*
X7Y82D01*
X171Y82D02*
X180Y82D01*
X781Y82D02*
X790Y82D01*
X945Y82D02*
X952Y82D01*
X0Y81D02*
X7Y81D01*
X171Y81D02*
X180Y81D01*
X781Y81D02*
X790Y81D01*
X945Y81D02*
X952Y81D01*
X0Y80D02*
X7Y80D01*
X171Y80D02*
X180Y80D01*
X781Y80D02*
X790Y80D01*
X945Y80D02*
X952Y80D01*
X0Y79D02*
X7Y79D01*
X171Y79D02*
X180Y79D01*
X781Y79D02*
X790Y79D01*
X945Y79D02*
X952Y79D01*
X0Y78D02*
X7Y78D01*
X171Y78D02*
X180Y78D01*
X781Y78D02*
X790Y78D01*
X945Y78D02*
X952Y78D01*
X0Y77D02*
X7Y77D01*
X171Y77D02*
X180Y77D01*
X781Y77D02*
X790Y77D01*
X945Y77D02*
X952Y77D01*
X0Y76D02*
X7Y76D01*
X171Y76D02*
X180Y76D01*
X781Y76D02*
X790Y76D01*
X945Y76D02*
X952Y76D01*
X0Y75D02*
X7Y75D01*
X171Y75D02*
X180Y75D01*
X781Y75D02*
X790Y75D01*
X945Y75D02*
X952Y75D01*
X0Y74D02*
X7Y74D01*
X171Y74D02*
X180Y74D01*
X781Y74D02*
X790Y74D01*
X945Y74D02*
X952Y74D01*
X0Y73D02*
X7Y73D01*
X171Y73D02*
X180Y73D01*
X781Y73D02*
X790Y73D01*
X945Y73D02*
X952Y73D01*
X0Y72D02*
X7Y72D01*
X171Y72D02*
X180Y72D01*
X781Y72D02*
X790Y72D01*
X945Y72D02*
X952Y72D01*
X0Y71D02*
X7Y71D01*
X171Y71D02*
X180Y71D01*
X781Y71D02*
X790Y71D01*
X945Y71D02*
X952Y71D01*
X0Y70D02*
X7Y70D01*
X171Y70D02*
X180Y70D01*
X781Y70D02*
X790Y70D01*
X945Y70D02*
X952Y70D01*
X0Y69D02*
X7Y69D01*
X171Y69D02*
X180Y69D01*
X781Y69D02*
X790Y69D01*
X945Y69D02*
X952Y69D01*
X0Y68D02*
X7Y68D01*
X171Y68D02*
X180Y68D01*
X781Y68D02*
X790Y68D01*
X945Y68D02*
X952Y68D01*
X0Y67D02*
X7Y67D01*
X171Y67D02*
X180Y67D01*
X781Y67D02*
X790Y67D01*
X945Y67D02*
X952Y67D01*
X0Y66D02*
X7Y66D01*
X171Y66D02*
X180Y66D01*
X781Y66D02*
X790Y66D01*
X945Y66D02*
X952Y66D01*
X0Y65D02*
X7Y65D01*
X171Y65D02*
X180Y65D01*
X781Y65D02*
X790Y65D01*
X945Y65D02*
X952Y65D01*
X0Y64D02*
X7Y64D01*
X171Y64D02*
X180Y64D01*
X781Y64D02*
X790Y64D01*
X945Y64D02*
X952Y64D01*
X0Y63D02*
X7Y63D01*
X171Y63D02*
X180Y63D01*
X781Y63D02*
X790Y63D01*
X945Y63D02*
X952Y63D01*
X0Y62D02*
X7Y62D01*
X171Y62D02*
X180Y62D01*
X781Y62D02*
X790Y62D01*
X945Y62D02*
X952Y62D01*
X0Y61D02*
X7Y61D01*
X171Y61D02*
X180Y61D01*
X781Y61D02*
X790Y61D01*
X945Y61D02*
X952Y61D01*
X0Y60D02*
X7Y60D01*
X171Y60D02*
X180Y60D01*
X781Y60D02*
X790Y60D01*
X945Y60D02*
X952Y60D01*
X0Y59D02*
X7Y59D01*
X171Y59D02*
X180Y59D01*
X781Y59D02*
X790Y59D01*
X945Y59D02*
X952Y59D01*
X0Y58D02*
X7Y58D01*
X171Y58D02*
X180Y58D01*
X781Y58D02*
X790Y58D01*
X945Y58D02*
X952Y58D01*
X0Y57D02*
X7Y57D01*
X171Y57D02*
X180Y57D01*
X781Y57D02*
X790Y57D01*
X945Y57D02*
X952Y57D01*
X0Y56D02*
X7Y56D01*
X171Y56D02*
X180Y56D01*
X781Y56D02*
X790Y56D01*
X945Y56D02*
X952Y56D01*
X0Y55D02*
X7Y55D01*
X171Y55D02*
X180Y55D01*
X781Y55D02*
X790Y55D01*
X945Y55D02*
X952Y55D01*
X0Y54D02*
X7Y54D01*
X171Y54D02*
X180Y54D01*
X781Y54D02*
X790Y54D01*
X945Y54D02*
X952Y54D01*
X0Y53D02*
X7Y53D01*
X171Y53D02*
X180Y53D01*
X781Y53D02*
X790Y53D01*
X945Y53D02*
X952Y53D01*
X0Y52D02*
X7Y52D01*
X171Y52D02*
X180Y52D01*
X781Y52D02*
X790Y52D01*
X945Y52D02*
X952Y52D01*
X0Y51D02*
X7Y51D01*
X171Y51D02*
X180Y51D01*
X781Y51D02*
X790Y51D01*
X945Y51D02*
X952Y51D01*
X0Y50D02*
X7Y50D01*
X171Y50D02*
X180Y50D01*
X781Y50D02*
X790Y50D01*
X945Y50D02*
X952Y50D01*
X0Y49D02*
X7Y49D01*
X171Y49D02*
X180Y49D01*
X781Y49D02*
X790Y49D01*
X945Y49D02*
X952Y49D01*
X0Y48D02*
X7Y48D01*
X171Y48D02*
X180Y48D01*
X781Y48D02*
X790Y48D01*
X945Y48D02*
X952Y48D01*
X0Y47D02*
X7Y47D01*
X171Y47D02*
X180Y47D01*
X781Y47D02*
X790Y47D01*
X945Y47D02*
X952Y47D01*
X0Y46D02*
X7Y46D01*
X171Y46D02*
X180Y46D01*
X781Y46D02*
X790Y46D01*
X945Y46D02*
X952Y46D01*
X0Y45D02*
X7Y45D01*
X171Y45D02*
X180Y45D01*
X781Y45D02*
X790Y45D01*
X945Y45D02*
X952Y45D01*
X0Y44D02*
X7Y44D01*
X171Y44D02*
X180Y44D01*
X781Y44D02*
X790Y44D01*
X945Y44D02*
X952Y44D01*
X0Y43D02*
X7Y43D01*
X171Y43D02*
X180Y43D01*
X781Y43D02*
X790Y43D01*
X945Y43D02*
X952Y43D01*
X0Y42D02*
X7Y42D01*
X171Y42D02*
X180Y42D01*
X781Y42D02*
X790Y42D01*
X945Y42D02*
X952Y42D01*
X0Y41D02*
X7Y41D01*
X171Y41D02*
X180Y41D01*
X781Y41D02*
X790Y41D01*
X945Y41D02*
X952Y41D01*
X0Y40D02*
X7Y40D01*
X171Y40D02*
X180Y40D01*
X781Y40D02*
X790Y40D01*
X945Y40D02*
X952Y40D01*
X0Y39D02*
X7Y39D01*
X171Y39D02*
X180Y39D01*
X781Y39D02*
X790Y39D01*
X945Y39D02*
X952Y39D01*
X0Y38D02*
X7Y38D01*
X171Y38D02*
X180Y38D01*
X781Y38D02*
X790Y38D01*
X945Y38D02*
X952Y38D01*
X0Y37D02*
X7Y37D01*
X171Y37D02*
X180Y37D01*
X781Y37D02*
X790Y37D01*
X945Y37D02*
X952Y37D01*
X0Y36D02*
X7Y36D01*
X171Y36D02*
X180Y36D01*
X781Y36D02*
X790Y36D01*
X945Y36D02*
X952Y36D01*
X0Y35D02*
X7Y35D01*
X171Y35D02*
X180Y35D01*
X781Y35D02*
X790Y35D01*
X945Y35D02*
X952Y35D01*
X0Y34D02*
X7Y34D01*
X171Y34D02*
X180Y34D01*
X781Y34D02*
X790Y34D01*
X945Y34D02*
X952Y34D01*
X0Y33D02*
X7Y33D01*
X171Y33D02*
X180Y33D01*
X781Y33D02*
X790Y33D01*
X945Y33D02*
X952Y33D01*
X0Y32D02*
X7Y32D01*
X171Y32D02*
X180Y32D01*
X781Y32D02*
X790Y32D01*
X945Y32D02*
X952Y32D01*
X0Y31D02*
X7Y31D01*
X171Y31D02*
X180Y31D01*
X781Y31D02*
X790Y31D01*
X945Y31D02*
X952Y31D01*
X0Y30D02*
X7Y30D01*
X171Y30D02*
X180Y30D01*
X781Y30D02*
X790Y30D01*
X945Y30D02*
X952Y30D01*
X0Y29D02*
X7Y29D01*
X171Y29D02*
X180Y29D01*
X781Y29D02*
X790Y29D01*
X945Y29D02*
X952Y29D01*
X0Y28D02*
X7Y28D01*
X171Y28D02*
X180Y28D01*
X781Y28D02*
X790Y28D01*
X945Y28D02*
X952Y28D01*
X0Y27D02*
X7Y27D01*
X171Y27D02*
X180Y27D01*
X781Y27D02*
X790Y27D01*
X945Y27D02*
X952Y27D01*
X0Y26D02*
X7Y26D01*
X171Y26D02*
X180Y26D01*
X781Y26D02*
X790Y26D01*
X945Y26D02*
X952Y26D01*
X0Y25D02*
X7Y25D01*
X171Y25D02*
X180Y25D01*
X781Y25D02*
X790Y25D01*
X945Y25D02*
X952Y25D01*
X0Y24D02*
X7Y24D01*
X171Y24D02*
X180Y24D01*
X781Y24D02*
X790Y24D01*
X945Y24D02*
X952Y24D01*
X0Y23D02*
X7Y23D01*
X171Y23D02*
X180Y23D01*
X781Y23D02*
X790Y23D01*
X945Y23D02*
X952Y23D01*
X0Y22D02*
X7Y22D01*
X171Y22D02*
X180Y22D01*
X781Y22D02*
X790Y22D01*
X945Y22D02*
X952Y22D01*
X0Y21D02*
X7Y21D01*
X171Y21D02*
X180Y21D01*
X781Y21D02*
X790Y21D01*
X945Y21D02*
X952Y21D01*
X0Y20D02*
X7Y20D01*
X171Y20D02*
X180Y20D01*
X781Y20D02*
X790Y20D01*
X945Y20D02*
X952Y20D01*
X0Y19D02*
X7Y19D01*
X171Y19D02*
X180Y19D01*
X781Y19D02*
X790Y19D01*
X945Y19D02*
X952Y19D01*
X0Y18D02*
X7Y18D01*
X171Y18D02*
X180Y18D01*
X781Y18D02*
X790Y18D01*
X945Y18D02*
X952Y18D01*
X0Y17D02*
X7Y17D01*
X171Y17D02*
X180Y17D01*
X781Y17D02*
X790Y17D01*
X945Y17D02*
X952Y17D01*
X0Y16D02*
X7Y16D01*
X171Y16D02*
X180Y16D01*
X781Y16D02*
X790Y16D01*
X945Y16D02*
X952Y16D01*
X0Y15D02*
X7Y15D01*
X171Y15D02*
X180Y15D01*
X781Y15D02*
X790Y15D01*
X945Y15D02*
X952Y15D01*
X0Y14D02*
X7Y14D01*
X171Y14D02*
X180Y14D01*
X781Y14D02*
X790Y14D01*
X945Y14D02*
X952Y14D01*
X0Y13D02*
X7Y13D01*
X171Y13D02*
X180Y13D01*
X781Y13D02*
X790Y13D01*
X945Y13D02*
X952Y13D01*
X0Y12D02*
X7Y12D01*
X171Y12D02*
X180Y12D01*
X781Y12D02*
X790Y12D01*
X945Y12D02*
X952Y12D01*
X0Y11D02*
X7Y11D01*
X171Y11D02*
X180Y11D01*
X781Y11D02*
X790Y11D01*
X945Y11D02*
X952Y11D01*
X0Y10D02*
X7Y10D01*
X171Y10D02*
X180Y10D01*
X781Y10D02*
X790Y10D01*
X945Y10D02*
X952Y10D01*
X0Y9D02*
X952Y9D01*
X0Y8D02*
X952Y8D01*
X0Y7D02*
X952Y7D01*
X0Y6D02*
X952Y6D01*
X0Y5D02*
X952Y5D01*
X0Y4D02*
X952Y4D01*
X0Y3D02*
X952Y3D01*
X0Y2D02*
X952Y2D01*
X171Y1D02*
X180Y1D01*
X781Y1D02*
X790Y1D01*
X171Y0D02*
X180Y0D01*
X781Y0D02*
X790Y0D01*
D02*
G04 End of Silk0*
M02*