G04 MADE WITH FRITZING*
G04 WWW.FRITZING.ORG*
G04 DOUBLE SIDED*
G04 HOLES PLATED*
G04 CONTOUR ON CENTER OF CONTOUR VECTOR*
%ASAXBY*%
%FSLAX23Y23*%
%MOIN*%
%OFA0B0*%
%SFA1.0B1.0*%
%ADD10C,0.070000*%
%ADD11C,0.078000*%
%ADD12C,0.075000*%
%ADD13C,0.079370*%
%ADD14R,0.069972X0.070000*%
%ADD15C,0.024000*%
%LNCOPPER0*%
G90*
G70*
G54D10*
X930Y1665D03*
X930Y1565D03*
X930Y1465D03*
X930Y1365D03*
X930Y1265D03*
X930Y1165D03*
X930Y1065D03*
X930Y965D03*
X930Y865D03*
X930Y765D03*
X930Y665D03*
X930Y565D03*
X930Y465D03*
X930Y365D03*
X930Y265D03*
X1530Y1665D03*
X1530Y1565D03*
X1530Y1465D03*
X1530Y1365D03*
X1530Y1265D03*
X1530Y1165D03*
X1530Y1065D03*
X1530Y965D03*
X1530Y865D03*
X1530Y765D03*
X1530Y665D03*
X1530Y565D03*
X1530Y465D03*
X1530Y365D03*
X1530Y265D03*
G54D11*
X1730Y765D03*
X1730Y665D03*
X1730Y565D03*
X674Y2026D03*
X574Y2026D03*
X474Y2026D03*
X674Y1626D03*
X574Y1626D03*
X474Y1626D03*
X730Y265D03*
X630Y265D03*
X730Y365D03*
X630Y365D03*
X430Y265D03*
X330Y265D03*
X430Y365D03*
X330Y365D03*
X430Y465D03*
X330Y465D03*
X730Y465D03*
X630Y465D03*
X1530Y1965D03*
X1430Y1965D03*
G54D12*
X274Y1026D03*
X674Y1026D03*
X274Y1426D03*
X674Y1426D03*
X274Y1826D03*
X674Y1826D03*
G54D13*
X674Y865D03*
X574Y865D03*
X474Y865D03*
X674Y1226D03*
X574Y1226D03*
X474Y1226D03*
G54D12*
X273Y665D03*
X673Y665D03*
G54D14*
X930Y1665D03*
G54D15*
X331Y165D02*
X330Y235D01*
D02*
X150Y465D02*
X300Y465D01*
D02*
X150Y862D02*
X150Y465D01*
D02*
X150Y365D02*
X300Y365D01*
D02*
X150Y310D02*
X150Y365D01*
D02*
X1730Y1867D02*
X1730Y795D01*
D02*
X1129Y1867D02*
X1730Y1867D01*
D02*
X1129Y867D02*
X1129Y1867D01*
D02*
X959Y866D02*
X1129Y867D01*
D02*
X1629Y566D02*
X1630Y1766D01*
D02*
X1630Y1766D02*
X1230Y1766D01*
D02*
X1230Y1766D02*
X1230Y766D01*
D02*
X1230Y766D02*
X959Y765D01*
D02*
X1700Y565D02*
X1629Y566D01*
D02*
X674Y1965D02*
X674Y1996D01*
D02*
X1400Y1965D02*
X674Y1965D01*
D02*
X674Y1996D02*
X674Y1855D01*
D02*
X674Y1797D02*
X674Y1656D01*
D02*
X674Y1596D02*
X674Y1455D01*
D02*
X674Y1397D02*
X674Y1257D01*
D02*
X674Y1195D02*
X674Y1055D01*
D02*
X1430Y1664D02*
X1430Y166D01*
D02*
X1430Y166D02*
X331Y165D01*
D02*
X331Y165D02*
X150Y310D01*
D02*
X150Y310D02*
X129Y1979D01*
D02*
X129Y1979D02*
X230Y2026D01*
D02*
X230Y2026D02*
X443Y2026D01*
D02*
X1501Y1665D02*
X1430Y1664D01*
D02*
X126Y1629D02*
X443Y1626D01*
D02*
X129Y1979D02*
X126Y1629D01*
D02*
X140Y1233D02*
X443Y1227D01*
D02*
X126Y1629D02*
X140Y1233D01*
D02*
X674Y896D02*
X674Y997D01*
D02*
X630Y395D02*
X630Y435D01*
D02*
X630Y295D02*
X630Y335D01*
D02*
X150Y862D02*
X443Y865D01*
D02*
X140Y1233D02*
X150Y862D01*
D02*
X636Y495D02*
X667Y637D01*
D02*
X673Y694D02*
X674Y835D01*
G04 End of Copper0*
M02*