; NON-PLATED HOLES START AT T1
; THROUGH (PLATED) HOLES START AT T100
M48
INCH
T1C0.086614
T100C0.035000
T101C0.036000
T102C0.038000
T103C0.039370
%
T1
X001299Y001653
X018299Y020653
X001299Y020653
X018299Y001653
T100
X006735Y014260
X002735Y018260
X006725Y006653
X002725Y006653
X002735Y014260
X006735Y018260
X006735Y010260
X002735Y010260
T101
X009299Y014653
X009299Y011653
X015299Y012653
X015299Y007653
X015299Y011653
X009299Y002653
X009299Y003653
X015299Y005653
X009299Y008653
X015299Y008653
X009299Y015653
X015299Y016653
X009299Y009653
X009299Y012653
X015299Y009653
X009299Y005653
X015299Y013653
X009299Y004653
X009299Y016653
X009299Y010653
X015299Y006653
X009299Y007653
X015299Y014653
X015299Y015653
X009299Y013653
X015299Y004653
X015299Y010653
X009299Y006653
X015299Y003653
X015299Y002653
T102
X006299Y004653
X004299Y003653
X004735Y020260
X003299Y003653
X004299Y004653
X017299Y005653
X006735Y016260
X005735Y016260
X007299Y004653
X004735Y016260
X017299Y006653
X003299Y004653
X006299Y002653
X017299Y007653
X015299Y019653
X004299Y002653
X005735Y020260
X003299Y002653
X014299Y019653
X007299Y003653
X007299Y002653
X006299Y003653
X006735Y020260
T103
X006739Y008653
X004739Y008653
X005735Y012260
X006735Y012260
X004735Y012260
X005739Y008653
T00
M30
