G04 MADE WITH FRITZING*
G04 WWW.FRITZING.ORG*
G04 DOUBLE SIDED*
G04 HOLES PLATED*
G04 CONTOUR ON CENTER OF CONTOUR VECTOR*
%ASAXBY*%
%FSLAX23Y23*%
%MOIN*%
%OFA0B0*%
%SFA1.0B1.0*%
%ADD10C,0.096614*%
%ADD11C,0.080000*%
%ADD12C,0.088000*%
%ADD13C,0.085000*%
%ADD14C,0.089370*%
%ADD15R,0.079972X0.080000*%
%LNMASK0*%
G90*
G70*
G54D10*
X130Y165D03*
X1830Y165D03*
X130Y2065D03*
X1830Y2065D03*
G54D11*
X930Y1665D03*
X930Y1565D03*
X930Y1465D03*
X930Y1365D03*
X930Y1265D03*
X930Y1165D03*
X930Y1065D03*
X930Y965D03*
X930Y865D03*
X930Y765D03*
X930Y665D03*
X930Y565D03*
X930Y465D03*
X930Y365D03*
X930Y265D03*
X1530Y1665D03*
X1530Y1565D03*
X1530Y1465D03*
X1530Y1365D03*
X1530Y1265D03*
X1530Y1165D03*
X1530Y1065D03*
X1530Y965D03*
X1530Y865D03*
X1530Y765D03*
X1530Y665D03*
X1530Y565D03*
X1530Y465D03*
X1530Y365D03*
X1530Y265D03*
G54D12*
X1730Y765D03*
X1730Y665D03*
X1730Y565D03*
X674Y2026D03*
X574Y2026D03*
X474Y2026D03*
X674Y1626D03*
X574Y1626D03*
X474Y1626D03*
X730Y265D03*
X630Y265D03*
X730Y365D03*
X630Y365D03*
X430Y265D03*
X330Y265D03*
X430Y365D03*
X330Y365D03*
X430Y465D03*
X330Y465D03*
X730Y465D03*
X630Y465D03*
X1530Y1965D03*
X1430Y1965D03*
G54D13*
X274Y1026D03*
X674Y1026D03*
X274Y1426D03*
X674Y1426D03*
X274Y1826D03*
X674Y1826D03*
G54D14*
X674Y865D03*
X574Y865D03*
X474Y865D03*
X674Y1226D03*
X574Y1226D03*
X474Y1226D03*
G54D13*
X273Y665D03*
X673Y665D03*
G54D15*
X930Y1665D03*
G04 End of Mask0*
M02*