G04 MADE WITH FRITZING*
G04 WWW.FRITZING.ORG*
G04 DOUBLE SIDED*
G04 HOLES PLATED*
G04 CONTOUR ON CENTER OF CONTOUR VECTOR*
%ASAXBY*%
%FSLAX23Y23*%
%MOIN*%
%OFA0B0*%
%SFA1.0B1.0*%
%ADD10C,0.078000*%
%ADD11C,0.062992*%
%ADD12C,0.080000*%
%ADD13C,0.075000*%
%ADD14C,0.039370*%
%ADD15C,0.070000*%
%ADD16R,0.078000X0.078000*%
%ADD17R,0.062992X0.062992*%
%ADD18R,0.080000X0.080000*%
%ADD19R,0.069972X0.070000*%
%ADD20C,0.024000*%
%LNCOPPER0*%
G90*
G70*
G54D10*
X1323Y2165D03*
X1323Y2065D03*
X1323Y1965D03*
X1323Y1865D03*
X1323Y1765D03*
X1323Y1665D03*
X1323Y1565D03*
X1323Y1465D03*
G54D11*
X184Y766D03*
X184Y865D03*
G54D12*
X812Y205D03*
X674Y205D03*
X536Y205D03*
X398Y205D03*
X1151Y205D03*
X1013Y205D03*
G54D13*
X184Y1398D03*
X184Y1798D03*
G54D14*
X1423Y565D03*
G54D15*
X423Y1965D03*
X423Y1865D03*
X423Y1765D03*
X423Y1665D03*
X423Y1565D03*
X423Y1465D03*
X423Y1365D03*
X423Y1265D03*
X423Y1165D03*
X423Y1065D03*
X423Y965D03*
X423Y865D03*
X423Y765D03*
X423Y665D03*
X423Y565D03*
X1023Y1965D03*
X1023Y1865D03*
X1023Y1765D03*
X1023Y1665D03*
X1023Y1565D03*
X1023Y1465D03*
X1023Y1365D03*
X1023Y1265D03*
X1023Y1165D03*
X1023Y1065D03*
X1023Y965D03*
X1023Y865D03*
X1023Y765D03*
X1023Y665D03*
X1023Y565D03*
G54D16*
X1323Y2165D03*
G54D17*
X184Y766D03*
G54D18*
X812Y205D03*
X1151Y205D03*
G54D19*
X423Y1965D03*
G54D20*
X323Y365D02*
X511Y224D01*
D02*
X323Y1665D02*
X323Y365D01*
D02*
X394Y1665D02*
X323Y1665D01*
D02*
X423Y2065D02*
X123Y1965D01*
D02*
X123Y365D02*
X371Y221D01*
D02*
X123Y1965D02*
X123Y365D01*
D02*
X994Y1970D02*
X423Y2065D01*
D02*
X567Y205D02*
X643Y205D01*
D02*
X1523Y1565D02*
X1353Y1565D01*
D02*
X1523Y465D02*
X1523Y1565D01*
D02*
X1023Y465D02*
X1523Y465D01*
D02*
X447Y849D02*
X1023Y465D01*
D02*
X1323Y665D02*
X1052Y665D01*
D02*
X1323Y1435D02*
X1323Y665D01*
D02*
X1404Y565D02*
X1052Y565D01*
G04 End of Copper0*
M02*