G04 MADE WITH FRITZING*
G04 WWW.FRITZING.ORG*
G04 DOUBLE SIDED*
G04 HOLES PLATED*
G04 CONTOUR ON CENTER OF CONTOUR VECTOR*
%ASAXBY*%
%FSLAX23Y23*%
%MOIN*%
%OFA0B0*%
%SFA1.0B1.0*%
%ADD10C,0.090000*%
%ADD11C,0.096614*%
%ADD12C,0.084000*%
%ADD13C,0.088740*%
%ADD14C,0.088000*%
%ADD15C,0.080000*%
%ADD16C,0.049370*%
%ADD17R,0.090000X0.090000*%
%ADD18R,0.088000X0.088000*%
%ADD19R,0.079972X0.080000*%
%ADD20R,0.065118X0.069055*%
%ADD21R,0.069055X0.065118*%
%ADD22R,0.001000X0.001000*%
%LNMASK1*%
G90*
G70*
G54D10*
X1655Y940D03*
X1755Y940D03*
X1855Y940D03*
X1955Y940D03*
X2055Y940D03*
X2155Y940D03*
X1655Y418D03*
X1755Y418D03*
X1855Y418D03*
X1955Y418D03*
X2055Y418D03*
X2155Y418D03*
X452Y1276D03*
X452Y1176D03*
X452Y1076D03*
X452Y976D03*
X1655Y678D03*
X1755Y678D03*
X1855Y678D03*
X1955Y678D03*
X2055Y678D03*
X2155Y678D03*
X1655Y1200D03*
X1755Y1200D03*
X1855Y1200D03*
X1955Y1200D03*
X2055Y1200D03*
X2155Y1200D03*
X2452Y426D03*
X2552Y426D03*
X2652Y426D03*
X2752Y426D03*
X2852Y426D03*
X2952Y426D03*
X1655Y1476D03*
X1755Y1476D03*
X1855Y1476D03*
X1955Y1476D03*
X2055Y1476D03*
X2155Y1476D03*
X1655Y1757D03*
X1755Y1757D03*
X1855Y1757D03*
X1955Y1757D03*
X2055Y1757D03*
X2155Y1757D03*
X2452Y686D03*
X2552Y686D03*
X2652Y686D03*
X2752Y686D03*
X2852Y686D03*
X2952Y686D03*
X2452Y1206D03*
X2552Y1206D03*
X2652Y1206D03*
X2752Y1206D03*
X2852Y1206D03*
X2952Y1206D03*
X2452Y946D03*
X2552Y946D03*
X2652Y946D03*
X2752Y946D03*
X2852Y946D03*
X2952Y946D03*
X2454Y1476D03*
X2554Y1476D03*
X2654Y1476D03*
X2754Y1476D03*
X2854Y1476D03*
X2954Y1476D03*
X2452Y1762D03*
X2552Y1762D03*
X2652Y1762D03*
X2752Y1762D03*
X2852Y1762D03*
X2952Y1762D03*
G54D11*
X152Y1376D03*
X3117Y110D03*
X3117Y2249D03*
G54D12*
X495Y2011D03*
X239Y2011D03*
X495Y2189D03*
X239Y2189D03*
X495Y2011D03*
X239Y2011D03*
X495Y2189D03*
X239Y2189D03*
G54D13*
X439Y314D03*
X191Y314D03*
X321Y117D03*
X439Y314D03*
X191Y314D03*
X321Y117D03*
G54D14*
X252Y1876D03*
X352Y1876D03*
X452Y1876D03*
G54D15*
X1352Y375D03*
X1352Y475D03*
X1352Y575D03*
X1352Y675D03*
X1352Y775D03*
X1352Y875D03*
X1352Y975D03*
X1352Y1075D03*
X1352Y1175D03*
X1352Y1275D03*
X1352Y1375D03*
X1352Y1475D03*
X1352Y1575D03*
X1352Y1675D03*
X1352Y1775D03*
X752Y375D03*
X752Y475D03*
X752Y575D03*
X752Y675D03*
X752Y775D03*
X752Y875D03*
X752Y975D03*
X752Y1075D03*
X752Y1175D03*
X752Y1275D03*
X752Y1375D03*
X752Y1475D03*
X752Y1575D03*
X752Y1675D03*
X752Y1775D03*
G54D16*
X152Y576D03*
G54D14*
X1352Y2276D03*
X1252Y2276D03*
X1152Y2276D03*
X1052Y2276D03*
X952Y2276D03*
X852Y2276D03*
G54D16*
X352Y1476D03*
G54D17*
X1655Y940D03*
X1655Y418D03*
X452Y1276D03*
X1655Y678D03*
X1655Y1200D03*
X2452Y426D03*
X1655Y1476D03*
X1655Y1757D03*
X2452Y686D03*
X2452Y1206D03*
X2452Y946D03*
X2454Y1476D03*
X2452Y1762D03*
G54D18*
X252Y1876D03*
G54D19*
X1352Y375D03*
G54D20*
X852Y2076D03*
X933Y2076D03*
X518Y776D03*
X599Y776D03*
X518Y676D03*
X599Y676D03*
G54D21*
X452Y1676D03*
X452Y1756D03*
G54D20*
X1552Y2176D03*
X1633Y2176D03*
X1552Y2276D03*
X1633Y2276D03*
G54D22*
X185Y398D02*
X196Y398D01*
X433Y398D02*
X444Y398D01*
X180Y397D02*
X201Y397D01*
X428Y397D02*
X449Y397D01*
X177Y396D02*
X204Y396D01*
X425Y396D02*
X452Y396D01*
X174Y395D02*
X207Y395D01*
X422Y395D02*
X455Y395D01*
X172Y394D02*
X209Y394D01*
X420Y394D02*
X457Y394D01*
X170Y393D02*
X211Y393D01*
X418Y393D02*
X459Y393D01*
X168Y392D02*
X213Y392D01*
X416Y392D02*
X461Y392D01*
X166Y391D02*
X215Y391D01*
X415Y391D02*
X463Y391D01*
X165Y390D02*
X216Y390D01*
X413Y390D02*
X464Y390D01*
X164Y389D02*
X217Y389D01*
X412Y389D02*
X465Y389D01*
X162Y388D02*
X219Y388D01*
X410Y388D02*
X467Y388D01*
X161Y387D02*
X220Y387D01*
X409Y387D02*
X468Y387D01*
X160Y386D02*
X221Y386D01*
X408Y386D02*
X469Y386D01*
X159Y385D02*
X222Y385D01*
X407Y385D02*
X470Y385D01*
X158Y384D02*
X223Y384D01*
X406Y384D02*
X471Y384D01*
X157Y383D02*
X224Y383D01*
X405Y383D02*
X472Y383D01*
X157Y382D02*
X224Y382D01*
X405Y382D02*
X472Y382D01*
X156Y381D02*
X225Y381D01*
X404Y381D02*
X473Y381D01*
X155Y380D02*
X226Y380D01*
X403Y380D02*
X474Y380D01*
X154Y379D02*
X227Y379D01*
X402Y379D02*
X475Y379D01*
X154Y378D02*
X227Y378D01*
X402Y378D02*
X475Y378D01*
X153Y377D02*
X228Y377D01*
X401Y377D02*
X476Y377D01*
X153Y376D02*
X228Y376D01*
X401Y376D02*
X477Y376D01*
X152Y375D02*
X229Y375D01*
X400Y375D02*
X477Y375D01*
X151Y374D02*
X230Y374D01*
X400Y374D02*
X478Y374D01*
X151Y373D02*
X230Y373D01*
X399Y373D02*
X478Y373D01*
X151Y372D02*
X231Y372D01*
X399Y372D02*
X479Y372D01*
X150Y371D02*
X231Y371D01*
X398Y371D02*
X479Y371D01*
X150Y370D02*
X231Y370D01*
X398Y370D02*
X479Y370D01*
X149Y369D02*
X232Y369D01*
X397Y369D02*
X480Y369D01*
X149Y368D02*
X232Y368D01*
X397Y368D02*
X480Y368D01*
X149Y367D02*
X232Y367D01*
X397Y367D02*
X480Y367D01*
X148Y366D02*
X233Y366D01*
X396Y366D02*
X481Y366D01*
X148Y365D02*
X233Y365D01*
X396Y365D02*
X481Y365D01*
X148Y364D02*
X233Y364D01*
X396Y364D02*
X481Y364D01*
X148Y363D02*
X233Y363D01*
X396Y363D02*
X481Y363D01*
X147Y362D02*
X234Y362D01*
X395Y362D02*
X482Y362D01*
X147Y361D02*
X234Y361D01*
X395Y361D02*
X482Y361D01*
X147Y360D02*
X234Y360D01*
X395Y360D02*
X482Y360D01*
X147Y359D02*
X234Y359D01*
X395Y359D02*
X482Y359D01*
X147Y358D02*
X234Y358D01*
X395Y358D02*
X482Y358D01*
X147Y357D02*
X234Y357D01*
X395Y357D02*
X482Y357D01*
X147Y356D02*
X234Y356D01*
X395Y356D02*
X482Y356D01*
X147Y355D02*
X234Y355D01*
X395Y355D02*
X482Y355D01*
X147Y354D02*
X234Y354D01*
X395Y354D02*
X482Y354D01*
X147Y353D02*
X234Y353D01*
X395Y353D02*
X482Y353D01*
X147Y352D02*
X234Y352D01*
X395Y352D02*
X482Y352D01*
X147Y351D02*
X234Y351D01*
X395Y351D02*
X482Y351D01*
X147Y350D02*
X234Y350D01*
X395Y350D02*
X482Y350D01*
X147Y349D02*
X234Y349D01*
X395Y349D02*
X482Y349D01*
X147Y348D02*
X234Y348D01*
X395Y348D02*
X482Y348D01*
X147Y347D02*
X234Y347D01*
X395Y347D02*
X482Y347D01*
X147Y346D02*
X234Y346D01*
X395Y346D02*
X482Y346D01*
X147Y345D02*
X234Y345D01*
X395Y345D02*
X482Y345D01*
X147Y344D02*
X234Y344D01*
X395Y344D02*
X482Y344D01*
X147Y343D02*
X234Y343D01*
X395Y343D02*
X482Y343D01*
X147Y342D02*
X234Y342D01*
X395Y342D02*
X482Y342D01*
X147Y341D02*
X234Y341D01*
X395Y341D02*
X482Y341D01*
X147Y340D02*
X234Y340D01*
X395Y340D02*
X482Y340D01*
X147Y339D02*
X234Y339D01*
X395Y339D02*
X482Y339D01*
X147Y338D02*
X234Y338D01*
X395Y338D02*
X482Y338D01*
X147Y337D02*
X234Y337D01*
X395Y337D02*
X482Y337D01*
X147Y336D02*
X234Y336D01*
X395Y336D02*
X482Y336D01*
X147Y335D02*
X234Y335D01*
X395Y335D02*
X482Y335D01*
X147Y334D02*
X234Y334D01*
X395Y334D02*
X482Y334D01*
X147Y333D02*
X234Y333D01*
X395Y333D02*
X482Y333D01*
X147Y332D02*
X234Y332D01*
X395Y332D02*
X482Y332D01*
X147Y331D02*
X234Y331D01*
X395Y331D02*
X482Y331D01*
X147Y330D02*
X234Y330D01*
X395Y330D02*
X482Y330D01*
X147Y329D02*
X186Y329D01*
X195Y329D02*
X234Y329D01*
X395Y329D02*
X434Y329D01*
X443Y329D02*
X482Y329D01*
X147Y328D02*
X184Y328D01*
X197Y328D02*
X234Y328D01*
X395Y328D02*
X432Y328D01*
X445Y328D02*
X482Y328D01*
X147Y327D02*
X182Y327D01*
X199Y327D02*
X234Y327D01*
X395Y327D02*
X430Y327D01*
X447Y327D02*
X482Y327D01*
X147Y326D02*
X181Y326D01*
X200Y326D02*
X234Y326D01*
X395Y326D02*
X429Y326D01*
X448Y326D02*
X482Y326D01*
X147Y325D02*
X180Y325D01*
X202Y325D02*
X234Y325D01*
X395Y325D02*
X428Y325D01*
X450Y325D02*
X482Y325D01*
X147Y324D02*
X179Y324D01*
X202Y324D02*
X234Y324D01*
X395Y324D02*
X427Y324D01*
X450Y324D02*
X482Y324D01*
X147Y323D02*
X178Y323D01*
X203Y323D02*
X234Y323D01*
X395Y323D02*
X426Y323D01*
X451Y323D02*
X482Y323D01*
X147Y322D02*
X177Y322D01*
X204Y322D02*
X234Y322D01*
X395Y322D02*
X425Y322D01*
X452Y322D02*
X482Y322D01*
X147Y321D02*
X177Y321D01*
X204Y321D02*
X234Y321D01*
X395Y321D02*
X425Y321D01*
X452Y321D02*
X482Y321D01*
X147Y320D02*
X176Y320D01*
X205Y320D02*
X234Y320D01*
X395Y320D02*
X424Y320D01*
X453Y320D02*
X482Y320D01*
X147Y319D02*
X176Y319D01*
X205Y319D02*
X234Y319D01*
X395Y319D02*
X424Y319D01*
X453Y319D02*
X482Y319D01*
X147Y318D02*
X176Y318D01*
X205Y318D02*
X234Y318D01*
X395Y318D02*
X424Y318D01*
X453Y318D02*
X482Y318D01*
X147Y317D02*
X176Y317D01*
X206Y317D02*
X234Y317D01*
X395Y317D02*
X424Y317D01*
X454Y317D02*
X482Y317D01*
X147Y316D02*
X175Y316D01*
X206Y316D02*
X234Y316D01*
X395Y316D02*
X423Y316D01*
X454Y316D02*
X482Y316D01*
X147Y315D02*
X175Y315D01*
X206Y315D02*
X234Y315D01*
X395Y315D02*
X423Y315D01*
X454Y315D02*
X482Y315D01*
X147Y314D02*
X175Y314D01*
X206Y314D02*
X234Y314D01*
X395Y314D02*
X423Y314D01*
X454Y314D02*
X482Y314D01*
X147Y313D02*
X175Y313D01*
X206Y313D02*
X234Y313D01*
X395Y313D02*
X424Y313D01*
X454Y313D02*
X482Y313D01*
X147Y312D02*
X176Y312D01*
X205Y312D02*
X234Y312D01*
X395Y312D02*
X424Y312D01*
X453Y312D02*
X482Y312D01*
X147Y311D02*
X176Y311D01*
X205Y311D02*
X234Y311D01*
X395Y311D02*
X424Y311D01*
X453Y311D02*
X482Y311D01*
X147Y310D02*
X176Y310D01*
X205Y310D02*
X234Y310D01*
X395Y310D02*
X424Y310D01*
X453Y310D02*
X482Y310D01*
X147Y309D02*
X176Y309D01*
X205Y309D02*
X234Y309D01*
X395Y309D02*
X424Y309D01*
X453Y309D02*
X482Y309D01*
X147Y308D02*
X177Y308D01*
X204Y308D02*
X234Y308D01*
X395Y308D02*
X425Y308D01*
X452Y308D02*
X482Y308D01*
X147Y307D02*
X178Y307D01*
X204Y307D02*
X234Y307D01*
X395Y307D02*
X426Y307D01*
X452Y307D02*
X482Y307D01*
X147Y306D02*
X178Y306D01*
X203Y306D02*
X234Y306D01*
X395Y306D02*
X426Y306D01*
X451Y306D02*
X482Y306D01*
X147Y305D02*
X179Y305D01*
X202Y305D02*
X234Y305D01*
X395Y305D02*
X427Y305D01*
X450Y305D02*
X482Y305D01*
X147Y304D02*
X180Y304D01*
X201Y304D02*
X234Y304D01*
X395Y304D02*
X428Y304D01*
X449Y304D02*
X482Y304D01*
X147Y303D02*
X181Y303D01*
X200Y303D02*
X234Y303D01*
X395Y303D02*
X429Y303D01*
X448Y303D02*
X482Y303D01*
X147Y302D02*
X183Y302D01*
X198Y302D02*
X234Y302D01*
X395Y302D02*
X431Y302D01*
X446Y302D02*
X482Y302D01*
X147Y301D02*
X185Y301D01*
X196Y301D02*
X234Y301D01*
X395Y301D02*
X433Y301D01*
X444Y301D02*
X482Y301D01*
X147Y300D02*
X234Y300D01*
X395Y300D02*
X482Y300D01*
X147Y299D02*
X234Y299D01*
X395Y299D02*
X482Y299D01*
X147Y298D02*
X234Y298D01*
X395Y298D02*
X482Y298D01*
X147Y297D02*
X234Y297D01*
X395Y297D02*
X482Y297D01*
X147Y296D02*
X234Y296D01*
X395Y296D02*
X482Y296D01*
X147Y295D02*
X234Y295D01*
X395Y295D02*
X482Y295D01*
X147Y294D02*
X234Y294D01*
X395Y294D02*
X482Y294D01*
X147Y293D02*
X234Y293D01*
X395Y293D02*
X482Y293D01*
X147Y292D02*
X234Y292D01*
X395Y292D02*
X482Y292D01*
X147Y291D02*
X234Y291D01*
X395Y291D02*
X482Y291D01*
X147Y290D02*
X234Y290D01*
X395Y290D02*
X482Y290D01*
X147Y289D02*
X234Y289D01*
X395Y289D02*
X482Y289D01*
X147Y288D02*
X234Y288D01*
X395Y288D02*
X482Y288D01*
X147Y287D02*
X234Y287D01*
X395Y287D02*
X482Y287D01*
X147Y286D02*
X234Y286D01*
X395Y286D02*
X482Y286D01*
X147Y285D02*
X234Y285D01*
X395Y285D02*
X482Y285D01*
X147Y284D02*
X234Y284D01*
X395Y284D02*
X482Y284D01*
X147Y283D02*
X234Y283D01*
X395Y283D02*
X482Y283D01*
X147Y282D02*
X234Y282D01*
X395Y282D02*
X482Y282D01*
X147Y281D02*
X234Y281D01*
X395Y281D02*
X482Y281D01*
X147Y280D02*
X234Y280D01*
X395Y280D02*
X482Y280D01*
X147Y279D02*
X234Y279D01*
X395Y279D02*
X482Y279D01*
X147Y278D02*
X234Y278D01*
X395Y278D02*
X482Y278D01*
X147Y277D02*
X234Y277D01*
X395Y277D02*
X482Y277D01*
X147Y276D02*
X234Y276D01*
X395Y276D02*
X482Y276D01*
X147Y275D02*
X234Y275D01*
X395Y275D02*
X482Y275D01*
X147Y274D02*
X234Y274D01*
X395Y274D02*
X482Y274D01*
X147Y273D02*
X234Y273D01*
X395Y273D02*
X482Y273D01*
X147Y272D02*
X234Y272D01*
X395Y272D02*
X482Y272D01*
X147Y271D02*
X234Y271D01*
X395Y271D02*
X482Y271D01*
X147Y270D02*
X234Y270D01*
X395Y270D02*
X482Y270D01*
X147Y269D02*
X234Y269D01*
X395Y269D02*
X482Y269D01*
X147Y268D02*
X234Y268D01*
X395Y268D02*
X482Y268D01*
X148Y267D02*
X234Y267D01*
X396Y267D02*
X482Y267D01*
X148Y266D02*
X233Y266D01*
X396Y266D02*
X481Y266D01*
X148Y265D02*
X233Y265D01*
X396Y265D02*
X481Y265D01*
X148Y264D02*
X233Y264D01*
X396Y264D02*
X481Y264D01*
X149Y263D02*
X233Y263D01*
X397Y263D02*
X481Y263D01*
X149Y262D02*
X232Y262D01*
X397Y262D02*
X480Y262D01*
X149Y261D02*
X232Y261D01*
X397Y261D02*
X480Y261D01*
X150Y260D02*
X231Y260D01*
X398Y260D02*
X480Y260D01*
X150Y259D02*
X231Y259D01*
X398Y259D02*
X479Y259D01*
X150Y258D02*
X231Y258D01*
X398Y258D02*
X479Y258D01*
X151Y257D02*
X230Y257D01*
X399Y257D02*
X478Y257D01*
X151Y256D02*
X230Y256D01*
X399Y256D02*
X478Y256D01*
X152Y255D02*
X229Y255D01*
X400Y255D02*
X477Y255D01*
X152Y254D02*
X229Y254D01*
X400Y254D02*
X477Y254D01*
X153Y253D02*
X228Y253D01*
X401Y253D02*
X476Y253D01*
X153Y252D02*
X228Y252D01*
X401Y252D02*
X476Y252D01*
X154Y251D02*
X227Y251D01*
X402Y251D02*
X475Y251D01*
X155Y250D02*
X226Y250D01*
X403Y250D02*
X474Y250D01*
X155Y249D02*
X226Y249D01*
X403Y249D02*
X474Y249D01*
X156Y248D02*
X225Y248D01*
X404Y248D02*
X473Y248D01*
X157Y247D02*
X224Y247D01*
X405Y247D02*
X472Y247D01*
X158Y246D02*
X223Y246D01*
X406Y246D02*
X471Y246D01*
X159Y245D02*
X222Y245D01*
X407Y245D02*
X470Y245D01*
X160Y244D02*
X221Y244D01*
X408Y244D02*
X469Y244D01*
X161Y243D02*
X220Y243D01*
X409Y243D02*
X468Y243D01*
X162Y242D02*
X219Y242D01*
X410Y242D02*
X467Y242D01*
X163Y241D02*
X218Y241D01*
X411Y241D02*
X466Y241D01*
X164Y240D02*
X217Y240D01*
X412Y240D02*
X465Y240D01*
X166Y239D02*
X215Y239D01*
X414Y239D02*
X463Y239D01*
X167Y238D02*
X214Y238D01*
X415Y238D02*
X462Y238D01*
X169Y237D02*
X212Y237D01*
X417Y237D02*
X460Y237D01*
X171Y236D02*
X210Y236D01*
X419Y236D02*
X458Y236D01*
X173Y235D02*
X208Y235D01*
X421Y235D02*
X456Y235D01*
X175Y234D02*
X206Y234D01*
X423Y234D02*
X454Y234D01*
X178Y233D02*
X203Y233D01*
X426Y233D02*
X451Y233D01*
X182Y232D02*
X199Y232D01*
X430Y232D02*
X447Y232D01*
X277Y162D02*
X364Y162D01*
X271Y161D02*
X370Y161D01*
X268Y160D02*
X373Y160D01*
X265Y159D02*
X376Y159D01*
X263Y158D02*
X378Y158D01*
X261Y157D02*
X380Y157D01*
X259Y156D02*
X382Y156D01*
X257Y155D02*
X384Y155D01*
X256Y154D02*
X385Y154D01*
X255Y153D02*
X386Y153D01*
X253Y152D02*
X388Y152D01*
X252Y151D02*
X389Y151D01*
X251Y150D02*
X390Y150D01*
X250Y149D02*
X391Y149D01*
X249Y148D02*
X392Y148D01*
X248Y147D02*
X393Y147D01*
X247Y146D02*
X394Y146D01*
X247Y145D02*
X394Y145D01*
X246Y144D02*
X395Y144D01*
X245Y143D02*
X396Y143D01*
X244Y142D02*
X396Y142D01*
X244Y141D02*
X397Y141D01*
X243Y140D02*
X398Y140D01*
X243Y139D02*
X398Y139D01*
X242Y138D02*
X399Y138D01*
X242Y137D02*
X399Y137D01*
X241Y136D02*
X400Y136D01*
X241Y135D02*
X400Y135D01*
X240Y134D02*
X401Y134D01*
X240Y133D02*
X401Y133D01*
X240Y132D02*
X316Y132D01*
X325Y132D02*
X401Y132D01*
X239Y131D02*
X313Y131D01*
X328Y131D02*
X402Y131D01*
X239Y130D02*
X312Y130D01*
X329Y130D02*
X402Y130D01*
X239Y129D02*
X310Y129D01*
X331Y129D02*
X402Y129D01*
X238Y128D02*
X309Y128D01*
X332Y128D02*
X402Y128D01*
X238Y127D02*
X308Y127D01*
X332Y127D02*
X403Y127D01*
X238Y126D02*
X308Y126D01*
X333Y126D02*
X403Y126D01*
X238Y125D02*
X307Y125D01*
X334Y125D02*
X403Y125D01*
X238Y124D02*
X307Y124D01*
X334Y124D02*
X403Y124D01*
X238Y123D02*
X306Y123D01*
X335Y123D02*
X403Y123D01*
X237Y122D02*
X306Y122D01*
X335Y122D02*
X403Y122D01*
X237Y121D02*
X306Y121D01*
X335Y121D02*
X404Y121D01*
X237Y120D02*
X305Y120D01*
X335Y120D02*
X404Y120D01*
X237Y119D02*
X305Y119D01*
X336Y119D02*
X404Y119D01*
X237Y118D02*
X305Y118D01*
X336Y118D02*
X404Y118D01*
X237Y117D02*
X305Y117D01*
X336Y117D02*
X404Y117D01*
X237Y116D02*
X305Y116D01*
X335Y116D02*
X404Y116D01*
X237Y115D02*
X306Y115D01*
X335Y115D02*
X404Y115D01*
X237Y114D02*
X306Y114D01*
X335Y114D02*
X403Y114D01*
X238Y113D02*
X306Y113D01*
X335Y113D02*
X403Y113D01*
X238Y112D02*
X306Y112D01*
X334Y112D02*
X403Y112D01*
X238Y111D02*
X307Y111D01*
X334Y111D02*
X403Y111D01*
X238Y110D02*
X308Y110D01*
X333Y110D02*
X403Y110D01*
X238Y109D02*
X308Y109D01*
X333Y109D02*
X403Y109D01*
X238Y108D02*
X309Y108D01*
X332Y108D02*
X402Y108D01*
X239Y107D02*
X310Y107D01*
X331Y107D02*
X402Y107D01*
X239Y106D02*
X311Y106D01*
X329Y106D02*
X402Y106D01*
X239Y105D02*
X313Y105D01*
X328Y105D02*
X402Y105D01*
X240Y104D02*
X315Y104D01*
X326Y104D02*
X401Y104D01*
X240Y103D02*
X401Y103D01*
X240Y102D02*
X401Y102D01*
X241Y101D02*
X400Y101D01*
X241Y100D02*
X400Y100D01*
X242Y99D02*
X399Y99D01*
X242Y98D02*
X399Y98D01*
X243Y97D02*
X398Y97D01*
X243Y96D02*
X398Y96D01*
X244Y95D02*
X397Y95D01*
X244Y94D02*
X397Y94D01*
X245Y93D02*
X396Y93D01*
X246Y92D02*
X395Y92D01*
X246Y91D02*
X394Y91D01*
X247Y90D02*
X394Y90D01*
X248Y89D02*
X393Y89D01*
X249Y88D02*
X392Y88D01*
X250Y87D02*
X391Y87D01*
X251Y86D02*
X390Y86D01*
X252Y85D02*
X389Y85D01*
X253Y84D02*
X388Y84D01*
X254Y83D02*
X387Y83D01*
X256Y82D02*
X385Y82D01*
X257Y81D02*
X384Y81D01*
X259Y80D02*
X382Y80D01*
X261Y79D02*
X380Y79D01*
X263Y78D02*
X378Y78D01*
X265Y77D02*
X376Y77D01*
X267Y76D02*
X373Y76D01*
X271Y75D02*
X370Y75D01*
X276Y74D02*
X365Y74D01*
D02*
G04 End of Mask1*
M02*