G04 MADE WITH FRITZING*
G04 WWW.FRITZING.ORG*
G04 DOUBLE SIDED*
G04 HOLES PLATED*
G04 CONTOUR ON CENTER OF CONTOUR VECTOR*
%ASAXBY*%
%FSLAX23Y23*%
%MOIN*%
%OFA0B0*%
%SFA1.0B1.0*%
%ADD10C,0.080000*%
%ADD11C,0.070000*%
%ADD12C,0.078000*%
%ADD13C,0.074000*%
%ADD14C,0.078740*%
%ADD15C,0.039370*%
%ADD16R,0.080000X0.080000*%
%ADD17R,0.069972X0.070000*%
%ADD18R,0.078000X0.078000*%
%ADD19C,0.024000*%
%ADD20R,0.001000X0.001000*%
%LNCOPPER0*%
G90*
G70*
G54D10*
X1655Y940D03*
X1755Y940D03*
X1855Y940D03*
X1955Y940D03*
X2055Y940D03*
X2155Y940D03*
X1655Y418D03*
X1755Y418D03*
X1855Y418D03*
X1955Y418D03*
X2055Y418D03*
X2155Y418D03*
X452Y1276D03*
X452Y1176D03*
X452Y1076D03*
X452Y976D03*
X1655Y678D03*
X1755Y678D03*
X1855Y678D03*
X1955Y678D03*
X2055Y678D03*
X2155Y678D03*
X1655Y1200D03*
X1755Y1200D03*
X1855Y1200D03*
X1955Y1200D03*
X2055Y1200D03*
X2155Y1200D03*
X2452Y426D03*
X2552Y426D03*
X2652Y426D03*
X2752Y426D03*
X2852Y426D03*
X2952Y426D03*
X1655Y1476D03*
X1755Y1476D03*
X1855Y1476D03*
X1955Y1476D03*
X2055Y1476D03*
X2155Y1476D03*
X1655Y1757D03*
X1755Y1757D03*
X1855Y1757D03*
X1955Y1757D03*
X2055Y1757D03*
X2155Y1757D03*
X2452Y686D03*
X2552Y686D03*
X2652Y686D03*
X2752Y686D03*
X2852Y686D03*
X2952Y686D03*
X2452Y1206D03*
X2552Y1206D03*
X2652Y1206D03*
X2752Y1206D03*
X2852Y1206D03*
X2952Y1206D03*
X2452Y946D03*
X2552Y946D03*
X2652Y946D03*
X2752Y946D03*
X2852Y946D03*
X2952Y946D03*
X2454Y1476D03*
X2554Y1476D03*
X2654Y1476D03*
X2754Y1476D03*
X2854Y1476D03*
X2954Y1476D03*
X2452Y1762D03*
X2552Y1762D03*
X2652Y1762D03*
X2752Y1762D03*
X2852Y1762D03*
X2952Y1762D03*
G54D11*
X1352Y375D03*
X1352Y475D03*
X1352Y575D03*
X1352Y675D03*
X1352Y775D03*
X1352Y875D03*
X1352Y975D03*
X1352Y1075D03*
X1352Y1175D03*
X1352Y1275D03*
X1352Y1375D03*
X1352Y1475D03*
X1352Y1575D03*
X1352Y1675D03*
X1352Y1775D03*
X752Y375D03*
X752Y475D03*
X752Y575D03*
X752Y675D03*
X752Y775D03*
X752Y875D03*
X752Y975D03*
X752Y1075D03*
X752Y1175D03*
X752Y1275D03*
X752Y1375D03*
X752Y1475D03*
X752Y1575D03*
X752Y1675D03*
X752Y1775D03*
G54D12*
X1352Y2276D03*
X1252Y2276D03*
X1152Y2276D03*
X1052Y2276D03*
X952Y2276D03*
X852Y2276D03*
G54D13*
X495Y2011D03*
X239Y2011D03*
X495Y2189D03*
X239Y2189D03*
G54D14*
X439Y314D03*
X191Y314D03*
X321Y117D03*
G54D12*
X252Y1876D03*
X352Y1876D03*
X452Y1876D03*
G54D15*
X152Y576D03*
X352Y1476D03*
G54D16*
X1655Y940D03*
X1655Y418D03*
X452Y1276D03*
X1655Y678D03*
X1655Y1200D03*
X2452Y426D03*
X1655Y1476D03*
X1655Y1757D03*
X2452Y686D03*
X2452Y1206D03*
X2452Y946D03*
X2454Y1476D03*
X2452Y1762D03*
G54D17*
X1352Y375D03*
G54D18*
X252Y1876D03*
G54D19*
X2953Y277D02*
X2953Y395D01*
D02*
X2254Y277D02*
X2953Y277D01*
D02*
X2173Y392D02*
X2254Y277D01*
D02*
X2353Y577D02*
X1452Y577D01*
D02*
X1452Y577D02*
X1452Y1375D01*
D02*
X2435Y452D02*
X2353Y577D01*
D02*
X1452Y1375D02*
X1382Y1375D01*
D02*
X2353Y774D02*
X1551Y774D01*
D02*
X1551Y774D02*
X1551Y1477D01*
D02*
X1551Y1477D02*
X1382Y1475D01*
D02*
X2429Y707D02*
X2353Y774D01*
D02*
X2254Y1576D02*
X1551Y1576D01*
D02*
X2254Y951D02*
X2254Y1576D01*
D02*
X1551Y1576D02*
X1382Y1575D01*
D02*
X2421Y947D02*
X2254Y951D01*
D02*
X2353Y1211D02*
X2353Y1576D01*
D02*
X2254Y1675D02*
X1382Y1675D01*
D02*
X2421Y1207D02*
X2353Y1211D01*
D02*
X2353Y1576D02*
X2254Y1675D01*
D02*
X2353Y1675D02*
X2353Y1876D01*
D02*
X2353Y1876D02*
X1654Y1876D01*
D02*
X2453Y1507D02*
X2452Y1576D01*
D02*
X2452Y1576D02*
X2353Y1675D01*
D02*
X1654Y1876D02*
X1380Y1784D01*
D02*
X2452Y1975D02*
X1152Y1975D01*
D02*
X1152Y1975D02*
X778Y1788D01*
D02*
X2452Y1793D02*
X2452Y1975D01*
D02*
X1855Y387D02*
X1851Y174D01*
D02*
X1851Y174D02*
X1251Y174D01*
D02*
X1251Y174D02*
X1251Y577D01*
D02*
X1251Y577D02*
X1331Y655D01*
D02*
X654Y375D02*
X469Y323D01*
D02*
X723Y375D02*
X654Y375D01*
D02*
X654Y577D02*
X732Y496D01*
D02*
X171Y576D02*
X654Y577D01*
D02*
X354Y675D02*
X723Y675D01*
D02*
X354Y1074D02*
X354Y675D01*
D02*
X431Y1153D02*
X354Y1074D01*
D02*
X654Y976D02*
X732Y1054D01*
D02*
X484Y976D02*
X654Y976D01*
D02*
X251Y1477D02*
X345Y1847D01*
D02*
X354Y1177D02*
X251Y1477D01*
D02*
X421Y1176D02*
X354Y1177D01*
D02*
X552Y1876D02*
X552Y1477D01*
D02*
X654Y2177D02*
X552Y1876D01*
D02*
X552Y1477D02*
X726Y1388D01*
D02*
X526Y2187D02*
X654Y2177D01*
D02*
X654Y1975D02*
X654Y1576D01*
D02*
X654Y1576D02*
X732Y1496D01*
D02*
X753Y2074D02*
X654Y1975D01*
D02*
X1354Y2074D02*
X753Y2074D01*
D02*
X1353Y2246D02*
X1354Y2074D01*
D02*
X552Y1375D02*
X369Y1467D01*
D02*
X732Y1196D02*
X552Y1375D01*
D02*
X950Y2177D02*
X1152Y2177D01*
D02*
X1152Y2177D02*
X1152Y2246D01*
D02*
X952Y2246D02*
X950Y2177D01*
D02*
X2555Y877D02*
X1753Y877D01*
D02*
X1753Y877D02*
X1754Y909D01*
D02*
X2553Y915D02*
X2555Y877D01*
G54D20*
X185Y393D02*
X196Y393D01*
X433Y393D02*
X444Y393D01*
X180Y392D02*
X201Y392D01*
X428Y392D02*
X449Y392D01*
X177Y391D02*
X204Y391D01*
X425Y391D02*
X452Y391D01*
X175Y390D02*
X206Y390D01*
X423Y390D02*
X454Y390D01*
X173Y389D02*
X208Y389D01*
X421Y389D02*
X456Y389D01*
X171Y388D02*
X210Y388D01*
X419Y388D02*
X458Y388D01*
X169Y387D02*
X212Y387D01*
X417Y387D02*
X460Y387D01*
X168Y386D02*
X213Y386D01*
X416Y386D02*
X461Y386D01*
X167Y385D02*
X214Y385D01*
X415Y385D02*
X462Y385D01*
X165Y384D02*
X216Y384D01*
X413Y384D02*
X464Y384D01*
X164Y383D02*
X217Y383D01*
X412Y383D02*
X465Y383D01*
X163Y382D02*
X218Y382D01*
X411Y382D02*
X466Y382D01*
X162Y381D02*
X219Y381D01*
X410Y381D02*
X467Y381D01*
X161Y380D02*
X220Y380D01*
X409Y380D02*
X468Y380D01*
X161Y379D02*
X221Y379D01*
X409Y379D02*
X469Y379D01*
X160Y378D02*
X221Y378D01*
X408Y378D02*
X469Y378D01*
X159Y377D02*
X222Y377D01*
X407Y377D02*
X470Y377D01*
X158Y376D02*
X223Y376D01*
X406Y376D02*
X471Y376D01*
X158Y375D02*
X223Y375D01*
X406Y375D02*
X471Y375D01*
X157Y374D02*
X224Y374D01*
X405Y374D02*
X472Y374D01*
X156Y373D02*
X225Y373D01*
X405Y373D02*
X473Y373D01*
X156Y372D02*
X225Y372D01*
X404Y372D02*
X473Y372D01*
X155Y371D02*
X226Y371D01*
X404Y371D02*
X474Y371D01*
X155Y370D02*
X226Y370D01*
X403Y370D02*
X474Y370D01*
X155Y369D02*
X226Y369D01*
X403Y369D02*
X474Y369D01*
X154Y368D02*
X227Y368D01*
X402Y368D02*
X475Y368D01*
X154Y367D02*
X227Y367D01*
X402Y367D02*
X475Y367D01*
X153Y366D02*
X228Y366D01*
X402Y366D02*
X476Y366D01*
X153Y365D02*
X228Y365D01*
X401Y365D02*
X476Y365D01*
X153Y364D02*
X228Y364D01*
X401Y364D02*
X476Y364D01*
X153Y363D02*
X228Y363D01*
X401Y363D02*
X476Y363D01*
X152Y362D02*
X229Y362D01*
X400Y362D02*
X477Y362D01*
X152Y361D02*
X229Y361D01*
X400Y361D02*
X477Y361D01*
X152Y360D02*
X229Y360D01*
X400Y360D02*
X477Y360D01*
X152Y359D02*
X229Y359D01*
X400Y359D02*
X477Y359D01*
X152Y358D02*
X229Y358D01*
X400Y358D02*
X477Y358D01*
X152Y357D02*
X229Y357D01*
X400Y357D02*
X477Y357D01*
X152Y356D02*
X229Y356D01*
X400Y356D02*
X477Y356D01*
X152Y355D02*
X229Y355D01*
X400Y355D02*
X477Y355D01*
X152Y354D02*
X229Y354D01*
X400Y354D02*
X477Y354D01*
X152Y353D02*
X229Y353D01*
X400Y353D02*
X477Y353D01*
X152Y352D02*
X229Y352D01*
X400Y352D02*
X477Y352D01*
X152Y351D02*
X229Y351D01*
X400Y351D02*
X477Y351D01*
X152Y350D02*
X229Y350D01*
X400Y350D02*
X477Y350D01*
X152Y349D02*
X229Y349D01*
X400Y349D02*
X477Y349D01*
X152Y348D02*
X229Y348D01*
X400Y348D02*
X477Y348D01*
X152Y347D02*
X229Y347D01*
X400Y347D02*
X477Y347D01*
X152Y346D02*
X229Y346D01*
X400Y346D02*
X477Y346D01*
X152Y345D02*
X229Y345D01*
X400Y345D02*
X477Y345D01*
X152Y344D02*
X229Y344D01*
X400Y344D02*
X477Y344D01*
X152Y343D02*
X229Y343D01*
X400Y343D02*
X477Y343D01*
X152Y342D02*
X229Y342D01*
X400Y342D02*
X477Y342D01*
X152Y341D02*
X229Y341D01*
X400Y341D02*
X477Y341D01*
X152Y340D02*
X229Y340D01*
X400Y340D02*
X477Y340D01*
X152Y339D02*
X229Y339D01*
X400Y339D02*
X477Y339D01*
X152Y338D02*
X229Y338D01*
X400Y338D02*
X477Y338D01*
X152Y337D02*
X229Y337D01*
X400Y337D02*
X477Y337D01*
X152Y336D02*
X229Y336D01*
X400Y336D02*
X477Y336D01*
X152Y335D02*
X229Y335D01*
X400Y335D02*
X477Y335D01*
X152Y334D02*
X186Y334D01*
X195Y334D02*
X229Y334D01*
X400Y334D02*
X434Y334D01*
X443Y334D02*
X477Y334D01*
X152Y333D02*
X183Y333D01*
X198Y333D02*
X229Y333D01*
X400Y333D02*
X431Y333D01*
X446Y333D02*
X477Y333D01*
X152Y332D02*
X181Y332D01*
X200Y332D02*
X229Y332D01*
X400Y332D02*
X429Y332D01*
X448Y332D02*
X477Y332D01*
X152Y331D02*
X179Y331D01*
X202Y331D02*
X229Y331D01*
X400Y331D02*
X427Y331D01*
X450Y331D02*
X477Y331D01*
X152Y330D02*
X178Y330D01*
X203Y330D02*
X229Y330D01*
X400Y330D02*
X426Y330D01*
X451Y330D02*
X477Y330D01*
X152Y329D02*
X177Y329D01*
X205Y329D02*
X229Y329D01*
X400Y329D02*
X425Y329D01*
X453Y329D02*
X477Y329D01*
X152Y328D02*
X176Y328D01*
X205Y328D02*
X229Y328D01*
X400Y328D02*
X424Y328D01*
X454Y328D02*
X477Y328D01*
X152Y327D02*
X175Y327D01*
X206Y327D02*
X229Y327D01*
X400Y327D02*
X423Y327D01*
X454Y327D02*
X477Y327D01*
X152Y326D02*
X174Y326D01*
X207Y326D02*
X229Y326D01*
X400Y326D02*
X422Y326D01*
X455Y326D02*
X477Y326D01*
X152Y325D02*
X173Y325D01*
X208Y325D02*
X229Y325D01*
X400Y325D02*
X421Y325D01*
X456Y325D02*
X477Y325D01*
X152Y324D02*
X173Y324D01*
X208Y324D02*
X229Y324D01*
X400Y324D02*
X421Y324D01*
X456Y324D02*
X477Y324D01*
X152Y323D02*
X172Y323D01*
X209Y323D02*
X229Y323D01*
X400Y323D02*
X420Y323D01*
X457Y323D02*
X477Y323D01*
X152Y322D02*
X172Y322D01*
X209Y322D02*
X229Y322D01*
X400Y322D02*
X420Y322D01*
X457Y322D02*
X477Y322D01*
X152Y321D02*
X171Y321D01*
X210Y321D02*
X229Y321D01*
X400Y321D02*
X419Y321D01*
X458Y321D02*
X477Y321D01*
X152Y320D02*
X171Y320D01*
X210Y320D02*
X229Y320D01*
X400Y320D02*
X419Y320D01*
X458Y320D02*
X477Y320D01*
X152Y319D02*
X171Y319D01*
X210Y319D02*
X229Y319D01*
X400Y319D02*
X419Y319D01*
X458Y319D02*
X477Y319D01*
X152Y318D02*
X171Y318D01*
X210Y318D02*
X229Y318D01*
X400Y318D02*
X419Y318D01*
X458Y318D02*
X477Y318D01*
X152Y317D02*
X171Y317D01*
X210Y317D02*
X229Y317D01*
X400Y317D02*
X419Y317D01*
X458Y317D02*
X477Y317D01*
X152Y316D02*
X170Y316D01*
X211Y316D02*
X229Y316D01*
X400Y316D02*
X418Y316D01*
X459Y316D02*
X477Y316D01*
X152Y315D02*
X170Y315D01*
X211Y315D02*
X229Y315D01*
X400Y315D02*
X418Y315D01*
X459Y315D02*
X477Y315D01*
X152Y314D02*
X170Y314D01*
X211Y314D02*
X229Y314D01*
X400Y314D02*
X418Y314D01*
X459Y314D02*
X477Y314D01*
X152Y313D02*
X171Y313D01*
X211Y313D02*
X229Y313D01*
X400Y313D02*
X419Y313D01*
X459Y313D02*
X477Y313D01*
X152Y312D02*
X171Y312D01*
X210Y312D02*
X229Y312D01*
X400Y312D02*
X419Y312D01*
X458Y312D02*
X477Y312D01*
X152Y311D02*
X171Y311D01*
X210Y311D02*
X229Y311D01*
X400Y311D02*
X419Y311D01*
X458Y311D02*
X477Y311D01*
X152Y310D02*
X171Y310D01*
X210Y310D02*
X229Y310D01*
X400Y310D02*
X419Y310D01*
X458Y310D02*
X477Y310D01*
X152Y309D02*
X171Y309D01*
X210Y309D02*
X229Y309D01*
X400Y309D02*
X419Y309D01*
X458Y309D02*
X477Y309D01*
X152Y308D02*
X172Y308D01*
X209Y308D02*
X229Y308D01*
X400Y308D02*
X420Y308D01*
X457Y308D02*
X477Y308D01*
X152Y307D02*
X172Y307D01*
X209Y307D02*
X229Y307D01*
X400Y307D02*
X420Y307D01*
X457Y307D02*
X477Y307D01*
X152Y306D02*
X172Y306D01*
X209Y306D02*
X229Y306D01*
X400Y306D02*
X421Y306D01*
X457Y306D02*
X477Y306D01*
X152Y305D02*
X173Y305D01*
X208Y305D02*
X229Y305D01*
X400Y305D02*
X421Y305D01*
X456Y305D02*
X477Y305D01*
X152Y304D02*
X174Y304D01*
X207Y304D02*
X229Y304D01*
X400Y304D02*
X422Y304D01*
X455Y304D02*
X477Y304D01*
X152Y303D02*
X174Y303D01*
X207Y303D02*
X229Y303D01*
X400Y303D02*
X422Y303D01*
X455Y303D02*
X477Y303D01*
X152Y302D02*
X175Y302D01*
X206Y302D02*
X229Y302D01*
X400Y302D02*
X423Y302D01*
X454Y302D02*
X477Y302D01*
X152Y301D02*
X176Y301D01*
X205Y301D02*
X229Y301D01*
X400Y301D02*
X424Y301D01*
X453Y301D02*
X477Y301D01*
X152Y300D02*
X177Y300D01*
X204Y300D02*
X229Y300D01*
X400Y300D02*
X425Y300D01*
X452Y300D02*
X477Y300D01*
X152Y299D02*
X178Y299D01*
X203Y299D02*
X229Y299D01*
X400Y299D02*
X426Y299D01*
X451Y299D02*
X477Y299D01*
X152Y298D02*
X180Y298D01*
X201Y298D02*
X229Y298D01*
X400Y298D02*
X428Y298D01*
X449Y298D02*
X477Y298D01*
X152Y297D02*
X182Y297D01*
X199Y297D02*
X229Y297D01*
X400Y297D02*
X430Y297D01*
X447Y297D02*
X477Y297D01*
X152Y296D02*
X184Y296D01*
X197Y296D02*
X229Y296D01*
X400Y296D02*
X432Y296D01*
X445Y296D02*
X477Y296D01*
X152Y295D02*
X229Y295D01*
X400Y295D02*
X477Y295D01*
X152Y294D02*
X229Y294D01*
X400Y294D02*
X477Y294D01*
X152Y293D02*
X229Y293D01*
X400Y293D02*
X477Y293D01*
X152Y292D02*
X229Y292D01*
X400Y292D02*
X477Y292D01*
X152Y291D02*
X229Y291D01*
X400Y291D02*
X477Y291D01*
X152Y290D02*
X229Y290D01*
X400Y290D02*
X477Y290D01*
X152Y289D02*
X229Y289D01*
X400Y289D02*
X477Y289D01*
X152Y288D02*
X229Y288D01*
X400Y288D02*
X477Y288D01*
X152Y287D02*
X229Y287D01*
X400Y287D02*
X477Y287D01*
X152Y286D02*
X229Y286D01*
X400Y286D02*
X477Y286D01*
X152Y285D02*
X229Y285D01*
X400Y285D02*
X477Y285D01*
X152Y284D02*
X229Y284D01*
X400Y284D02*
X477Y284D01*
X152Y283D02*
X229Y283D01*
X400Y283D02*
X477Y283D01*
X152Y282D02*
X229Y282D01*
X400Y282D02*
X477Y282D01*
X152Y281D02*
X229Y281D01*
X400Y281D02*
X477Y281D01*
X152Y280D02*
X229Y280D01*
X400Y280D02*
X477Y280D01*
X152Y279D02*
X229Y279D01*
X400Y279D02*
X477Y279D01*
X152Y278D02*
X229Y278D01*
X400Y278D02*
X477Y278D01*
X152Y277D02*
X229Y277D01*
X400Y277D02*
X477Y277D01*
X152Y276D02*
X229Y276D01*
X400Y276D02*
X477Y276D01*
X152Y275D02*
X229Y275D01*
X400Y275D02*
X477Y275D01*
X152Y274D02*
X229Y274D01*
X400Y274D02*
X477Y274D01*
X152Y273D02*
X229Y273D01*
X400Y273D02*
X477Y273D01*
X152Y272D02*
X229Y272D01*
X400Y272D02*
X477Y272D01*
X152Y271D02*
X229Y271D01*
X400Y271D02*
X477Y271D01*
X152Y270D02*
X229Y270D01*
X400Y270D02*
X477Y270D01*
X152Y269D02*
X229Y269D01*
X400Y269D02*
X477Y269D01*
X152Y268D02*
X229Y268D01*
X400Y268D02*
X477Y268D01*
X153Y267D02*
X228Y267D01*
X401Y267D02*
X476Y267D01*
X153Y266D02*
X228Y266D01*
X401Y266D02*
X476Y266D01*
X153Y265D02*
X228Y265D01*
X401Y265D02*
X476Y265D01*
X153Y264D02*
X228Y264D01*
X401Y264D02*
X476Y264D01*
X154Y263D02*
X227Y263D01*
X402Y263D02*
X475Y263D01*
X154Y262D02*
X227Y262D01*
X402Y262D02*
X475Y262D01*
X154Y261D02*
X227Y261D01*
X402Y261D02*
X475Y261D01*
X155Y260D02*
X226Y260D01*
X403Y260D02*
X474Y260D01*
X155Y259D02*
X226Y259D01*
X403Y259D02*
X474Y259D01*
X156Y258D02*
X225Y258D01*
X404Y258D02*
X473Y258D01*
X156Y257D02*
X225Y257D01*
X404Y257D02*
X473Y257D01*
X157Y256D02*
X224Y256D01*
X405Y256D02*
X472Y256D01*
X157Y255D02*
X224Y255D01*
X405Y255D02*
X472Y255D01*
X158Y254D02*
X223Y254D01*
X406Y254D02*
X471Y254D01*
X159Y253D02*
X222Y253D01*
X407Y253D02*
X470Y253D01*
X159Y252D02*
X222Y252D01*
X407Y252D02*
X470Y252D01*
X160Y251D02*
X221Y251D01*
X408Y251D02*
X469Y251D01*
X161Y250D02*
X220Y250D01*
X409Y250D02*
X468Y250D01*
X162Y249D02*
X219Y249D01*
X410Y249D02*
X467Y249D01*
X163Y248D02*
X218Y248D01*
X411Y248D02*
X466Y248D01*
X164Y247D02*
X217Y247D01*
X412Y247D02*
X465Y247D01*
X165Y246D02*
X216Y246D01*
X413Y246D02*
X464Y246D01*
X166Y245D02*
X215Y245D01*
X414Y245D02*
X463Y245D01*
X167Y244D02*
X214Y244D01*
X415Y244D02*
X462Y244D01*
X169Y243D02*
X212Y243D01*
X417Y243D02*
X460Y243D01*
X170Y242D02*
X211Y242D01*
X418Y242D02*
X459Y242D01*
X172Y241D02*
X209Y241D01*
X420Y241D02*
X457Y241D01*
X174Y240D02*
X207Y240D01*
X422Y240D02*
X455Y240D01*
X176Y239D02*
X205Y239D01*
X424Y239D02*
X453Y239D01*
X179Y238D02*
X202Y238D01*
X427Y238D02*
X450Y238D01*
X182Y237D02*
X199Y237D01*
X430Y237D02*
X447Y237D01*
X277Y157D02*
X364Y157D01*
X272Y156D02*
X369Y156D01*
X268Y155D02*
X372Y155D01*
X266Y154D02*
X375Y154D01*
X264Y153D02*
X377Y153D01*
X262Y152D02*
X379Y152D01*
X260Y151D02*
X381Y151D01*
X259Y150D02*
X382Y150D01*
X257Y149D02*
X383Y149D01*
X256Y148D02*
X385Y148D01*
X255Y147D02*
X386Y147D01*
X254Y146D02*
X387Y146D01*
X253Y145D02*
X388Y145D01*
X252Y144D02*
X389Y144D01*
X251Y143D02*
X390Y143D01*
X250Y142D02*
X390Y142D01*
X250Y141D02*
X391Y141D01*
X249Y140D02*
X392Y140D01*
X248Y139D02*
X393Y139D01*
X248Y138D02*
X393Y138D01*
X247Y137D02*
X315Y137D01*
X326Y137D02*
X394Y137D01*
X247Y136D02*
X312Y136D01*
X329Y136D02*
X394Y136D01*
X246Y135D02*
X310Y135D01*
X331Y135D02*
X395Y135D01*
X246Y134D02*
X309Y134D01*
X332Y134D02*
X395Y134D01*
X245Y133D02*
X307Y133D01*
X333Y133D02*
X396Y133D01*
X245Y132D02*
X306Y132D01*
X335Y132D02*
X396Y132D01*
X244Y131D02*
X305Y131D01*
X336Y131D02*
X396Y131D01*
X244Y130D02*
X304Y130D01*
X336Y130D02*
X397Y130D01*
X244Y129D02*
X304Y129D01*
X337Y129D02*
X397Y129D01*
X244Y128D02*
X303Y128D01*
X338Y128D02*
X397Y128D01*
X243Y127D02*
X303Y127D01*
X338Y127D02*
X398Y127D01*
X243Y126D02*
X302Y126D01*
X339Y126D02*
X398Y126D01*
X243Y125D02*
X302Y125D01*
X339Y125D02*
X398Y125D01*
X243Y124D02*
X301Y124D01*
X340Y124D02*
X398Y124D01*
X243Y123D02*
X301Y123D01*
X340Y123D02*
X398Y123D01*
X242Y122D02*
X301Y122D01*
X340Y122D02*
X398Y122D01*
X242Y121D02*
X301Y121D01*
X340Y121D02*
X399Y121D01*
X242Y120D02*
X300Y120D01*
X340Y120D02*
X399Y120D01*
X242Y119D02*
X300Y119D01*
X341Y119D02*
X399Y119D01*
X242Y118D02*
X300Y118D01*
X341Y118D02*
X399Y118D01*
X242Y117D02*
X300Y117D01*
X341Y117D02*
X399Y117D01*
X242Y116D02*
X300Y116D01*
X340Y116D02*
X399Y116D01*
X242Y115D02*
X301Y115D01*
X340Y115D02*
X399Y115D01*
X242Y114D02*
X301Y114D01*
X340Y114D02*
X398Y114D01*
X243Y113D02*
X301Y113D01*
X340Y113D02*
X398Y113D01*
X243Y112D02*
X301Y112D01*
X340Y112D02*
X398Y112D01*
X243Y111D02*
X302Y111D01*
X339Y111D02*
X398Y111D01*
X243Y110D02*
X302Y110D01*
X339Y110D02*
X398Y110D01*
X243Y109D02*
X302Y109D01*
X338Y109D02*
X398Y109D01*
X244Y108D02*
X303Y108D01*
X338Y108D02*
X397Y108D01*
X244Y107D02*
X304Y107D01*
X337Y107D02*
X397Y107D01*
X244Y106D02*
X304Y106D01*
X336Y106D02*
X397Y106D01*
X244Y105D02*
X305Y105D01*
X336Y105D02*
X396Y105D01*
X245Y104D02*
X306Y104D01*
X335Y104D02*
X396Y104D01*
X245Y103D02*
X307Y103D01*
X334Y103D02*
X396Y103D01*
X246Y102D02*
X308Y102D01*
X332Y102D02*
X395Y102D01*
X246Y101D02*
X310Y101D01*
X331Y101D02*
X395Y101D01*
X247Y100D02*
X312Y100D01*
X329Y100D02*
X394Y100D01*
X247Y99D02*
X315Y99D01*
X326Y99D02*
X394Y99D01*
X248Y98D02*
X393Y98D01*
X248Y97D02*
X393Y97D01*
X249Y96D02*
X392Y96D01*
X250Y95D02*
X391Y95D01*
X250Y94D02*
X391Y94D01*
X251Y93D02*
X390Y93D01*
X252Y92D02*
X389Y92D01*
X253Y91D02*
X388Y91D01*
X254Y90D02*
X387Y90D01*
X255Y89D02*
X386Y89D01*
X256Y88D02*
X385Y88D01*
X257Y87D02*
X384Y87D01*
X259Y86D02*
X382Y86D01*
X260Y85D02*
X381Y85D01*
X262Y84D02*
X379Y84D01*
X263Y83D02*
X377Y83D01*
X266Y82D02*
X375Y82D01*
X268Y81D02*
X373Y81D01*
X271Y80D02*
X370Y80D01*
X276Y79D02*
X365Y79D01*
D02*
G04 End of Copper0*
M02*