; NON-PLATED HOLES START AT T1
; THROUGH (PLATED) HOLES START AT T100
M48
INCH
T1C0.086614
T100C0.036000
T101C0.039370
T102C0.015748
T103C0.038000
T104C0.040000
%
T1
X031167Y001100
X001524Y013757
X031167Y022486
T100
X013524Y012750
X007524Y015750
X013524Y005750
X007524Y008750
X007524Y012750
X007524Y005750
X013524Y017750
X013524Y014750
X007524Y017750
X013524Y007750
X013524Y011750
X007524Y014750
X013524Y004750
X007524Y007750
X007524Y011750
X007524Y004750
X013524Y016750
X013524Y009750
X013524Y013750
X007524Y016750
X013524Y006750
X007524Y009750
X013524Y010750
X007524Y013750
X013524Y003750
X007524Y006750
X007524Y010750
X007524Y003750
X013524Y015750
X013524Y008750
T101
X004390Y003143
X003209Y001174
X001910Y003143
T102
X001524Y005757
X003524Y014757
T103
X010524Y022757
X008524Y022757
X009524Y022757
X002524Y018757
X003524Y018757
X011524Y022757
X012524Y022757
X013524Y022757
X004524Y018757
T104
X021551Y017570
X029524Y004259
X018551Y004178
X018551Y012000
X019551Y014757
X026524Y012057
X004953Y020113
X027524Y017623
X029524Y009458
X024537Y014757
X021551Y006777
X004953Y021893
X020551Y014757
X029524Y012057
X018551Y017570
X024524Y004259
X026524Y006858
X027537Y014757
X016551Y009400
X024524Y009458
X027524Y004259
X029524Y006858
X016551Y004178
X018551Y006777
X002393Y020113
X016551Y012000
X017551Y014757
X024524Y012057
X019551Y009400
X025524Y017623
X027524Y009458
X002393Y021893
X019551Y004178
X019551Y012000
X020551Y009400
X027524Y012057
X016551Y017570
X028524Y017623
X024524Y006858
X025537Y014757
X020551Y004178
X020551Y012000
X021551Y014757
X019551Y017570
X025524Y004259
X027524Y006858
X016551Y006777
X028537Y014757
X017551Y009400
X025524Y009458
X020551Y017570
X028524Y004259
X019551Y006777
X017551Y004178
X017551Y012000
X018551Y014757
X004524Y009757
X025524Y012057
X026524Y017623
X028524Y009458
X004524Y012757
X020551Y006777
X021551Y009400
X028524Y012057
X004524Y011757
X017551Y017570
X029524Y017623
X025524Y006858
X026537Y014757
X021551Y004178
X021551Y012000
X004524Y010757
X028524Y006858
X026524Y004259
X017551Y006777
X029537Y014757
X016551Y014757
X018551Y009400
X024524Y017623
X026524Y009458
T00
M30
